G04 ================== begin FILE IDENTIFICATION RECORD ==================*
G04 Layout Name:  C:/Users/Liu/Desktop/Stereo/Layout/Stereo.brd*
G04 Film Name:    DRILL*
G04 File Format:  Gerber RS274X*
G04 File Origin:  Cadence Allegro 16.6-P004*
G04 Origin Date:  Wed Oct 15 09:28:21 2014*
G04 *
G04 Layer:  MANUFACTURING/NCLEGEND-1-2*
G04 Layer:  BOARD GEOMETRY/OUTLINE*
G04 *
G04 Offset:    (0.00 0.00)*
G04 Mirror:    No*
G04 Mode:      Positive*
G04 Rotation:  0*
G04 FullContactRelief:  No*
G04 UndefLineWidth:     6.00*
G04 ================== end FILE IDENTIFICATION RECORD ====================*
%FSLAX35Y35*MOIN*%
%IR0*IPPOS*OFA0.00000B0.00000*MIA0B0*SFA1.00000B1.00000*%
%AMMACRO15*
1,1,.006,.025,0.0*
20,1,.006,.025,0.0,.02462,-.004341,0.0*
1,1,.006,.02462,-.004341*
20,1,.006,.02462,-.004341,.023492,-.008551,0.0*
1,1,.006,.023492,-.008551*
20,1,.006,.023492,-.008551,.021651,-.0125,0.0*
1,1,.006,.021651,-.0125*
20,1,.006,.021651,-.0125,.019151,-.01607,0.0*
1,1,.006,.019151,-.01607*
20,1,.006,.019151,-.01607,.01607,-.019151,0.0*
1,1,.006,.01607,-.019151*
20,1,.006,.01607,-.019151,.0125,-.021651,0.0*
1,1,.006,.0125,-.021651*
20,1,.006,.0125,-.021651,.008551,-.023492,0.0*
1,1,.006,.008551,-.023492*
20,1,.006,.008551,-.023492,.004341,-.02462,0.0*
1,1,.006,.004341,-.02462*
20,1,.006,.004341,-.02462,0.0,-.025,0.0*
1,1,.006,0.0,-.025*
20,1,.006,0.0,-.025,-.004341,-.02462,0.0*
1,1,.006,-.004341,-.02462*
20,1,.006,-.004341,-.02462,-.008551,-.023492,0.0*
1,1,.006,-.008551,-.023492*
20,1,.006,-.008551,-.023492,-.0125,-.021651,0.0*
1,1,.006,-.0125,-.021651*
20,1,.006,-.0125,-.021651,-.01607,-.019151,0.0*
1,1,.006,-.01607,-.019151*
20,1,.006,-.01607,-.019151,-.019151,-.01607,0.0*
1,1,.006,-.019151,-.01607*
20,1,.006,-.019151,-.01607,-.021651,-.0125,0.0*
1,1,.006,-.021651,-.0125*
20,1,.006,-.021651,-.0125,-.023492,-.008551,0.0*
1,1,.006,-.023492,-.008551*
20,1,.006,-.023492,-.008551,-.02462,-.004341,0.0*
1,1,.006,-.02462,-.004341*
20,1,.006,-.02462,-.004341,-.025,0.0,0.0*
1,1,.006,-.025,0.0*
20,1,.006,-.025,0.0,-.02462,.004341,0.0*
1,1,.006,-.02462,.004341*
20,1,.006,-.02462,.004341,-.023492,.008551,0.0*
1,1,.006,-.023492,.008551*
20,1,.006,-.023492,.008551,-.021651,.0125,0.0*
1,1,.006,-.021651,.0125*
20,1,.006,-.021651,.0125,-.019151,.01607,0.0*
1,1,.006,-.019151,.01607*
20,1,.006,-.019151,.01607,-.01607,.019151,0.0*
1,1,.006,-.01607,.019151*
20,1,.006,-.01607,.019151,-.0125,.021651,0.0*
1,1,.006,-.0125,.021651*
20,1,.006,-.0125,.021651,-.008551,.023492,0.0*
1,1,.006,-.008551,.023492*
20,1,.006,-.008551,.023492,-.004341,.02462,0.0*
1,1,.006,-.004341,.02462*
20,1,.006,-.004341,.02462,0.0,.025,0.0*
1,1,.006,0.0,.025*
20,1,.006,0.0,.025,.004341,.02462,0.0*
1,1,.006,.004341,.02462*
20,1,.006,.004341,.02462,.008551,.023492,0.0*
1,1,.006,.008551,.023492*
20,1,.006,.008551,.023492,.0125,.021651,0.0*
1,1,.006,.0125,.021651*
20,1,.006,.0125,.021651,.01607,.019151,0.0*
1,1,.006,.01607,.019151*
20,1,.006,.01607,.019151,.019151,.01607,0.0*
1,1,.006,.019151,.01607*
20,1,.006,.019151,.01607,.021651,.0125,0.0*
1,1,.006,.021651,.0125*
20,1,.006,.021651,.0125,.023492,.008551,0.0*
1,1,.006,.023492,.008551*
20,1,.006,.023492,.008551,.02462,.004341,0.0*
1,1,.006,.02462,.004341*
20,1,.006,.02462,.004341,.025,0.0,0.0*
1,1,.006,.025,0.0*
1,1,.006,.0125,0.0*
20,1,.006,.0125,0.0,-.0125,0.0,0.0*
1,1,.006,-.0125,0.0*
1,1,.006,0.0,.0125*
20,1,.006,0.0,.0125,0.0,-.0125,0.0*
1,1,.006,0.0,-.0125*
%
%ADD15MACRO15*%
%AMMACRO12*
1,1,.006,-.022,-.03*
20,1,.006,-.022,-.03,-.022,.03,0.0*
1,1,.006,-.022,.03*
20,1,.006,-.022,.03,-.002,.03,0.0*
1,1,.006,-.002,.03*
20,1,.006,-.002,.03,.006,.027,0.0*
1,1,.006,.006,.027*
20,1,.006,.006,.027,.012,.023,0.0*
1,1,.006,.012,.023*
20,1,.006,.012,.023,.017,.017,0.0*
1,1,.006,.017,.017*
20,1,.006,.017,.017,.021,.01,0.0*
1,1,.006,.021,.01*
20,1,.006,.021,.01,.022,0.0,0.0*
1,1,.006,.022,0.0*
20,1,.006,.022,0.0,.021,-.01,0.0*
1,1,.006,.021,-.01*
20,1,.006,.021,-.01,.017,-.017,0.0*
1,1,.006,.017,-.017*
20,1,.006,.017,-.017,.012,-.023,0.0*
1,1,.006,.012,-.023*
20,1,.006,.012,-.023,.006,-.027,0.0*
1,1,.006,.006,-.027*
20,1,.006,.006,-.027,-.002,-.03,0.0*
1,1,.006,-.002,-.03*
20,1,.006,-.002,-.03,-.022,-.03,0.0*
1,1,.006,-.022,-.03*
%
%ADD12MACRO12*%
%AMMACRO17*
1,1,.006,.059055,0.0*
20,1,.006,.059055,0.0,.058158,-.010255,0.0*
1,1,.006,.058158,-.010255*
20,1,.006,.058158,-.010255,.055494,-.020198,0.0*
1,1,.006,.055494,-.020198*
20,1,.006,.055494,-.020198,.051143,-.029527,0.0*
1,1,.006,.051143,-.029527*
20,1,.006,.051143,-.029527,.045239,-.03796,0.0*
1,1,.006,.045239,-.03796*
20,1,.006,.045239,-.03796,.03796,-.045239,0.0*
1,1,.006,.03796,-.045239*
20,1,.006,.03796,-.045239,.029528,-.051143,0.0*
1,1,.006,.029528,-.051143*
20,1,.006,.029528,-.051143,.020198,-.055494,0.0*
1,1,.006,.020198,-.055494*
20,1,.006,.020198,-.055494,.010255,-.058158,0.0*
1,1,.006,.010255,-.058158*
20,1,.006,.010255,-.058158,0.0,-.059055,0.0*
1,1,.006,0.0,-.059055*
20,1,.006,0.0,-.059055,-.010255,-.058158,0.0*
1,1,.006,-.010255,-.058158*
20,1,.006,-.010255,-.058158,-.020198,-.055494,0.0*
1,1,.006,-.020198,-.055494*
20,1,.006,-.020198,-.055494,-.029527,-.051143,0.0*
1,1,.006,-.029527,-.051143*
20,1,.006,-.029527,-.051143,-.03796,-.045239,0.0*
1,1,.006,-.03796,-.045239*
20,1,.006,-.03796,-.045239,-.045239,-.03796,0.0*
1,1,.006,-.045239,-.03796*
20,1,.006,-.045239,-.03796,-.051143,-.029528,0.0*
1,1,.006,-.051143,-.029528*
20,1,.006,-.051143,-.029528,-.055494,-.020198,0.0*
1,1,.006,-.055494,-.020198*
20,1,.006,-.055494,-.020198,-.058158,-.010255,0.0*
1,1,.006,-.058158,-.010255*
20,1,.006,-.058158,-.010255,-.059055,0.0,0.0*
1,1,.006,-.059055,0.0*
20,1,.006,-.059055,0.0,-.058158,.010255,0.0*
1,1,.006,-.058158,.010255*
20,1,.006,-.058158,.010255,-.055494,.020198,0.0*
1,1,.006,-.055494,.020198*
20,1,.006,-.055494,.020198,-.051143,.029527,0.0*
1,1,.006,-.051143,.029527*
20,1,.006,-.051143,.029527,-.045239,.03796,0.0*
1,1,.006,-.045239,.03796*
20,1,.006,-.045239,.03796,-.03796,.045239,0.0*
1,1,.006,-.03796,.045239*
20,1,.006,-.03796,.045239,-.029528,.051143,0.0*
1,1,.006,-.029528,.051143*
20,1,.006,-.029528,.051143,-.020198,.055494,0.0*
1,1,.006,-.020198,.055494*
20,1,.006,-.020198,.055494,-.010255,.058158,0.0*
1,1,.006,-.010255,.058158*
20,1,.006,-.010255,.058158,0.0,.059055,0.0*
1,1,.006,0.0,.059055*
20,1,.006,0.0,.059055,.010255,.058158,0.0*
1,1,.006,.010255,.058158*
20,1,.006,.010255,.058158,.020198,.055494,0.0*
1,1,.006,.020198,.055494*
20,1,.006,.020198,.055494,.029527,.051143,0.0*
1,1,.006,.029527,.051143*
20,1,.006,.029527,.051143,.03796,.045239,0.0*
1,1,.006,.03796,.045239*
20,1,.006,.03796,.045239,.045239,.03796,0.0*
1,1,.006,.045239,.03796*
20,1,.006,.045239,.03796,.051143,.029528,0.0*
1,1,.006,.051143,.029528*
20,1,.006,.051143,.029528,.055494,.020198,0.0*
1,1,.006,.055494,.020198*
20,1,.006,.055494,.020198,.058158,.010255,0.0*
1,1,.006,.058158,.010255*
20,1,.006,.058158,.010255,.059055,0.0,0.0*
1,1,.006,.059055,0.0*
1,1,.006,-.0246,-.02952*
20,1,.006,-.0246,-.02952,0.0,.02953,0.0*
1,1,.006,0.0,.02953*
20,1,.006,0.0,.02953,.02461,-.02952,0.0*
1,1,.006,.02461,-.02952*
1,1,.006,.01575,-.00885*
20,1,.006,.01575,-.00885,-.01574,-.00885,0.0*
1,1,.006,-.01574,-.00885*
%
%ADD17MACRO17*%
%AMMACRO22*
1,1,.006,.02067,0.0*
20,1,.006,.02067,0.0,.020356,-.003589,0.0*
1,1,.006,.020356,-.003589*
20,1,.006,.020356,-.003589,.019423,-.00707,0.0*
1,1,.006,.019423,-.00707*
20,1,.006,.019423,-.00707,.017901,-.010335,0.0*
1,1,.006,.017901,-.010335*
20,1,.006,.017901,-.010335,.015834,-.013286,0.0*
1,1,.006,.015834,-.013286*
20,1,.006,.015834,-.013286,.013286,-.015834,0.0*
1,1,.006,.013286,-.015834*
20,1,.006,.013286,-.015834,.010335,-.017901,0.0*
1,1,.006,.010335,-.017901*
20,1,.006,.010335,-.017901,.00707,-.019423,0.0*
1,1,.006,.00707,-.019423*
20,1,.006,.00707,-.019423,.003589,-.020356,0.0*
1,1,.006,.003589,-.020356*
20,1,.006,.003589,-.020356,0.0,-.02067,0.0*
1,1,.006,0.0,-.02067*
20,1,.006,0.0,-.02067,-.003589,-.020356,0.0*
1,1,.006,-.003589,-.020356*
20,1,.006,-.003589,-.020356,-.00707,-.019423,0.0*
1,1,.006,-.00707,-.019423*
20,1,.006,-.00707,-.019423,-.010335,-.017901,0.0*
1,1,.006,-.010335,-.017901*
20,1,.006,-.010335,-.017901,-.013286,-.015834,0.0*
1,1,.006,-.013286,-.015834*
20,1,.006,-.013286,-.015834,-.015834,-.013286,0.0*
1,1,.006,-.015834,-.013286*
20,1,.006,-.015834,-.013286,-.017901,-.010335,0.0*
1,1,.006,-.017901,-.010335*
20,1,.006,-.017901,-.010335,-.019423,-.00707,0.0*
1,1,.006,-.019423,-.00707*
20,1,.006,-.019423,-.00707,-.020356,-.003589,0.0*
1,1,.006,-.020356,-.003589*
20,1,.006,-.020356,-.003589,-.02067,0.0,0.0*
1,1,.006,-.02067,0.0*
20,1,.006,-.02067,0.0,-.020356,.003589,0.0*
1,1,.006,-.020356,.003589*
20,1,.006,-.020356,.003589,-.019423,.00707,0.0*
1,1,.006,-.019423,.00707*
20,1,.006,-.019423,.00707,-.017901,.010335,0.0*
1,1,.006,-.017901,.010335*
20,1,.006,-.017901,.010335,-.015834,.013286,0.0*
1,1,.006,-.015834,.013286*
20,1,.006,-.015834,.013286,-.013286,.015834,0.0*
1,1,.006,-.013286,.015834*
20,1,.006,-.013286,.015834,-.010335,.017901,0.0*
1,1,.006,-.010335,.017901*
20,1,.006,-.010335,.017901,-.00707,.019423,0.0*
1,1,.006,-.00707,.019423*
20,1,.006,-.00707,.019423,-.003589,.020356,0.0*
1,1,.006,-.003589,.020356*
20,1,.006,-.003589,.020356,0.0,.02067,0.0*
1,1,.006,0.0,.02067*
20,1,.006,0.0,.02067,.003589,.020356,0.0*
1,1,.006,.003589,.020356*
20,1,.006,.003589,.020356,.00707,.019423,0.0*
1,1,.006,.00707,.019423*
20,1,.006,.00707,.019423,.010335,.017901,0.0*
1,1,.006,.010335,.017901*
20,1,.006,.010335,.017901,.013286,.015834,0.0*
1,1,.006,.013286,.015834*
20,1,.006,.013286,.015834,.015834,.013286,0.0*
1,1,.006,.015834,.013286*
20,1,.006,.015834,.013286,.017901,.010335,0.0*
1,1,.006,.017901,.010335*
20,1,.006,.017901,.010335,.019423,.00707,0.0*
1,1,.006,.019423,.00707*
20,1,.006,.019423,.00707,.020356,.003589,0.0*
1,1,.006,.020356,.003589*
20,1,.006,.020356,.003589,.02067,0.0,0.0*
1,1,.006,.02067,0.0*
1,1,.006,.00758,.00862*
20,1,.006,.00758,.00862,.00552,.00965,0.0*
1,1,.006,.00552,.00965*
20,1,.006,.00552,.00965,.00311,.01034,0.0*
1,1,.006,.00311,.01034*
20,1,.006,.00311,.01034,.00035,.01034,0.0*
1,1,.006,.00035,.01034*
20,1,.006,.00035,.01034,-.00275,.00931,0.0*
1,1,.006,-.00275,.00931*
20,1,.006,-.00275,.00931,-.00516,.00758,0.0*
1,1,.006,-.00516,.00758*
20,1,.006,-.00516,.00758,-.00689,.00552,0.0*
1,1,.006,-.00689,.00552*
20,1,.006,-.00689,.00552,-.00826,.00207,0.0*
1,1,.006,-.00826,.00207*
20,1,.006,-.00826,.00207,-.00861,-.00103,0.0*
1,1,.006,-.00861,-.00103*
20,1,.006,-.00861,-.00103,-.00792,-.00413,0.0*
1,1,.006,-.00792,-.00413*
20,1,.006,-.00792,-.00413,-.00689,-.0062,0.0*
1,1,.006,-.00689,-.0062*
20,1,.006,-.00689,-.0062,-.00482,-.00826,0.0*
1,1,.006,-.00482,-.00826*
20,1,.006,-.00482,-.00826,-.00241,-.00964,0.0*
1,1,.006,-.00241,-.00964*
20,1,.006,-.00241,-.00964,0.0,-.01033,0.0*
1,1,.006,0.0,-.01033*
20,1,.006,0.0,-.01033,.00242,-.01033,0.0*
1,1,.006,.00242,-.01033*
20,1,.006,.00242,-.01033,.00483,-.00964,0.0*
1,1,.006,.00483,-.00964*
20,1,.006,.00483,-.00964,.0069,-.00861,0.0*
1,1,.006,.0069,-.00861*
20,1,.006,.0069,-.00861,.00862,-.00723,0.0*
1,1,.006,.00862,-.00723*
%
%ADD22MACRO22*%
%AMMACRO11*
1,1,.006,-.01575,-.0433*
20,1,.006,-.01575,-.0433,-.01575,.0433,0.0*
1,1,.006,-.01575,.0433*
20,1,.006,-.01575,.0433,-.015511,.046035,0.0*
1,1,.006,-.015511,.046035*
20,1,.006,-.015511,.046035,-.0148,.048687,0.0*
1,1,.006,-.0148,.048687*
20,1,.006,-.0148,.048687,-.01364,.051175,0.0*
1,1,.006,-.01364,.051175*
20,1,.006,-.01364,.051175,-.012065,.053424,0.0*
1,1,.006,-.012065,.053424*
20,1,.006,-.012065,.053424,-.010124,.055365,0.0*
1,1,.006,-.010124,.055365*
20,1,.006,-.010124,.055365,-.007875,.05694,0.0*
1,1,.006,-.007875,.05694*
20,1,.006,-.007875,.05694,-.005387,.0581,0.0*
1,1,.006,-.005387,.0581*
20,1,.006,-.005387,.0581,-.002735,.058811,0.0*
1,1,.006,-.002735,.058811*
20,1,.006,-.002735,.058811,0.0,.05905,0.0*
1,1,.006,0.0,.05905*
20,1,.006,0.0,.05905,.002735,.058811,0.0*
1,1,.006,.002735,.058811*
20,1,.006,.002735,.058811,.005387,.0581,0.0*
1,1,.006,.005387,.0581*
20,1,.006,.005387,.0581,.007875,.05694,0.0*
1,1,.006,.007875,.05694*
20,1,.006,.007875,.05694,.010124,.055365,0.0*
1,1,.006,.010124,.055365*
20,1,.006,.010124,.055365,.012065,.053424,0.0*
1,1,.006,.012065,.053424*
20,1,.006,.012065,.053424,.01364,.051175,0.0*
1,1,.006,.01364,.051175*
20,1,.006,.01364,.051175,.0148,.048687,0.0*
1,1,.006,.0148,.048687*
20,1,.006,.0148,.048687,.015511,.046035,0.0*
1,1,.006,.015511,.046035*
20,1,.006,.015511,.046035,.01575,.0433,0.0*
1,1,.006,.01575,.0433*
20,1,.006,.01575,.0433,.01575,-.0433,0.0*
1,1,.006,.01575,-.0433*
20,1,.006,.01575,-.0433,.015511,-.046035,0.0*
1,1,.006,.015511,-.046035*
20,1,.006,.015511,-.046035,.0148,-.048687,0.0*
1,1,.006,.0148,-.048687*
20,1,.006,.0148,-.048687,.01364,-.051175,0.0*
1,1,.006,.01364,-.051175*
20,1,.006,.01364,-.051175,.012065,-.053424,0.0*
1,1,.006,.012065,-.053424*
20,1,.006,.012065,-.053424,.010124,-.055365,0.0*
1,1,.006,.010124,-.055365*
20,1,.006,.010124,-.055365,.007875,-.05694,0.0*
1,1,.006,.007875,-.05694*
20,1,.006,.007875,-.05694,.005387,-.0581,0.0*
1,1,.006,.005387,-.0581*
20,1,.006,.005387,-.0581,.002735,-.058811,0.0*
1,1,.006,.002735,-.058811*
20,1,.006,.002735,-.058811,0.0,-.05905,0.0*
1,1,.006,0.0,-.05905*
20,1,.006,0.0,-.05905,-.002735,-.058811,0.0*
1,1,.006,-.002735,-.058811*
20,1,.006,-.002735,-.058811,-.005387,-.0581,0.0*
1,1,.006,-.005387,-.0581*
20,1,.006,-.005387,-.0581,-.007875,-.05694,0.0*
1,1,.006,-.007875,-.05694*
20,1,.006,-.007875,-.05694,-.010124,-.055365,0.0*
1,1,.006,-.010124,-.055365*
20,1,.006,-.010124,-.055365,-.012065,-.053424,0.0*
1,1,.006,-.012065,-.053424*
20,1,.006,-.012065,-.053424,-.01364,-.051175,0.0*
1,1,.006,-.01364,-.051175*
20,1,.006,-.01364,-.051175,-.0148,-.048687,0.0*
1,1,.006,-.0148,-.048687*
20,1,.006,-.0148,-.048687,-.015511,-.046035,0.0*
1,1,.006,-.015511,-.046035*
20,1,.006,-.015511,-.046035,-.01575,-.0433,0.0*
1,1,.006,-.01575,-.0433*
1,1,.006,0.0,-.00787*
20,1,.006,0.0,-.00787,-.0021,-.00761,0.0*
1,1,.006,-.0021,-.00761*
20,1,.006,-.0021,-.00761,-.00393,-.00656,0.0*
1,1,.006,-.00393,-.00656*
20,1,.006,-.00393,-.00656,-.00551,-.00498,0.0*
1,1,.006,-.00551,-.00498*
20,1,.006,-.00551,-.00498,-.00656,-.00315,0.0*
1,1,.006,-.00656,-.00315*
20,1,.006,-.00656,-.00315,-.00708,-.00105,0.0*
1,1,.006,-.00708,-.00105*
20,1,.006,-.00708,-.00105,-.00708,.00106,0.0*
1,1,.006,-.00708,.00106*
20,1,.006,-.00708,.00106,-.00656,.00316,0.0*
1,1,.006,-.00656,.00316*
20,1,.006,-.00656,.00316,-.00551,.00499,0.0*
1,1,.006,-.00551,.00499*
20,1,.006,-.00551,.00499,-.00393,.00657,0.0*
1,1,.006,-.00393,.00657*
20,1,.006,-.00393,.00657,-.0021,.00762,0.0*
1,1,.006,-.0021,.00762*
20,1,.006,-.0021,.00762,0.0,.00788,0.0*
1,1,.006,0.0,.00788*
20,1,.006,0.0,.00788,.0021,.00762,0.0*
1,1,.006,.0021,.00762*
20,1,.006,.0021,.00762,.00394,.00657,0.0*
1,1,.006,.00394,.00657*
20,1,.006,.00394,.00657,.00552,.00499,0.0*
1,1,.006,.00552,.00499*
20,1,.006,.00552,.00499,.00657,.00316,0.0*
1,1,.006,.00657,.00316*
20,1,.006,.00657,.00316,.00709,.00106,0.0*
1,1,.006,.00709,.00106*
20,1,.006,.00709,.00106,.00709,-.00105,0.0*
1,1,.006,.00709,-.00105*
20,1,.006,.00709,-.00105,.00657,-.00315,0.0*
1,1,.006,.00657,-.00315*
20,1,.006,.00657,-.00315,.00552,-.00498,0.0*
1,1,.006,.00552,-.00498*
20,1,.006,.00552,-.00498,.00394,-.00656,0.0*
1,1,.006,.00394,-.00656*
20,1,.006,.00394,-.00656,.0021,-.00761,0.0*
1,1,.006,.0021,-.00761*
20,1,.006,.0021,-.00761,0.0,-.00787,0.0*
1,1,.006,0.0,-.00787*
%
%ADD11MACRO11*%
%AMMACRO16*
1,1,.006,.017715,0.0*
20,1,.006,.017715,0.0,.017446,-.003076,0.0*
1,1,.006,.017446,-.003076*
20,1,.006,.017446,-.003076,.016647,-.006059,0.0*
1,1,.006,.016647,-.006059*
20,1,.006,.016647,-.006059,.015342,-.008857,0.0*
1,1,.006,.015342,-.008857*
20,1,.006,.015342,-.008857,.01357,-.011387,0.0*
1,1,.006,.01357,-.011387*
20,1,.006,.01357,-.011387,.011387,-.01357,0.0*
1,1,.006,.011387,-.01357*
20,1,.006,.011387,-.01357,.008858,-.015342,0.0*
1,1,.006,.008858,-.015342*
20,1,.006,.008858,-.015342,.006059,-.016647,0.0*
1,1,.006,.006059,-.016647*
20,1,.006,.006059,-.016647,.003076,-.017446,0.0*
1,1,.006,.003076,-.017446*
20,1,.006,.003076,-.017446,0.0,-.017715,0.0*
1,1,.006,0.0,-.017715*
20,1,.006,0.0,-.017715,-.003076,-.017446,0.0*
1,1,.006,-.003076,-.017446*
20,1,.006,-.003076,-.017446,-.006059,-.016647,0.0*
1,1,.006,-.006059,-.016647*
20,1,.006,-.006059,-.016647,-.008857,-.015342,0.0*
1,1,.006,-.008857,-.015342*
20,1,.006,-.008857,-.015342,-.011387,-.01357,0.0*
1,1,.006,-.011387,-.01357*
20,1,.006,-.011387,-.01357,-.01357,-.011387,0.0*
1,1,.006,-.01357,-.011387*
20,1,.006,-.01357,-.011387,-.015342,-.008858,0.0*
1,1,.006,-.015342,-.008858*
20,1,.006,-.015342,-.008858,-.016647,-.006059,0.0*
1,1,.006,-.016647,-.006059*
20,1,.006,-.016647,-.006059,-.017446,-.003076,0.0*
1,1,.006,-.017446,-.003076*
20,1,.006,-.017446,-.003076,-.017715,0.0,0.0*
1,1,.006,-.017715,0.0*
20,1,.006,-.017715,0.0,-.017446,.003076,0.0*
1,1,.006,-.017446,.003076*
20,1,.006,-.017446,.003076,-.016647,.006059,0.0*
1,1,.006,-.016647,.006059*
20,1,.006,-.016647,.006059,-.015342,.008857,0.0*
1,1,.006,-.015342,.008857*
20,1,.006,-.015342,.008857,-.01357,.011387,0.0*
1,1,.006,-.01357,.011387*
20,1,.006,-.01357,.011387,-.011387,.01357,0.0*
1,1,.006,-.011387,.01357*
20,1,.006,-.011387,.01357,-.008858,.015342,0.0*
1,1,.006,-.008858,.015342*
20,1,.006,-.008858,.015342,-.006059,.016647,0.0*
1,1,.006,-.006059,.016647*
20,1,.006,-.006059,.016647,-.003076,.017446,0.0*
1,1,.006,-.003076,.017446*
20,1,.006,-.003076,.017446,0.0,.017715,0.0*
1,1,.006,0.0,.017715*
20,1,.006,0.0,.017715,.003076,.017446,0.0*
1,1,.006,.003076,.017446*
20,1,.006,.003076,.017446,.006059,.016647,0.0*
1,1,.006,.006059,.016647*
20,1,.006,.006059,.016647,.008857,.015342,0.0*
1,1,.006,.008857,.015342*
20,1,.006,.008857,.015342,.011387,.01357,0.0*
1,1,.006,.011387,.01357*
20,1,.006,.011387,.01357,.01357,.011387,0.0*
1,1,.006,.01357,.011387*
20,1,.006,.01357,.011387,.015342,.008858,0.0*
1,1,.006,.015342,.008858*
20,1,.006,.015342,.008858,.016647,.006059,0.0*
1,1,.006,.016647,.006059*
20,1,.006,.016647,.006059,.017446,.003076,0.0*
1,1,.006,.017446,.003076*
20,1,.006,.017446,.003076,.017715,0.0,0.0*
1,1,.006,.017715,0.0*
1,1,.006,-.00737,-.00885*
20,1,.006,-.00737,-.00885,0.0,.00886,0.0*
1,1,.006,0.0,.00886*
20,1,.006,0.0,.00886,.00738,-.00885,0.0*
1,1,.006,.00738,-.00885*
1,1,.006,.00473,-.00265*
20,1,.006,.00473,-.00265,-.00472,-.00265,0.0*
1,1,.006,-.00472,-.00265*
%
%ADD16MACRO16*%
%AMMACRO10*
1,1,.006,-.043305,.01575*
20,1,.006,-.043305,.01575,.043305,.01575,0.0*
1,1,.006,.043305,.01575*
20,1,.006,.043305,.01575,.04604,.015511,0.0*
1,1,.006,.04604,.015511*
20,1,.006,.04604,.015511,.048692,.0148,0.0*
1,1,.006,.048692,.0148*
20,1,.006,.048692,.0148,.05118,.01364,0.0*
1,1,.006,.05118,.01364*
20,1,.006,.05118,.01364,.053429,.012065,0.0*
1,1,.006,.053429,.012065*
20,1,.006,.053429,.012065,.05537,.010124,0.0*
1,1,.006,.05537,.010124*
20,1,.006,.05537,.010124,.056945,.007875,0.0*
1,1,.006,.056945,.007875*
20,1,.006,.056945,.007875,.058105,.005387,0.0*
1,1,.006,.058105,.005387*
20,1,.006,.058105,.005387,.058816,.002735,0.0*
1,1,.006,.058816,.002735*
20,1,.006,.058816,.002735,.059055,0.0,0.0*
1,1,.006,.059055,0.0*
20,1,.006,.059055,0.0,.058816,-.002735,0.0*
1,1,.006,.058816,-.002735*
20,1,.006,.058816,-.002735,.058105,-.005387,0.0*
1,1,.006,.058105,-.005387*
20,1,.006,.058105,-.005387,.056945,-.007875,0.0*
1,1,.006,.056945,-.007875*
20,1,.006,.056945,-.007875,.05537,-.010124,0.0*
1,1,.006,.05537,-.010124*
20,1,.006,.05537,-.010124,.053429,-.012065,0.0*
1,1,.006,.053429,-.012065*
20,1,.006,.053429,-.012065,.05118,-.01364,0.0*
1,1,.006,.05118,-.01364*
20,1,.006,.05118,-.01364,.048692,-.0148,0.0*
1,1,.006,.048692,-.0148*
20,1,.006,.048692,-.0148,.04604,-.015511,0.0*
1,1,.006,.04604,-.015511*
20,1,.006,.04604,-.015511,.043305,-.01575,0.0*
1,1,.006,.043305,-.01575*
20,1,.006,.043305,-.01575,-.043305,-.01575,0.0*
1,1,.006,-.043305,-.01575*
20,1,.006,-.043305,-.01575,-.04604,-.015511,0.0*
1,1,.006,-.04604,-.015511*
20,1,.006,-.04604,-.015511,-.048692,-.0148,0.0*
1,1,.006,-.048692,-.0148*
20,1,.006,-.048692,-.0148,-.05118,-.01364,0.0*
1,1,.006,-.05118,-.01364*
20,1,.006,-.05118,-.01364,-.053429,-.012065,0.0*
1,1,.006,-.053429,-.012065*
20,1,.006,-.053429,-.012065,-.05537,-.010124,0.0*
1,1,.006,-.05537,-.010124*
20,1,.006,-.05537,-.010124,-.056945,-.007875,0.0*
1,1,.006,-.056945,-.007875*
20,1,.006,-.056945,-.007875,-.058105,-.005387,0.0*
1,1,.006,-.058105,-.005387*
20,1,.006,-.058105,-.005387,-.058816,-.002735,0.0*
1,1,.006,-.058816,-.002735*
20,1,.006,-.058816,-.002735,-.059055,0.0,0.0*
1,1,.006,-.059055,0.0*
20,1,.006,-.059055,0.0,-.058816,.002735,0.0*
1,1,.006,-.058816,.002735*
20,1,.006,-.058816,.002735,-.058105,.005387,0.0*
1,1,.006,-.058105,.005387*
20,1,.006,-.058105,.005387,-.056945,.007875,0.0*
1,1,.006,-.056945,.007875*
20,1,.006,-.056945,.007875,-.05537,.010124,0.0*
1,1,.006,-.05537,.010124*
20,1,.006,-.05537,.010124,-.053429,.012065,0.0*
1,1,.006,-.053429,.012065*
20,1,.006,-.053429,.012065,-.05118,.01364,0.0*
1,1,.006,-.05118,.01364*
20,1,.006,-.05118,.01364,-.048692,.0148,0.0*
1,1,.006,-.048692,.0148*
20,1,.006,-.048692,.0148,-.04604,.015511,0.0*
1,1,.006,-.04604,.015511*
20,1,.006,-.04604,.015511,-.043305,.01575,0.0*
1,1,.006,-.043305,.01575*
1,1,.006,0.0,-.00787*
20,1,.006,0.0,-.00787,-.0021,-.00761,0.0*
1,1,.006,-.0021,-.00761*
20,1,.006,-.0021,-.00761,-.00393,-.00656,0.0*
1,1,.006,-.00393,-.00656*
20,1,.006,-.00393,-.00656,-.00551,-.00498,0.0*
1,1,.006,-.00551,-.00498*
20,1,.006,-.00551,-.00498,-.00656,-.00315,0.0*
1,1,.006,-.00656,-.00315*
20,1,.006,-.00656,-.00315,-.00708,-.00105,0.0*
1,1,.006,-.00708,-.00105*
20,1,.006,-.00708,-.00105,-.00708,.00106,0.0*
1,1,.006,-.00708,.00106*
20,1,.006,-.00708,.00106,-.00656,.00316,0.0*
1,1,.006,-.00656,.00316*
20,1,.006,-.00656,.00316,-.00551,.00499,0.0*
1,1,.006,-.00551,.00499*
20,1,.006,-.00551,.00499,-.00393,.00657,0.0*
1,1,.006,-.00393,.00657*
20,1,.006,-.00393,.00657,-.0021,.00762,0.0*
1,1,.006,-.0021,.00762*
20,1,.006,-.0021,.00762,0.0,.00788,0.0*
1,1,.006,0.0,.00788*
20,1,.006,0.0,.00788,.0021,.00762,0.0*
1,1,.006,.0021,.00762*
20,1,.006,.0021,.00762,.00394,.00657,0.0*
1,1,.006,.00394,.00657*
20,1,.006,.00394,.00657,.00552,.00499,0.0*
1,1,.006,.00552,.00499*
20,1,.006,.00552,.00499,.00657,.00316,0.0*
1,1,.006,.00657,.00316*
20,1,.006,.00657,.00316,.00709,.00106,0.0*
1,1,.006,.00709,.00106*
20,1,.006,.00709,.00106,.00709,-.00105,0.0*
1,1,.006,.00709,-.00105*
20,1,.006,.00709,-.00105,.00657,-.00315,0.0*
1,1,.006,.00657,-.00315*
20,1,.006,.00657,-.00315,.00552,-.00498,0.0*
1,1,.006,.00552,-.00498*
20,1,.006,.00552,-.00498,.00394,-.00656,0.0*
1,1,.006,.00394,-.00656*
20,1,.006,.00394,-.00656,.0021,-.00761,0.0*
1,1,.006,.0021,-.00761*
20,1,.006,.0021,-.00761,0.0,-.00787,0.0*
1,1,.006,0.0,-.00787*
%
%ADD10MACRO10*%
%AMMACRO21*
1,1,.006,.00945,0.0*
20,1,.006,.00945,0.0,.009306,-.001641,0.0*
1,1,.006,.009306,-.001641*
20,1,.006,.009306,-.001641,.00888,-.003232,0.0*
1,1,.006,.00888,-.003232*
20,1,.006,.00888,-.003232,.008184,-.004725,0.0*
1,1,.006,.008184,-.004725*
20,1,.006,.008184,-.004725,.007239,-.006074,0.0*
1,1,.006,.007239,-.006074*
20,1,.006,.007239,-.006074,.006074,-.007239,0.0*
1,1,.006,.006074,-.007239*
20,1,.006,.006074,-.007239,.004725,-.008184,0.0*
1,1,.006,.004725,-.008184*
20,1,.006,.004725,-.008184,.003232,-.00888,0.0*
1,1,.006,.003232,-.00888*
20,1,.006,.003232,-.00888,.001641,-.009306,0.0*
1,1,.006,.001641,-.009306*
20,1,.006,.001641,-.009306,0.0,-.00945,0.0*
1,1,.006,0.0,-.00945*
20,1,.006,0.0,-.00945,-.001641,-.009306,0.0*
1,1,.006,-.001641,-.009306*
20,1,.006,-.001641,-.009306,-.003232,-.00888,0.0*
1,1,.006,-.003232,-.00888*
20,1,.006,-.003232,-.00888,-.004725,-.008184,0.0*
1,1,.006,-.004725,-.008184*
20,1,.006,-.004725,-.008184,-.006074,-.007239,0.0*
1,1,.006,-.006074,-.007239*
20,1,.006,-.006074,-.007239,-.007239,-.006074,0.0*
1,1,.006,-.007239,-.006074*
20,1,.006,-.007239,-.006074,-.008184,-.004725,0.0*
1,1,.006,-.008184,-.004725*
20,1,.006,-.008184,-.004725,-.00888,-.003232,0.0*
1,1,.006,-.00888,-.003232*
20,1,.006,-.00888,-.003232,-.009306,-.001641,0.0*
1,1,.006,-.009306,-.001641*
20,1,.006,-.009306,-.001641,-.00945,0.0,0.0*
1,1,.006,-.00945,0.0*
20,1,.006,-.00945,0.0,-.009306,.001641,0.0*
1,1,.006,-.009306,.001641*
20,1,.006,-.009306,.001641,-.00888,.003232,0.0*
1,1,.006,-.00888,.003232*
20,1,.006,-.00888,.003232,-.008184,.004725,0.0*
1,1,.006,-.008184,.004725*
20,1,.006,-.008184,.004725,-.007239,.006074,0.0*
1,1,.006,-.007239,.006074*
20,1,.006,-.007239,.006074,-.006074,.007239,0.0*
1,1,.006,-.006074,.007239*
20,1,.006,-.006074,.007239,-.004725,.008184,0.0*
1,1,.006,-.004725,.008184*
20,1,.006,-.004725,.008184,-.003232,.00888,0.0*
1,1,.006,-.003232,.00888*
20,1,.006,-.003232,.00888,-.001641,.009306,0.0*
1,1,.006,-.001641,.009306*
20,1,.006,-.001641,.009306,0.0,.00945,0.0*
1,1,.006,0.0,.00945*
20,1,.006,0.0,.00945,.001641,.009306,0.0*
1,1,.006,.001641,.009306*
20,1,.006,.001641,.009306,.003232,.00888,0.0*
1,1,.006,.003232,.00888*
20,1,.006,.003232,.00888,.004725,.008184,0.0*
1,1,.006,.004725,.008184*
20,1,.006,.004725,.008184,.006074,.007239,0.0*
1,1,.006,.006074,.007239*
20,1,.006,.006074,.007239,.007239,.006074,0.0*
1,1,.006,.007239,.006074*
20,1,.006,.007239,.006074,.008184,.004725,0.0*
1,1,.006,.008184,.004725*
20,1,.006,.008184,.004725,.00888,.003232,0.0*
1,1,.006,.00888,.003232*
20,1,.006,.00888,.003232,.009306,.001641,0.0*
1,1,.006,.009306,.001641*
20,1,.006,.009306,.001641,.00945,0.0,0.0*
1,1,.006,.00945,0.0*
1,1,.006,-.00393,-.00472*
20,1,.006,-.00393,-.00472,0.0,.00473,0.0*
1,1,.006,0.0,.00473*
20,1,.006,0.0,.00473,.00394,-.00472,0.0*
1,1,.006,.00394,-.00472*
1,1,.006,.00252,-.00141*
20,1,.006,.00252,-.00141,-.00252,-.00141,0.0*
1,1,.006,-.00252,-.00141*
%
%ADD21MACRO21*%
%AMMACRO19*
1,1,.006,.02264,0.0*
20,1,.006,.02264,0.0,.022296,-.003931,0.0*
1,1,.006,.022296,-.003931*
20,1,.006,.022296,-.003931,.021275,-.007743,0.0*
1,1,.006,.021275,-.007743*
20,1,.006,.021275,-.007743,.019607,-.01132,0.0*
1,1,.006,.019607,-.01132*
20,1,.006,.019607,-.01132,.017343,-.014553,0.0*
1,1,.006,.017343,-.014553*
20,1,.006,.017343,-.014553,.014553,-.017343,0.0*
1,1,.006,.014553,-.017343*
20,1,.006,.014553,-.017343,.01132,-.019607,0.0*
1,1,.006,.01132,-.019607*
20,1,.006,.01132,-.019607,.007743,-.021275,0.0*
1,1,.006,.007743,-.021275*
20,1,.006,.007743,-.021275,.003931,-.022296,0.0*
1,1,.006,.003931,-.022296*
20,1,.006,.003931,-.022296,0.0,-.02264,0.0*
1,1,.006,0.0,-.02264*
20,1,.006,0.0,-.02264,-.003931,-.022296,0.0*
1,1,.006,-.003931,-.022296*
20,1,.006,-.003931,-.022296,-.007743,-.021275,0.0*
1,1,.006,-.007743,-.021275*
20,1,.006,-.007743,-.021275,-.01132,-.019607,0.0*
1,1,.006,-.01132,-.019607*
20,1,.006,-.01132,-.019607,-.014553,-.017343,0.0*
1,1,.006,-.014553,-.017343*
20,1,.006,-.014553,-.017343,-.017343,-.014553,0.0*
1,1,.006,-.017343,-.014553*
20,1,.006,-.017343,-.014553,-.019607,-.01132,0.0*
1,1,.006,-.019607,-.01132*
20,1,.006,-.019607,-.01132,-.021275,-.007743,0.0*
1,1,.006,-.021275,-.007743*
20,1,.006,-.021275,-.007743,-.022296,-.003931,0.0*
1,1,.006,-.022296,-.003931*
20,1,.006,-.022296,-.003931,-.02264,0.0,0.0*
1,1,.006,-.02264,0.0*
20,1,.006,-.02264,0.0,-.022296,.003931,0.0*
1,1,.006,-.022296,.003931*
20,1,.006,-.022296,.003931,-.021275,.007743,0.0*
1,1,.006,-.021275,.007743*
20,1,.006,-.021275,.007743,-.019607,.01132,0.0*
1,1,.006,-.019607,.01132*
20,1,.006,-.019607,.01132,-.017343,.014553,0.0*
1,1,.006,-.017343,.014553*
20,1,.006,-.017343,.014553,-.014553,.017343,0.0*
1,1,.006,-.014553,.017343*
20,1,.006,-.014553,.017343,-.01132,.019607,0.0*
1,1,.006,-.01132,.019607*
20,1,.006,-.01132,.019607,-.007743,.021275,0.0*
1,1,.006,-.007743,.021275*
20,1,.006,-.007743,.021275,-.003931,.022296,0.0*
1,1,.006,-.003931,.022296*
20,1,.006,-.003931,.022296,0.0,.02264,0.0*
1,1,.006,0.0,.02264*
20,1,.006,0.0,.02264,.003931,.022296,0.0*
1,1,.006,.003931,.022296*
20,1,.006,.003931,.022296,.007743,.021275,0.0*
1,1,.006,.007743,.021275*
20,1,.006,.007743,.021275,.01132,.019607,0.0*
1,1,.006,.01132,.019607*
20,1,.006,.01132,.019607,.014553,.017343,0.0*
1,1,.006,.014553,.017343*
20,1,.006,.014553,.017343,.017343,.014553,0.0*
1,1,.006,.017343,.014553*
20,1,.006,.017343,.014553,.019607,.01132,0.0*
1,1,.006,.019607,.01132*
20,1,.006,.019607,.01132,.021275,.007743,0.0*
1,1,.006,.021275,.007743*
20,1,.006,.021275,.007743,.022296,.003931,0.0*
1,1,.006,.022296,.003931*
20,1,.006,.022296,.003931,.02264,0.0,0.0*
1,1,.006,.02264,0.0*
1,1,.006,-.00943,-.01132*
20,1,.006,-.00943,-.01132,0.0,.01132,0.0*
1,1,.006,0.0,.01132*
20,1,.006,0.0,.01132,.00943,-.01132,0.0*
1,1,.006,.00943,-.01132*
1,1,.006,.00604,-.0034*
20,1,.006,.00604,-.0034,-.00604,-.0034,0.0*
1,1,.006,-.00604,-.0034*
%
%ADD19MACRO19*%
%AMMACRO13*
1,1,.006,.045275,0.0*
20,1,.006,.045275,0.0,.044587,-.007862,0.0*
1,1,.006,.044587,-.007862*
20,1,.006,.044587,-.007862,.042545,-.015485,0.0*
1,1,.006,.042545,-.015485*
20,1,.006,.042545,-.015485,.039209,-.022637,0.0*
1,1,.006,.039209,-.022637*
20,1,.006,.039209,-.022637,.034683,-.029102,0.0*
1,1,.006,.034683,-.029102*
20,1,.006,.034683,-.029102,.029102,-.034683,0.0*
1,1,.006,.029102,-.034683*
20,1,.006,.029102,-.034683,.022638,-.039209,0.0*
1,1,.006,.022638,-.039209*
20,1,.006,.022638,-.039209,.015485,-.042545,0.0*
1,1,.006,.015485,-.042545*
20,1,.006,.015485,-.042545,.007862,-.044587,0.0*
1,1,.006,.007862,-.044587*
20,1,.006,.007862,-.044587,0.0,-.045275,0.0*
1,1,.006,0.0,-.045275*
20,1,.006,0.0,-.045275,-.007862,-.044587,0.0*
1,1,.006,-.007862,-.044587*
20,1,.006,-.007862,-.044587,-.015485,-.042545,0.0*
1,1,.006,-.015485,-.042545*
20,1,.006,-.015485,-.042545,-.022637,-.039209,0.0*
1,1,.006,-.022637,-.039209*
20,1,.006,-.022637,-.039209,-.029102,-.034683,0.0*
1,1,.006,-.029102,-.034683*
20,1,.006,-.029102,-.034683,-.034683,-.029102,0.0*
1,1,.006,-.034683,-.029102*
20,1,.006,-.034683,-.029102,-.039209,-.022638,0.0*
1,1,.006,-.039209,-.022638*
20,1,.006,-.039209,-.022638,-.042545,-.015485,0.0*
1,1,.006,-.042545,-.015485*
20,1,.006,-.042545,-.015485,-.044587,-.007862,0.0*
1,1,.006,-.044587,-.007862*
20,1,.006,-.044587,-.007862,-.045275,0.0,0.0*
1,1,.006,-.045275,0.0*
20,1,.006,-.045275,0.0,-.044587,.007862,0.0*
1,1,.006,-.044587,.007862*
20,1,.006,-.044587,.007862,-.042545,.015485,0.0*
1,1,.006,-.042545,.015485*
20,1,.006,-.042545,.015485,-.039209,.022637,0.0*
1,1,.006,-.039209,.022637*
20,1,.006,-.039209,.022637,-.034683,.029102,0.0*
1,1,.006,-.034683,.029102*
20,1,.006,-.034683,.029102,-.029102,.034683,0.0*
1,1,.006,-.029102,.034683*
20,1,.006,-.029102,.034683,-.022638,.039209,0.0*
1,1,.006,-.022638,.039209*
20,1,.006,-.022638,.039209,-.015485,.042545,0.0*
1,1,.006,-.015485,.042545*
20,1,.006,-.015485,.042545,-.007862,.044587,0.0*
1,1,.006,-.007862,.044587*
20,1,.006,-.007862,.044587,0.0,.045275,0.0*
1,1,.006,0.0,.045275*
20,1,.006,0.0,.045275,.007862,.044587,0.0*
1,1,.006,.007862,.044587*
20,1,.006,.007862,.044587,.015485,.042545,0.0*
1,1,.006,.015485,.042545*
20,1,.006,.015485,.042545,.022637,.039209,0.0*
1,1,.006,.022637,.039209*
20,1,.006,.022637,.039209,.029102,.034683,0.0*
1,1,.006,.029102,.034683*
20,1,.006,.029102,.034683,.034683,.029102,0.0*
1,1,.006,.034683,.029102*
20,1,.006,.034683,.029102,.039209,.022638,0.0*
1,1,.006,.039209,.022638*
20,1,.006,.039209,.022638,.042545,.015485,0.0*
1,1,.006,.042545,.015485*
20,1,.006,.042545,.015485,.044587,.007862,0.0*
1,1,.006,.044587,.007862*
20,1,.006,.044587,.007862,.045275,0.0,0.0*
1,1,.006,.045275,0.0*
1,1,.006,-.01886,-.02263*
20,1,.006,-.01886,-.02263,0.0,.02264,0.0*
1,1,.006,0.0,.02264*
20,1,.006,0.0,.02264,.01887,-.02263,0.0*
1,1,.006,.01887,-.02263*
1,1,.006,.01208,-.00679*
20,1,.006,.01208,-.00679,-.01207,-.00679,0.0*
1,1,.006,-.01207,-.00679*
%
%ADD13MACRO13*%
%AMMACRO24*
1,1,.006,.017715,0.0*
20,1,.006,.017715,0.0,.017446,-.003076,0.0*
1,1,.006,.017446,-.003076*
20,1,.006,.017446,-.003076,.016647,-.006059,0.0*
1,1,.006,.016647,-.006059*
20,1,.006,.016647,-.006059,.015342,-.008857,0.0*
1,1,.006,.015342,-.008857*
20,1,.006,.015342,-.008857,.01357,-.011387,0.0*
1,1,.006,.01357,-.011387*
20,1,.006,.01357,-.011387,.011387,-.01357,0.0*
1,1,.006,.011387,-.01357*
20,1,.006,.011387,-.01357,.008858,-.015342,0.0*
1,1,.006,.008858,-.015342*
20,1,.006,.008858,-.015342,.006059,-.016647,0.0*
1,1,.006,.006059,-.016647*
20,1,.006,.006059,-.016647,.003076,-.017446,0.0*
1,1,.006,.003076,-.017446*
20,1,.006,.003076,-.017446,0.0,-.017715,0.0*
1,1,.006,0.0,-.017715*
20,1,.006,0.0,-.017715,-.003076,-.017446,0.0*
1,1,.006,-.003076,-.017446*
20,1,.006,-.003076,-.017446,-.006059,-.016647,0.0*
1,1,.006,-.006059,-.016647*
20,1,.006,-.006059,-.016647,-.008857,-.015342,0.0*
1,1,.006,-.008857,-.015342*
20,1,.006,-.008857,-.015342,-.011387,-.01357,0.0*
1,1,.006,-.011387,-.01357*
20,1,.006,-.011387,-.01357,-.01357,-.011387,0.0*
1,1,.006,-.01357,-.011387*
20,1,.006,-.01357,-.011387,-.015342,-.008858,0.0*
1,1,.006,-.015342,-.008858*
20,1,.006,-.015342,-.008858,-.016647,-.006059,0.0*
1,1,.006,-.016647,-.006059*
20,1,.006,-.016647,-.006059,-.017446,-.003076,0.0*
1,1,.006,-.017446,-.003076*
20,1,.006,-.017446,-.003076,-.017715,0.0,0.0*
1,1,.006,-.017715,0.0*
20,1,.006,-.017715,0.0,-.017446,.003076,0.0*
1,1,.006,-.017446,.003076*
20,1,.006,-.017446,.003076,-.016647,.006059,0.0*
1,1,.006,-.016647,.006059*
20,1,.006,-.016647,.006059,-.015342,.008857,0.0*
1,1,.006,-.015342,.008857*
20,1,.006,-.015342,.008857,-.01357,.011387,0.0*
1,1,.006,-.01357,.011387*
20,1,.006,-.01357,.011387,-.011387,.01357,0.0*
1,1,.006,-.011387,.01357*
20,1,.006,-.011387,.01357,-.008858,.015342,0.0*
1,1,.006,-.008858,.015342*
20,1,.006,-.008858,.015342,-.006059,.016647,0.0*
1,1,.006,-.006059,.016647*
20,1,.006,-.006059,.016647,-.003076,.017446,0.0*
1,1,.006,-.003076,.017446*
20,1,.006,-.003076,.017446,0.0,.017715,0.0*
1,1,.006,0.0,.017715*
20,1,.006,0.0,.017715,.003076,.017446,0.0*
1,1,.006,.003076,.017446*
20,1,.006,.003076,.017446,.006059,.016647,0.0*
1,1,.006,.006059,.016647*
20,1,.006,.006059,.016647,.008857,.015342,0.0*
1,1,.006,.008857,.015342*
20,1,.006,.008857,.015342,.011387,.01357,0.0*
1,1,.006,.011387,.01357*
20,1,.006,.011387,.01357,.01357,.011387,0.0*
1,1,.006,.01357,.011387*
20,1,.006,.01357,.011387,.015342,.008858,0.0*
1,1,.006,.015342,.008858*
20,1,.006,.015342,.008858,.016647,.006059,0.0*
1,1,.006,.016647,.006059*
20,1,.006,.016647,.006059,.017446,.003076,0.0*
1,1,.006,.017446,.003076*
20,1,.006,.017446,.003076,.017715,0.0,0.0*
1,1,.006,.017715,0.0*
1,1,.006,-.00767,-.00885*
20,1,.006,-.00767,-.00885,-.00767,.00886,0.0*
1,1,.006,-.00767,.00886*
20,1,.006,-.00767,.00886,0.0,-.0059,0.0*
1,1,.006,0.0,-.0059*
20,1,.006,0.0,-.0059,.00768,.00886,0.0*
1,1,.006,.00768,.00886*
20,1,.006,.00768,.00886,.00768,-.00885,0.0*
1,1,.006,.00768,-.00885*
%
%ADD24MACRO24*%
%AMMACRO23*
1,1,.006,.019685,0.0*
20,1,.006,.019685,0.0,.019386,-.003418,0.0*
1,1,.006,.019386,-.003418*
20,1,.006,.019386,-.003418,.018498,-.006733,0.0*
1,1,.006,.018498,-.006733*
20,1,.006,.018498,-.006733,.017048,-.009842,0.0*
1,1,.006,.017048,-.009842*
20,1,.006,.017048,-.009842,.01508,-.012653,0.0*
1,1,.006,.01508,-.012653*
20,1,.006,.01508,-.012653,.012653,-.01508,0.0*
1,1,.006,.012653,-.01508*
20,1,.006,.012653,-.01508,.009843,-.017048,0.0*
1,1,.006,.009843,-.017048*
20,1,.006,.009843,-.017048,.006733,-.018498,0.0*
1,1,.006,.006733,-.018498*
20,1,.006,.006733,-.018498,.003418,-.019386,0.0*
1,1,.006,.003418,-.019386*
20,1,.006,.003418,-.019386,0.0,-.019685,0.0*
1,1,.006,0.0,-.019685*
20,1,.006,0.0,-.019685,-.003418,-.019386,0.0*
1,1,.006,-.003418,-.019386*
20,1,.006,-.003418,-.019386,-.006733,-.018498,0.0*
1,1,.006,-.006733,-.018498*
20,1,.006,-.006733,-.018498,-.009842,-.017048,0.0*
1,1,.006,-.009842,-.017048*
20,1,.006,-.009842,-.017048,-.012653,-.01508,0.0*
1,1,.006,-.012653,-.01508*
20,1,.006,-.012653,-.01508,-.01508,-.012653,0.0*
1,1,.006,-.01508,-.012653*
20,1,.006,-.01508,-.012653,-.017048,-.009843,0.0*
1,1,.006,-.017048,-.009843*
20,1,.006,-.017048,-.009843,-.018498,-.006733,0.0*
1,1,.006,-.018498,-.006733*
20,1,.006,-.018498,-.006733,-.019386,-.003418,0.0*
1,1,.006,-.019386,-.003418*
20,1,.006,-.019386,-.003418,-.019685,0.0,0.0*
1,1,.006,-.019685,0.0*
20,1,.006,-.019685,0.0,-.019386,.003418,0.0*
1,1,.006,-.019386,.003418*
20,1,.006,-.019386,.003418,-.018498,.006733,0.0*
1,1,.006,-.018498,.006733*
20,1,.006,-.018498,.006733,-.017048,.009842,0.0*
1,1,.006,-.017048,.009842*
20,1,.006,-.017048,.009842,-.01508,.012653,0.0*
1,1,.006,-.01508,.012653*
20,1,.006,-.01508,.012653,-.012653,.01508,0.0*
1,1,.006,-.012653,.01508*
20,1,.006,-.012653,.01508,-.009843,.017048,0.0*
1,1,.006,-.009843,.017048*
20,1,.006,-.009843,.017048,-.006733,.018498,0.0*
1,1,.006,-.006733,.018498*
20,1,.006,-.006733,.018498,-.003418,.019386,0.0*
1,1,.006,-.003418,.019386*
20,1,.006,-.003418,.019386,0.0,.019685,0.0*
1,1,.006,0.0,.019685*
20,1,.006,0.0,.019685,.003418,.019386,0.0*
1,1,.006,.003418,.019386*
20,1,.006,.003418,.019386,.006733,.018498,0.0*
1,1,.006,.006733,.018498*
20,1,.006,.006733,.018498,.009842,.017048,0.0*
1,1,.006,.009842,.017048*
20,1,.006,.009842,.017048,.012653,.01508,0.0*
1,1,.006,.012653,.01508*
20,1,.006,.012653,.01508,.01508,.012653,0.0*
1,1,.006,.01508,.012653*
20,1,.006,.01508,.012653,.017048,.009843,0.0*
1,1,.006,.017048,.009843*
20,1,.006,.017048,.009843,.018498,.006733,0.0*
1,1,.006,.018498,.006733*
20,1,.006,.018498,.006733,.019386,.003418,0.0*
1,1,.006,.019386,.003418*
20,1,.006,.019386,.003418,.019685,0.0,0.0*
1,1,.006,.019685,0.0*
1,1,.006,-.0082,-.00984*
20,1,.006,-.0082,-.00984,0.0,.00984,0.0*
1,1,.006,0.0,.00984*
20,1,.006,0.0,.00984,.0082,-.00984,0.0*
1,1,.006,.0082,-.00984*
1,1,.006,.00525,-.00295*
20,1,.006,.00525,-.00295,-.00525,-.00295,0.0*
1,1,.006,-.00525,-.00295*
%
%ADD23MACRO23*%
%AMMACRO20*
1,1,.006,.009845,0.0*
20,1,.006,.009845,0.0,.009695,-.00171,0.0*
1,1,.006,.009695,-.00171*
20,1,.006,.009695,-.00171,.009251,-.003367,0.0*
1,1,.006,.009251,-.003367*
20,1,.006,.009251,-.003367,.008526,-.004922,0.0*
1,1,.006,.008526,-.004922*
20,1,.006,.008526,-.004922,.007542,-.006328,0.0*
1,1,.006,.007542,-.006328*
20,1,.006,.007542,-.006328,.006328,-.007542,0.0*
1,1,.006,.006328,-.007542*
20,1,.006,.006328,-.007542,.004923,-.008526,0.0*
1,1,.006,.004923,-.008526*
20,1,.006,.004923,-.008526,.003367,-.009251,0.0*
1,1,.006,.003367,-.009251*
20,1,.006,.003367,-.009251,.00171,-.009695,0.0*
1,1,.006,.00171,-.009695*
20,1,.006,.00171,-.009695,0.0,-.009845,0.0*
1,1,.006,0.0,-.009845*
20,1,.006,0.0,-.009845,-.00171,-.009695,0.0*
1,1,.006,-.00171,-.009695*
20,1,.006,-.00171,-.009695,-.003367,-.009251,0.0*
1,1,.006,-.003367,-.009251*
20,1,.006,-.003367,-.009251,-.004922,-.008526,0.0*
1,1,.006,-.004922,-.008526*
20,1,.006,-.004922,-.008526,-.006328,-.007542,0.0*
1,1,.006,-.006328,-.007542*
20,1,.006,-.006328,-.007542,-.007542,-.006328,0.0*
1,1,.006,-.007542,-.006328*
20,1,.006,-.007542,-.006328,-.008526,-.004923,0.0*
1,1,.006,-.008526,-.004923*
20,1,.006,-.008526,-.004923,-.009251,-.003367,0.0*
1,1,.006,-.009251,-.003367*
20,1,.006,-.009251,-.003367,-.009695,-.00171,0.0*
1,1,.006,-.009695,-.00171*
20,1,.006,-.009695,-.00171,-.009845,0.0,0.0*
1,1,.006,-.009845,0.0*
20,1,.006,-.009845,0.0,-.009695,.00171,0.0*
1,1,.006,-.009695,.00171*
20,1,.006,-.009695,.00171,-.009251,.003367,0.0*
1,1,.006,-.009251,.003367*
20,1,.006,-.009251,.003367,-.008526,.004922,0.0*
1,1,.006,-.008526,.004922*
20,1,.006,-.008526,.004922,-.007542,.006328,0.0*
1,1,.006,-.007542,.006328*
20,1,.006,-.007542,.006328,-.006328,.007542,0.0*
1,1,.006,-.006328,.007542*
20,1,.006,-.006328,.007542,-.004923,.008526,0.0*
1,1,.006,-.004923,.008526*
20,1,.006,-.004923,.008526,-.003367,.009251,0.0*
1,1,.006,-.003367,.009251*
20,1,.006,-.003367,.009251,-.00171,.009695,0.0*
1,1,.006,-.00171,.009695*
20,1,.006,-.00171,.009695,0.0,.009845,0.0*
1,1,.006,0.0,.009845*
20,1,.006,0.0,.009845,.00171,.009695,0.0*
1,1,.006,.00171,.009695*
20,1,.006,.00171,.009695,.003367,.009251,0.0*
1,1,.006,.003367,.009251*
20,1,.006,.003367,.009251,.004922,.008526,0.0*
1,1,.006,.004922,.008526*
20,1,.006,.004922,.008526,.006328,.007542,0.0*
1,1,.006,.006328,.007542*
20,1,.006,.006328,.007542,.007542,.006328,0.0*
1,1,.006,.007542,.006328*
20,1,.006,.007542,.006328,.008526,.004923,0.0*
1,1,.006,.008526,.004923*
20,1,.006,.008526,.004923,.009251,.003367,0.0*
1,1,.006,.009251,.003367*
20,1,.006,.009251,.003367,.009695,.00171,0.0*
1,1,.006,.009695,.00171*
20,1,.006,.009695,.00171,.009845,0.0,0.0*
1,1,.006,.009845,0.0*
1,1,.006,-.0041,-.00492*
20,1,.006,-.0041,-.00492,0.0,.00492,0.0*
1,1,.006,0.0,.00492*
20,1,.006,0.0,.00492,.0041,-.00492,0.0*
1,1,.006,.0041,-.00492*
1,1,.006,.00262,-.00148*
20,1,.006,.00262,-.00148,-.00262,-.00148,0.0*
1,1,.006,-.00262,-.00148*
%
%ADD20MACRO20*%
%AMMACRO14*
1,1,.006,.009845,0.0*
20,1,.006,.009845,0.0,.009695,-.00171,0.0*
1,1,.006,.009695,-.00171*
20,1,.006,.009695,-.00171,.009251,-.003367,0.0*
1,1,.006,.009251,-.003367*
20,1,.006,.009251,-.003367,.008526,-.004922,0.0*
1,1,.006,.008526,-.004922*
20,1,.006,.008526,-.004922,.007542,-.006328,0.0*
1,1,.006,.007542,-.006328*
20,1,.006,.007542,-.006328,.006328,-.007542,0.0*
1,1,.006,.006328,-.007542*
20,1,.006,.006328,-.007542,.004923,-.008526,0.0*
1,1,.006,.004923,-.008526*
20,1,.006,.004923,-.008526,.003367,-.009251,0.0*
1,1,.006,.003367,-.009251*
20,1,.006,.003367,-.009251,.00171,-.009695,0.0*
1,1,.006,.00171,-.009695*
20,1,.006,.00171,-.009695,0.0,-.009845,0.0*
1,1,.006,0.0,-.009845*
20,1,.006,0.0,-.009845,-.00171,-.009695,0.0*
1,1,.006,-.00171,-.009695*
20,1,.006,-.00171,-.009695,-.003367,-.009251,0.0*
1,1,.006,-.003367,-.009251*
20,1,.006,-.003367,-.009251,-.004922,-.008526,0.0*
1,1,.006,-.004922,-.008526*
20,1,.006,-.004922,-.008526,-.006328,-.007542,0.0*
1,1,.006,-.006328,-.007542*
20,1,.006,-.006328,-.007542,-.007542,-.006328,0.0*
1,1,.006,-.007542,-.006328*
20,1,.006,-.007542,-.006328,-.008526,-.004923,0.0*
1,1,.006,-.008526,-.004923*
20,1,.006,-.008526,-.004923,-.009251,-.003367,0.0*
1,1,.006,-.009251,-.003367*
20,1,.006,-.009251,-.003367,-.009695,-.00171,0.0*
1,1,.006,-.009695,-.00171*
20,1,.006,-.009695,-.00171,-.009845,0.0,0.0*
1,1,.006,-.009845,0.0*
20,1,.006,-.009845,0.0,-.009695,.00171,0.0*
1,1,.006,-.009695,.00171*
20,1,.006,-.009695,.00171,-.009251,.003367,0.0*
1,1,.006,-.009251,.003367*
20,1,.006,-.009251,.003367,-.008526,.004922,0.0*
1,1,.006,-.008526,.004922*
20,1,.006,-.008526,.004922,-.007542,.006328,0.0*
1,1,.006,-.007542,.006328*
20,1,.006,-.007542,.006328,-.006328,.007542,0.0*
1,1,.006,-.006328,.007542*
20,1,.006,-.006328,.007542,-.004923,.008526,0.0*
1,1,.006,-.004923,.008526*
20,1,.006,-.004923,.008526,-.003367,.009251,0.0*
1,1,.006,-.003367,.009251*
20,1,.006,-.003367,.009251,-.00171,.009695,0.0*
1,1,.006,-.00171,.009695*
20,1,.006,-.00171,.009695,0.0,.009845,0.0*
1,1,.006,0.0,.009845*
20,1,.006,0.0,.009845,.00171,.009695,0.0*
1,1,.006,.00171,.009695*
20,1,.006,.00171,.009695,.003367,.009251,0.0*
1,1,.006,.003367,.009251*
20,1,.006,.003367,.009251,.004922,.008526,0.0*
1,1,.006,.004922,.008526*
20,1,.006,.004922,.008526,.006328,.007542,0.0*
1,1,.006,.006328,.007542*
20,1,.006,.006328,.007542,.007542,.006328,0.0*
1,1,.006,.007542,.006328*
20,1,.006,.007542,.006328,.008526,.004923,0.0*
1,1,.006,.008526,.004923*
20,1,.006,.008526,.004923,.009251,.003367,0.0*
1,1,.006,.009251,.003367*
20,1,.006,.009251,.003367,.009695,.00171,0.0*
1,1,.006,.009695,.00171*
20,1,.006,.009695,.00171,.009845,0.0,0.0*
1,1,.006,.009845,0.0*
1,1,.006,.00131,.00033*
20,1,.006,.00131,.00033,.00197,.00082,0.0*
1,1,.006,.00197,.00082*
20,1,.006,.00197,.00082,.00246,.00164,0.0*
1,1,.006,.00246,.00164*
20,1,.006,.00246,.00164,.00279,.00279,0.0*
1,1,.006,.00279,.00279*
20,1,.006,.00279,.00279,.00246,.00377,0.0*
1,1,.006,.00246,.00377*
20,1,.006,.00246,.00377,.0018,.00443,0.0*
1,1,.006,.0018,.00443*
20,1,.006,.0018,.00443,.00066,.00492,0.0*
1,1,.006,.00066,.00492*
20,1,.006,.00066,.00492,-.00377,.00492,0.0*
1,1,.006,-.00377,.00492*
20,1,.006,-.00377,.00492,-.00377,-.00492,0.0*
1,1,.006,-.00377,-.00492*
20,1,.006,-.00377,-.00492,.00164,-.00492,0.0*
1,1,.006,.00164,-.00492*
20,1,.006,.00164,-.00492,.00279,-.00426,0.0*
1,1,.006,.00279,-.00426*
20,1,.006,.00279,-.00426,.00344,-.00328,0.0*
1,1,.006,.00344,-.00328*
20,1,.006,.00344,-.00328,.00377,-.00213,0.0*
1,1,.006,.00377,-.00213*
20,1,.006,.00377,-.00213,.00344,-.00098,0.0*
1,1,.006,.00344,-.00098*
20,1,.006,.00344,-.00098,.00246,0.0,0.0*
1,1,.006,.00246,0.0*
20,1,.006,.00246,0.0,.00131,.00033,0.0*
1,1,.006,.00131,.00033*
20,1,.006,.00131,.00033,-.00377,.00033,0.0*
1,1,.006,-.00377,.00033*
%
%ADD14MACRO14*%
%AMMACRO18*
1,1,.006,.03937,0.0*
20,1,.006,.03937,0.0,.038772,-.006837,0.0*
1,1,.006,.038772,-.006837*
20,1,.006,.038772,-.006837,.036996,-.013465,0.0*
1,1,.006,.036996,-.013465*
20,1,.006,.036996,-.013465,.034095,-.019685,0.0*
1,1,.006,.034095,-.019685*
20,1,.006,.034095,-.019685,.030159,-.025307,0.0*
1,1,.006,.030159,-.025307*
20,1,.006,.030159,-.025307,.025307,-.030159,0.0*
1,1,.006,.025307,-.030159*
20,1,.006,.025307,-.030159,.019685,-.034095,0.0*
1,1,.006,.019685,-.034095*
20,1,.006,.019685,-.034095,.013465,-.036996,0.0*
1,1,.006,.013465,-.036996*
20,1,.006,.013465,-.036996,.006837,-.038772,0.0*
1,1,.006,.006837,-.038772*
20,1,.006,.006837,-.038772,0.0,-.03937,0.0*
1,1,.006,0.0,-.03937*
20,1,.006,0.0,-.03937,-.006837,-.038772,0.0*
1,1,.006,-.006837,-.038772*
20,1,.006,-.006837,-.038772,-.013465,-.036996,0.0*
1,1,.006,-.013465,-.036996*
20,1,.006,-.013465,-.036996,-.019685,-.034095,0.0*
1,1,.006,-.019685,-.034095*
20,1,.006,-.019685,-.034095,-.025307,-.030159,0.0*
1,1,.006,-.025307,-.030159*
20,1,.006,-.025307,-.030159,-.030159,-.025307,0.0*
1,1,.006,-.030159,-.025307*
20,1,.006,-.030159,-.025307,-.034095,-.019685,0.0*
1,1,.006,-.034095,-.019685*
20,1,.006,-.034095,-.019685,-.036996,-.013465,0.0*
1,1,.006,-.036996,-.013465*
20,1,.006,-.036996,-.013465,-.038772,-.006837,0.0*
1,1,.006,-.038772,-.006837*
20,1,.006,-.038772,-.006837,-.03937,0.0,0.0*
1,1,.006,-.03937,0.0*
20,1,.006,-.03937,0.0,-.038772,.006837,0.0*
1,1,.006,-.038772,.006837*
20,1,.006,-.038772,.006837,-.036996,.013465,0.0*
1,1,.006,-.036996,.013465*
20,1,.006,-.036996,.013465,-.034095,.019685,0.0*
1,1,.006,-.034095,.019685*
20,1,.006,-.034095,.019685,-.030159,.025307,0.0*
1,1,.006,-.030159,.025307*
20,1,.006,-.030159,.025307,-.025307,.030159,0.0*
1,1,.006,-.025307,.030159*
20,1,.006,-.025307,.030159,-.019685,.034095,0.0*
1,1,.006,-.019685,.034095*
20,1,.006,-.019685,.034095,-.013465,.036996,0.0*
1,1,.006,-.013465,.036996*
20,1,.006,-.013465,.036996,-.006837,.038772,0.0*
1,1,.006,-.006837,.038772*
20,1,.006,-.006837,.038772,0.0,.03937,0.0*
1,1,.006,0.0,.03937*
20,1,.006,0.0,.03937,.006837,.038772,0.0*
1,1,.006,.006837,.038772*
20,1,.006,.006837,.038772,.013465,.036996,0.0*
1,1,.006,.013465,.036996*
20,1,.006,.013465,.036996,.019685,.034095,0.0*
1,1,.006,.019685,.034095*
20,1,.006,.019685,.034095,.025307,.030159,0.0*
1,1,.006,.025307,.030159*
20,1,.006,.025307,.030159,.030159,.025307,0.0*
1,1,.006,.030159,.025307*
20,1,.006,.030159,.025307,.034095,.019685,0.0*
1,1,.006,.034095,.019685*
20,1,.006,.034095,.019685,.036996,.013465,0.0*
1,1,.006,.036996,.013465*
20,1,.006,.036996,.013465,.038772,.006837,0.0*
1,1,.006,.038772,.006837*
20,1,.006,.038772,.006837,.03937,0.0,0.0*
1,1,.006,.03937,0.0*
1,1,.006,-.0164,-.01968*
20,1,.006,-.0164,-.01968,0.0,.01969,0.0*
1,1,.006,0.0,.01969*
20,1,.006,0.0,.01969,.01641,-.01968,0.0*
1,1,.006,.01641,-.01968*
1,1,.006,.0105,-.0059*
20,1,.006,.0105,-.0059,-.01049,-.0059,0.0*
1,1,.006,-.01049,-.0059*
%
%ADD18MACRO18*%
%ADD25C,.006*%
G75*
%LPD*%
G75*
G54D10*
X-347289Y15102D03*
X502850Y-335050D03*
G54D20*
X-130300Y72500D03*
X-107800Y308000D03*
X-144800Y356300D03*
X-51500Y27400D03*
X115200Y7700D03*
X129500Y140700D03*
X379200Y197300D03*
X502850Y-25950D03*
G54D11*
X-359100Y34000D03*
X-335478D03*
X502850Y-306950D03*
G54D21*
X-84900Y150506D03*
Y131294D03*
X502850Y30250D03*
G54D12*
X-373100Y90700D03*
X-373500Y70000D03*
Y130000D03*
Y109800D03*
X502850Y-166450D03*
G54D13*
X-344269Y170654D03*
Y222387D03*
X502850Y-222650D03*
G54D22*
X150361Y-25900D03*
X135400D03*
X502850Y-110250D03*
G54D14*
X-310700Y34100D03*
Y44100D03*
Y54100D03*
X-300700Y44100D03*
X-208900Y89200D03*
X-218900D03*
X-209300Y130200D03*
X-219300D03*
X-120300Y82500D03*
Y72500D03*
X-130300Y82500D03*
X-107800Y318000D03*
X-114800Y356300D03*
X-124800D03*
X-134800D03*
X-81500Y17400D03*
Y27400D03*
X-71500Y17400D03*
Y27400D03*
X-77800Y318000D03*
Y308000D03*
X-87800Y318000D03*
Y308000D03*
X-97800Y318000D03*
Y308000D03*
X-104800Y356300D03*
X-61500Y17400D03*
Y27400D03*
X-51500Y17400D03*
X115200Y27700D03*
Y17700D03*
X129500Y120700D03*
Y130700D03*
X139500Y120700D03*
Y130700D03*
Y140700D03*
X369200Y207300D03*
X379200D03*
X369200Y197300D03*
Y237300D03*
X379200D03*
X369200Y227300D03*
X379200D03*
X369200Y217300D03*
X379200D03*
X502850Y-54050D03*
G54D23*
X278400Y11500D03*
X318400D03*
X308400D03*
X298400D03*
X288400D03*
X358400D03*
X348400D03*
X338400D03*
X328400D03*
X368400D03*
X502850Y-82150D03*
G54D24*
X369232Y118254D03*
Y149750D03*
X502850Y-278850D03*
G54D15*
X-311300Y19000D03*
X-332900Y155200D03*
X-331900Y237500D03*
X-276300Y83500D03*
X-276400Y122600D03*
X-300300Y131234D03*
X-279700Y192600D03*
X-279500Y200200D03*
X-279400Y176800D03*
X-289766Y176734D03*
X-271525Y277323D03*
Y266423D03*
X-271725Y313923D03*
X-271925Y301323D03*
Y290423D03*
X-271725Y324823D03*
X-256300Y78700D03*
X-230200Y96500D03*
X-256600Y119200D03*
X-230300Y138800D03*
X-239900Y182300D03*
X-229600Y170500D03*
X-230700Y199000D03*
X-236000Y205600D03*
X-260700Y197500D03*
X-250800Y189400D03*
X-265725Y235723D03*
X-265600Y222600D03*
Y211700D03*
X-242700Y212800D03*
X-241700Y236800D03*
X-265725Y246623D03*
X-230100Y316300D03*
X-249100Y353600D03*
X-260000Y343600D03*
X-237600Y364700D03*
X-209400Y72100D03*
X-209100Y113800D03*
X-218100Y159000D03*
X-192400Y133800D03*
X-190400Y156200D03*
X-209300Y147200D03*
X-197500Y183400D03*
X-191000Y174000D03*
X-209400Y182200D03*
X-218200Y206600D03*
X-219600Y223400D03*
X-221600Y236300D03*
X-195300Y242300D03*
X-217200Y269400D03*
X-208200Y263500D03*
X-196800Y275800D03*
X-210400Y283000D03*
X-197751Y263600D03*
X-210300Y273100D03*
Y268200D03*
X-200580Y286710D03*
X-188700Y301300D03*
X-190100Y292800D03*
X-191700Y297600D03*
X-219000Y327600D03*
X-197655Y326383D03*
X-197855Y339583D03*
X-192355Y358083D03*
X-208255D03*
X-224900Y377400D03*
X-189055Y377383D03*
X-204955D03*
X-161700Y126800D03*
X-162600Y101400D03*
X-174100Y113600D03*
X-184900Y124400D03*
X-173700Y138300D03*
X-184800Y149700D03*
X-170700D03*
X-156000Y149800D03*
X-175100Y157600D03*
X-163500Y158100D03*
X-152200Y180300D03*
X-163700Y170400D03*
X-155400Y218400D03*
X-155300Y230000D03*
X-159400Y249400D03*
X-177500Y266753D03*
X-174312Y269702D03*
X-178100Y272000D03*
X-171400Y282000D03*
X-159255Y313883D03*
X-158055Y322283D03*
X-184771Y286747D03*
X-159500Y294200D03*
X-150600Y289200D03*
X-155100Y291900D03*
X-181755Y326383D03*
X-181955Y339583D03*
X-161155Y339383D03*
X-177455Y357383D03*
X-161555D03*
X-169455Y377583D03*
X-153555D03*
X-164600Y369500D03*
X-116855Y14183D03*
X-117300Y109500D03*
X-146800Y111000D03*
X-143200Y116300D03*
X-126900Y92500D03*
X-142200D03*
X-115000Y89900D03*
X-146400Y165800D03*
X-124300Y149600D03*
X-135700Y149400D03*
X-145800Y149900D03*
X-127100Y171500D03*
X-127200Y183600D03*
X-134100Y171000D03*
X-139700Y176800D03*
X-136500Y222700D03*
X-109600Y255800D03*
X-117700Y264400D03*
X-127500Y264800D03*
X-139400Y280900D03*
X-134800Y281100D03*
X-135500Y276800D03*
Y266700D03*
X-136500Y271300D03*
X-143355Y313883D03*
X-142155Y322283D03*
X-146200Y286500D03*
X-117000Y291900D03*
X-134500Y300800D03*
X-128900Y301300D03*
X-145255Y339383D03*
X-134500Y337000D03*
X-130400Y340800D03*
X-124300Y338700D03*
X-131655Y377183D03*
X-115755D03*
X-100955Y14183D03*
X-85000Y40700D03*
X-78300Y37800D03*
X-78000Y46500D03*
X-85700Y51000D03*
X-78300Y57300D03*
Y66400D03*
X-91000Y81000D03*
X-107100Y80600D03*
X-97700Y87300D03*
X-75200Y88400D03*
X-107300Y96400D03*
X-102200Y125100D03*
X-72900Y161400D03*
X-90100Y140600D03*
X-79100Y140900D03*
X-75700Y190200D03*
X-83400Y186200D03*
X-83600Y172100D03*
X-76500Y171900D03*
X-80100Y198000D03*
X-104900Y223400D03*
Y236100D03*
X-104800Y245400D03*
X-83800Y216800D03*
X-83600Y229700D03*
X-97900Y206800D03*
X-96400Y284000D03*
X-83100Y281400D03*
X-88300Y278100D03*
X-81500Y260600D03*
X-106800Y272700D03*
X-102300Y275300D03*
X-99200Y287700D03*
X-107000Y294300D03*
X-104500Y289900D03*
X-89655Y357383D03*
X-73755D03*
X-89500Y347900D03*
X-72200Y342400D03*
X-94455Y377183D03*
X-78555D03*
X-32600Y41900D03*
X-48000Y36900D03*
X-42700Y47400D03*
X-67200Y37800D03*
X-39700Y34300D03*
X-67500Y49100D03*
X-46100Y58500D03*
X-43300Y110200D03*
X-43000Y119800D03*
X-49700Y98500D03*
X-49000Y104500D03*
X-61400Y112900D03*
X-64500Y102100D03*
X-39800Y102700D03*
X-47700Y92600D03*
X-39300Y128900D03*
X-46600Y162200D03*
X-43900Y130700D03*
X-46200Y128300D03*
X-61800Y137900D03*
Y143700D03*
X-43000Y136100D03*
X-44000Y159200D03*
X-62200Y154500D03*
X-55700Y155700D03*
X-56400Y175600D03*
X-66700Y208700D03*
X-58600Y212500D03*
X-37000Y217500D03*
X-32200Y224100D03*
X-36500Y213100D03*
X-37000Y230700D03*
X-57800Y241700D03*
X-68655Y304083D03*
X-52755D03*
X-33100Y301600D03*
X-56100Y318800D03*
X-65600Y362800D03*
X-36400Y358500D03*
X-59100Y332800D03*
X-67500Y332200D03*
X-44900Y325700D03*
Y330800D03*
X-34500Y355000D03*
X-45300Y376900D03*
X-61200D03*
X2100Y48000D03*
X-13012Y40800D03*
X-20600Y42600D03*
X-9000Y15200D03*
X-16400Y16100D03*
X-16100Y23200D03*
X-15800Y30700D03*
X7700Y12100D03*
X-600Y29500D03*
X-1200Y75200D03*
X-10800Y65800D03*
X-19200Y65300D03*
X-3300Y66100D03*
X-19100Y80900D03*
X-26900Y60700D03*
X-23500Y102200D03*
X0Y99100D03*
X-1000Y88400D03*
X-5000Y99400D03*
X-4600Y125600D03*
X-28000Y103000D03*
X-1700Y122800D03*
X-21300Y126600D03*
X-2300Y118600D03*
X-11700Y88400D03*
X-18000Y120400D03*
X-9300Y95300D03*
X-11100Y119100D03*
X-13100Y143600D03*
X-13300Y158300D03*
X8600Y128100D03*
X1400Y135600D03*
X-3000Y144800D03*
X-2800Y156000D03*
X-2900Y164400D03*
X-25900Y156800D03*
X-26600Y146100D03*
X-18500Y127800D03*
X-26100Y161600D03*
X-9600Y132700D03*
X-26100Y164700D03*
X-14938Y201300D03*
X-13000Y171000D03*
X-2700Y172700D03*
X1900Y199200D03*
X-20800Y201000D03*
X4900Y205600D03*
X-7000Y206500D03*
X-5001Y200911D03*
X-26000Y168000D03*
X-15400Y205800D03*
X-25100Y173000D03*
X-7300Y233100D03*
X-600Y209700D03*
X-11200Y212300D03*
X-5500Y238700D03*
X-1300Y229800D03*
X-10400Y223600D03*
X-17800Y216900D03*
X-22900Y214300D03*
X-28700Y258700D03*
X-17800Y318000D03*
X-6100Y314200D03*
X-13700Y340200D03*
X-24200Y339700D03*
X-19500Y347800D03*
X-28400Y351600D03*
X9300Y362000D03*
X-11200Y362100D03*
X3100Y351900D03*
X9100Y347500D03*
X-3500D03*
X-11300Y350800D03*
X-24300Y366000D03*
X5745Y376683D03*
X-28555D03*
X-12655D03*
X34345Y12683D03*
X22400Y26700D03*
X31700Y38900D03*
X41300Y48600D03*
X40600Y35500D03*
X30600Y24400D03*
X21600Y16700D03*
X13200Y42200D03*
X12700Y35500D03*
X12900Y28400D03*
X10900Y47800D03*
X25800Y45200D03*
X26100Y66700D03*
X15600Y67200D03*
X30400Y77300D03*
X16000D03*
X31900Y52000D03*
X41400Y117900D03*
X38400Y93900D03*
X31374Y125430D03*
X14700Y124900D03*
X33400Y118400D03*
X27800Y94600D03*
X42600Y96300D03*
X47200Y103500D03*
X37800Y118100D03*
X14700Y120100D03*
X14600Y116000D03*
X31300Y121300D03*
X43900Y154600D03*
X14700Y129700D03*
X39800Y146300D03*
X40500Y136800D03*
X34900Y130100D03*
X30300Y137100D03*
Y146400D03*
X30100Y155300D03*
X32500Y164400D03*
X13800Y165800D03*
X15800Y157100D03*
X15700Y146200D03*
X15600Y136100D03*
X34800Y156800D03*
X41900Y150600D03*
X16946Y186854D03*
X16900Y171600D03*
X32900Y204500D03*
X33000Y171900D03*
X9900Y173000D03*
X32700Y183300D03*
X17400Y199900D03*
X11100Y204800D03*
X28800Y206500D03*
X32500Y201000D03*
X45600Y230200D03*
X12300Y217700D03*
X42500Y236200D03*
X30100Y212500D03*
X46946Y257354D03*
X28048Y257800D03*
X11600Y258800D03*
X33300Y269500D03*
X37300Y257800D03*
X18700Y258600D03*
X13600Y308000D03*
X32300Y313900D03*
X23400Y313700D03*
X11200Y303600D03*
X46400Y303000D03*
X28048Y303600D03*
X47200Y323200D03*
X42500Y330800D03*
X21100Y333600D03*
X19520Y338680D03*
X16400Y351800D03*
X23100Y347500D03*
X43645Y376883D03*
X21645Y376683D03*
X64545Y13183D03*
X80445D03*
X50245Y12683D03*
X49200Y87000D03*
X57645Y74883D03*
X73545D03*
X72600Y65100D03*
X55400Y64500D03*
X56993Y125137D03*
X62700Y127100D03*
X64700Y113000D03*
X57200Y103700D03*
X69400Y106900D03*
X73700Y107700D03*
X77600Y104100D03*
X78700Y108200D03*
X81200Y104400D03*
X70400Y128300D03*
X56500Y146500D03*
X63600Y153300D03*
X57800Y160600D03*
X87400Y158800D03*
X83100Y321800D03*
X65800Y322000D03*
X65845Y312183D03*
X81745D03*
X85345Y341183D03*
X49245Y363483D03*
X65145D03*
X61200Y349300D03*
X49400Y349000D03*
X66700Y334100D03*
X76900Y376800D03*
X59545Y376883D03*
X86700Y368300D03*
X80500Y368400D03*
X124445Y24583D03*
X127345Y74283D03*
X89545Y75383D03*
X105445D03*
X98300Y65600D03*
X95200Y105300D03*
X95800Y95300D03*
X90600Y113000D03*
X119300Y126900D03*
X108245Y93583D03*
X124145D03*
X97200Y159600D03*
X112800Y140100D03*
X118500Y166700D03*
X119000Y161400D03*
X120600Y186800D03*
X91700Y177100D03*
X96200Y175800D03*
X119100Y215900D03*
X106400Y216400D03*
X118900Y227900D03*
X108000Y226200D03*
X100800Y227900D03*
X97000Y230600D03*
X102800Y283800D03*
X116645Y311683D03*
X100745D03*
X118300Y294300D03*
X108200Y289600D03*
X112900Y292100D03*
X123000Y296400D03*
X126700Y299500D03*
X110945Y350883D03*
X95045D03*
X121845Y341683D03*
X101245Y341183D03*
X119854Y365746D03*
X140345Y24583D03*
X161400Y70700D03*
X143245Y74283D03*
X164600Y120700D03*
X148800Y93800D03*
X155700Y131700D03*
X145800Y151000D03*
X147200Y171200D03*
X131100Y171700D03*
X147700Y203100D03*
X135400Y205200D03*
X130600Y218300D03*
X130900Y237500D03*
X162000Y209800D03*
X161700Y227300D03*
X129200Y208500D03*
X139900Y207600D03*
X131200Y247700D03*
X131000Y258400D03*
X132100Y305700D03*
X155700Y318100D03*
X141400Y290700D03*
X155345Y341083D03*
X130345Y350783D03*
X146245D03*
X137745Y341683D03*
X132600Y361300D03*
X149300Y361700D03*
X160500Y361900D03*
X151100Y324900D03*
X137300Y331100D03*
X147400Y371300D03*
X132100Y371400D03*
X186345Y72083D03*
X202245D03*
X183400Y114600D03*
X190300Y121700D03*
X175200Y122000D03*
X175900Y92600D03*
X171300Y112400D03*
X179300Y106000D03*
X175300Y109600D03*
X197000Y132300D03*
X178900Y132700D03*
X183500Y145300D03*
X202600Y145500D03*
X189200Y161000D03*
X205100Y197800D03*
X180600Y198000D03*
X206300Y183800D03*
X183000Y183600D03*
X173100Y175400D03*
X182900Y237600D03*
X171700Y235900D03*
X187300Y233300D03*
Y219400D03*
X173400Y207400D03*
X173100Y217700D03*
X178600Y224600D03*
X199803Y243300D03*
X178500Y276071D03*
X184700Y250800D03*
X193900Y275500D03*
X197600Y260871D03*
X182700Y269100D03*
X171600Y251800D03*
X184600Y275100D03*
X167300Y323800D03*
X188600Y289200D03*
X200500Y297600D03*
X193100Y289200D03*
X202600Y292000D03*
X200600Y289400D03*
X197700Y293000D03*
X171245Y341083D03*
X172800Y350500D03*
X179800Y363200D03*
X190800Y363400D03*
X201337Y363053D03*
X198500Y350200D03*
X167200Y370600D03*
X232300Y41100D03*
X239745Y72083D03*
X223845D03*
X238821Y116575D03*
X222921D03*
X237545Y99983D03*
X207045Y100483D03*
X222945D03*
X232900Y145500D03*
X219900Y132500D03*
X207700Y160600D03*
X229300Y160300D03*
X232400Y198200D03*
X239400Y170400D03*
X240800Y181900D03*
X209000Y270000D03*
X212064Y273012D03*
X212300Y280700D03*
X215700Y282800D03*
X215600Y277500D03*
X210300Y264400D03*
X212647Y267900D03*
X229500Y319400D03*
X237900Y311000D03*
X245800Y304100D03*
X210800Y288000D03*
X215800Y287500D03*
X213100Y294800D03*
X206900Y295000D03*
X241137Y325953D03*
X233037Y334553D03*
X225037Y342053D03*
X216437Y349453D03*
X208437Y356953D03*
X215637Y333053D03*
X207637Y340553D03*
X221500Y326900D03*
X262745Y37583D03*
X278645D03*
X250600Y20300D03*
X270200Y21500D03*
X273100Y62600D03*
X262300Y72400D03*
X280000Y115400D03*
X273200Y122900D03*
X280721Y98575D03*
X253445Y99983D03*
X246100Y161800D03*
X275500Y160800D03*
X260700D03*
X268900Y139200D03*
X272446Y136754D03*
X278300Y193200D03*
X281600Y183100D03*
X274400Y176000D03*
X260400Y175600D03*
X257700Y194300D03*
X258900Y188000D03*
X257100Y208400D03*
X256800Y217700D03*
X264200Y224900D03*
X273300Y227000D03*
X281300Y234800D03*
X277800Y241600D03*
X267000Y235600D03*
X255300Y233400D03*
X261500Y240400D03*
X267300Y241800D03*
X254200Y238800D03*
X249000Y216200D03*
X280700Y261400D03*
X262200Y251000D03*
X266700Y256600D03*
X278500Y257000D03*
X278300Y248900D03*
X255100Y249400D03*
X255294Y267860D03*
X255194Y258860D03*
X255294Y276460D03*
X271200Y283700D03*
Y276300D03*
X267600Y264500D03*
X263300Y268400D03*
Y275300D03*
X263800Y281800D03*
X278300Y267700D03*
X263737Y303853D03*
X255737Y311353D03*
X249137Y318453D03*
X255394Y285460D03*
X255500Y294200D03*
X255600Y303200D03*
X283700Y297200D03*
X277000Y290200D03*
X268600Y292100D03*
X273900Y297900D03*
X280100Y304400D03*
X269600Y359300D03*
X270100Y354200D03*
X248900Y358500D03*
Y350400D03*
X256300Y354900D03*
X257000Y362400D03*
X263900Y358800D03*
Y352500D03*
X274783Y339698D03*
X282483Y339598D03*
X257983Y339698D03*
X265683Y339598D03*
X252883Y344998D03*
X260583Y344898D03*
X271483Y344998D03*
X279183Y344898D03*
X269900Y366700D03*
X269600Y373400D03*
Y381700D03*
X269700Y388500D03*
X248400Y382800D03*
X249400Y376300D03*
X248900Y366200D03*
X257000Y385900D03*
Y378700D03*
Y370800D03*
X264600Y388500D03*
X264400Y381800D03*
X263600Y374100D03*
X264100Y366200D03*
X312900Y25700D03*
X288700Y48400D03*
X301400Y22200D03*
X322200Y66400D03*
X319421Y83175D03*
X307500Y54700D03*
X308800Y125800D03*
X319000Y125700D03*
X319300Y112000D03*
X309100Y111900D03*
X296621Y98575D03*
X301500Y133500D03*
X317700Y162300D03*
X291700Y159800D03*
X307954Y148454D03*
X299446Y142054D03*
X289146Y140154D03*
X301445Y182683D03*
X317345D03*
X295300Y193900D03*
X300800Y238800D03*
X290700Y230900D03*
X292700Y206600D03*
X285500Y240800D03*
X312100Y245700D03*
X289500Y272400D03*
X285700Y252700D03*
X315744Y281300D03*
X295100Y258400D03*
X320800Y254100D03*
X310200D03*
X301600Y254300D03*
X292200Y247400D03*
X304000Y246200D03*
X322500D03*
X300600Y260600D03*
X308800Y257900D03*
X294700Y304000D03*
X324600Y291100D03*
X315600Y291400D03*
X320258Y285814D03*
X300200Y308800D03*
X299900Y313500D03*
X301400Y303300D03*
X290700Y311800D03*
X292300Y319200D03*
X297600Y322400D03*
X304800Y322600D03*
X310600Y323000D03*
X314300Y306100D03*
X314400Y309300D03*
X314500Y312700D03*
X311700Y316300D03*
X314600Y319800D03*
X314700Y323000D03*
X286800Y307500D03*
X298200Y305400D03*
X307900Y338700D03*
X291083Y338998D03*
X298783Y338898D03*
X287883Y344998D03*
X295583Y344898D03*
X303983D03*
X311683Y344798D03*
X324500Y341500D03*
X317300Y341400D03*
X314200Y337700D03*
Y332600D03*
X310400Y327700D03*
X314600Y327600D03*
X353800Y25300D03*
X340734Y38166D03*
X356321Y82975D03*
X335321Y83175D03*
X357745Y115183D03*
X341845D03*
X362245Y161983D03*
X346345D03*
X359300Y281700D03*
X333100Y250300D03*
X324900Y281700D03*
X356300Y246400D03*
X356500Y253600D03*
X356000Y264500D03*
X363500Y275600D03*
X363300Y281700D03*
X354100Y276100D03*
X354600Y281900D03*
X347200Y246200D03*
X336900Y246400D03*
X338700Y261400D03*
X347100Y270000D03*
X346100Y255400D03*
X359400Y296500D03*
X356200Y305900D03*
X356300Y312500D03*
X356400Y319300D03*
X342050Y309550D03*
X363500Y287900D03*
X354700Y287500D03*
X354100Y296100D03*
X363600Y312600D03*
Y319500D03*
X326400Y323100D03*
Y320000D03*
X329300Y316200D03*
X326000Y313000D03*
Y309800D03*
X343700Y297400D03*
X330455Y313428D03*
X361800Y331800D03*
X354900Y332600D03*
X347700Y332300D03*
X362883Y338998D03*
X355183Y339398D03*
X359383Y344198D03*
X352083D03*
X338300Y332800D03*
X347483Y339498D03*
X332583Y340198D03*
X340283Y340098D03*
X344383Y344298D03*
X336900Y344400D03*
X329200Y344500D03*
X330200Y336800D03*
X325100D03*
X330200Y327300D03*
X326400D03*
X330200Y332000D03*
X372221Y82975D03*
X369500Y246400D03*
X369700Y254100D03*
X384600Y248300D03*
X384100Y261300D03*
X383900Y278800D03*
X383700Y291000D03*
X376500Y294200D03*
X364700D03*
X364300Y305100D03*
X378900Y285500D03*
X365400Y325800D03*
X380100Y331100D03*
X370500Y331600D03*
X379383Y338498D03*
X387083Y338398D03*
X370583Y338898D03*
X375883Y344098D03*
X383583Y343998D03*
X367083Y344098D03*
X502850Y58350D03*
G54D25*
G01X-393701Y8000D02*
Y385701D01*
G02X-385701Y393701I8000J0D01*
G01X391201D01*
G02X393701Y391201I0J-2500D01*
G01Y8000D01*
G02X385701Y0I-8000J0D01*
G01X219006D01*
G03X205078Y-20571I-1J-15000D01*
G01X267362Y-176279D01*
G02X253435Y-196850I-13927J-5571D01*
G01X68425D01*
G02X53873Y-178212I0J15000D01*
G01X93766Y-18638D01*
G03X79213Y0I-14552J3638D01*
G01X-79213D01*
G03X-93766Y-18638I-1J-15000D01*
G01X-53873Y-178212D01*
G02X-68425Y-196850I-14552J-3638D01*
G01X-253435D01*
G02X-267362Y-176279I0J15000D01*
G01X-205078Y-20571D01*
G03X-219006Y0I-13927J5571D01*
G01X-385701D01*
G02X-393701Y8000I0J8000D01*
G01X457900Y-349100D02*
Y153600D01*
X941500D01*
Y-349100D01*
X457900D01*
G01Y-321000D02*
X941500D01*
G01X457900Y-292900D02*
X941500D01*
G01X457900Y-236700D02*
X941500D01*
G01X457900Y-264800D02*
X941500D01*
G01X457900Y-208600D02*
X941500D01*
G01X457900Y-152400D02*
X941500D01*
G01X457900Y-180500D02*
X941500D01*
G01X457900Y-124300D02*
X941500D01*
G01X457900Y-96200D02*
X941500D01*
G01X457900Y-40000D02*
X941500D01*
G01X457900Y-68100D02*
X941500D01*
G01X457900Y-11900D02*
X941500D01*
G01X457900Y44300D02*
X941500D01*
G01X457900Y16200D02*
X941500D01*
G01X468905Y81750D02*
Y94250D01*
X474795D01*
G01X472625Y88208D02*
X468905D01*
G01X482390Y94250D02*
X486110D01*
G01X484250D02*
Y81750D01*
G01X482390D02*
X486110D01*
G01X497580Y88000D02*
X500680D01*
Y84250D01*
X499750Y83000D01*
X498665Y82167D01*
X497115Y81750D01*
X495565Y82167D01*
X494480Y83000D01*
X493550Y84250D01*
X492930Y85708D01*
X492620Y87375D01*
Y88833D01*
X492930Y90083D01*
X493550Y91542D01*
X494480Y92792D01*
X495410Y93625D01*
X496650Y94250D01*
X497735D01*
X498975Y93833D01*
X499905Y93000D01*
G01X505640Y94250D02*
Y85292D01*
X506260Y83416D01*
X507500Y82167D01*
X509050Y81750D01*
X510600Y82167D01*
X511840Y83416D01*
X512460Y85292D01*
Y94250D01*
G01X518350Y81750D02*
Y94250D01*
X522225D01*
X523465Y93625D01*
X524240Y92792D01*
X524550Y91125D01*
X524240Y89458D01*
X523310Y88417D01*
X522225Y87792D01*
X518350D01*
G01X522225D02*
X524550Y81750D01*
G01X536950D02*
X530750D01*
Y94250D01*
X536950D01*
G01X534470Y88208D02*
X530750D01*
G01X457900Y72400D02*
X941500D01*
G01X457900Y100500D02*
X941500D01*
G01X457900Y128600D02*
X941500D01*
G01X547800Y100500D02*
Y-349100D01*
G01X541290Y134850D02*
Y147350D01*
X544390D01*
X545630Y146725D01*
X546560Y145892D01*
X547335Y144642D01*
X547955Y143183D01*
X548110Y141100D01*
X547955Y139017D01*
X547335Y137558D01*
X546560Y136308D01*
X545630Y135475D01*
X544390Y134850D01*
X541290D01*
G01X554000D02*
Y147350D01*
X557875D01*
X559115Y146725D01*
X559890Y145892D01*
X560200Y144225D01*
X559890Y142558D01*
X558960Y141517D01*
X557875Y140892D01*
X554000D01*
G01X557875D02*
X560200Y134850D01*
G01X567640Y147350D02*
X571360D01*
G01X569500D02*
Y134850D01*
G01X567640D02*
X571360D01*
G01X578800Y147350D02*
Y134850D01*
X585000D01*
G01X591200Y147350D02*
Y134850D01*
X597400D01*
G01X622510Y146308D02*
X621580Y146933D01*
X620495Y147350D01*
X619255D01*
X617860Y146725D01*
X616775Y145683D01*
X616000Y144433D01*
X615380Y142350D01*
X615225Y140475D01*
X615535Y138600D01*
X616000Y137350D01*
X616930Y136100D01*
X618015Y135267D01*
X619100Y134850D01*
X620185D01*
X621270Y135267D01*
X622200Y135891D01*
X622975Y136725D01*
G01X628245Y134850D02*
Y147350D01*
G01X634755D02*
Y134850D01*
G01Y141100D02*
X628245D01*
G01X640025Y134850D02*
X643900Y147350D01*
X647775Y134850D01*
G01X646380Y139225D02*
X641420D01*
G01X653200Y134850D02*
Y147350D01*
X657075D01*
X658315Y146725D01*
X659090Y145892D01*
X659400Y144225D01*
X659090Y142558D01*
X658160Y141517D01*
X657075Y140892D01*
X653200D01*
G01X657075D02*
X659400Y134850D01*
G01X668700Y147350D02*
Y134850D01*
G01X665135Y147350D02*
X672265D01*
G01X681100Y134433D02*
X680790Y134642D01*
Y135058D01*
X681100Y135267D01*
X681410Y135058D01*
Y134642D01*
X681100Y134433D01*
G01Y140058D02*
X680790Y140267D01*
Y140683D01*
X681100Y140892D01*
X681410Y140683D01*
Y140267D01*
X681100Y140058D01*
G01X705900Y147350D02*
Y134850D01*
G01X702335Y147350D02*
X709465D01*
G01X718300Y134850D02*
X717060Y135058D01*
X715975Y135891D01*
X715045Y137142D01*
X714425Y138600D01*
X714115Y140267D01*
Y141933D01*
X714425Y143600D01*
X715045Y145058D01*
X715975Y146308D01*
X717060Y147142D01*
X718300Y147350D01*
X719540Y147142D01*
X720625Y146308D01*
X721555Y145058D01*
X722175Y143600D01*
X722485Y141933D01*
Y140267D01*
X722175Y138600D01*
X721555Y137142D01*
X720625Y135891D01*
X719540Y135058D01*
X718300Y134850D01*
G01X727600D02*
Y147350D01*
X731320D01*
X732560Y146725D01*
X733490Y145267D01*
X733800Y143600D01*
X733490Y141933D01*
X732715Y140683D01*
X731320Y140058D01*
X727600D01*
G01X755500Y147350D02*
Y134850D01*
G01X753330Y143183D02*
X757670D01*
G01X767900Y134850D02*
X766970Y135058D01*
X766040Y135891D01*
X765420Y137350D01*
X765110Y139017D01*
X765420Y140683D01*
X766040Y142142D01*
X766970Y142975D01*
X767900Y143183D01*
X768830Y142975D01*
X769760Y142142D01*
X770380Y140683D01*
X770535Y139017D01*
X770380Y137350D01*
X769760Y135891D01*
X768830Y135058D01*
X767900Y134850D01*
G01X793940Y141517D02*
X794560Y142142D01*
X795025Y143183D01*
X795335Y144642D01*
X795025Y145892D01*
X794405Y146725D01*
X793320Y147350D01*
X789135D01*
Y134850D01*
X794250D01*
X795335Y135683D01*
X795955Y136933D01*
X796265Y138392D01*
X795955Y139850D01*
X795025Y141100D01*
X793940Y141517D01*
X789135D01*
G01X805100Y134850D02*
X803860Y135058D01*
X802775Y135891D01*
X801845Y137142D01*
X801225Y138600D01*
X800915Y140267D01*
Y141933D01*
X801225Y143600D01*
X801845Y145058D01*
X802775Y146308D01*
X803860Y147142D01*
X805100Y147350D01*
X806340Y147142D01*
X807425Y146308D01*
X808355Y145058D01*
X808975Y143600D01*
X809285Y141933D01*
Y140267D01*
X808975Y138600D01*
X808355Y137142D01*
X807425Y135891D01*
X806340Y135058D01*
X805100Y134850D01*
G01X817500Y147350D02*
Y134850D01*
G01X813935Y147350D02*
X821065D01*
G01X829900D02*
Y134850D01*
G01X826335Y147350D02*
X833465D01*
G01X842300Y134850D02*
X841060Y135058D01*
X839975Y135891D01*
X839045Y137142D01*
X838425Y138600D01*
X838115Y140267D01*
Y141933D01*
X838425Y143600D01*
X839045Y145058D01*
X839975Y146308D01*
X841060Y147142D01*
X842300Y147350D01*
X843540Y147142D01*
X844625Y146308D01*
X845555Y145058D01*
X846175Y143600D01*
X846485Y141933D01*
Y140267D01*
X846175Y138600D01*
X845555Y137142D01*
X844625Y135891D01*
X843540Y135058D01*
X842300Y134850D01*
G01X850670D02*
Y147350D01*
X854700Y136933D01*
X858730Y147350D01*
Y134850D01*
G01X580350Y-313200D02*
Y-300700D01*
X578490Y-303200D01*
G01Y-313200D02*
X582210D01*
G01X592750D02*
Y-300700D01*
X590890Y-303200D01*
G01Y-313200D02*
X594610D01*
G01X605150D02*
X606235Y-312992D01*
X607475Y-312367D01*
X608250Y-311325D01*
X608560Y-309867D01*
X608250Y-308409D01*
X607320Y-307158D01*
X605925Y-306533D01*
X604375D01*
X603445Y-306117D01*
X602670Y-305075D01*
X602360Y-303617D01*
X602825Y-302158D01*
X603910Y-301117D01*
X605150Y-300700D01*
X606390Y-301117D01*
X607475Y-302158D01*
X607940Y-303617D01*
X607630Y-305075D01*
X606855Y-306117D01*
X605925Y-306533D01*
X604375D01*
X602980Y-307158D01*
X602050Y-308409D01*
X601740Y-309867D01*
X602050Y-311325D01*
X602825Y-312367D01*
X604065Y-312992D01*
X605150Y-313200D01*
G01X617550Y-313617D02*
X617240Y-313408D01*
Y-312992D01*
X617550Y-312783D01*
X617860Y-312992D01*
Y-313408D01*
X617550Y-313617D01*
G01X629950Y-313200D02*
Y-300700D01*
X628090Y-303200D01*
G01Y-313200D02*
X631810D01*
G01X642350D02*
Y-300700D01*
X640490Y-303200D01*
G01Y-313200D02*
X644210D01*
G01X652425Y-304867D02*
X657075Y-313200D01*
G01Y-304867D02*
X652425Y-313200D01*
G01X663740Y-310700D02*
X664670Y-312159D01*
X665910Y-312992D01*
X667305Y-313200D01*
X668545Y-312992D01*
X669785Y-311950D01*
X670560Y-310700D01*
X670715Y-309450D01*
X670405Y-307992D01*
X669320Y-306950D01*
X668235Y-306533D01*
X666840D01*
G01X668235D02*
X669165Y-305908D01*
X669940Y-304867D01*
X670250Y-303617D01*
X669940Y-302367D01*
X669165Y-301325D01*
X667770Y-300700D01*
X666375Y-300908D01*
X664980Y-301742D01*
G01X679550Y-313200D02*
Y-300700D01*
X677690Y-303200D01*
G01Y-313200D02*
X681410D01*
G01X691950Y-313617D02*
X691640Y-313408D01*
Y-312992D01*
X691950Y-312783D01*
X692260Y-312992D01*
Y-313408D01*
X691950Y-313617D01*
G01X700940Y-311325D02*
X701870Y-312367D01*
X702955Y-312992D01*
X704350Y-313200D01*
X705745Y-312783D01*
X706830Y-311950D01*
X707605Y-310492D01*
X707760Y-308825D01*
X707450Y-307158D01*
X706675Y-306117D01*
X705590Y-305283D01*
X704505Y-305075D01*
X703420Y-305283D01*
X702025Y-306117D01*
X702490Y-300700D01*
X706675D01*
G01X580350Y-341300D02*
Y-328800D01*
X578490Y-331300D01*
G01Y-341300D02*
X582210D01*
G01X592750D02*
Y-328800D01*
X590890Y-331300D01*
G01Y-341300D02*
X594610D01*
G01X605150D02*
X606235Y-341092D01*
X607475Y-340467D01*
X608250Y-339425D01*
X608560Y-337967D01*
X608250Y-336509D01*
X607320Y-335258D01*
X605925Y-334633D01*
X604375D01*
X603445Y-334217D01*
X602670Y-333175D01*
X602360Y-331717D01*
X602825Y-330258D01*
X603910Y-329217D01*
X605150Y-328800D01*
X606390Y-329217D01*
X607475Y-330258D01*
X607940Y-331717D01*
X607630Y-333175D01*
X606855Y-334217D01*
X605925Y-334633D01*
X604375D01*
X602980Y-335258D01*
X602050Y-336509D01*
X601740Y-337967D01*
X602050Y-339425D01*
X602825Y-340467D01*
X604065Y-341092D01*
X605150Y-341300D01*
G01X617550Y-341717D02*
X617240Y-341508D01*
Y-341092D01*
X617550Y-340883D01*
X617860Y-341092D01*
Y-341508D01*
X617550Y-341717D01*
G01X629950Y-341300D02*
Y-328800D01*
X628090Y-331300D01*
G01Y-341300D02*
X631810D01*
G01X642350D02*
Y-328800D01*
X640490Y-331300D01*
G01Y-341300D02*
X644210D01*
G01X652425Y-332967D02*
X657075Y-341300D01*
G01Y-332967D02*
X652425Y-341300D01*
G01X663740Y-338800D02*
X664670Y-340259D01*
X665910Y-341092D01*
X667305Y-341300D01*
X668545Y-341092D01*
X669785Y-340050D01*
X670560Y-338800D01*
X670715Y-337550D01*
X670405Y-336092D01*
X669320Y-335050D01*
X668235Y-334633D01*
X666840D01*
G01X668235D02*
X669165Y-334008D01*
X669940Y-332967D01*
X670250Y-331717D01*
X669940Y-330467D01*
X669165Y-329425D01*
X667770Y-328800D01*
X666375Y-329008D01*
X664980Y-329842D01*
G01X679550Y-341300D02*
Y-328800D01*
X677690Y-331300D01*
G01Y-341300D02*
X681410D01*
G01X691950Y-341717D02*
X691640Y-341508D01*
Y-341092D01*
X691950Y-340883D01*
X692260Y-341092D01*
Y-341508D01*
X691950Y-341717D01*
G01X700940Y-339425D02*
X701870Y-340467D01*
X702955Y-341092D01*
X704350Y-341300D01*
X705745Y-340883D01*
X706830Y-340050D01*
X707605Y-338592D01*
X707760Y-336925D01*
X707450Y-335258D01*
X706675Y-334217D01*
X705590Y-333383D01*
X704505Y-333175D01*
X703420Y-333383D01*
X702025Y-334217D01*
X702490Y-328800D01*
X706675D01*
G01X571825Y109850D02*
X575700Y122350D01*
X579575Y109850D01*
G01X578180Y114225D02*
X573220D01*
G01X585000Y122350D02*
Y109850D01*
X591200D01*
G01X597400Y122350D02*
Y109850D01*
X603600D01*
G01X621890Y122350D02*
Y113392D01*
X622510Y111516D01*
X623750Y110267D01*
X625300Y109850D01*
X626850Y110267D01*
X628090Y111516D01*
X628710Y113392D01*
Y122350D01*
G01X634135Y109850D02*
Y122350D01*
X641265Y109850D01*
Y122350D01*
G01X648240D02*
X651960D01*
G01X650100D02*
Y109850D01*
G01X648240D02*
X651960D01*
G01X662500Y122350D02*
Y109850D01*
G01X658935Y122350D02*
X666065D01*
G01X671645Y111516D02*
X672885Y110475D01*
X674280Y109850D01*
X675520D01*
X676760Y110475D01*
X677690Y111516D01*
X678155Y112975D01*
X677845Y114433D01*
X677070Y115683D01*
X675675Y116517D01*
X673815Y116933D01*
X672730Y117767D01*
X672265Y119225D01*
X672575Y120683D01*
X673350Y121725D01*
X674435Y122350D01*
X675520D01*
X676605Y121933D01*
X677535Y120892D01*
G01X695825Y109850D02*
X699700Y122350D01*
X703575Y109850D01*
G01X702180Y114225D02*
X697220D01*
G01X709000Y109850D02*
Y122350D01*
X712875D01*
X714115Y121725D01*
X714890Y120892D01*
X715200Y119225D01*
X714890Y117558D01*
X713960Y116517D01*
X712875Y115892D01*
X709000D01*
G01X712875D02*
X715200Y109850D01*
G01X727600D02*
X721400D01*
Y122350D01*
X727600D01*
G01X725120Y116308D02*
X721400D01*
G01X747440Y122350D02*
X751160D01*
G01X749300D02*
Y109850D01*
G01X747440D02*
X751160D01*
G01X758135D02*
Y122350D01*
X765265Y109850D01*
Y122350D01*
G01X782470Y109850D02*
Y122350D01*
X786500Y111933D01*
X790530Y122350D01*
Y109850D01*
G01X797040Y122350D02*
X800760D01*
G01X798900D02*
Y109850D01*
G01X797040D02*
X800760D01*
G01X808200Y122350D02*
Y109850D01*
X814400D01*
G01X820445Y111516D02*
X821685Y110475D01*
X823080Y109850D01*
X824320D01*
X825560Y110475D01*
X826490Y111516D01*
X826955Y112975D01*
X826645Y114433D01*
X825870Y115683D01*
X824475Y116517D01*
X822615Y116933D01*
X821530Y117767D01*
X821065Y119225D01*
X821375Y120683D01*
X822150Y121725D01*
X823235Y122350D01*
X824320D01*
X825405Y121933D01*
X826335Y120892D01*
G01X614140Y-282600D02*
X615070Y-284059D01*
X616310Y-284892D01*
X617705Y-285100D01*
X618945Y-284892D01*
X620185Y-283850D01*
X620960Y-282600D01*
X621115Y-281350D01*
X620805Y-279892D01*
X619720Y-278850D01*
X618635Y-278433D01*
X617240D01*
G01X618635D02*
X619565Y-277808D01*
X620340Y-276767D01*
X620650Y-275517D01*
X620340Y-274267D01*
X619565Y-273225D01*
X618170Y-272600D01*
X616775Y-272808D01*
X615380Y-273642D01*
G01X626540Y-283225D02*
X627470Y-284267D01*
X628555Y-284892D01*
X629950Y-285100D01*
X631345Y-284683D01*
X632430Y-283850D01*
X633205Y-282392D01*
X633360Y-280725D01*
X633050Y-279058D01*
X632275Y-278017D01*
X631190Y-277183D01*
X630105Y-276975D01*
X629020Y-277183D01*
X627625Y-278017D01*
X628090Y-272600D01*
X632275D01*
G01X642350Y-285517D02*
X642040Y-285308D01*
Y-284892D01*
X642350Y-284683D01*
X642660Y-284892D01*
Y-285308D01*
X642350Y-285517D01*
G01X656610Y-285100D02*
Y-272600D01*
X650875Y-281558D01*
X658625D01*
G01X663740Y-282600D02*
X664670Y-284059D01*
X665910Y-284892D01*
X667305Y-285100D01*
X668545Y-284892D01*
X669785Y-283850D01*
X670560Y-282600D01*
X670715Y-281350D01*
X670405Y-279892D01*
X669320Y-278850D01*
X668235Y-278433D01*
X666840D01*
G01X668235D02*
X669165Y-277808D01*
X669940Y-276767D01*
X670250Y-275517D01*
X669940Y-274267D01*
X669165Y-273225D01*
X667770Y-272600D01*
X666375Y-272808D01*
X664980Y-273642D01*
G01X614915Y-227442D02*
X616000Y-228483D01*
X617240Y-228900D01*
X618480Y-228483D01*
X619565Y-227234D01*
X620340Y-225358D01*
X620650Y-223483D01*
Y-221192D01*
X620340Y-219317D01*
X619565Y-217650D01*
X618635Y-216817D01*
X617550Y-216400D01*
X616310Y-216817D01*
X615380Y-217650D01*
X614760Y-218900D01*
X614450Y-220567D01*
X614760Y-222025D01*
X615535Y-223483D01*
X616465Y-224317D01*
X617550Y-224525D01*
X618790Y-224109D01*
X619720Y-223067D01*
X620650Y-221192D01*
G01X629950Y-216400D02*
X628710Y-216817D01*
X627780Y-217858D01*
X627160Y-219108D01*
X626695Y-220775D01*
X626540Y-222650D01*
X626695Y-224525D01*
X627160Y-226192D01*
X627780Y-227442D01*
X628710Y-228483D01*
X629950Y-228900D01*
X631190Y-228483D01*
X632120Y-227442D01*
X632740Y-226192D01*
X633205Y-224525D01*
X633360Y-222650D01*
X633205Y-220775D01*
X632740Y-219108D01*
X632120Y-217858D01*
X631190Y-216817D01*
X629950Y-216400D01*
G01X642350Y-229317D02*
X642040Y-229108D01*
Y-228692D01*
X642350Y-228483D01*
X642660Y-228692D01*
Y-229108D01*
X642350Y-229317D01*
G01X651340Y-227025D02*
X652270Y-228067D01*
X653355Y-228692D01*
X654750Y-228900D01*
X656145Y-228483D01*
X657230Y-227650D01*
X658005Y-226192D01*
X658160Y-224525D01*
X657850Y-222858D01*
X657075Y-221817D01*
X655990Y-220983D01*
X654905Y-220775D01*
X653820Y-220983D01*
X652425Y-221817D01*
X652890Y-216400D01*
X657075D01*
G01X663740Y-227025D02*
X664670Y-228067D01*
X665755Y-228692D01*
X667150Y-228900D01*
X668545Y-228483D01*
X669630Y-227650D01*
X670405Y-226192D01*
X670560Y-224525D01*
X670250Y-222858D01*
X669475Y-221817D01*
X668390Y-220983D01*
X667305Y-220775D01*
X666220Y-220983D01*
X664825Y-221817D01*
X665290Y-216400D01*
X669475D01*
G01X611350Y-257000D02*
Y-244500D01*
X609490Y-247000D01*
G01Y-257000D02*
X613210D01*
G01X623750D02*
Y-244500D01*
X621890Y-247000D01*
G01Y-257000D02*
X625610D01*
G01X636150D02*
X637235Y-256792D01*
X638475Y-256167D01*
X639250Y-255125D01*
X639560Y-253667D01*
X639250Y-252209D01*
X638320Y-250958D01*
X636925Y-250333D01*
X635375D01*
X634445Y-249917D01*
X633670Y-248875D01*
X633360Y-247417D01*
X633825Y-245958D01*
X634910Y-244917D01*
X636150Y-244500D01*
X637390Y-244917D01*
X638475Y-245958D01*
X638940Y-247417D01*
X638630Y-248875D01*
X637855Y-249917D01*
X636925Y-250333D01*
X635375D01*
X633980Y-250958D01*
X633050Y-252209D01*
X632740Y-253667D01*
X633050Y-255125D01*
X633825Y-256167D01*
X635065Y-256792D01*
X636150Y-257000D01*
G01X648550Y-257417D02*
X648240Y-257208D01*
Y-256792D01*
X648550Y-256583D01*
X648860Y-256792D01*
Y-257208D01*
X648550Y-257417D01*
G01X660950Y-257000D02*
Y-244500D01*
X659090Y-247000D01*
G01Y-257000D02*
X662810D01*
G01X673350D02*
Y-244500D01*
X671490Y-247000D01*
G01Y-257000D02*
X675210D01*
G01X617550Y-200800D02*
X618635Y-200592D01*
X619875Y-199967D01*
X620650Y-198925D01*
X620960Y-197467D01*
X620650Y-196009D01*
X619720Y-194758D01*
X618325Y-194133D01*
X616775D01*
X615845Y-193717D01*
X615070Y-192675D01*
X614760Y-191217D01*
X615225Y-189758D01*
X616310Y-188717D01*
X617550Y-188300D01*
X618790Y-188717D01*
X619875Y-189758D01*
X620340Y-191217D01*
X620030Y-192675D01*
X619255Y-193717D01*
X618325Y-194133D01*
X616775D01*
X615380Y-194758D01*
X614450Y-196009D01*
X614140Y-197467D01*
X614450Y-198925D01*
X615225Y-199967D01*
X616465Y-200592D01*
X617550Y-200800D01*
G01X627005Y-195592D02*
X628090Y-194133D01*
X629020Y-193300D01*
X630260Y-192883D01*
X631345Y-193300D01*
X632120Y-194133D01*
X632740Y-195383D01*
X632895Y-196842D01*
X632740Y-198092D01*
X632120Y-199342D01*
X631190Y-200383D01*
X630105Y-200800D01*
X628865Y-200383D01*
X627780Y-199134D01*
X627160Y-197258D01*
X627005Y-195175D01*
X627315Y-192467D01*
X627780Y-191008D01*
X628555Y-189550D01*
X629640Y-188508D01*
X630725Y-188300D01*
X631810Y-188717D01*
X632585Y-189758D01*
G01X642350Y-201217D02*
X642040Y-201008D01*
Y-200592D01*
X642350Y-200383D01*
X642660Y-200592D01*
Y-201008D01*
X642350Y-201217D01*
G01X651805Y-195592D02*
X652890Y-194133D01*
X653820Y-193300D01*
X655060Y-192883D01*
X656145Y-193300D01*
X656920Y-194133D01*
X657540Y-195383D01*
X657695Y-196842D01*
X657540Y-198092D01*
X656920Y-199342D01*
X655990Y-200383D01*
X654905Y-200800D01*
X653665Y-200383D01*
X652580Y-199134D01*
X651960Y-197258D01*
X651805Y-195175D01*
X652115Y-192467D01*
X652580Y-191008D01*
X653355Y-189550D01*
X654440Y-188508D01*
X655525Y-188300D01*
X656610Y-188717D01*
X657385Y-189758D01*
G01X667150Y-200800D02*
Y-188300D01*
X665290Y-190800D01*
G01Y-200800D02*
X669010D01*
G01X620805Y-167492D02*
X621890Y-166033D01*
X622820Y-165200D01*
X624060Y-164783D01*
X625145Y-165200D01*
X625920Y-166033D01*
X626540Y-167283D01*
X626695Y-168742D01*
X626540Y-169992D01*
X625920Y-171242D01*
X624990Y-172283D01*
X623905Y-172700D01*
X622665Y-172283D01*
X621580Y-171034D01*
X620960Y-169158D01*
X620805Y-167075D01*
X621115Y-164367D01*
X621580Y-162908D01*
X622355Y-161450D01*
X623440Y-160408D01*
X624525Y-160200D01*
X625610Y-160617D01*
X626385Y-161658D01*
G01X632740Y-170200D02*
X633670Y-171659D01*
X634910Y-172492D01*
X636305Y-172700D01*
X637545Y-172492D01*
X638785Y-171450D01*
X639560Y-170200D01*
X639715Y-168950D01*
X639405Y-167492D01*
X638320Y-166450D01*
X637235Y-166033D01*
X635840D01*
G01X637235D02*
X638165Y-165408D01*
X638940Y-164367D01*
X639250Y-163117D01*
X638940Y-161867D01*
X638165Y-160825D01*
X636770Y-160200D01*
X635375Y-160408D01*
X633980Y-161242D01*
G01X648550Y-173117D02*
X648240Y-172908D01*
Y-172492D01*
X648550Y-172283D01*
X648860Y-172492D01*
Y-172908D01*
X648550Y-173117D01*
G01X660950Y-160200D02*
X659710Y-160617D01*
X658780Y-161658D01*
X658160Y-162908D01*
X657695Y-164575D01*
X657540Y-166450D01*
X657695Y-168325D01*
X658160Y-169992D01*
X658780Y-171242D01*
X659710Y-172283D01*
X660950Y-172700D01*
X662190Y-172283D01*
X663120Y-171242D01*
X663740Y-169992D01*
X664205Y-168325D01*
X664360Y-166450D01*
X664205Y-164575D01*
X663740Y-162908D01*
X663120Y-161658D01*
X662190Y-160617D01*
X660950Y-160200D01*
G01X619410Y-116500D02*
Y-104000D01*
X613675Y-112958D01*
X621425D01*
G01X629950Y-116500D02*
Y-104000D01*
X628090Y-106500D01*
G01Y-116500D02*
X631810D01*
G01X642350Y-116917D02*
X642040Y-116708D01*
Y-116292D01*
X642350Y-116083D01*
X642660Y-116292D01*
Y-116708D01*
X642350Y-116917D01*
G01X651340Y-114000D02*
X652270Y-115459D01*
X653510Y-116292D01*
X654905Y-116500D01*
X656145Y-116292D01*
X657385Y-115250D01*
X658160Y-114000D01*
X658315Y-112750D01*
X658005Y-111292D01*
X656920Y-110250D01*
X655835Y-109833D01*
X654440D01*
G01X655835D02*
X656765Y-109208D01*
X657540Y-108167D01*
X657850Y-106917D01*
X657540Y-105667D01*
X656765Y-104625D01*
X655370Y-104000D01*
X653975Y-104208D01*
X652580Y-105042D01*
G01X669010Y-116500D02*
Y-104000D01*
X663275Y-112958D01*
X671025D01*
G01X619410Y-144600D02*
Y-132100D01*
X613675Y-141058D01*
X621425D01*
G01X626540Y-142725D02*
X627470Y-143767D01*
X628555Y-144392D01*
X629950Y-144600D01*
X631345Y-144183D01*
X632430Y-143350D01*
X633205Y-141892D01*
X633360Y-140225D01*
X633050Y-138558D01*
X632275Y-137517D01*
X631190Y-136683D01*
X630105Y-136475D01*
X629020Y-136683D01*
X627625Y-137517D01*
X628090Y-132100D01*
X632275D01*
G01X642350Y-145017D02*
X642040Y-144808D01*
Y-144392D01*
X642350Y-144183D01*
X642660Y-144392D01*
Y-144808D01*
X642350Y-145017D01*
G01X651805Y-134183D02*
X652735Y-132934D01*
X653820Y-132308D01*
X655060Y-132100D01*
X656610Y-132517D01*
X657695Y-133558D01*
X658005Y-134808D01*
X657850Y-136059D01*
X657230Y-137100D01*
X654130Y-139183D01*
X652735Y-140642D01*
X651805Y-142725D01*
X651495Y-144600D01*
X658005D01*
G01X667150D02*
X668235Y-144392D01*
X669475Y-143767D01*
X670250Y-142725D01*
X670560Y-141267D01*
X670250Y-139809D01*
X669320Y-138558D01*
X667925Y-137933D01*
X666375D01*
X665445Y-137517D01*
X664670Y-136475D01*
X664360Y-135017D01*
X664825Y-133558D01*
X665910Y-132517D01*
X667150Y-132100D01*
X668390Y-132517D01*
X669475Y-133558D01*
X669940Y-135017D01*
X669630Y-136475D01*
X668855Y-137517D01*
X667925Y-137933D01*
X666375D01*
X664980Y-138558D01*
X664050Y-139809D01*
X663740Y-141267D01*
X664050Y-142725D01*
X664825Y-143767D01*
X666065Y-144392D01*
X667150Y-144600D01*
G01X619410Y-88400D02*
Y-75900D01*
X613675Y-84858D01*
X621425D01*
G01X629950Y-88400D02*
Y-75900D01*
X628090Y-78400D01*
G01Y-88400D02*
X631810D01*
G01X642350Y-88817D02*
X642040Y-88608D01*
Y-88192D01*
X642350Y-87983D01*
X642660Y-88192D01*
Y-88608D01*
X642350Y-88817D01*
G01X651340Y-85900D02*
X652270Y-87359D01*
X653510Y-88192D01*
X654905Y-88400D01*
X656145Y-88192D01*
X657385Y-87150D01*
X658160Y-85900D01*
X658315Y-84650D01*
X658005Y-83192D01*
X656920Y-82150D01*
X655835Y-81733D01*
X654440D01*
G01X655835D02*
X656765Y-81108D01*
X657540Y-80067D01*
X657850Y-78817D01*
X657540Y-77567D01*
X656765Y-76525D01*
X655370Y-75900D01*
X653975Y-76108D01*
X652580Y-76942D01*
G01X669010Y-88400D02*
Y-75900D01*
X663275Y-84858D01*
X671025D01*
G01X619410Y-32200D02*
Y-19700D01*
X613675Y-28658D01*
X621425D01*
G01X629950Y-32200D02*
Y-19700D01*
X628090Y-22200D01*
G01Y-32200D02*
X631810D01*
G01X642350Y-32617D02*
X642040Y-32408D01*
Y-31992D01*
X642350Y-31783D01*
X642660Y-31992D01*
Y-32408D01*
X642350Y-32617D01*
G01X651340Y-29700D02*
X652270Y-31159D01*
X653510Y-31992D01*
X654905Y-32200D01*
X656145Y-31992D01*
X657385Y-30950D01*
X658160Y-29700D01*
X658315Y-28450D01*
X658005Y-26992D01*
X656920Y-25950D01*
X655835Y-25533D01*
X654440D01*
G01X655835D02*
X656765Y-24908D01*
X657540Y-23867D01*
X657850Y-22617D01*
X657540Y-21367D01*
X656765Y-20325D01*
X655370Y-19700D01*
X653975Y-19908D01*
X652580Y-20742D01*
G01X669010Y-32200D02*
Y-19700D01*
X663275Y-28658D01*
X671025D01*
G01X619410Y-60300D02*
Y-47800D01*
X613675Y-56758D01*
X621425D01*
G01X629950Y-60300D02*
Y-47800D01*
X628090Y-50300D01*
G01Y-60300D02*
X631810D01*
G01X642350Y-60717D02*
X642040Y-60508D01*
Y-60092D01*
X642350Y-59883D01*
X642660Y-60092D01*
Y-60508D01*
X642350Y-60717D01*
G01X651340Y-57800D02*
X652270Y-59259D01*
X653510Y-60092D01*
X654905Y-60300D01*
X656145Y-60092D01*
X657385Y-59050D01*
X658160Y-57800D01*
X658315Y-56550D01*
X658005Y-55092D01*
X656920Y-54050D01*
X655835Y-53633D01*
X654440D01*
G01X655835D02*
X656765Y-53008D01*
X657540Y-51967D01*
X657850Y-50717D01*
X657540Y-49467D01*
X656765Y-48425D01*
X655370Y-47800D01*
X653975Y-48008D01*
X652580Y-48842D01*
G01X669010Y-60300D02*
Y-47800D01*
X663275Y-56758D01*
X671025D01*
G01X614140Y-1600D02*
X615070Y-3059D01*
X616310Y-3892D01*
X617705Y-4100D01*
X618945Y-3892D01*
X620185Y-2850D01*
X620960Y-1600D01*
X621115Y-350D01*
X620805Y1108D01*
X619720Y2150D01*
X618635Y2567D01*
X617240D01*
G01X618635D02*
X619565Y3192D01*
X620340Y4233D01*
X620650Y5483D01*
X620340Y6733D01*
X619565Y7775D01*
X618170Y8400D01*
X616775Y8192D01*
X615380Y7358D01*
G01X626540Y-2225D02*
X627470Y-3267D01*
X628555Y-3892D01*
X629950Y-4100D01*
X631345Y-3683D01*
X632430Y-2850D01*
X633205Y-1392D01*
X633360Y275D01*
X633050Y1942D01*
X632275Y2983D01*
X631190Y3817D01*
X630105Y4025D01*
X629020Y3817D01*
X627625Y2983D01*
X628090Y8400D01*
X632275D01*
G01X642350Y-4517D02*
X642040Y-4308D01*
Y-3892D01*
X642350Y-3683D01*
X642660Y-3892D01*
Y-4308D01*
X642350Y-4517D01*
G01X656610Y-4100D02*
Y8400D01*
X650875Y-558D01*
X658625D01*
G01X663740Y-1600D02*
X664670Y-3059D01*
X665910Y-3892D01*
X667305Y-4100D01*
X668545Y-3892D01*
X669785Y-2850D01*
X670560Y-1600D01*
X670715Y-350D01*
X670405Y1108D01*
X669320Y2150D01*
X668235Y2567D01*
X666840D01*
G01X668235D02*
X669165Y3192D01*
X669940Y4233D01*
X670250Y5483D01*
X669940Y6733D01*
X669165Y7775D01*
X667770Y8400D01*
X666375Y8192D01*
X664980Y7358D01*
G01X614605Y34417D02*
X615535Y35666D01*
X616620Y36292D01*
X617860Y36500D01*
X619410Y36083D01*
X620495Y35042D01*
X620805Y33792D01*
X620650Y32541D01*
X620030Y31500D01*
X616930Y29417D01*
X615535Y27958D01*
X614605Y25875D01*
X614295Y24000D01*
X620805D01*
G01X626540Y25875D02*
X627470Y24833D01*
X628555Y24208D01*
X629950Y24000D01*
X631345Y24417D01*
X632430Y25250D01*
X633205Y26708D01*
X633360Y28375D01*
X633050Y30042D01*
X632275Y31083D01*
X631190Y31917D01*
X630105Y32125D01*
X629020Y31917D01*
X627625Y31083D01*
X628090Y36500D01*
X632275D01*
G01X642350Y23583D02*
X642040Y23792D01*
Y24208D01*
X642350Y24417D01*
X642660Y24208D01*
Y23792D01*
X642350Y23583D01*
G01X651340Y25875D02*
X652270Y24833D01*
X653355Y24208D01*
X654750Y24000D01*
X656145Y24417D01*
X657230Y25250D01*
X658005Y26708D01*
X658160Y28375D01*
X657850Y30042D01*
X657075Y31083D01*
X655990Y31917D01*
X654905Y32125D01*
X653820Y31917D01*
X652425Y31083D01*
X652890Y36500D01*
X657075D01*
G01X664515Y25458D02*
X665600Y24417D01*
X666840Y24000D01*
X668080Y24417D01*
X669165Y25666D01*
X669940Y27542D01*
X670250Y29417D01*
Y31708D01*
X669940Y33583D01*
X669165Y35250D01*
X668235Y36083D01*
X667150Y36500D01*
X665910Y36083D01*
X664980Y35250D01*
X664360Y34000D01*
X664050Y32333D01*
X664360Y30875D01*
X665135Y29417D01*
X666065Y28583D01*
X667150Y28375D01*
X668390Y28791D01*
X669320Y29833D01*
X670250Y31708D01*
G01X620495Y83416D02*
X621735Y82375D01*
X623130Y81750D01*
X624370D01*
X625610Y82375D01*
X626540Y83416D01*
X627005Y84875D01*
X626695Y86333D01*
X625920Y87583D01*
X624525Y88417D01*
X622665Y88833D01*
X621580Y89667D01*
X621115Y91125D01*
X621425Y92583D01*
X622200Y93625D01*
X623285Y94250D01*
X624370D01*
X625455Y93833D01*
X626385Y92792D01*
G01X634290Y94250D02*
X638010D01*
G01X636150D02*
Y81750D01*
G01X634290D02*
X638010D01*
G01X645605Y94250D02*
X651495D01*
X645605Y81750D01*
X651495D01*
G01X664050D02*
X657850D01*
Y94250D01*
X664050D01*
G01X661570Y88208D02*
X657850D01*
G01X617550Y52100D02*
Y64600D01*
X615690Y62100D01*
G01Y52100D02*
X619410D01*
G01X629950D02*
Y64600D01*
X628090Y62100D01*
G01Y52100D02*
X631810D01*
G01X642350Y51683D02*
X642040Y51892D01*
Y52308D01*
X642350Y52517D01*
X642660Y52308D01*
Y51892D01*
X642350Y51683D01*
G01X654750Y52100D02*
X655835Y52308D01*
X657075Y52933D01*
X657850Y53975D01*
X658160Y55433D01*
X657850Y56891D01*
X656920Y58142D01*
X655525Y58767D01*
X653975D01*
X653045Y59183D01*
X652270Y60225D01*
X651960Y61683D01*
X652425Y63142D01*
X653510Y64183D01*
X654750Y64600D01*
X655990Y64183D01*
X657075Y63142D01*
X657540Y61683D01*
X657230Y60225D01*
X656455Y59183D01*
X655525Y58767D01*
X653975D01*
X652580Y58142D01*
X651650Y56891D01*
X651340Y55433D01*
X651650Y53975D01*
X652425Y52933D01*
X653665Y52308D01*
X654750Y52100D01*
G01X667150D02*
Y64600D01*
X665290Y62100D01*
G01Y52100D02*
X669010D01*
G01X736900Y100500D02*
Y-349100D01*
G01X741085Y-285100D02*
Y-272600D01*
X748215Y-285100D01*
Y-272600D01*
G01X757050Y-285100D02*
X755810Y-284892D01*
X754725Y-284059D01*
X753795Y-282808D01*
X753175Y-281350D01*
X752865Y-279683D01*
Y-278017D01*
X753175Y-276350D01*
X753795Y-274892D01*
X754725Y-273642D01*
X755810Y-272808D01*
X757050Y-272600D01*
X758290Y-272808D01*
X759375Y-273642D01*
X760305Y-274892D01*
X760925Y-276350D01*
X761235Y-278017D01*
Y-279683D01*
X760925Y-281350D01*
X760305Y-282808D01*
X759375Y-284059D01*
X758290Y-284892D01*
X757050Y-285100D01*
G01X765885D02*
Y-272600D01*
X773015Y-285100D01*
Y-272600D01*
G01X779835Y-280933D02*
X783865D01*
G01X791150Y-285100D02*
Y-272600D01*
X794870D01*
X796110Y-273225D01*
X797040Y-274683D01*
X797350Y-276350D01*
X797040Y-278017D01*
X796265Y-279267D01*
X794870Y-279892D01*
X791150D01*
G01X803550Y-272600D02*
Y-285100D01*
X809750D01*
G01X815175D02*
X819050Y-272600D01*
X822925Y-285100D01*
G01X821530Y-280725D02*
X816570D01*
G01X831450Y-272600D02*
Y-285100D01*
G01X827885Y-272600D02*
X835015D01*
G01X846950Y-285100D02*
X840750D01*
Y-272600D01*
X846950D01*
G01X844470Y-278642D02*
X840750D01*
G01X852840Y-285100D02*
Y-272600D01*
X855940D01*
X857180Y-273225D01*
X858110Y-274058D01*
X858885Y-275308D01*
X859505Y-276767D01*
X859660Y-278850D01*
X859505Y-280933D01*
X858885Y-282392D01*
X858110Y-283642D01*
X857180Y-284475D01*
X855940Y-285100D01*
X852840D01*
G01X766350Y-313200D02*
Y-300700D01*
X770070D01*
X771310Y-301325D01*
X772240Y-302783D01*
X772550Y-304450D01*
X772240Y-306117D01*
X771465Y-307367D01*
X770070Y-307992D01*
X766350D01*
G01X778750Y-300700D02*
Y-313200D01*
X784950D01*
G01X790375D02*
X794250Y-300700D01*
X798125Y-313200D01*
G01X796730Y-308825D02*
X791770D01*
G01X806650Y-300700D02*
Y-313200D01*
G01X803085Y-300700D02*
X810215D01*
G01X822150Y-313200D02*
X815950D01*
Y-300700D01*
X822150D01*
G01X819670Y-306742D02*
X815950D01*
G01X828040Y-313200D02*
Y-300700D01*
X831140D01*
X832380Y-301325D01*
X833310Y-302158D01*
X834085Y-303408D01*
X834705Y-304867D01*
X834860Y-306950D01*
X834705Y-309033D01*
X834085Y-310492D01*
X833310Y-311742D01*
X832380Y-312575D01*
X831140Y-313200D01*
X828040D01*
G01X766350Y-341300D02*
Y-328800D01*
X770070D01*
X771310Y-329425D01*
X772240Y-330883D01*
X772550Y-332550D01*
X772240Y-334217D01*
X771465Y-335467D01*
X770070Y-336092D01*
X766350D01*
G01X778750Y-328800D02*
Y-341300D01*
X784950D01*
G01X790375D02*
X794250Y-328800D01*
X798125Y-341300D01*
G01X796730Y-336925D02*
X791770D01*
G01X806650Y-328800D02*
Y-341300D01*
G01X803085Y-328800D02*
X810215D01*
G01X822150Y-341300D02*
X815950D01*
Y-328800D01*
X822150D01*
G01X819670Y-334842D02*
X815950D01*
G01X828040Y-341300D02*
Y-328800D01*
X831140D01*
X832380Y-329425D01*
X833310Y-330258D01*
X834085Y-331508D01*
X834705Y-332967D01*
X834860Y-335050D01*
X834705Y-337133D01*
X834085Y-338592D01*
X833310Y-339842D01*
X832380Y-340675D01*
X831140Y-341300D01*
X828040D01*
G01X766350Y-228900D02*
Y-216400D01*
X770070D01*
X771310Y-217025D01*
X772240Y-218483D01*
X772550Y-220150D01*
X772240Y-221817D01*
X771465Y-223067D01*
X770070Y-223692D01*
X766350D01*
G01X778750Y-216400D02*
Y-228900D01*
X784950D01*
G01X790375D02*
X794250Y-216400D01*
X798125Y-228900D01*
G01X796730Y-224525D02*
X791770D01*
G01X806650Y-216400D02*
Y-228900D01*
G01X803085Y-216400D02*
X810215D01*
G01X822150Y-228900D02*
X815950D01*
Y-216400D01*
X822150D01*
G01X819670Y-222442D02*
X815950D01*
G01X828040Y-228900D02*
Y-216400D01*
X831140D01*
X832380Y-217025D01*
X833310Y-217858D01*
X834085Y-219108D01*
X834705Y-220567D01*
X834860Y-222650D01*
X834705Y-224733D01*
X834085Y-226192D01*
X833310Y-227442D01*
X832380Y-228275D01*
X831140Y-228900D01*
X828040D01*
G01X766350Y-257000D02*
Y-244500D01*
X770070D01*
X771310Y-245125D01*
X772240Y-246583D01*
X772550Y-248250D01*
X772240Y-249917D01*
X771465Y-251167D01*
X770070Y-251792D01*
X766350D01*
G01X778750Y-244500D02*
Y-257000D01*
X784950D01*
G01X790375D02*
X794250Y-244500D01*
X798125Y-257000D01*
G01X796730Y-252625D02*
X791770D01*
G01X806650Y-244500D02*
Y-257000D01*
G01X803085Y-244500D02*
X810215D01*
G01X822150Y-257000D02*
X815950D01*
Y-244500D01*
X822150D01*
G01X819670Y-250542D02*
X815950D01*
G01X828040Y-257000D02*
Y-244500D01*
X831140D01*
X832380Y-245125D01*
X833310Y-245958D01*
X834085Y-247208D01*
X834705Y-248667D01*
X834860Y-250750D01*
X834705Y-252833D01*
X834085Y-254292D01*
X833310Y-255542D01*
X832380Y-256375D01*
X831140Y-257000D01*
X828040D01*
G01X766350Y-200800D02*
Y-188300D01*
X770070D01*
X771310Y-188925D01*
X772240Y-190383D01*
X772550Y-192050D01*
X772240Y-193717D01*
X771465Y-194967D01*
X770070Y-195592D01*
X766350D01*
G01X778750Y-188300D02*
Y-200800D01*
X784950D01*
G01X790375D02*
X794250Y-188300D01*
X798125Y-200800D01*
G01X796730Y-196425D02*
X791770D01*
G01X806650Y-188300D02*
Y-200800D01*
G01X803085Y-188300D02*
X810215D01*
G01X822150Y-200800D02*
X815950D01*
Y-188300D01*
X822150D01*
G01X819670Y-194342D02*
X815950D01*
G01X828040Y-200800D02*
Y-188300D01*
X831140D01*
X832380Y-188925D01*
X833310Y-189758D01*
X834085Y-191008D01*
X834705Y-192467D01*
X834860Y-194550D01*
X834705Y-196633D01*
X834085Y-198092D01*
X833310Y-199342D01*
X832380Y-200175D01*
X831140Y-200800D01*
X828040D01*
G01X766350Y-172700D02*
Y-160200D01*
X770070D01*
X771310Y-160825D01*
X772240Y-162283D01*
X772550Y-163950D01*
X772240Y-165617D01*
X771465Y-166867D01*
X770070Y-167492D01*
X766350D01*
G01X778750Y-160200D02*
Y-172700D01*
X784950D01*
G01X790375D02*
X794250Y-160200D01*
X798125Y-172700D01*
G01X796730Y-168325D02*
X791770D01*
G01X806650Y-160200D02*
Y-172700D01*
G01X803085Y-160200D02*
X810215D01*
G01X822150Y-172700D02*
X815950D01*
Y-160200D01*
X822150D01*
G01X819670Y-166242D02*
X815950D01*
G01X828040Y-172700D02*
Y-160200D01*
X831140D01*
X832380Y-160825D01*
X833310Y-161658D01*
X834085Y-162908D01*
X834705Y-164367D01*
X834860Y-166450D01*
X834705Y-168533D01*
X834085Y-169992D01*
X833310Y-171242D01*
X832380Y-172075D01*
X831140Y-172700D01*
X828040D01*
G01X766350Y-116500D02*
Y-104000D01*
X770070D01*
X771310Y-104625D01*
X772240Y-106083D01*
X772550Y-107750D01*
X772240Y-109417D01*
X771465Y-110667D01*
X770070Y-111292D01*
X766350D01*
G01X778750Y-104000D02*
Y-116500D01*
X784950D01*
G01X790375D02*
X794250Y-104000D01*
X798125Y-116500D01*
G01X796730Y-112125D02*
X791770D01*
G01X806650Y-104000D02*
Y-116500D01*
G01X803085Y-104000D02*
X810215D01*
G01X822150Y-116500D02*
X815950D01*
Y-104000D01*
X822150D01*
G01X819670Y-110042D02*
X815950D01*
G01X828040Y-116500D02*
Y-104000D01*
X831140D01*
X832380Y-104625D01*
X833310Y-105458D01*
X834085Y-106708D01*
X834705Y-108167D01*
X834860Y-110250D01*
X834705Y-112333D01*
X834085Y-113792D01*
X833310Y-115042D01*
X832380Y-115875D01*
X831140Y-116500D01*
X828040D01*
G01X766350Y-144600D02*
Y-132100D01*
X770070D01*
X771310Y-132725D01*
X772240Y-134183D01*
X772550Y-135850D01*
X772240Y-137517D01*
X771465Y-138767D01*
X770070Y-139392D01*
X766350D01*
G01X778750Y-132100D02*
Y-144600D01*
X784950D01*
G01X790375D02*
X794250Y-132100D01*
X798125Y-144600D01*
G01X796730Y-140225D02*
X791770D01*
G01X806650Y-132100D02*
Y-144600D01*
G01X803085Y-132100D02*
X810215D01*
G01X822150Y-144600D02*
X815950D01*
Y-132100D01*
X822150D01*
G01X819670Y-138142D02*
X815950D01*
G01X828040Y-144600D02*
Y-132100D01*
X831140D01*
X832380Y-132725D01*
X833310Y-133558D01*
X834085Y-134808D01*
X834705Y-136267D01*
X834860Y-138350D01*
X834705Y-140433D01*
X834085Y-141892D01*
X833310Y-143142D01*
X832380Y-143975D01*
X831140Y-144600D01*
X828040D01*
G01X766350Y-88400D02*
Y-75900D01*
X770070D01*
X771310Y-76525D01*
X772240Y-77983D01*
X772550Y-79650D01*
X772240Y-81317D01*
X771465Y-82567D01*
X770070Y-83192D01*
X766350D01*
G01X778750Y-75900D02*
Y-88400D01*
X784950D01*
G01X790375D02*
X794250Y-75900D01*
X798125Y-88400D01*
G01X796730Y-84025D02*
X791770D01*
G01X806650Y-75900D02*
Y-88400D01*
G01X803085Y-75900D02*
X810215D01*
G01X822150Y-88400D02*
X815950D01*
Y-75900D01*
X822150D01*
G01X819670Y-81942D02*
X815950D01*
G01X828040Y-88400D02*
Y-75900D01*
X831140D01*
X832380Y-76525D01*
X833310Y-77358D01*
X834085Y-78608D01*
X834705Y-80067D01*
X834860Y-82150D01*
X834705Y-84233D01*
X834085Y-85692D01*
X833310Y-86942D01*
X832380Y-87775D01*
X831140Y-88400D01*
X828040D01*
G01X766350Y-32200D02*
Y-19700D01*
X770070D01*
X771310Y-20325D01*
X772240Y-21783D01*
X772550Y-23450D01*
X772240Y-25117D01*
X771465Y-26367D01*
X770070Y-26992D01*
X766350D01*
G01X778750Y-19700D02*
Y-32200D01*
X784950D01*
G01X790375D02*
X794250Y-19700D01*
X798125Y-32200D01*
G01X796730Y-27825D02*
X791770D01*
G01X806650Y-19700D02*
Y-32200D01*
G01X803085Y-19700D02*
X810215D01*
G01X822150Y-32200D02*
X815950D01*
Y-19700D01*
X822150D01*
G01X819670Y-25742D02*
X815950D01*
G01X828040Y-32200D02*
Y-19700D01*
X831140D01*
X832380Y-20325D01*
X833310Y-21158D01*
X834085Y-22408D01*
X834705Y-23867D01*
X834860Y-25950D01*
X834705Y-28033D01*
X834085Y-29492D01*
X833310Y-30742D01*
X832380Y-31575D01*
X831140Y-32200D01*
X828040D01*
G01X766350Y-60300D02*
Y-47800D01*
X770070D01*
X771310Y-48425D01*
X772240Y-49883D01*
X772550Y-51550D01*
X772240Y-53217D01*
X771465Y-54467D01*
X770070Y-55092D01*
X766350D01*
G01X778750Y-47800D02*
Y-60300D01*
X784950D01*
G01X790375D02*
X794250Y-47800D01*
X798125Y-60300D01*
G01X796730Y-55925D02*
X791770D01*
G01X806650Y-47800D02*
Y-60300D01*
G01X803085Y-47800D02*
X810215D01*
G01X822150Y-60300D02*
X815950D01*
Y-47800D01*
X822150D01*
G01X819670Y-53842D02*
X815950D01*
G01X828040Y-60300D02*
Y-47800D01*
X831140D01*
X832380Y-48425D01*
X833310Y-49258D01*
X834085Y-50508D01*
X834705Y-51967D01*
X834860Y-54050D01*
X834705Y-56133D01*
X834085Y-57592D01*
X833310Y-58842D01*
X832380Y-59675D01*
X831140Y-60300D01*
X828040D01*
G01X766350Y-4100D02*
Y8400D01*
X770070D01*
X771310Y7775D01*
X772240Y6317D01*
X772550Y4650D01*
X772240Y2983D01*
X771465Y1733D01*
X770070Y1108D01*
X766350D01*
G01X778750Y8400D02*
Y-4100D01*
X784950D01*
G01X790375D02*
X794250Y8400D01*
X798125Y-4100D01*
G01X796730Y275D02*
X791770D01*
G01X806650Y8400D02*
Y-4100D01*
G01X803085Y8400D02*
X810215D01*
G01X822150Y-4100D02*
X815950D01*
Y8400D01*
X822150D01*
G01X819670Y2358D02*
X815950D01*
G01X828040Y-4100D02*
Y8400D01*
X831140D01*
X832380Y7775D01*
X833310Y6942D01*
X834085Y5692D01*
X834705Y4233D01*
X834860Y2150D01*
X834705Y67D01*
X834085Y-1392D01*
X833310Y-2642D01*
X832380Y-3475D01*
X831140Y-4100D01*
X828040D01*
G01X766350Y24000D02*
Y36500D01*
X770070D01*
X771310Y35875D01*
X772240Y34417D01*
X772550Y32750D01*
X772240Y31083D01*
X771465Y29833D01*
X770070Y29208D01*
X766350D01*
G01X778750Y36500D02*
Y24000D01*
X784950D01*
G01X790375D02*
X794250Y36500D01*
X798125Y24000D01*
G01X796730Y28375D02*
X791770D01*
G01X806650Y36500D02*
Y24000D01*
G01X803085Y36500D02*
X810215D01*
G01X822150Y24000D02*
X815950D01*
Y36500D01*
X822150D01*
G01X819670Y30458D02*
X815950D01*
G01X828040Y24000D02*
Y36500D01*
X831140D01*
X832380Y35875D01*
X833310Y35042D01*
X834085Y33792D01*
X834705Y32333D01*
X834860Y30250D01*
X834705Y28167D01*
X834085Y26708D01*
X833310Y25458D01*
X832380Y24625D01*
X831140Y24000D01*
X828040D01*
G01X766350Y81750D02*
Y94250D01*
X770070D01*
X771310Y93625D01*
X772240Y92167D01*
X772550Y90500D01*
X772240Y88833D01*
X771465Y87583D01*
X770070Y86958D01*
X766350D01*
G01X778750Y94250D02*
Y81750D01*
X784950D01*
G01X790375D02*
X794250Y94250D01*
X798125Y81750D01*
G01X796730Y86125D02*
X791770D01*
G01X806650Y94250D02*
Y81750D01*
G01X803085Y94250D02*
X810215D01*
G01X822150Y81750D02*
X815950D01*
Y94250D01*
X822150D01*
G01X819670Y88208D02*
X815950D01*
G01X828040Y81750D02*
Y94250D01*
X831140D01*
X832380Y93625D01*
X833310Y92792D01*
X834085Y91542D01*
X834705Y90083D01*
X834860Y88000D01*
X834705Y85917D01*
X834085Y84458D01*
X833310Y83208D01*
X832380Y82375D01*
X831140Y81750D01*
X828040D01*
G01X766350Y52100D02*
Y64600D01*
X770070D01*
X771310Y63975D01*
X772240Y62517D01*
X772550Y60850D01*
X772240Y59183D01*
X771465Y57933D01*
X770070Y57308D01*
X766350D01*
G01X778750Y64600D02*
Y52100D01*
X784950D01*
G01X790375D02*
X794250Y64600D01*
X798125Y52100D01*
G01X796730Y56475D02*
X791770D01*
G01X806650Y64600D02*
Y52100D01*
G01X803085Y64600D02*
X810215D01*
G01X822150Y52100D02*
X815950D01*
Y64600D01*
X822150D01*
G01X819670Y58558D02*
X815950D01*
G01X828040Y52100D02*
Y64600D01*
X831140D01*
X832380Y63975D01*
X833310Y63142D01*
X834085Y61892D01*
X834705Y60433D01*
X834860Y58350D01*
X834705Y56267D01*
X834085Y54808D01*
X833310Y53558D01*
X832380Y52725D01*
X831140Y52100D01*
X828040D01*
G01X864000Y100500D02*
Y-349100D01*
G01X899805Y-302783D02*
X900735Y-301534D01*
X901820Y-300908D01*
X903060Y-300700D01*
X904610Y-301117D01*
X905695Y-302158D01*
X906005Y-303408D01*
X905850Y-304659D01*
X905230Y-305700D01*
X902130Y-307783D01*
X900735Y-309242D01*
X899805Y-311325D01*
X899495Y-313200D01*
X906005D01*
G01X902750Y-341300D02*
Y-328800D01*
X900890Y-331300D01*
G01Y-341300D02*
X904610D01*
G01X899805Y-274683D02*
X900735Y-273434D01*
X901820Y-272808D01*
X903060Y-272600D01*
X904610Y-273017D01*
X905695Y-274058D01*
X906005Y-275308D01*
X905850Y-276559D01*
X905230Y-277600D01*
X902130Y-279683D01*
X900735Y-281142D01*
X899805Y-283225D01*
X899495Y-285100D01*
X906005D01*
G01X899805Y-218483D02*
X900735Y-217234D01*
X901820Y-216608D01*
X903060Y-216400D01*
X904610Y-216817D01*
X905695Y-217858D01*
X906005Y-219108D01*
X905850Y-220359D01*
X905230Y-221400D01*
X902130Y-223483D01*
X900735Y-224942D01*
X899805Y-227025D01*
X899495Y-228900D01*
X906005D01*
G01X904610Y-257000D02*
Y-244500D01*
X898875Y-253458D01*
X906625D01*
G01X904610Y-200800D02*
Y-188300D01*
X898875Y-197258D01*
X906625D01*
G01X904610Y-172700D02*
Y-160200D01*
X898875Y-169158D01*
X906625D01*
G01X899805Y-106083D02*
X900735Y-104834D01*
X901820Y-104208D01*
X903060Y-104000D01*
X904610Y-104417D01*
X905695Y-105458D01*
X906005Y-106708D01*
X905850Y-107959D01*
X905230Y-109000D01*
X902130Y-111083D01*
X900735Y-112542D01*
X899805Y-114625D01*
X899495Y-116500D01*
X906005D01*
G01X893605Y-134183D02*
X894535Y-132934D01*
X895620Y-132308D01*
X896860Y-132100D01*
X898410Y-132517D01*
X899495Y-133558D01*
X899805Y-134808D01*
X899650Y-136059D01*
X899030Y-137100D01*
X895930Y-139183D01*
X894535Y-140642D01*
X893605Y-142725D01*
X893295Y-144600D01*
X899805D01*
G01X908950Y-132100D02*
X907710Y-132517D01*
X906780Y-133558D01*
X906160Y-134808D01*
X905695Y-136475D01*
X905540Y-138350D01*
X905695Y-140225D01*
X906160Y-141892D01*
X906780Y-143142D01*
X907710Y-144183D01*
X908950Y-144600D01*
X910190Y-144183D01*
X911120Y-143142D01*
X911740Y-141892D01*
X912205Y-140225D01*
X912360Y-138350D01*
X912205Y-136475D01*
X911740Y-134808D01*
X911120Y-133558D01*
X910190Y-132517D01*
X908950Y-132100D01*
G01X896550Y-88400D02*
Y-75900D01*
X894690Y-78400D01*
G01Y-88400D02*
X898410D01*
G01X908950Y-75900D02*
X907710Y-76317D01*
X906780Y-77358D01*
X906160Y-78608D01*
X905695Y-80275D01*
X905540Y-82150D01*
X905695Y-84025D01*
X906160Y-85692D01*
X906780Y-86942D01*
X907710Y-87983D01*
X908950Y-88400D01*
X910190Y-87983D01*
X911120Y-86942D01*
X911740Y-85692D01*
X912205Y-84025D01*
X912360Y-82150D01*
X912205Y-80275D01*
X911740Y-78608D01*
X911120Y-77358D01*
X910190Y-76317D01*
X908950Y-75900D01*
G01X902440Y-32200D02*
X902750Y-29492D01*
X903215Y-27200D01*
X903835Y-25117D01*
X904610Y-22825D01*
X905850Y-19700D01*
X899650D01*
G01X898410Y-60300D02*
Y-47800D01*
X892675Y-56758D01*
X900425D01*
G01X905540Y-58425D02*
X906470Y-59467D01*
X907555Y-60092D01*
X908950Y-60300D01*
X910345Y-59883D01*
X911430Y-59050D01*
X912205Y-57592D01*
X912360Y-55925D01*
X912050Y-54258D01*
X911275Y-53217D01*
X910190Y-52383D01*
X909105Y-52175D01*
X908020Y-52383D01*
X906625Y-53217D01*
X907090Y-47800D01*
X911275D01*
G01X904610Y-4100D02*
Y8400D01*
X898875Y-558D01*
X906625D01*
G01X899805Y34417D02*
X900735Y35666D01*
X901820Y36292D01*
X903060Y36500D01*
X904610Y36083D01*
X905695Y35042D01*
X906005Y33792D01*
X905850Y32541D01*
X905230Y31500D01*
X902130Y29417D01*
X900735Y27958D01*
X899805Y25875D01*
X899495Y24000D01*
X906005D01*
G01X890350Y81750D02*
X889110Y81958D01*
X888025Y82791D01*
X887095Y84042D01*
X886475Y85500D01*
X886165Y87167D01*
Y88833D01*
X886475Y90500D01*
X887095Y91958D01*
X888025Y93208D01*
X889110Y94042D01*
X890350Y94250D01*
X891590Y94042D01*
X892675Y93208D01*
X893605Y91958D01*
X894225Y90500D01*
X894535Y88833D01*
Y87167D01*
X894225Y85500D01*
X893605Y84042D01*
X892675Y82791D01*
X891590Y81958D01*
X890350Y81750D01*
G01X891590Y85083D02*
X893450Y81750D01*
G01X902750Y94250D02*
Y81750D01*
G01X899185Y94250D02*
X906315D01*
G01X915150Y81750D02*
Y87375D01*
X912050Y94250D01*
G01X918250D02*
X915150Y87375D01*
G01X890350Y52100D02*
X891435Y52308D01*
X892675Y52933D01*
X893450Y53975D01*
X893760Y55433D01*
X893450Y56891D01*
X892520Y58142D01*
X891125Y58767D01*
X889575D01*
X888645Y59183D01*
X887870Y60225D01*
X887560Y61683D01*
X888025Y63142D01*
X889110Y64183D01*
X890350Y64600D01*
X891590Y64183D01*
X892675Y63142D01*
X893140Y61683D01*
X892830Y60225D01*
X892055Y59183D01*
X891125Y58767D01*
X889575D01*
X888180Y58142D01*
X887250Y56891D01*
X886940Y55433D01*
X887250Y53975D01*
X888025Y52933D01*
X889265Y52308D01*
X890350Y52100D01*
G01X902750D02*
Y64600D01*
X900890Y62100D01*
G01Y52100D02*
X904610D01*
G01X915150Y64600D02*
X913910Y64183D01*
X912980Y63142D01*
X912360Y61892D01*
X911895Y60225D01*
X911740Y58350D01*
X911895Y56475D01*
X912360Y54808D01*
X912980Y53558D01*
X913910Y52517D01*
X915150Y52100D01*
X916390Y52517D01*
X917320Y53558D01*
X917940Y54808D01*
X918405Y56475D01*
X918560Y58350D01*
X918405Y60225D01*
X917940Y61892D01*
X917320Y63142D01*
X916390Y64183D01*
X915150Y64600D01*
G54D16*
X-333600Y182741D03*
Y192583D03*
Y200457D03*
Y210300D03*
X502850Y2150D03*
G54D17*
X-302400Y369700D03*
X-152100Y-102300D03*
X153200Y-101300D03*
X225800Y369700D03*
X502850Y-250750D03*
G54D18*
X-236220Y275591D03*
X-157480D03*
X157480D03*
X236220D03*
X502850Y-194550D03*
G54D19*
X-196400Y218389D03*
Y230200D03*
X-176715Y218389D03*
Y230200D03*
X-110215Y119789D03*
X-129900D03*
X-110215Y131600D03*
X-129900D03*
X-142585Y198800D03*
X-122900D03*
X-142585Y210611D03*
X-122900D03*
X201100Y218789D03*
Y230600D03*
X224189Y11315D03*
X236000D03*
X224189Y31000D03*
X236000D03*
X220785Y218789D03*
Y230600D03*
X502850Y-138350D03*
M02*
