G04 ================== begin FILE IDENTIFICATION RECORD ==================*
G04 Layout Name:  C:/Users/Liu/Desktop/Stereo/Layout/Stereo.brd*
G04 Film Name:    PASTEMASK_TOP*
G04 File Format:  Gerber RS274X*
G04 File Origin:  Cadence Allegro 16.6-P004*
G04 Origin Date:  Wed Oct 15 09:28:20 2014*
G04 *
G04 Layer:  VIA CLASS/PASTEMASK_TOP*
G04 Layer:  PIN/PASTEMASK_TOP*
G04 Layer:  PACKAGE GEOMETRY/PASTEMASK_TOP*
G04 *
G04 Offset:    (0.00 0.00)*
G04 Mirror:    No*
G04 Mode:      Positive*
G04 Rotation:  0*
G04 FullContactRelief:  No*
G04 UndefLineWidth:     6.00*
G04 ================== end FILE IDENTIFICATION RECORD ====================*
%FSLAX35Y35*MOIN*%
%IR0*IPPOS*OFA0.00000B0.00000*MIA0B0*SFA1.00000B1.00000*%
%AMMACRO41*
4,1,40,-.00709,-.01594,
.00709,-.01594,
.00832,-.015832,
.009513,-.015511,
.010631,-.014989,
.011643,-.01428,
.012515,-.013407,
.013223,-.012395,
.013744,-.011275,
.014063,-.010082,
.01417,-.00886,
.01417,.00886,
.014062,.01009,
.013741,.011283,
.013219,.012401,
.01251,.013413,
.011637,.014285,
.010625,.014993,
.009505,.015514,
.008312,.015833,
.00709,.01594,
-.00709,.01594,
-.00832,.015832,
-.009513,.015511,
-.010631,.014989,
-.011643,.01428,
-.012515,.013407,
-.013223,.012395,
-.013744,.011275,
-.014063,.010082,
-.01417,.00886,
-.01417,-.00886,
-.014062,-.01009,
-.013741,-.011283,
-.013219,-.012401,
-.01251,-.013413,
-.011637,-.014285,
-.010625,-.014993,
-.009505,-.015514,
-.008312,-.015833,
-.00709,-.01594,
0.0*
%
%ADD41MACRO41*%
%AMMACRO21*
4,1,4,.03398,-.03201,
-.03397,-.03201,
-.03397,.03201,
.03398,.03201,
.03398,-.03201,
0.0*
%
%ADD21MACRO21*%
%AMMACRO31*
4,1,40,.00976,.0048,
.00976,-.0048,
.009681,-.005634,
.009459,-.006441,
.0091,-.007197,
.008615,-.00788,
.008019,-.008467,
.00733,-.008943,
.006569,-.009292,
.005759,-.009503,
.00496,-.00957,
-.00496,-.00957,
-.005794,-.009497,
-.006603,-.009279,
-.007361,-.008925,
-.008047,-.008444,
-.008638,-.007852,
-.009118,-.007166,
-.009471,-.006407,
-.009688,-.005598,
-.00976,-.0048,
-.00976,.0048,
-.009681,.005634,
-.009459,.006441,
-.0091,.007197,
-.008615,.00788,
-.008019,.008467,
-.00733,.008943,
-.006569,.009292,
-.005759,.009503,
-.00496,.00957,
.00496,.00957,
.005794,.009497,
.006603,.009279,
.007361,.008925,
.008047,.008444,
.008638,.007852,
.009118,.007166,
.009471,.006407,
.009688,.005598,
.00976,.0048,
0.0*
%
%ADD31MACRO31*%
%ADD10O,.1378X.05118*%
%ADD11O,.05118X.1378*%
%AMMACRO25*
4,1,22,.01575,-.00591,
-.00984,-.00591,
-.010866,-.005821,
-.011861,-.005554,
-.012795,-.005119,
-.013639,-.004529,
-.014368,-.003801,
-.014959,-.002957,
-.015395,-.002024,
-.015662,-.001029,
-.015753,-.000003,
-.015663,.001024,
-.015397,.002019,
-.014962,.002953,
-.014371,.003797,
-.013643,.004526,
-.0128,.005117,
-.011866,.005553,
-.010871,.00582,
-.009845,.00591,
-.00984,.00591,
.01575,.00591,
.01575,-.00591,
0.0*
%
%ADD25MACRO25*%
%AMMACRO24*
4,1,22,.00591,.01575,
.00591,-.00984,
.005821,-.010866,
.005554,-.011861,
.005119,-.012795,
.004529,-.013639,
.003801,-.014368,
.002957,-.014959,
.002024,-.015395,
.001029,-.015662,
.000003,-.015753,
-.001024,-.015663,
-.002019,-.015397,
-.002953,-.014962,
-.003797,-.014371,
-.004526,-.013643,
-.005117,-.0128,
-.005553,-.011866,
-.00582,-.010871,
-.00591,-.009845,
-.00591,-.00984,
-.00591,.01575,
.00591,.01575,
0.0*
%
%ADD24MACRO24*%
%AMMACRO36*
4,1,24,.00591,.00787,
.00591,.08268,
.08268,.08268,
.08268,.00591,
.00787,.00591,
.00197,0.0,
.00787,-.00591,
.08268,-.00591,
.08268,-.08268,
.00591,-.08268,
.00591,-.00787,
0.0,-.00197,
-.00591,-.00787,
-.00591,-.08268,
-.08268,-.08268,
-.08268,-.00591,
-.00787,-.00591,
-.00197,0.0,
-.00787,.00591,
-.08268,.00591,
-.08268,.08268,
-.00591,.08268,
-.00591,.00787,
0.0,.00197,
.00591,.00787,
0.0*
%
%ADD36MACRO36*%
%ADD28C,.06299*%
%ADD29R,.06299X.06299*%
%AMMACRO37*
4,1,45,.0248,0.0,
.0248,.00551,
.024696,.006706,
.024385,.007866,
.023878,.008954,
.02319,.009938,
.022341,.010787,
.021357,.011476,
.020269,.011984,
.01911,.012295,
.017914,.0124,
.01791,.0124,
-.01791,.0124,
-.019106,.012296,
-.020266,.011985,
-.021354,.011478,
-.022338,.01079,
-.023187,.009941,
-.023876,.008957,
-.024384,.007869,
-.024695,.00671,
-.0248,.005514,
-.0248,.00551,
-.0248,-.00551,
-.024696,-.006706,
-.024385,-.007866,
-.023878,-.008954,
-.02319,-.009938,
-.022341,-.010787,
-.021357,-.011476,
-.020269,-.011984,
-.01911,-.012295,
-.017914,-.0124,
-.01791,-.0124,
.01791,-.0124,
.019106,-.012296,
.020266,-.011985,
.021354,-.011478,
.022338,-.01079,
.023187,-.009941,
.023876,-.008957,
.024384,-.007869,
.024695,-.00671,
.0248,-.005514,
.0248,-.00551,
.0248,0.0,
0.0*
%
%ADD37MACRO37*%
%ADD26R,.0315X.01181*%
%ADD32R,.0252X.02244*%
%ADD12R,.0315X.0374*%
%AMMACRO33*
4,1,40,-.0048,.00976,
.0048,.00976,
.005634,.009681,
.006441,.009459,
.007197,.0091,
.00788,.008615,
.008467,.008019,
.008943,.00733,
.009292,.006569,
.009503,.005759,
.00957,.00496,
.00957,-.00496,
.009497,-.005794,
.009279,-.006603,
.008925,-.007361,
.008444,-.008047,
.007852,-.008638,
.007166,-.009118,
.006407,-.009471,
.005598,-.009688,
.0048,-.00976,
-.0048,-.00976,
-.005634,-.009681,
-.006441,-.009459,
-.007197,-.0091,
-.00788,-.008615,
-.008467,-.008019,
-.008943,-.00733,
-.009292,-.006569,
-.009503,-.005759,
-.00957,-.00496,
-.00957,.00496,
-.009497,.005794,
-.009279,.006603,
-.008925,.007361,
-.008444,.008047,
-.007852,.008638,
-.007166,.009118,
-.006407,.009471,
-.005598,.009688,
-.0048,.00976,
0.0*
%
%ADD33MACRO33*%
%AMMACRO30*
4,1,40,-.00976,-.0048,
-.00976,.0048,
-.009681,.005634,
-.009459,.006441,
-.0091,.007197,
-.008615,.00788,
-.008019,.008467,
-.00733,.008943,
-.006569,.009292,
-.005759,.009503,
-.00496,.00957,
.00496,.00957,
.005794,.009497,
.006603,.009279,
.007361,.008925,
.008047,.008444,
.008638,.007852,
.009118,.007166,
.009471,.006407,
.009688,.005598,
.00976,.0048,
.00976,-.0048,
.009681,-.005634,
.009459,-.006441,
.0091,-.007197,
.008615,-.00788,
.008019,-.008467,
.00733,-.008943,
.006569,-.009292,
.005759,-.009503,
.00496,-.00957,
-.00496,-.00957,
-.005794,-.009497,
-.006603,-.009279,
-.007361,-.008925,
-.008047,-.008444,
-.008638,-.007852,
-.009118,-.007166,
-.009471,-.006407,
-.009688,-.005598,
-.00976,-.0048,
0.0*
%
%ADD30MACRO30*%
%ADD16R,.0374X.0315*%
%ADD14C,.23622*%
%ADD35O,.02835X.01063*%
%ADD15O,.02362X.05118*%
%ADD34O,.01063X.02835*%
%ADD38R,.05512X.04724*%
%ADD27R,.01181X.05906*%
%ADD19R,.0252X.04882*%
%ADD18O,.05906X.02362*%
%ADD13R,.08661X.06102*%
%ADD20R,.05906X.01181*%
%ADD17R,.04528X.04134*%
%AMMACRO22*
4,1,22,-.00591,-.01575,
-.00591,.00984,
-.005821,.010866,
-.005554,.011861,
-.005119,.012795,
-.004529,.013639,
-.003801,.014368,
-.002957,.014959,
-.002024,.015395,
-.001029,.015662,
-.000003,.015753,
.001024,.015663,
.002019,.015397,
.002953,.014962,
.003797,.014371,
.004526,.013643,
.005117,.0128,
.005553,.011866,
.00582,.010871,
.00591,.009845,
.00591,.00984,
.00591,-.01575,
-.00591,-.01575,
0.0*
%
%ADD22MACRO22*%
%AMMACRO23*
4,1,22,-.01575,.00591,
.00984,.00591,
.010866,.005821,
.011861,.005554,
.012795,.005119,
.013639,.004529,
.014368,.003801,
.014959,.002957,
.015395,.002024,
.015662,.001029,
.015753,.000003,
.015663,-.001024,
.015397,-.002019,
.014962,-.002953,
.014371,-.003797,
.013643,-.004526,
.0128,-.005117,
.011866,-.005553,
.010871,-.00582,
.009845,-.00591,
.00984,-.00591,
-.01575,-.00591,
-.01575,.00591,
0.0*
%
%ADD23MACRO23*%
%ADD42R,.08661X.04724*%
%ADD40R,.05512X.06299*%
%ADD39R,.06299X.02756*%
G75*
%LPD*%
G75*
G36*
G01X2798Y26298D02*
X-3997D01*
Y32700D01*
X2798D01*
Y26298D01*
G37*
G54D10*
X-347289Y15102D03*
G54D20*
X-34426Y117251D03*
Y119220D03*
Y121188D03*
Y123157D03*
Y125125D03*
Y127094D03*
Y129062D03*
Y131031D03*
Y132999D03*
Y134968D03*
Y136936D03*
Y138905D03*
Y140873D03*
Y142842D03*
Y144810D03*
Y146779D03*
Y148747D03*
Y150716D03*
Y152684D03*
Y154653D03*
Y156621D03*
Y158590D03*
Y160558D03*
Y162527D03*
Y164495D03*
Y166464D03*
Y168432D03*
Y170401D03*
Y172369D03*
Y174338D03*
Y176306D03*
Y178275D03*
Y180243D03*
Y182212D03*
Y184180D03*
Y186149D03*
X49826Y127094D03*
Y125125D03*
Y123157D03*
Y121188D03*
Y119220D03*
Y117251D03*
Y166464D03*
Y164495D03*
Y162527D03*
Y160558D03*
Y158590D03*
Y156621D03*
Y154653D03*
Y152684D03*
Y150716D03*
Y148747D03*
Y146779D03*
Y144810D03*
Y142842D03*
Y140873D03*
Y138905D03*
Y136936D03*
Y134968D03*
Y132999D03*
Y131031D03*
Y129062D03*
Y186149D03*
Y184180D03*
Y182212D03*
Y180243D03*
Y178275D03*
Y176306D03*
Y174338D03*
Y172369D03*
Y170401D03*
Y168432D03*
G54D11*
X-359100Y34000D03*
X-335478D03*
G54D30*
X227800Y41100D03*
X224650D03*
X282400Y26800D03*
X279250D03*
X282150Y267800D03*
X299900Y274500D03*
X296750D03*
X291400Y283900D03*
X288250D03*
X285300Y267800D03*
X307000Y313500D03*
X303850D03*
X307000Y308800D03*
X303850D03*
X292000Y299400D03*
X288850D03*
X318300Y316200D03*
X315150D03*
X308500Y303300D03*
X305350D03*
X323800Y347400D03*
X320650D03*
X330700Y53100D03*
X327550D03*
X347300Y53300D03*
X344150D03*
X349400Y306800D03*
X346250D03*
G54D12*
X-337454Y155300D03*
X-344146D03*
X-344346Y236900D03*
X-337654D03*
X-273746Y177200D03*
X-267054D03*
X-274146Y200200D03*
X-267454D03*
X-273846Y191800D03*
X-267154D03*
X-232054Y291100D03*
X-238746D03*
X-232354Y297600D03*
X-239046D03*
X-189654Y238500D03*
X-196346D03*
X-192646Y258200D03*
Y251600D03*
X-210454Y258900D03*
X-217146D03*
X-210254Y252400D03*
X-216946D03*
X-187846Y311200D03*
X-187746Y304700D03*
X-201154Y303900D03*
X-207846D03*
X-160954Y230100D03*
X-167646D03*
Y218400D03*
X-160954D03*
X-185954Y258200D03*
Y251600D03*
X-181154Y311200D03*
X-181054Y304700D03*
X-127346Y166100D03*
X-120654D03*
X-123354Y143100D03*
X-130046D03*
X-126946Y178400D03*
X-120254D03*
X-110846Y211200D03*
X-123154Y222500D03*
X-129846D03*
X-79546Y100500D03*
X-72854D03*
X-80046Y92900D03*
X-73354D03*
X-73246Y144100D03*
Y137700D03*
X-69946Y168100D03*
X-69746Y175600D03*
X-81346Y216000D03*
X-74654D03*
X-81046Y231100D03*
X-74354D03*
X-104154Y211200D03*
X-34846Y34700D03*
X-31546Y99200D03*
X-65146Y121500D03*
X-58454D03*
Y127700D03*
X-65146D03*
X-66554Y144100D03*
Y137700D03*
X-60454Y161600D03*
X-67146D03*
X-53546Y144700D03*
X-46854D03*
X-53546Y138600D03*
X-46854D03*
X-63254Y168100D03*
X-63054Y175600D03*
X-28154Y34700D03*
X2946Y12100D03*
X-3746D03*
X4154Y52400D03*
X-24854Y99200D03*
X-3446Y95200D03*
X3246D03*
X4954Y211400D03*
X8446Y217900D03*
X1754D03*
X5454Y224200D03*
X-22054Y262500D03*
X-28746D03*
X10846Y52400D03*
X17954Y94300D03*
X24646D03*
X45954Y95100D03*
X11646Y211400D03*
X12146Y224200D03*
X46754Y260400D03*
X64946Y108300D03*
X58254D03*
X52646Y95100D03*
X85654Y105600D03*
X85054Y94600D03*
X65346Y197900D03*
X58654D03*
X53446Y260400D03*
X92346Y105600D03*
X91746Y94600D03*
X93354Y371400D03*
X100046D03*
X126746Y378400D03*
X120054D03*
X100346Y378800D03*
X93654D03*
X119854Y370900D03*
X126546D03*
X161446Y290300D03*
X154754D03*
X161446Y297000D03*
X154754D03*
X182046Y244000D03*
X175354D03*
X200654Y239800D03*
X205246Y257300D03*
X198554D03*
X204746Y251300D03*
X198054D03*
X182346Y250800D03*
X175654D03*
X178546Y272500D03*
X171854D03*
X203254Y306000D03*
X203154Y299700D03*
X179954Y304700D03*
X186646D03*
X236846Y230600D03*
X230154D03*
X207346Y239800D03*
X220446Y208500D03*
X213754D03*
X209946Y306000D03*
X209846Y299700D03*
G54D21*
X-600Y29499D03*
G54D40*
X329862Y164710D03*
G54D22*
X4321Y21626D03*
X2353D03*
X384D03*
X-1584D03*
X-3553D03*
X-5521D03*
G54D13*
X-310271Y211500D03*
X-294129D03*
G54D31*
X248000Y39600D03*
X251150D03*
X247800Y31200D03*
X250950D03*
X292700Y34100D03*
X295850D03*
X292600Y27100D03*
X295750D03*
X302800Y267000D03*
X305950D03*
X322700Y316200D03*
X323800Y332000D03*
X329200Y268700D03*
X332350D03*
X325850Y316200D03*
X337000Y297800D03*
X340150D03*
X346300Y295100D03*
X349450D03*
X346300Y290500D03*
X349450D03*
X326950Y332000D03*
G54D23*
X-8474Y24579D03*
Y26547D03*
Y28516D03*
Y30484D03*
Y32453D03*
Y34421D03*
G54D14*
X-302400Y369700D03*
X-152100Y-102300D03*
X153200Y-101300D03*
X225800Y369700D03*
G54D32*
X318100Y23210D03*
Y26990D03*
X368700Y27690D03*
Y23910D03*
G54D41*
X344600Y317800D03*
Y312091D03*
X349128Y317800D03*
Y312091D03*
G54D42*
X367657Y107230D03*
Y168254D03*
G54D15*
X-300400Y168466D03*
X-304140Y176734D03*
X-296660D03*
X150640Y8366D03*
X143160D03*
X146900Y16634D03*
X331100Y45934D03*
X334840Y37666D03*
X327360D03*
X347300Y46434D03*
X351040Y38166D03*
X343560D03*
G54D33*
X308200Y23300D03*
Y26450D03*
X318300Y306500D03*
Y309650D03*
X322700Y306500D03*
Y309650D03*
X318300Y319700D03*
Y322850D03*
X301000Y297300D03*
Y300450D03*
X322700Y319700D03*
Y322850D03*
X320700Y327200D03*
Y330350D03*
Y333900D03*
Y337050D03*
X358600Y23100D03*
Y26250D03*
X331200Y307000D03*
Y310150D03*
X339500Y315200D03*
Y318350D03*
G54D24*
X-5521Y37374D03*
X-3553D03*
X-1584D03*
X384D03*
X2353D03*
X4321D03*
G54D34*
X311400Y274200D03*
X313369D03*
X315337D03*
X317306D03*
X319274D03*
X321243D03*
X323211D03*
Y297428D03*
X321243D03*
X319274D03*
X317306D03*
X315337D03*
X313369D03*
X311400D03*
X325180Y274200D03*
X327148D03*
X329117D03*
Y297428D03*
X327148D03*
X325180D03*
G54D16*
X-304100Y192846D03*
Y186154D03*
X-246300Y297346D03*
Y290654D03*
X-197700Y163654D03*
Y170346D03*
X-223600Y269454D03*
Y276146D03*
X-222900Y297546D03*
Y290854D03*
X-199700Y289754D03*
Y296446D03*
X-155100Y201854D03*
Y208546D03*
X-142500Y122354D03*
Y129046D03*
X-71300Y120646D03*
Y113954D03*
X-52200Y121654D03*
Y128346D03*
X-60700Y192046D03*
Y185354D03*
X-67900Y192146D03*
Y185454D03*
X-36200Y201754D03*
X-54000Y181554D03*
Y188246D03*
X-36200Y208446D03*
X-1700Y51954D03*
Y58646D03*
X27900Y267646D03*
Y260954D03*
X13700Y269346D03*
Y262654D03*
X64300Y139054D03*
Y145746D03*
X75700Y139854D03*
Y146546D03*
X65500Y191046D03*
Y184354D03*
X148100Y290054D03*
Y296746D03*
X169500Y296646D03*
Y289954D03*
X193400Y290654D03*
Y297346D03*
X283800Y143446D03*
Y136754D03*
X293800Y109154D03*
Y115846D03*
X302800Y148746D03*
Y142054D03*
X311500Y155146D03*
Y148454D03*
X292900Y146846D03*
Y140154D03*
X344300Y66046D03*
Y59354D03*
X328100Y66246D03*
Y59554D03*
G54D25*
X7274Y34421D03*
Y32453D03*
Y30484D03*
Y28516D03*
Y26547D03*
G54D17*
X-215637Y297150D03*
X-207763D03*
Y290850D03*
X-215637D03*
X178263Y297350D03*
X186137D03*
Y291050D03*
X178263D03*
G54D35*
X308644Y282861D03*
Y280893D03*
Y278924D03*
Y276956D03*
Y294672D03*
Y292704D03*
Y290735D03*
Y288767D03*
Y286798D03*
Y284830D03*
X331872Y276956D03*
Y278924D03*
Y280893D03*
Y282861D03*
Y284830D03*
Y286798D03*
Y288767D03*
Y290735D03*
Y292704D03*
Y294672D03*
G54D26*
X7274Y24579D03*
G54D18*
X-154930Y166100D03*
Y161100D03*
Y156100D03*
X-183670D03*
Y161100D03*
Y166100D03*
X-154930Y171100D03*
X-183670D03*
G54D27*
X8684Y109574D03*
X6716D03*
X4747D03*
X2779D03*
X810D03*
X-1158D03*
X-3127D03*
X-5095D03*
X-7064D03*
X-9032D03*
X-11001D03*
X-12969D03*
X-14938D03*
X-16906D03*
X-18875D03*
X-20843D03*
X-22812D03*
X-24780D03*
X-26749D03*
Y193826D03*
X-24780D03*
X-22812D03*
X-20843D03*
X-18875D03*
X-16906D03*
X-14938D03*
X-12969D03*
X-11001D03*
X-9032D03*
X-7064D03*
X-5095D03*
X-3127D03*
X-1158D03*
X810D03*
X2779D03*
X4747D03*
X6716D03*
X8684D03*
X42149Y109574D03*
X40180D03*
X38212D03*
X36243D03*
X34275D03*
X32306D03*
X30338D03*
X28369D03*
X26401D03*
X24432D03*
X22464D03*
X20495D03*
X18527D03*
X16558D03*
X14590D03*
X12621D03*
X10653D03*
Y193826D03*
X12621D03*
X14590D03*
X16558D03*
X18527D03*
X20495D03*
X22464D03*
X24432D03*
X26401D03*
X28369D03*
X30338D03*
X32306D03*
X34275D03*
X36243D03*
X38212D03*
X40180D03*
X42149D03*
G54D36*
X320258Y285814D03*
G54D19*
X-111727Y166298D03*
Y178502D03*
X-90073Y166298D03*
Y178502D03*
G54D37*
X291300Y288700D03*
Y294606D03*
G54D28*
X150361Y-25900D03*
G54D38*
X329862Y107230D03*
G54D29*
X135400Y-25900D03*
G54D39*
X327500Y111954D03*
Y116285D03*
Y120616D03*
Y124946D03*
Y129277D03*
Y133608D03*
Y137939D03*
Y142269D03*
Y146600D03*
M02*
