G04 ================== begin FILE IDENTIFICATION RECORD ==================*
G04 Layout Name:  C:/Users/Liu/Desktop/Stereo/Layout/Stereo.brd*
G04 Film Name:    SILKSCREEN_BOTTOM*
G04 File Format:  Gerber RS274X*
G04 File Origin:  Cadence Allegro 16.6-P004*
G04 Origin Date:  Wed Oct 15 09:28:20 2014*
G04 *
G04 Layer:  PACKAGE GEOMETRY/SILKSCREEN_BOTTOM*
G04 Layer:  MANUFACTURING/AUTOSILK_BOTTOM*
G04 Layer:  BOARD GEOMETRY/SILKSCREEN_BOTTOM*
G04 *
G04 Offset:    (0.00 0.00)*
G04 Mirror:    No*
G04 Mode:      Positive*
G04 Rotation:  0*
G04 FullContactRelief:  No*
G04 UndefLineWidth:     6.00*
G04 ================== end FILE IDENTIFICATION RECORD ====================*
%FSLAX35Y35*MOIN*%
%IR0*IPPOS*OFA0.00000B0.00000*MIA0B0*SFA1.00000B1.00000*%
%ADD10C,.01969*%
%ADD11C,.006*%
%ADD12C,.00984*%
%ADD13C,.00787*%
G75*
%LPD*%
G75*
G54D10*
G01X-254761Y70042D02*
G03I-984J0D01*
G01D02*
G03I-984J0D01*
G01X-255061Y110542D02*
G03I-984J0D01*
G01D02*
G03I-984J0D01*
G01X53049Y260928D02*
G03I-985J0D01*
G01D02*
G03X52064Y261914I-985J1D01*
G01D02*
G03X51079Y260928I0J-985D01*
G01D02*
G03X52064Y259943I985J0D01*
G01D02*
G03X53049Y260928I0J985D01*
G54D11*
G01X-249447Y61900D02*
Y56525D01*
X-249820Y55400D01*
X-250567Y54650D01*
X-251500Y54400D01*
X-252433Y54650D01*
X-253180Y55400D01*
X-253553Y56525D01*
Y61900D01*
G01X-259000Y54400D02*
Y61900D01*
X-257880Y60400D01*
G01Y54400D02*
X-260120D01*
G01X-266500D02*
Y61900D01*
X-265380Y60400D01*
G01Y54400D02*
X-267620D01*
G01X-284953Y88075D02*
X-284393Y88450D01*
X-283740Y88700D01*
X-282993D01*
X-282153Y88325D01*
X-281500Y87700D01*
X-281033Y86950D01*
X-280660Y85700D01*
X-280567Y84575D01*
X-280753Y83450D01*
X-281033Y82700D01*
X-281593Y81950D01*
X-282247Y81450D01*
X-282900Y81200D01*
X-283553D01*
X-284207Y81450D01*
X-284767Y81825D01*
X-285233Y82325D01*
G01X-288627Y84325D02*
X-289280Y85200D01*
X-289840Y85700D01*
X-290587Y85950D01*
X-291240Y85700D01*
X-291707Y85200D01*
X-292080Y84450D01*
X-292173Y83575D01*
X-292080Y82825D01*
X-291707Y82075D01*
X-291147Y81450D01*
X-290493Y81200D01*
X-289747Y81450D01*
X-289093Y82200D01*
X-288720Y83325D01*
X-288627Y84575D01*
X-288813Y86200D01*
X-289093Y87075D01*
X-289560Y87950D01*
X-290213Y88575D01*
X-290867Y88700D01*
X-291520Y88450D01*
X-291987Y87825D01*
G01X-297900Y88700D02*
X-297153Y88450D01*
X-296593Y87825D01*
X-296220Y87075D01*
X-295940Y86075D01*
X-295847Y84950D01*
X-295940Y83825D01*
X-296220Y82825D01*
X-296593Y82075D01*
X-297153Y81450D01*
X-297900Y81200D01*
X-298647Y81450D01*
X-299207Y82075D01*
X-299580Y82825D01*
X-299860Y83825D01*
X-299953Y84950D01*
X-299860Y86075D01*
X-299580Y87075D01*
X-299207Y87825D01*
X-298647Y88450D01*
X-297900Y88700D01*
G01X-286653Y114575D02*
X-286093Y114950D01*
X-285440Y115200D01*
X-284693D01*
X-283853Y114825D01*
X-283200Y114200D01*
X-282733Y113450D01*
X-282360Y112200D01*
X-282267Y111075D01*
X-282453Y109950D01*
X-282733Y109200D01*
X-283293Y108450D01*
X-283947Y107950D01*
X-284600Y107700D01*
X-285253D01*
X-285907Y107950D01*
X-286467Y108325D01*
X-286933Y108825D01*
G01X-290327Y110825D02*
X-290980Y111700D01*
X-291540Y112200D01*
X-292287Y112450D01*
X-292940Y112200D01*
X-293407Y111700D01*
X-293780Y110950D01*
X-293873Y110075D01*
X-293780Y109325D01*
X-293407Y108575D01*
X-292847Y107950D01*
X-292193Y107700D01*
X-291447Y107950D01*
X-290793Y108700D01*
X-290420Y109825D01*
X-290327Y111075D01*
X-290513Y112700D01*
X-290793Y113575D01*
X-291260Y114450D01*
X-291913Y115075D01*
X-292567Y115200D01*
X-293220Y114950D01*
X-293687Y114325D01*
G01X-297827Y113950D02*
X-298387Y114700D01*
X-299040Y115075D01*
X-299787Y115200D01*
X-300720Y114950D01*
X-301373Y114325D01*
X-301560Y113575D01*
X-301467Y112825D01*
X-301093Y112200D01*
X-299227Y110950D01*
X-298387Y110075D01*
X-297827Y108825D01*
X-297640Y107700D01*
X-301560D01*
G01X-250347Y144500D02*
Y139125D01*
X-250720Y138000D01*
X-251467Y137250D01*
X-252400Y137000D01*
X-253333Y137250D01*
X-254080Y138000D01*
X-254453Y139125D01*
Y144500D01*
G01X-259900Y137000D02*
Y144500D01*
X-258780Y143000D01*
G01Y137000D02*
X-261020D01*
G01X-265347Y138500D02*
X-265907Y137625D01*
X-266653Y137125D01*
X-267493Y137000D01*
X-268240Y137125D01*
X-268987Y137750D01*
X-269453Y138500D01*
X-269547Y139250D01*
X-269360Y140125D01*
X-268707Y140750D01*
X-268053Y141000D01*
X-267213D01*
G01X-268053D02*
X-268613Y141375D01*
X-269080Y142000D01*
X-269267Y142750D01*
X-269080Y143500D01*
X-268613Y144125D01*
X-267773Y144500D01*
X-266933Y144375D01*
X-266093Y143875D01*
G01X-215733Y65300D02*
Y72800D01*
X-218067D01*
X-218813Y72425D01*
X-219280Y71925D01*
X-219467Y70925D01*
X-219280Y69925D01*
X-218720Y69300D01*
X-218067Y68925D01*
X-215733D01*
G01X-218067D02*
X-219467Y65300D01*
G01X-223047Y66425D02*
X-223607Y65800D01*
X-224260Y65425D01*
X-225100Y65300D01*
X-225940Y65550D01*
X-226593Y66050D01*
X-227060Y66925D01*
X-227153Y67925D01*
X-226967Y68925D01*
X-226500Y69550D01*
X-225847Y70050D01*
X-225193Y70175D01*
X-224540Y70050D01*
X-223700Y69550D01*
X-223980Y72800D01*
X-226500D01*
G01X-232600D02*
X-231853Y72550D01*
X-231293Y71925D01*
X-230920Y71175D01*
X-230640Y70175D01*
X-230547Y69050D01*
X-230640Y67925D01*
X-230920Y66925D01*
X-231293Y66175D01*
X-231853Y65550D01*
X-232600Y65300D01*
X-233347Y65550D01*
X-233907Y66175D01*
X-234280Y66925D01*
X-234560Y67925D01*
X-234653Y69050D01*
X-234560Y70175D01*
X-234280Y71175D01*
X-233907Y71925D01*
X-233347Y72550D01*
X-232600Y72800D01*
G01X-220353Y105475D02*
X-219793Y105850D01*
X-219140Y106100D01*
X-218393D01*
X-217553Y105725D01*
X-216900Y105100D01*
X-216433Y104350D01*
X-216060Y103100D01*
X-215967Y101975D01*
X-216153Y100850D01*
X-216433Y100100D01*
X-216993Y99350D01*
X-217647Y98850D01*
X-218300Y98600D01*
X-218953D01*
X-219607Y98850D01*
X-220167Y99225D01*
X-220633Y99725D01*
G01X-224027Y101725D02*
X-224680Y102600D01*
X-225240Y103100D01*
X-225987Y103350D01*
X-226640Y103100D01*
X-227107Y102600D01*
X-227480Y101850D01*
X-227573Y100975D01*
X-227480Y100225D01*
X-227107Y99475D01*
X-226547Y98850D01*
X-225893Y98600D01*
X-225147Y98850D01*
X-224493Y99600D01*
X-224120Y100725D01*
X-224027Y101975D01*
X-224213Y103600D01*
X-224493Y104475D01*
X-224960Y105350D01*
X-225613Y105975D01*
X-226267Y106100D01*
X-226920Y105850D01*
X-227387Y105225D01*
G01X-233300Y98600D02*
Y106100D01*
X-232180Y104600D01*
G01Y98600D02*
X-234420D01*
G01X-214733Y108000D02*
Y115500D01*
X-217067D01*
X-217813Y115125D01*
X-218280Y114625D01*
X-218467Y113625D01*
X-218280Y112625D01*
X-217720Y112000D01*
X-217067Y111625D01*
X-214733D01*
G01X-217067D02*
X-218467Y108000D01*
G01X-222047Y109125D02*
X-222607Y108500D01*
X-223260Y108125D01*
X-224100Y108000D01*
X-224940Y108250D01*
X-225593Y108750D01*
X-226060Y109625D01*
X-226153Y110625D01*
X-225967Y111625D01*
X-225500Y112250D01*
X-224847Y112750D01*
X-224193Y112875D01*
X-223540Y112750D01*
X-222700Y112250D01*
X-222980Y115500D01*
X-225500D01*
G01X-229827Y114250D02*
X-230387Y115000D01*
X-231040Y115375D01*
X-231787Y115500D01*
X-232720Y115250D01*
X-233373Y114625D01*
X-233560Y113875D01*
X-233467Y113125D01*
X-233093Y112500D01*
X-231227Y111250D01*
X-230387Y110375D01*
X-229827Y109125D01*
X-229640Y108000D01*
X-233560D01*
G01X-225053Y144975D02*
X-224493Y145350D01*
X-223840Y145600D01*
X-223093D01*
X-222253Y145225D01*
X-221600Y144600D01*
X-221133Y143850D01*
X-220760Y142600D01*
X-220667Y141475D01*
X-220853Y140350D01*
X-221133Y139600D01*
X-221693Y138850D01*
X-222347Y138350D01*
X-223000Y138100D01*
X-223653D01*
X-224307Y138350D01*
X-224867Y138725D01*
X-225333Y139225D01*
G01X-228727Y141225D02*
X-229380Y142100D01*
X-229940Y142600D01*
X-230687Y142850D01*
X-231340Y142600D01*
X-231807Y142100D01*
X-232180Y141350D01*
X-232273Y140475D01*
X-232180Y139725D01*
X-231807Y138975D01*
X-231247Y138350D01*
X-230593Y138100D01*
X-229847Y138350D01*
X-229193Y139100D01*
X-228820Y140225D01*
X-228727Y141475D01*
X-228913Y143100D01*
X-229193Y143975D01*
X-229660Y144850D01*
X-230313Y145475D01*
X-230967Y145600D01*
X-231620Y145350D01*
X-232087Y144725D01*
G01X-235947Y139600D02*
X-236507Y138725D01*
X-237253Y138225D01*
X-238093Y138100D01*
X-238840Y138225D01*
X-239587Y138850D01*
X-240053Y139600D01*
X-240147Y140350D01*
X-239960Y141225D01*
X-239307Y141850D01*
X-238653Y142100D01*
X-237813D01*
G01X-238653D02*
X-239213Y142475D01*
X-239680Y143100D01*
X-239867Y143850D01*
X-239680Y144600D01*
X-239213Y145225D01*
X-238373Y145600D01*
X-237533Y145475D01*
X-236693Y144975D01*
G01X-175083Y83600D02*
Y76100D01*
X-178817D01*
G01X-186317D02*
X-182583D01*
Y83600D01*
X-186317D01*
G01X-184823Y79975D02*
X-182583D01*
G01X-189897Y76100D02*
Y83600D01*
X-191763D01*
X-192510Y83225D01*
X-193070Y82725D01*
X-193537Y81975D01*
X-193910Y81100D01*
X-194003Y79850D01*
X-193910Y78600D01*
X-193537Y77725D01*
X-193070Y76975D01*
X-192510Y76475D01*
X-191763Y76100D01*
X-189897D01*
G01X-197677Y79225D02*
X-198330Y80100D01*
X-198890Y80600D01*
X-199637Y80850D01*
X-200290Y80600D01*
X-200757Y80100D01*
X-201130Y79350D01*
X-201223Y78475D01*
X-201130Y77725D01*
X-200757Y76975D01*
X-200197Y76350D01*
X-199543Y76100D01*
X-198797Y76350D01*
X-198143Y77100D01*
X-197770Y78225D01*
X-197677Y79475D01*
X-197863Y81100D01*
X-198143Y81975D01*
X-198610Y82850D01*
X-199263Y83475D01*
X-199917Y83600D01*
X-200570Y83350D01*
X-201037Y82725D01*
G01X-177683Y121500D02*
Y114000D01*
X-181417D01*
G01X-188917D02*
X-185183D01*
Y121500D01*
X-188917D01*
G01X-187423Y117875D02*
X-185183D01*
G01X-192497Y114000D02*
Y121500D01*
X-194363D01*
X-195110Y121125D01*
X-195670Y120625D01*
X-196137Y119875D01*
X-196510Y119000D01*
X-196603Y117750D01*
X-196510Y116500D01*
X-196137Y115625D01*
X-195670Y114875D01*
X-195110Y114375D01*
X-194363Y114000D01*
X-192497D01*
G01X-201863D02*
X-202050Y115625D01*
X-202330Y117000D01*
X-202703Y118250D01*
X-203170Y119625D01*
X-203917Y121500D01*
X-200183D01*
G01X-137197Y283000D02*
Y277625D01*
X-137570Y276500D01*
X-138317Y275750D01*
X-139250Y275500D01*
X-140183Y275750D01*
X-140930Y276500D01*
X-141303Y277625D01*
Y283000D01*
G01X-146750Y275500D02*
X-147403Y275625D01*
X-148150Y276000D01*
X-148617Y276625D01*
X-148803Y277500D01*
X-148617Y278375D01*
X-148057Y279125D01*
X-147217Y279500D01*
X-146283D01*
X-145723Y279750D01*
X-145257Y280375D01*
X-145070Y281250D01*
X-145350Y282125D01*
X-146003Y282750D01*
X-146750Y283000D01*
X-147497Y282750D01*
X-148150Y282125D01*
X-148430Y281250D01*
X-148243Y280375D01*
X-147777Y279750D01*
X-147217Y279500D01*
X-146283D01*
X-145443Y279125D01*
X-144883Y278375D01*
X-144697Y277500D01*
X-144883Y276625D01*
X-145350Y276000D01*
X-146097Y275625D01*
X-146750Y275500D01*
G01X-136383Y265400D02*
X-136850Y264650D01*
X-137410Y264150D01*
X-138063Y263900D01*
X-138810Y264150D01*
X-139370Y264650D01*
X-139930Y265400D01*
X-140117Y266400D01*
Y271400D01*
G01X-143697Y265025D02*
X-144257Y264400D01*
X-144910Y264025D01*
X-145750Y263900D01*
X-146590Y264150D01*
X-147243Y264650D01*
X-147710Y265525D01*
X-147803Y266525D01*
X-147617Y267525D01*
X-147150Y268150D01*
X-146497Y268650D01*
X-145843Y268775D01*
X-145190Y268650D01*
X-144350Y268150D01*
X-144630Y271400D01*
X-147150D01*
G01X-92833Y337300D02*
Y344800D01*
X-95167D01*
X-95913Y344425D01*
X-96380Y343925D01*
X-96567Y342925D01*
X-96380Y341925D01*
X-95820Y341300D01*
X-95167Y340925D01*
X-92833D01*
G01X-95167D02*
X-96567Y337300D01*
G01X-100427Y343550D02*
X-100987Y344300D01*
X-101640Y344675D01*
X-102387Y344800D01*
X-103320Y344550D01*
X-103973Y343925D01*
X-104160Y343175D01*
X-104067Y342425D01*
X-103693Y341800D01*
X-101827Y340550D01*
X-100987Y339675D01*
X-100427Y338425D01*
X-100240Y337300D01*
X-104160D01*
G01X-107647Y338425D02*
X-108207Y337800D01*
X-108860Y337425D01*
X-109700Y337300D01*
X-110540Y337550D01*
X-111193Y338050D01*
X-111660Y338925D01*
X-111753Y339925D01*
X-111567Y340925D01*
X-111100Y341550D01*
X-110447Y342050D01*
X-109793Y342175D01*
X-109140Y342050D01*
X-108300Y341550D01*
X-108580Y344800D01*
X-111100D01*
G01X-50083Y76000D02*
Y68500D01*
X-53817D01*
G01X-61317D02*
X-57583D01*
Y76000D01*
X-61317D01*
G01X-59823Y72375D02*
X-57583D01*
G01X-64897Y68500D02*
Y76000D01*
X-66763D01*
X-67510Y75625D01*
X-68070Y75125D01*
X-68537Y74375D01*
X-68910Y73500D01*
X-69003Y72250D01*
X-68910Y71000D01*
X-68537Y70125D01*
X-68070Y69375D01*
X-67510Y68875D01*
X-66763Y68500D01*
X-64897D01*
G01X-75570D02*
Y76000D01*
X-72117Y70625D01*
X-76783D01*
G01X-96300Y147550D02*
X-99675D01*
X-103800Y149417D01*
G01Y145683D02*
X-99675Y147550D01*
G01X-99425Y141823D02*
X-100300Y141170D01*
X-100800Y140610D01*
X-101050Y139863D01*
X-100800Y139210D01*
X-100300Y138743D01*
X-99550Y138370D01*
X-98675Y138277D01*
X-97925Y138370D01*
X-97175Y138743D01*
X-96550Y139303D01*
X-96300Y139957D01*
X-96550Y140703D01*
X-97300Y141357D01*
X-98425Y141730D01*
X-99675Y141823D01*
X-101300Y141637D01*
X-102175Y141357D01*
X-103050Y140890D01*
X-103675Y140237D01*
X-103800Y139583D01*
X-103550Y138930D01*
X-102925Y138463D01*
G01X-69053Y365675D02*
X-68493Y366050D01*
X-67840Y366300D01*
X-67093D01*
X-66253Y365925D01*
X-65600Y365300D01*
X-65133Y364550D01*
X-64760Y363300D01*
X-64667Y362175D01*
X-64853Y361050D01*
X-65133Y360300D01*
X-65693Y359550D01*
X-66347Y359050D01*
X-67000Y358800D01*
X-67653D01*
X-68307Y359050D01*
X-68867Y359425D01*
X-69333Y359925D01*
G01X-72727Y365050D02*
X-73287Y365800D01*
X-73940Y366175D01*
X-74687Y366300D01*
X-75620Y366050D01*
X-76273Y365425D01*
X-76460Y364675D01*
X-76367Y363925D01*
X-75993Y363300D01*
X-74127Y362050D01*
X-73287Y361175D01*
X-72727Y359925D01*
X-72540Y358800D01*
X-76460D01*
G01X-80413Y359675D02*
X-81067Y359050D01*
X-81813Y358800D01*
X-82560Y359050D01*
X-83213Y359800D01*
X-83680Y360925D01*
X-83867Y362050D01*
Y363425D01*
X-83680Y364550D01*
X-83213Y365550D01*
X-82653Y366050D01*
X-82000Y366300D01*
X-81253Y366050D01*
X-80693Y365550D01*
X-80320Y364800D01*
X-80133Y363800D01*
X-80320Y362925D01*
X-80787Y362050D01*
X-81347Y361550D01*
X-82000Y361425D01*
X-82747Y361675D01*
X-83307Y362300D01*
X-83867Y363425D01*
G01X-68553Y356275D02*
X-67993Y356650D01*
X-67340Y356900D01*
X-66593D01*
X-65753Y356525D01*
X-65100Y355900D01*
X-64633Y355150D01*
X-64260Y353900D01*
X-64167Y352775D01*
X-64353Y351650D01*
X-64633Y350900D01*
X-65193Y350150D01*
X-65847Y349650D01*
X-66500Y349400D01*
X-67153D01*
X-67807Y349650D01*
X-68367Y350025D01*
X-68833Y350525D01*
G01X-72227Y355650D02*
X-72787Y356400D01*
X-73440Y356775D01*
X-74187Y356900D01*
X-75120Y356650D01*
X-75773Y356025D01*
X-75960Y355275D01*
X-75867Y354525D01*
X-75493Y353900D01*
X-73627Y352650D01*
X-72787Y351775D01*
X-72227Y350525D01*
X-72040Y349400D01*
X-75960D01*
G01X-81500D02*
X-82153Y349525D01*
X-82900Y349900D01*
X-83367Y350525D01*
X-83553Y351400D01*
X-83367Y352275D01*
X-82807Y353025D01*
X-81967Y353400D01*
X-81033D01*
X-80473Y353650D01*
X-80007Y354275D01*
X-79820Y355150D01*
X-80100Y356025D01*
X-80753Y356650D01*
X-81500Y356900D01*
X-82247Y356650D01*
X-82900Y356025D01*
X-83180Y355150D01*
X-82993Y354275D01*
X-82527Y353650D01*
X-81967Y353400D01*
X-81033D01*
X-80193Y353025D01*
X-79633Y352275D01*
X-79447Y351400D01*
X-79633Y350525D01*
X-80100Y349900D01*
X-80847Y349525D01*
X-81500Y349400D01*
G01X-84383Y328100D02*
X-84850Y327350D01*
X-85410Y326850D01*
X-86063Y326600D01*
X-86810Y326850D01*
X-87370Y327350D01*
X-87930Y328100D01*
X-88117Y329100D01*
Y334100D01*
G01X-94870Y326600D02*
Y334100D01*
X-91417Y328725D01*
X-96083D01*
G01X-12183Y75200D02*
Y67700D01*
X-15917D01*
G01X-23417D02*
X-19683D01*
Y75200D01*
X-23417D01*
G01X-21923Y71575D02*
X-19683D01*
G01X-26997Y67700D02*
Y75200D01*
X-28863D01*
X-29610Y74825D01*
X-30170Y74325D01*
X-30637Y73575D01*
X-31010Y72700D01*
X-31103Y71450D01*
X-31010Y70200D01*
X-30637Y69325D01*
X-30170Y68575D01*
X-29610Y68075D01*
X-28863Y67700D01*
X-26997D01*
G01X-34497Y68825D02*
X-35057Y68200D01*
X-35710Y67825D01*
X-36550Y67700D01*
X-37390Y67950D01*
X-38043Y68450D01*
X-38510Y69325D01*
X-38603Y70325D01*
X-38417Y71325D01*
X-37950Y71950D01*
X-37297Y72450D01*
X-36643Y72575D01*
X-35990Y72450D01*
X-35150Y71950D01*
X-35430Y75200D01*
X-37950D01*
G01X-44333Y93100D02*
Y100600D01*
X-46667D01*
X-47413Y100225D01*
X-47880Y99725D01*
X-48067Y98725D01*
X-47880Y97725D01*
X-47320Y97100D01*
X-46667Y96725D01*
X-44333D01*
G01X-46667D02*
X-48067Y93100D01*
G01X-54820D02*
Y100600D01*
X-51367Y95225D01*
X-56033D01*
G01X-59427Y96225D02*
X-60080Y97100D01*
X-60640Y97600D01*
X-61387Y97850D01*
X-62040Y97600D01*
X-62507Y97100D01*
X-62880Y96350D01*
X-62973Y95475D01*
X-62880Y94725D01*
X-62507Y93975D01*
X-61947Y93350D01*
X-61293Y93100D01*
X-60547Y93350D01*
X-59893Y94100D01*
X-59520Y95225D01*
X-59427Y96475D01*
X-59613Y98100D01*
X-59893Y98975D01*
X-60360Y99850D01*
X-61013Y100475D01*
X-61667Y100600D01*
X-62320Y100350D01*
X-62787Y99725D01*
G01X-20233Y93400D02*
Y100900D01*
X-22567D01*
X-23313Y100525D01*
X-23780Y100025D01*
X-23967Y99025D01*
X-23780Y98025D01*
X-23220Y97400D01*
X-22567Y97025D01*
X-20233D01*
G01X-22567D02*
X-23967Y93400D01*
G01X-30720D02*
Y100900D01*
X-27267Y95525D01*
X-31933D01*
G01X-36913Y93400D02*
X-37100Y95025D01*
X-37380Y96400D01*
X-37753Y97650D01*
X-38220Y99025D01*
X-38967Y100900D01*
X-35233D01*
G01X-52353Y147128D02*
X-51793Y147503D01*
X-51140Y147753D01*
X-50393D01*
X-49553Y147378D01*
X-48900Y146753D01*
X-48433Y146003D01*
X-48060Y144753D01*
X-47967Y143628D01*
X-48153Y142503D01*
X-48433Y141753D01*
X-48993Y141003D01*
X-49647Y140503D01*
X-50300Y140253D01*
X-50953D01*
X-51607Y140503D01*
X-52167Y140878D01*
X-52633Y141378D01*
G01X-56027Y143378D02*
X-56680Y144253D01*
X-57240Y144753D01*
X-57987Y145003D01*
X-58640Y144753D01*
X-59107Y144253D01*
X-59480Y143503D01*
X-59573Y142628D01*
X-59480Y141878D01*
X-59107Y141128D01*
X-58547Y140503D01*
X-57893Y140253D01*
X-57147Y140503D01*
X-56493Y141253D01*
X-56120Y142378D01*
X-56027Y143628D01*
X-56213Y145253D01*
X-56493Y146128D01*
X-56960Y147003D01*
X-57613Y147628D01*
X-58267Y147753D01*
X-58920Y147503D01*
X-59387Y146878D01*
G01X-65113Y140253D02*
X-65300Y141878D01*
X-65580Y143253D01*
X-65953Y144503D01*
X-66420Y145878D01*
X-67167Y147753D01*
X-63433D01*
G01X-54797Y220400D02*
Y227900D01*
X-56663D01*
X-57410Y227525D01*
X-57970Y227025D01*
X-58437Y226275D01*
X-58810Y225400D01*
X-58903Y224150D01*
X-58810Y222900D01*
X-58437Y222025D01*
X-57970Y221275D01*
X-57410Y220775D01*
X-56663Y220400D01*
X-54797D01*
G01X-62577Y226650D02*
X-63137Y227400D01*
X-63790Y227775D01*
X-64537Y227900D01*
X-65470Y227650D01*
X-66123Y227025D01*
X-66310Y226275D01*
X-66217Y225525D01*
X-65843Y224900D01*
X-63977Y223650D01*
X-63137Y222775D01*
X-62577Y221525D01*
X-62390Y220400D01*
X-66310D01*
G01X-48533Y302300D02*
Y309800D01*
X-50867D01*
X-51613Y309425D01*
X-52080Y308925D01*
X-52267Y307925D01*
X-52080Y306925D01*
X-51520Y306300D01*
X-50867Y305925D01*
X-48533D01*
G01X-50867D02*
X-52267Y302300D01*
G01X-56127Y308550D02*
X-56687Y309300D01*
X-57340Y309675D01*
X-58087Y309800D01*
X-59020Y309550D01*
X-59673Y308925D01*
X-59860Y308175D01*
X-59767Y307425D01*
X-59393Y306800D01*
X-57527Y305550D01*
X-56687Y304675D01*
X-56127Y303425D01*
X-55940Y302300D01*
X-59860D01*
G01X-63627Y305425D02*
X-64280Y306300D01*
X-64840Y306800D01*
X-65587Y307050D01*
X-66240Y306800D01*
X-66707Y306300D01*
X-67080Y305550D01*
X-67173Y304675D01*
X-67080Y303925D01*
X-66707Y303175D01*
X-66147Y302550D01*
X-65493Y302300D01*
X-64747Y302550D01*
X-64093Y303300D01*
X-63720Y304425D01*
X-63627Y305675D01*
X-63813Y307300D01*
X-64093Y308175D01*
X-64560Y309050D01*
X-65213Y309675D01*
X-65867Y309800D01*
X-66520Y309550D01*
X-66987Y308925D01*
G01X-27933Y316400D02*
Y323900D01*
X-30267D01*
X-31013Y323525D01*
X-31480Y323025D01*
X-31667Y322025D01*
X-31480Y321025D01*
X-30920Y320400D01*
X-30267Y320025D01*
X-27933D01*
G01X-30267D02*
X-31667Y316400D01*
G01X-35527Y322650D02*
X-36087Y323400D01*
X-36740Y323775D01*
X-37487Y323900D01*
X-38420Y323650D01*
X-39073Y323025D01*
X-39260Y322275D01*
X-39167Y321525D01*
X-38793Y320900D01*
X-36927Y319650D01*
X-36087Y318775D01*
X-35527Y317525D01*
X-35340Y316400D01*
X-39260D01*
G01X-44613D02*
X-44800Y318025D01*
X-45080Y319400D01*
X-45453Y320650D01*
X-45920Y322025D01*
X-46667Y323900D01*
X-42933D01*
G01X-36097Y356100D02*
Y350725D01*
X-36470Y349600D01*
X-37217Y348850D01*
X-38150Y348600D01*
X-39083Y348850D01*
X-39830Y349600D01*
X-40203Y350725D01*
Y356100D01*
G01X-43877Y351725D02*
X-44530Y352600D01*
X-45090Y353100D01*
X-45837Y353350D01*
X-46490Y353100D01*
X-46957Y352600D01*
X-47330Y351850D01*
X-47423Y350975D01*
X-47330Y350225D01*
X-46957Y349475D01*
X-46397Y348850D01*
X-45743Y348600D01*
X-44997Y348850D01*
X-44343Y349600D01*
X-43970Y350725D01*
X-43877Y351975D01*
X-44063Y353600D01*
X-44343Y354475D01*
X-44810Y355350D01*
X-45463Y355975D01*
X-46117Y356100D01*
X-46770Y355850D01*
X-47237Y355225D01*
G01X7247Y313175D02*
X7807Y313550D01*
X8460Y313800D01*
X9207D01*
X10047Y313425D01*
X10700Y312800D01*
X11167Y312050D01*
X11540Y310800D01*
X11633Y309675D01*
X11447Y308550D01*
X11167Y307800D01*
X10607Y307050D01*
X9953Y306550D01*
X9300Y306300D01*
X8647D01*
X7993Y306550D01*
X7433Y306925D01*
X6967Y307425D01*
G01X3387Y307175D02*
X2733Y306550D01*
X1987Y306300D01*
X1240Y306550D01*
X587Y307300D01*
X120Y308425D01*
X-67Y309550D01*
Y310925D01*
X120Y312050D01*
X587Y313050D01*
X1147Y313550D01*
X1800Y313800D01*
X2547Y313550D01*
X3107Y313050D01*
X3480Y312300D01*
X3667Y311300D01*
X3480Y310425D01*
X3013Y309550D01*
X2453Y309050D01*
X1800Y308925D01*
X1053Y309175D01*
X493Y309800D01*
X-67Y310925D01*
G01X-5700Y313800D02*
X-4953Y313550D01*
X-4393Y312925D01*
X-4020Y312175D01*
X-3740Y311175D01*
X-3647Y310050D01*
X-3740Y308925D01*
X-4020Y307925D01*
X-4393Y307175D01*
X-4953Y306550D01*
X-5700Y306300D01*
X-6447Y306550D01*
X-7007Y307175D01*
X-7380Y307925D01*
X-7660Y308925D01*
X-7753Y310050D01*
X-7660Y311175D01*
X-7380Y312175D01*
X-7007Y312925D01*
X-6447Y313550D01*
X-5700Y313800D01*
G01X16467Y323800D02*
Y331300D01*
X14133D01*
X13387Y330925D01*
X12920Y330425D01*
X12733Y329425D01*
X12920Y328425D01*
X13480Y327800D01*
X14133Y327425D01*
X16467D01*
G01X14133D02*
X12733Y323800D01*
G01X8873Y330050D02*
X8313Y330800D01*
X7660Y331175D01*
X6913Y331300D01*
X5980Y331050D01*
X5327Y330425D01*
X5140Y329675D01*
X5233Y328925D01*
X5607Y328300D01*
X7473Y327050D01*
X8313Y326175D01*
X8873Y324925D01*
X9060Y323800D01*
X5140D01*
G01X-400D02*
X-1053Y323925D01*
X-1800Y324300D01*
X-2267Y324925D01*
X-2453Y325800D01*
X-2267Y326675D01*
X-1707Y327425D01*
X-867Y327800D01*
X67D01*
X627Y328050D01*
X1093Y328675D01*
X1280Y329550D01*
X1000Y330425D01*
X347Y331050D01*
X-400Y331300D01*
X-1147Y331050D01*
X-1800Y330425D01*
X-2080Y329550D01*
X-1893Y328675D01*
X-1427Y328050D01*
X-867Y327800D01*
X67D01*
X907Y327425D01*
X1467Y326675D01*
X1653Y325800D01*
X1467Y324925D01*
X1000Y324300D01*
X253Y323925D01*
X-400Y323800D01*
G01X18847Y367575D02*
X19407Y367950D01*
X20060Y368200D01*
X20807D01*
X21647Y367825D01*
X22300Y367200D01*
X22767Y366450D01*
X23140Y365200D01*
X23233Y364075D01*
X23047Y362950D01*
X22767Y362200D01*
X22207Y361450D01*
X21553Y360950D01*
X20900Y360700D01*
X20247D01*
X19593Y360950D01*
X19033Y361325D01*
X18567Y361825D01*
G01X15453Y362200D02*
X14893Y361325D01*
X14147Y360825D01*
X13307Y360700D01*
X12560Y360825D01*
X11813Y361450D01*
X11347Y362200D01*
X11253Y362950D01*
X11440Y363825D01*
X12093Y364450D01*
X12747Y364700D01*
X13587D01*
G01X12747D02*
X12187Y365075D01*
X11720Y365700D01*
X11533Y366450D01*
X11720Y367200D01*
X12187Y367825D01*
X13027Y368200D01*
X13867Y368075D01*
X14707Y367575D01*
G01X5900Y360700D02*
Y368200D01*
X7020Y366700D01*
G01Y360700D02*
X4780D01*
G01X-13353Y344475D02*
X-12793Y344850D01*
X-12140Y345100D01*
X-11393D01*
X-10553Y344725D01*
X-9900Y344100D01*
X-9433Y343350D01*
X-9060Y342100D01*
X-8967Y340975D01*
X-9153Y339850D01*
X-9433Y339100D01*
X-9993Y338350D01*
X-10647Y337850D01*
X-11300Y337600D01*
X-11953D01*
X-12607Y337850D01*
X-13167Y338225D01*
X-13633Y338725D01*
G01X-16747Y339100D02*
X-17307Y338225D01*
X-18053Y337725D01*
X-18893Y337600D01*
X-19640Y337725D01*
X-20387Y338350D01*
X-20853Y339100D01*
X-20947Y339850D01*
X-20760Y340725D01*
X-20107Y341350D01*
X-19453Y341600D01*
X-18613D01*
G01X-19453D02*
X-20013Y341975D01*
X-20480Y342600D01*
X-20667Y343350D01*
X-20480Y344100D01*
X-20013Y344725D01*
X-19173Y345100D01*
X-18333Y344975D01*
X-17493Y344475D01*
G01X-24527Y343850D02*
X-25087Y344600D01*
X-25740Y344975D01*
X-26487Y345100D01*
X-27420Y344850D01*
X-28073Y344225D01*
X-28260Y343475D01*
X-28167Y342725D01*
X-27793Y342100D01*
X-25927Y340850D01*
X-25087Y339975D01*
X-24527Y338725D01*
X-24340Y337600D01*
X-28260D01*
G01X18847Y355575D02*
X19407Y355950D01*
X20060Y356200D01*
X20807D01*
X21647Y355825D01*
X22300Y355200D01*
X22767Y354450D01*
X23140Y353200D01*
X23233Y352075D01*
X23047Y350950D01*
X22767Y350200D01*
X22207Y349450D01*
X21553Y348950D01*
X20900Y348700D01*
X20247D01*
X19593Y348950D01*
X19033Y349325D01*
X18567Y349825D01*
G01X15453Y350200D02*
X14893Y349325D01*
X14147Y348825D01*
X13307Y348700D01*
X12560Y348825D01*
X11813Y349450D01*
X11347Y350200D01*
X11253Y350950D01*
X11440Y351825D01*
X12093Y352450D01*
X12747Y352700D01*
X13587D01*
G01X12747D02*
X12187Y353075D01*
X11720Y353700D01*
X11533Y354450D01*
X11720Y355200D01*
X12187Y355825D01*
X13027Y356200D01*
X13867Y356075D01*
X14707Y355575D01*
G01X5900Y356200D02*
X6647Y355950D01*
X7207Y355325D01*
X7580Y354575D01*
X7860Y353575D01*
X7953Y352450D01*
X7860Y351325D01*
X7580Y350325D01*
X7207Y349575D01*
X6647Y348950D01*
X5900Y348700D01*
X5153Y348950D01*
X4593Y349575D01*
X4220Y350325D01*
X3940Y351325D01*
X3847Y352450D01*
X3940Y353575D01*
X4220Y354575D01*
X4593Y355325D01*
X5153Y355950D01*
X5900Y356200D01*
G01X37847Y186075D02*
X38407Y186450D01*
X39060Y186700D01*
X39807D01*
X40647Y186325D01*
X41300Y185700D01*
X41767Y184950D01*
X42140Y183700D01*
X42233Y182575D01*
X42047Y181450D01*
X41767Y180700D01*
X41207Y179950D01*
X40553Y179450D01*
X39900Y179200D01*
X39247D01*
X38593Y179450D01*
X38033Y179825D01*
X37567Y180325D01*
G01X32587Y179200D02*
X32400Y180825D01*
X32120Y182200D01*
X31747Y183450D01*
X31280Y184825D01*
X30533Y186700D01*
X34267D01*
G01X23780Y179200D02*
Y186700D01*
X27233Y181325D01*
X22567D01*
G01X53153Y247300D02*
Y241925D01*
X52780Y240800D01*
X52033Y240050D01*
X51100Y239800D01*
X50167Y240050D01*
X49420Y240800D01*
X49047Y241925D01*
Y247300D01*
G01X43600Y239800D02*
Y247300D01*
X44720Y245800D01*
G01Y239800D02*
X42480D01*
G01X34980D02*
Y247300D01*
X38433Y241925D01*
X33767D01*
G01X57847Y312675D02*
X58407Y313050D01*
X59060Y313300D01*
X59807D01*
X60647Y312925D01*
X61300Y312300D01*
X61767Y311550D01*
X62140Y310300D01*
X62233Y309175D01*
X62047Y308050D01*
X61767Y307300D01*
X61207Y306550D01*
X60553Y306050D01*
X59900Y305800D01*
X59247D01*
X58593Y306050D01*
X58033Y306425D01*
X57567Y306925D01*
G01X52400Y305800D02*
X51747Y305925D01*
X51000Y306300D01*
X50533Y306925D01*
X50347Y307800D01*
X50533Y308675D01*
X51093Y309425D01*
X51933Y309800D01*
X52867D01*
X53427Y310050D01*
X53893Y310675D01*
X54080Y311550D01*
X53800Y312425D01*
X53147Y313050D01*
X52400Y313300D01*
X51653Y313050D01*
X51000Y312425D01*
X50720Y311550D01*
X50907Y310675D01*
X51373Y310050D01*
X51933Y309800D01*
X52867D01*
X53707Y309425D01*
X54267Y308675D01*
X54453Y307800D01*
X54267Y306925D01*
X53800Y306300D01*
X53053Y305925D01*
X52400Y305800D01*
G01X46673Y308925D02*
X46020Y309800D01*
X45460Y310300D01*
X44713Y310550D01*
X44060Y310300D01*
X43593Y309800D01*
X43220Y309050D01*
X43127Y308175D01*
X43220Y307425D01*
X43593Y306675D01*
X44153Y306050D01*
X44807Y305800D01*
X45553Y306050D01*
X46207Y306800D01*
X46580Y307925D01*
X46673Y309175D01*
X46487Y310800D01*
X46207Y311675D01*
X45740Y312550D01*
X45087Y313175D01*
X44433Y313300D01*
X43780Y313050D01*
X43313Y312425D01*
G01X52703Y353200D02*
Y347825D01*
X52330Y346700D01*
X51583Y345950D01*
X50650Y345700D01*
X49717Y345950D01*
X48970Y346700D01*
X48597Y347825D01*
Y353200D01*
G01X43337Y345700D02*
X43150Y347325D01*
X42870Y348700D01*
X42497Y349950D01*
X42030Y351325D01*
X41283Y353200D01*
X45017D01*
G01X73047Y246475D02*
X73607Y246850D01*
X74260Y247100D01*
X75007D01*
X75847Y246725D01*
X76500Y246100D01*
X76967Y245350D01*
X77340Y244100D01*
X77433Y242975D01*
X77247Y241850D01*
X76967Y241100D01*
X76407Y240350D01*
X75753Y239850D01*
X75100Y239600D01*
X74447D01*
X73793Y239850D01*
X73233Y240225D01*
X72767Y240725D01*
G01X67600Y239600D02*
X66947Y239725D01*
X66200Y240100D01*
X65733Y240725D01*
X65547Y241600D01*
X65733Y242475D01*
X66293Y243225D01*
X67133Y243600D01*
X68067D01*
X68627Y243850D01*
X69093Y244475D01*
X69280Y245350D01*
X69000Y246225D01*
X68347Y246850D01*
X67600Y247100D01*
X66853Y246850D01*
X66200Y246225D01*
X65920Y245350D01*
X66107Y244475D01*
X66573Y243850D01*
X67133Y243600D01*
X68067D01*
X68907Y243225D01*
X69467Y242475D01*
X69653Y241600D01*
X69467Y240725D01*
X69000Y240100D01*
X68253Y239725D01*
X67600Y239600D01*
G01X58980D02*
Y247100D01*
X62433Y241725D01*
X57767D01*
G01X73347Y340175D02*
X73907Y340550D01*
X74560Y340800D01*
X75307D01*
X76147Y340425D01*
X76800Y339800D01*
X77267Y339050D01*
X77640Y337800D01*
X77733Y336675D01*
X77547Y335550D01*
X77267Y334800D01*
X76707Y334050D01*
X76053Y333550D01*
X75400Y333300D01*
X74747D01*
X74093Y333550D01*
X73533Y333925D01*
X73067Y334425D01*
G01X69953Y334800D02*
X69393Y333925D01*
X68647Y333425D01*
X67807Y333300D01*
X67060Y333425D01*
X66313Y334050D01*
X65847Y334800D01*
X65753Y335550D01*
X65940Y336425D01*
X66593Y337050D01*
X67247Y337300D01*
X68087D01*
G01X67247D02*
X66687Y337675D01*
X66220Y338300D01*
X66033Y339050D01*
X66220Y339800D01*
X66687Y340425D01*
X67527Y340800D01*
X68367Y340675D01*
X69207Y340175D01*
G01X62453Y334800D02*
X61893Y333925D01*
X61147Y333425D01*
X60307Y333300D01*
X59560Y333425D01*
X58813Y334050D01*
X58347Y334800D01*
X58253Y335550D01*
X58440Y336425D01*
X59093Y337050D01*
X59747Y337300D01*
X60587D01*
G01X59747D02*
X59187Y337675D01*
X58720Y338300D01*
X58533Y339050D01*
X58720Y339800D01*
X59187Y340425D01*
X60027Y340800D01*
X60867Y340675D01*
X61707Y340175D01*
G01X255803Y292600D02*
Y287225D01*
X255430Y286100D01*
X254683Y285350D01*
X253750Y285100D01*
X252817Y285350D01*
X252070Y286100D01*
X251697Y287225D01*
Y292600D01*
G01X247837Y285975D02*
X247183Y285350D01*
X246437Y285100D01*
X245690Y285350D01*
X245037Y286100D01*
X244570Y287225D01*
X244383Y288350D01*
Y289725D01*
X244570Y290850D01*
X245037Y291850D01*
X245597Y292350D01*
X246250Y292600D01*
X246997Y292350D01*
X247557Y291850D01*
X247930Y291100D01*
X248117Y290100D01*
X247930Y289225D01*
X247463Y288350D01*
X246903Y287850D01*
X246250Y287725D01*
X245503Y287975D01*
X244943Y288600D01*
X244383Y289725D01*
G01X256517Y261800D02*
X256050Y261050D01*
X255490Y260550D01*
X254837Y260300D01*
X254090Y260550D01*
X253530Y261050D01*
X252970Y261800D01*
X252783Y262800D01*
Y267800D01*
G01X248923Y263425D02*
X248270Y264300D01*
X247710Y264800D01*
X246963Y265050D01*
X246310Y264800D01*
X245843Y264300D01*
X245470Y263550D01*
X245377Y262675D01*
X245470Y261925D01*
X245843Y261175D01*
X246403Y260550D01*
X247057Y260300D01*
X247803Y260550D01*
X248457Y261300D01*
X248830Y262425D01*
X248923Y263675D01*
X248737Y265300D01*
X248457Y266175D01*
X247990Y267050D01*
X247337Y267675D01*
X246683Y267800D01*
X246030Y267550D01*
X245563Y266925D01*
G01X296117Y269000D02*
Y261500D01*
X292383D01*
G01X284883D02*
X288617D01*
Y269000D01*
X284883D01*
G01X286377Y265375D02*
X288617D01*
G01X281303Y261500D02*
Y269000D01*
X279437D01*
X278690Y268625D01*
X278130Y268125D01*
X277663Y267375D01*
X277290Y266500D01*
X277197Y265250D01*
X277290Y264000D01*
X277663Y263125D01*
X278130Y262375D01*
X278690Y261875D01*
X279437Y261500D01*
X281303D01*
G01X271750D02*
Y269000D01*
X272870Y267500D01*
G01Y261500D02*
X270630D01*
G54D12*
G01X-266572Y65908D02*
G03I-492J0D01*
G01D02*
G03I-492J0D01*
G01X-266872Y106408D02*
G03I-492J0D01*
G01D02*
G03I-492J0D01*
G01X-205118Y78800D02*
G03I-492J0D01*
G01D02*
G03I-492J0D01*
G01X-204818Y119400D02*
G03I-492J0D01*
G01D02*
G03I-492J0D01*
G01X-177658Y284449D02*
G03I-492J0D01*
G01D02*
G03I-492J0D01*
G01X-36798Y80400D02*
G03I-492J0D01*
G01D02*
G03I-492J0D01*
G01X-57298Y80100D02*
G03I-492J0D01*
G01D02*
G03I-492J0D01*
G01X-68641Y230690D02*
G03I-491J0D01*
G01D02*
G03I-491J0D01*
G01X-50505Y347993D02*
G03I-493J0D01*
G01D02*
G03X-50998Y348486I-493J0D01*
G01D02*
G03X-51490Y347993I1J-493D01*
G01D02*
G03X-50998Y347500I493J0D01*
G01D02*
G03X-50505Y347993I0J493D01*
G01X39495Y344093D02*
G03I-493J0D01*
G01D02*
G03X39002Y344586I-493J0D01*
G01D02*
G03X38510Y344093I1J-493D01*
G01D02*
G03X39002Y343600I493J0D01*
G01D02*
G03X39495Y344093I0J493D01*
G01X56886Y251184D02*
G03I-492J0D01*
G01D02*
G03X56394Y251676I-492J0D01*
G01D02*
G03X55903Y251184I1J-492D01*
G01D02*
G03X56394Y250693I492J1D01*
G01D02*
G03X56886Y251184I0J492D01*
G01X216043Y284449D02*
G03I-492J0D01*
G01Y284458D02*
G03X215551Y284941I-492J-9D01*
G01D02*
G03X215059Y284449I0J-492D01*
G01D02*
G03X215065Y284370I492J-2D01*
G01X279392Y272500D02*
G03I-492J0D01*
G01D02*
G03X278900Y272992I-492J0D01*
G01D02*
G03X278408Y272500I0J-492D01*
G01D02*
G03X278900Y272008I492J0D01*
G01D02*
G03X279392Y272500I0J492D01*
G54D13*
G01X-277681Y74100D02*
X-275319D01*
G01X-277681D02*
X-275319D01*
G01X-277481Y113700D02*
X-275119D01*
G01X-277481D02*
X-275119D01*
G01X-259682Y91695D02*
Y66105D01*
X-244918D01*
Y91695D01*
X-259682D01*
G01D02*
Y66105D01*
X-244918D01*
Y91695D01*
X-259682D01*
G01X-259982Y132195D02*
Y106605D01*
X-245218D01*
Y132195D01*
X-259982D01*
G01D02*
Y106605D01*
X-245218D01*
Y132195D01*
X-259982D01*
G01X-231481Y88400D02*
X-229119D01*
G01X-231481D02*
X-229119D01*
G01X-230781Y130000D02*
X-228419D01*
G01X-230781D02*
X-228419D01*
G01X-163385Y270382D02*
Y242126D01*
X-230315D01*
Y270382D01*
G01X-196885Y242126D02*
X-230315D01*
Y270382D01*
G01Y280800D02*
Y309056D01*
X-163385D01*
Y280800D01*
G01X-230315D02*
Y309056D01*
X-163385D01*
Y280800D01*
G01X-227100Y77619D02*
Y79981D01*
G01Y77619D02*
Y79981D01*
G01X-212500Y77619D02*
Y79981D01*
G01Y77619D02*
Y79981D01*
G01X-226600Y118319D02*
Y120681D01*
G01Y118319D02*
Y120681D01*
G01X-212200Y118219D02*
Y120581D01*
G01Y118219D02*
Y120581D01*
G01X-163385Y270382D02*
Y242126D01*
X-193715D01*
G01X-180511Y259252D02*
Y291930D01*
X-213189D01*
Y259252D01*
X-180511D01*
G01X-191436Y291930D02*
X-213189D01*
Y259252D01*
X-180511D01*
G01D02*
Y291930D01*
X-188764D01*
G01X-184448D02*
X-180511Y287993D01*
G01X-183661Y291930D02*
X-180511Y288780D01*
G01X-182874Y291930D02*
X-180511Y289567D01*
G01X-182087Y291930D02*
X-180511Y290355D01*
G01X-181300Y291930D02*
X-180511Y291142D01*
G01X-181300Y291930D02*
X-180511Y291142D01*
G01X-182087Y291930D02*
X-180511Y290355D01*
G01X-182874Y291930D02*
X-180511Y289567D01*
G01X-183661Y291930D02*
X-180511Y288780D01*
G01X-184448Y291930D02*
X-180511Y287993D01*
G01X-94152Y124050D02*
G03X-89152Y119050I5000J0D01*
G01X-75648D01*
Y157750D01*
G01X-89152Y162750D02*
G03X-94152Y157750I0J-5000D01*
G01Y124050D01*
G01X-89152Y162750D02*
G03X-94152Y157750I0J-5000D01*
G01Y124050D01*
G01D02*
G03X-89152Y119050I5000J0D01*
G01X-75648D01*
Y157750D01*
G01X-80648Y162750D02*
X-89152D01*
G01X-75648Y157750D02*
G03X-80647Y162750I-5000J0D01*
G01X-75648Y157750D02*
G03X-80647Y162750I-5000J0D01*
G01X-80648D02*
X-89152D01*
G01X-77400Y217501D02*
Y230099D01*
G01Y217501D02*
Y230099D01*
G01X-82900Y338919D02*
Y341281D01*
G01Y338919D02*
Y341281D01*
G01X-50800Y86519D02*
Y88881D01*
G01Y86519D02*
Y88881D01*
G01X-50900Y81281D02*
Y78919D01*
G01Y81281D02*
Y78919D01*
G01X-61300Y132619D02*
Y134981D01*
G01Y132619D02*
Y134981D01*
G01X-31401Y256991D02*
X56001D01*
Y293409D01*
X-31401D01*
Y256991D01*
G01D02*
X26674D01*
G01X48499D02*
X56001D01*
Y293409D01*
X-31401D01*
Y256991D01*
G01X-62519Y320600D02*
X-64881D01*
G01X-62519D02*
X-64881D01*
G01X-52081Y320300D02*
X-49719D01*
G01X-52081D02*
X-49719D01*
G01X-55328Y335591D02*
Y347009D01*
X-58872D01*
Y335591D01*
X-55328D01*
G01D02*
Y347009D01*
X-58872D01*
Y335591D01*
X-55328D01*
G01X-55800Y362081D02*
Y359719D01*
G01Y362081D02*
Y359719D01*
G01X-34681Y341400D02*
X-32319D01*
G01X-34681D02*
X-32319D01*
G01X-55700Y355281D02*
Y352919D01*
G01Y355281D02*
Y352919D01*
G01X-30400Y86519D02*
Y88881D01*
G01Y86519D02*
Y88881D01*
G01Y81581D02*
Y79219D01*
G01Y81581D02*
Y79219D01*
G01X13600Y181119D02*
Y183481D01*
G01Y181119D02*
Y183481D01*
G01X29422Y256991D02*
X35926D01*
G01X38674D02*
X45393D01*
G01X36319Y310600D02*
X38681D01*
G01X36319D02*
X38681D01*
G01X17419Y310500D02*
X19781D01*
G01X17419D02*
X19781D01*
G01X34672Y331691D02*
Y343109D01*
X31128D01*
Y331691D01*
X34672D01*
G01D02*
Y343109D01*
X31128D01*
Y331691D01*
X34672D01*
G01X32600Y361381D02*
Y359019D01*
G01Y361381D02*
Y359019D01*
G01X32700Y354681D02*
Y352319D01*
G01Y354681D02*
Y352319D01*
G01X11100Y337481D02*
Y335119D01*
G01Y337481D02*
Y335119D01*
G01X64100Y253881D02*
Y251519D01*
G01Y253881D02*
Y251519D01*
G01X50019Y337500D02*
X52381D01*
G01X50019D02*
X52381D01*
G01X230315Y270381D02*
Y242126D01*
X163385D01*
Y270381D01*
G01X198724Y242126D02*
X163385D01*
Y270381D01*
G01Y280800D02*
Y309056D01*
X230315D01*
Y280800D01*
G01X163385D02*
Y309056D01*
X230315D01*
Y280800D01*
G01Y270381D02*
Y242126D01*
X200882D01*
G01X213189Y259252D02*
Y291930D01*
X180511D01*
Y259252D01*
X213189D01*
G01X196518Y291930D02*
X180511D01*
Y259252D01*
X213189D01*
G01Y282024D02*
Y291930D01*
X204193D01*
G01X201007D02*
X198882D01*
G01X213189Y259252D02*
Y266400D01*
G01Y269400D02*
Y271882D01*
G01Y274142D02*
Y279376D01*
G01X209252Y291930D02*
X213189Y287993D01*
G01X210039Y291930D02*
X213189Y288780D01*
G01X210826Y291930D02*
X213189Y289567D01*
G01X211615Y291930D02*
X213189Y290355D01*
G01X212402Y291930D02*
X213189Y291142D01*
G01X212402Y291930D02*
X213189Y291142D01*
G01X211615Y291930D02*
X213189Y290355D01*
G01X210826Y291930D02*
X213189Y289567D01*
G01X210039Y291930D02*
X213189Y288780D01*
G01X209252Y291930D02*
X213189Y287993D01*
M02*
