G04 ================== begin FILE IDENTIFICATION RECORD ==================*
G04 Layout Name:  C:/Users/Liu/Desktop/Stereo/Layout/Stereo.brd*
G04 Film Name:    SILKSCREEN_TOP*
G04 File Format:  Gerber RS274X*
G04 File Origin:  Cadence Allegro 16.6-P004*
G04 Origin Date:  Wed Oct 15 09:28:20 2014*
G04 *
G04 Layer:  PACKAGE GEOMETRY/SILKSCREEN_TOP*
G04 Layer:  MANUFACTURING/AUTOSILK_TOP*
G04 Layer:  BOARD GEOMETRY/SILKSCREEN_TOP*
G04 *
G04 Offset:    (0.00 0.00)*
G04 Mirror:    No*
G04 Mode:      Positive*
G04 Rotation:  0*
G04 FullContactRelief:  No*
G04 UndefLineWidth:     6.00*
G04 ================== end FILE IDENTIFICATION RECORD ====================*
%FSLAX35Y35*MOIN*%
%IR0*IPPOS*OFA0.00000B0.00000*MIA0B0*SFA1.00000B1.00000*%
%ADD10C,.01969*%
%ADD11C,.006*%
%ADD12C,.00394*%
%ADD13C,.00984*%
%ADD14C,.00787*%
G75*
%LPD*%
G75*
G54D10*
G01X-174517Y170096D02*
G03I-984J0D01*
G01D02*
G03I-984J0D01*
G01X-25568Y185952D02*
G03I-984J0D01*
G01D02*
G03I-984J0D01*
G54D11*
G01X-385205Y331266D02*
X-383965Y330225D01*
X-382570Y329600D01*
X-381330D01*
X-380090Y330225D01*
X-379160Y331266D01*
X-378695Y332725D01*
X-379005Y334183D01*
X-379780Y335433D01*
X-381175Y336267D01*
X-383035Y336683D01*
X-384120Y337517D01*
X-384585Y338975D01*
X-384275Y340433D01*
X-383500Y341475D01*
X-382415Y342100D01*
X-381330D01*
X-380245Y341683D01*
X-379315Y340642D01*
G01X-369550Y342100D02*
Y329600D01*
G01X-371720Y337933D02*
X-367380D01*
G01X-359475Y335225D02*
X-354515D01*
X-354980Y336683D01*
X-355755Y337517D01*
X-356840Y337933D01*
X-357925Y337725D01*
X-358855Y337100D01*
X-359475Y335642D01*
X-359785Y334391D01*
Y333142D01*
X-359475Y331892D01*
X-358700Y330641D01*
X-357770Y329808D01*
X-356685Y329600D01*
X-355600Y330017D01*
X-354515Y331266D01*
G01X-346920Y329600D02*
Y337933D01*
G01Y336267D02*
X-346145Y337100D01*
X-345370Y337725D01*
X-344285Y337933D01*
X-343510Y337725D01*
X-342580Y337100D01*
G01X-334675Y335225D02*
X-329715D01*
X-330180Y336683D01*
X-330955Y337517D01*
X-332040Y337933D01*
X-333125Y337725D01*
X-334055Y337100D01*
X-334675Y335642D01*
X-334985Y334391D01*
Y333142D01*
X-334675Y331892D01*
X-333900Y330641D01*
X-332970Y329808D01*
X-331885Y329600D01*
X-330800Y330017D01*
X-329715Y331266D01*
G01X-319950Y329600D02*
X-320880Y329808D01*
X-321810Y330641D01*
X-322430Y332100D01*
X-322740Y333767D01*
X-322430Y335433D01*
X-321810Y336892D01*
X-320880Y337725D01*
X-319950Y337933D01*
X-319020Y337725D01*
X-318090Y336892D01*
X-317470Y335433D01*
X-317315Y333767D01*
X-317470Y332100D01*
X-318090Y330641D01*
X-319020Y329808D01*
X-319950Y329600D01*
G01X-299025Y342100D02*
X-295150Y329600D01*
X-291275Y342100D01*
G01X-282750Y329600D02*
Y342100D01*
X-284610Y339600D01*
G01Y329600D02*
X-280890D01*
G01X-270350Y329183D02*
X-270660Y329392D01*
Y329808D01*
X-270350Y330017D01*
X-270040Y329808D01*
Y329392D01*
X-270350Y329183D01*
G01X-257950Y342100D02*
X-259190Y341683D01*
X-260120Y340642D01*
X-260740Y339392D01*
X-261205Y337725D01*
X-261360Y335850D01*
X-261205Y333975D01*
X-260740Y332308D01*
X-260120Y331058D01*
X-259190Y330017D01*
X-257950Y329600D01*
X-256710Y330017D01*
X-255780Y331058D01*
X-255160Y332308D01*
X-254695Y333975D01*
X-254540Y335850D01*
X-254695Y337725D01*
X-255160Y339392D01*
X-255780Y340642D01*
X-256710Y341683D01*
X-257950Y342100D01*
G01X-351053Y62100D02*
Y56725D01*
X-350680Y55600D01*
X-349933Y54850D01*
X-349000Y54600D01*
X-348067Y54850D01*
X-347320Y55600D01*
X-346947Y56725D01*
Y62100D01*
G01X-341500Y54600D02*
Y62100D01*
X-342620Y60600D01*
G01Y54600D02*
X-340380D01*
G01X-335773Y60850D02*
X-335213Y61600D01*
X-334560Y61975D01*
X-333813Y62100D01*
X-332880Y61850D01*
X-332227Y61225D01*
X-332040Y60475D01*
X-332133Y59725D01*
X-332507Y59100D01*
X-334373Y57850D01*
X-335213Y56975D01*
X-335773Y55725D01*
X-335960Y54600D01*
X-332040D01*
G01X-361200Y94000D02*
Y86500D01*
G01X-363347Y94000D02*
X-359053D01*
G01X-355567Y86500D02*
Y94000D01*
X-353327D01*
X-352580Y93625D01*
X-352020Y92750D01*
X-351833Y91750D01*
X-352020Y90750D01*
X-352487Y90000D01*
X-353327Y89625D01*
X-355567D01*
G01X-346200Y86500D02*
Y94000D01*
X-347320Y92500D01*
G01Y86500D02*
X-345080D01*
G01X-361700Y74300D02*
Y66800D01*
G01X-363847Y74300D02*
X-359553D01*
G01X-356067Y66800D02*
Y74300D01*
X-353827D01*
X-353080Y73925D01*
X-352520Y73050D01*
X-352333Y72050D01*
X-352520Y71050D01*
X-352987Y70300D01*
X-353827Y69925D01*
X-356067D01*
G01X-348473Y73050D02*
X-347913Y73800D01*
X-347260Y74175D01*
X-346513Y74300D01*
X-345580Y74050D01*
X-344927Y73425D01*
X-344740Y72675D01*
X-344833Y71925D01*
X-345207Y71300D01*
X-347073Y70050D01*
X-347913Y69175D01*
X-348473Y67925D01*
X-348660Y66800D01*
X-344740D01*
G01X-362100Y135000D02*
Y127500D01*
G01X-364247Y135000D02*
X-359953D01*
G01X-356467Y127500D02*
Y135000D01*
X-354227D01*
X-353480Y134625D01*
X-352920Y133750D01*
X-352733Y132750D01*
X-352920Y131750D01*
X-353387Y131000D01*
X-354227Y130625D01*
X-356467D01*
G01X-349153Y129000D02*
X-348593Y128125D01*
X-347847Y127625D01*
X-347007Y127500D01*
X-346260Y127625D01*
X-345513Y128250D01*
X-345047Y129000D01*
X-344953Y129750D01*
X-345140Y130625D01*
X-345793Y131250D01*
X-346447Y131500D01*
X-347287D01*
G01X-346447D02*
X-345887Y131875D01*
X-345420Y132500D01*
X-345233Y133250D01*
X-345420Y134000D01*
X-345887Y134625D01*
X-346727Y135000D01*
X-347567Y134875D01*
X-348407Y134375D01*
G01X-362600Y114400D02*
Y106900D01*
G01X-364747Y114400D02*
X-360453D01*
G01X-356967Y106900D02*
Y114400D01*
X-354727D01*
X-353980Y114025D01*
X-353420Y113150D01*
X-353233Y112150D01*
X-353420Y111150D01*
X-353887Y110400D01*
X-354727Y110025D01*
X-356967D01*
G01X-346480Y106900D02*
Y114400D01*
X-349933Y109025D01*
X-345267D01*
G01X-365447Y158775D02*
X-366007Y159150D01*
X-366660Y159400D01*
X-367407D01*
X-368247Y159025D01*
X-368900Y158400D01*
X-369367Y157650D01*
X-369740Y156400D01*
X-369833Y155275D01*
X-369647Y154150D01*
X-369367Y153400D01*
X-368807Y152650D01*
X-368153Y152150D01*
X-367500Y151900D01*
X-366847D01*
X-366193Y152150D01*
X-365633Y152525D01*
X-365167Y153025D01*
G01X-361773Y158150D02*
X-361213Y158900D01*
X-360560Y159275D01*
X-359813Y159400D01*
X-358880Y159150D01*
X-358227Y158525D01*
X-358040Y157775D01*
X-358133Y157025D01*
X-358507Y156400D01*
X-360373Y155150D01*
X-361213Y154275D01*
X-361773Y153025D01*
X-361960Y151900D01*
X-358040D01*
G01X-352687D02*
X-352500Y153525D01*
X-352220Y154900D01*
X-351847Y156150D01*
X-351380Y157525D01*
X-350633Y159400D01*
X-354367D01*
G01X-375303Y240200D02*
Y234825D01*
X-374930Y233700D01*
X-374183Y232950D01*
X-373250Y232700D01*
X-372317Y232950D01*
X-371570Y233700D01*
X-371197Y234825D01*
Y240200D01*
G01X-364630Y232700D02*
Y240200D01*
X-368083Y234825D01*
X-363417D01*
G01X-348667Y242300D02*
Y249800D01*
X-346333D01*
X-345587Y249425D01*
X-345120Y248925D01*
X-344933Y247925D01*
X-345120Y246925D01*
X-345680Y246300D01*
X-346333Y245925D01*
X-348667D01*
G01X-346333D02*
X-344933Y242300D01*
G01X-341073Y248550D02*
X-340513Y249300D01*
X-339860Y249675D01*
X-339113Y249800D01*
X-338180Y249550D01*
X-337527Y248925D01*
X-337340Y248175D01*
X-337433Y247425D01*
X-337807Y246800D01*
X-339673Y245550D01*
X-340513Y244675D01*
X-341073Y243425D01*
X-341260Y242300D01*
X-337340D01*
G01X-333573Y248550D02*
X-333013Y249300D01*
X-332360Y249675D01*
X-331613Y249800D01*
X-330680Y249550D01*
X-330027Y248925D01*
X-329840Y248175D01*
X-329933Y247425D01*
X-330307Y246800D01*
X-332173Y245550D01*
X-333013Y244675D01*
X-333573Y243425D01*
X-333760Y242300D01*
X-329840D01*
G01X-383573Y308500D02*
Y314800D01*
X-382007D01*
X-381380Y314485D01*
X-380910Y314065D01*
X-380518Y313435D01*
X-380205Y312700D01*
X-380127Y311650D01*
X-380205Y310600D01*
X-380518Y309865D01*
X-380910Y309235D01*
X-381380Y308815D01*
X-382007Y308500D01*
X-383573D01*
G01X-376725Y311335D02*
X-374218D01*
X-374453Y312070D01*
X-374845Y312490D01*
X-375393Y312700D01*
X-375942Y312595D01*
X-376412Y312280D01*
X-376725Y311545D01*
X-376882Y310915D01*
Y310285D01*
X-376725Y309655D01*
X-376333Y309025D01*
X-375863Y308605D01*
X-375315Y308500D01*
X-374767Y308710D01*
X-374218Y309340D01*
G01X-370425Y309235D02*
X-370033Y308815D01*
X-369485Y308500D01*
X-369015D01*
X-368545Y308710D01*
X-368232Y309025D01*
X-368075Y309445D01*
X-368153Y310075D01*
X-368467Y310390D01*
X-369877Y311020D01*
X-370190Y311755D01*
X-370033Y312280D01*
X-369720Y312595D01*
X-369250Y312700D01*
X-368780Y312595D01*
X-368310Y312280D01*
G01X-362950Y312700D02*
Y308500D01*
G01Y314380D02*
X-363107Y314485D01*
Y314695D01*
X-362950Y314800D01*
X-362793Y314695D01*
Y314485D01*
X-362950Y314380D01*
G01X-357747Y306925D02*
X-357198Y306505D01*
X-356572Y306400D01*
X-356023Y306505D01*
X-355553Y307030D01*
X-355240Y307765D01*
Y312700D01*
G01Y311860D02*
X-355553Y312280D01*
X-356023Y312595D01*
X-356572Y312700D01*
X-357198Y312490D01*
X-357590Y312070D01*
X-357903Y311335D01*
X-358060Y310600D01*
X-357982Y309970D01*
X-357668Y309235D01*
X-357198Y308710D01*
X-356572Y308500D01*
X-356102Y308605D01*
X-355553Y309025D01*
X-355240Y309445D01*
G01X-351682Y308500D02*
Y312700D01*
G01Y311650D02*
X-351368Y312175D01*
X-350898Y312595D01*
X-350272Y312700D01*
X-349723Y312595D01*
X-349253Y312175D01*
X-349018Y311440D01*
Y308500D01*
G01X-345225Y311335D02*
X-342718D01*
X-342953Y312070D01*
X-343345Y312490D01*
X-343893Y312700D01*
X-344442Y312595D01*
X-344912Y312280D01*
X-345225Y311545D01*
X-345382Y310915D01*
Y310285D01*
X-345225Y309655D01*
X-344833Y309025D01*
X-344363Y308605D01*
X-343815Y308500D01*
X-343267Y308710D01*
X-342718Y309340D01*
G01X-336340Y314800D02*
Y308500D01*
G01Y309445D02*
X-336653Y308920D01*
X-337123Y308605D01*
X-337672Y308500D01*
X-338298Y308710D01*
X-338768Y309235D01*
X-339082Y309865D01*
X-339160Y310600D01*
X-339082Y311335D01*
X-338768Y311965D01*
X-338298Y312490D01*
X-337672Y312700D01*
X-337123Y312595D01*
X-336732Y312385D01*
X-336340Y311965D01*
G01X-326560Y308500D02*
Y314800D01*
G01Y311650D02*
X-326168Y312280D01*
X-325698Y312595D01*
X-325228Y312700D01*
X-324523Y312490D01*
X-324053Y312070D01*
X-323740Y311335D01*
Y310495D01*
X-323897Y309655D01*
X-324210Y309025D01*
X-324758Y308605D01*
X-325228Y308500D01*
X-325698Y308605D01*
X-326168Y308920D01*
X-326560Y309445D01*
G01X-320495Y306610D02*
X-320025Y306400D01*
X-319398Y306610D01*
X-319007Y307030D01*
X-318693Y307555D01*
X-318223Y309235D01*
X-317205Y312700D01*
G01X-319712D02*
X-318223Y309235D01*
G01X-307817Y314800D02*
Y308500D01*
X-304683D01*
G01X-299950Y312700D02*
Y308500D01*
G01Y314380D02*
X-300107Y314485D01*
Y314695D01*
X-299950Y314800D01*
X-299793Y314695D01*
Y314485D01*
X-299950Y314380D01*
G01X-295060Y308500D02*
Y314800D01*
G01Y311650D02*
X-294668Y312280D01*
X-294198Y312595D01*
X-293728Y312700D01*
X-293023Y312490D01*
X-292553Y312070D01*
X-292240Y311335D01*
Y310495D01*
X-292397Y309655D01*
X-292710Y309025D01*
X-293258Y308605D01*
X-293728Y308500D01*
X-294198Y308605D01*
X-294668Y308920D01*
X-295060Y309445D01*
G01X-288525Y311335D02*
X-286018D01*
X-286253Y312070D01*
X-286645Y312490D01*
X-287193Y312700D01*
X-287742Y312595D01*
X-288212Y312280D01*
X-288525Y311545D01*
X-288682Y310915D01*
Y310285D01*
X-288525Y309655D01*
X-288133Y309025D01*
X-287663Y308605D01*
X-287115Y308500D01*
X-286567Y308710D01*
X-286018Y309340D01*
G01X-282147Y308500D02*
Y312700D01*
G01Y311860D02*
X-281755Y312280D01*
X-281363Y312595D01*
X-280815Y312700D01*
X-280423Y312595D01*
X-279953Y312280D01*
G01X-381627Y296575D02*
X-382097Y296890D01*
X-382645Y297100D01*
X-383272D01*
X-383977Y296785D01*
X-384525Y296260D01*
X-384917Y295630D01*
X-385230Y294580D01*
X-385308Y293635D01*
X-385152Y292690D01*
X-384917Y292060D01*
X-384447Y291430D01*
X-383898Y291010D01*
X-383350Y290800D01*
X-382802D01*
X-382253Y291010D01*
X-381783Y291325D01*
X-381392Y291745D01*
G01X-377050Y290800D02*
X-377520Y290905D01*
X-377990Y291325D01*
X-378303Y292060D01*
X-378460Y292900D01*
X-378303Y293740D01*
X-377990Y294475D01*
X-377520Y294895D01*
X-377050Y295000D01*
X-376580Y294895D01*
X-376110Y294475D01*
X-375797Y293740D01*
X-375718Y292900D01*
X-375797Y292060D01*
X-376110Y291325D01*
X-376580Y290905D01*
X-377050Y290800D01*
G01X-372160Y288700D02*
Y295000D01*
G01Y294055D02*
X-371768Y294580D01*
X-371377Y294895D01*
X-370750Y295000D01*
X-370202Y294895D01*
X-369653Y294370D01*
X-369418Y293635D01*
X-369340Y292900D01*
X-369418Y292165D01*
X-369653Y291430D01*
X-370123Y291010D01*
X-370750Y290800D01*
X-371298Y290905D01*
X-371847Y291220D01*
X-372160Y291640D01*
G01X-366095Y288910D02*
X-365625Y288700D01*
X-364998Y288910D01*
X-364607Y289330D01*
X-364293Y289855D01*
X-363823Y291535D01*
X-362805Y295000D01*
G01X-365312D02*
X-363823Y291535D01*
G01X-359247Y290800D02*
Y295000D01*
G01Y294160D02*
X-358855Y294580D01*
X-358463Y294895D01*
X-357915Y295000D01*
X-357523Y294895D01*
X-357053Y294580D01*
G01X-351850Y295000D02*
Y290800D01*
G01Y296680D02*
X-352007Y296785D01*
Y296995D01*
X-351850Y297100D01*
X-351693Y296995D01*
Y296785D01*
X-351850Y296680D01*
G01X-346647Y289225D02*
X-346098Y288805D01*
X-345472Y288700D01*
X-344923Y288805D01*
X-344453Y289330D01*
X-344140Y290065D01*
Y295000D01*
G01Y294160D02*
X-344453Y294580D01*
X-344923Y294895D01*
X-345472Y295000D01*
X-346098Y294790D01*
X-346490Y294370D01*
X-346803Y293635D01*
X-346960Y292900D01*
X-346882Y292270D01*
X-346568Y291535D01*
X-346098Y291010D01*
X-345472Y290800D01*
X-345002Y290905D01*
X-344453Y291325D01*
X-344140Y291745D01*
G01X-340582Y290800D02*
Y297100D01*
G01Y294055D02*
X-340190Y294580D01*
X-339798Y294895D01*
X-339172Y295000D01*
X-338702Y294895D01*
X-338153Y294475D01*
X-337918Y293845D01*
Y290800D01*
G01X-332950Y297100D02*
Y290800D01*
G01X-334047Y295000D02*
X-331853D01*
G01X-322387Y290800D02*
Y297100D01*
X-320350Y291850D01*
X-318313Y297100D01*
Y290800D01*
G01X-312640D02*
Y295000D01*
G01Y294265D02*
X-312953Y294685D01*
X-313423Y294895D01*
X-313972Y295000D01*
X-314520Y294790D01*
X-314990Y294370D01*
X-315303Y293740D01*
X-315460Y292900D01*
X-315303Y292060D01*
X-314990Y291430D01*
X-314520Y291010D01*
X-313972Y290800D01*
X-313423Y290905D01*
X-312953Y291220D01*
X-312640Y291640D01*
G01X-308925Y295000D02*
X-306575Y290800D01*
G01Y295000D02*
X-308925Y290800D01*
G01X-301450Y297100D02*
Y290800D01*
G01X-302547Y295000D02*
X-300353D01*
G01X-293740Y290800D02*
Y295000D01*
G01Y294265D02*
X-294053Y294685D01*
X-294523Y294895D01*
X-295072Y295000D01*
X-295620Y294790D01*
X-296090Y294370D01*
X-296403Y293740D01*
X-296560Y292900D01*
X-296403Y292060D01*
X-296090Y291430D01*
X-295620Y291010D01*
X-295072Y290800D01*
X-294523Y290905D01*
X-294053Y291220D01*
X-293740Y291640D01*
G01X-288850Y295000D02*
Y290800D01*
G01Y296680D02*
X-289007Y296785D01*
Y296995D01*
X-288850Y297100D01*
X-288693Y296995D01*
Y296785D01*
X-288850Y296680D01*
G01X-283882Y290800D02*
Y295000D01*
G01Y293950D02*
X-283568Y294475D01*
X-283098Y294895D01*
X-282472Y295000D01*
X-281923Y294895D01*
X-281453Y294475D01*
X-281218Y293740D01*
Y290800D01*
G01X-314867Y65700D02*
X-314400Y64950D01*
X-313840Y64450D01*
X-313187Y64200D01*
X-312440Y64450D01*
X-311880Y64950D01*
X-311320Y65700D01*
X-311133Y66700D01*
Y71700D01*
G01X-305500Y64200D02*
Y71700D01*
X-306620Y70200D01*
G01Y64200D02*
X-304380D01*
G01X-299773Y70450D02*
X-299213Y71200D01*
X-298560Y71575D01*
X-297813Y71700D01*
X-296880Y71450D01*
X-296227Y70825D01*
X-296040Y70075D01*
X-296133Y69325D01*
X-296507Y68700D01*
X-298373Y67450D01*
X-299213Y66575D01*
X-299773Y65325D01*
X-299960Y64200D01*
X-296040D01*
G01X-314103Y220200D02*
Y227700D01*
X-312237D01*
X-311490Y227325D01*
X-310930Y226825D01*
X-310463Y226075D01*
X-310090Y225200D01*
X-309997Y223950D01*
X-310090Y222700D01*
X-310463Y221825D01*
X-310930Y221075D01*
X-311490Y220575D01*
X-312237Y220200D01*
X-314103D01*
G01X-304550D02*
Y227700D01*
X-305670Y226200D01*
G01Y220200D02*
X-303430D01*
G01X-303150Y154400D02*
X-303897Y154525D01*
X-304550Y155025D01*
X-305110Y155775D01*
X-305483Y156650D01*
X-305670Y157650D01*
Y158650D01*
X-305483Y159650D01*
X-305110Y160525D01*
X-304550Y161275D01*
X-303897Y161775D01*
X-303150Y161900D01*
X-302403Y161775D01*
X-301750Y161275D01*
X-301190Y160525D01*
X-300817Y159650D01*
X-300630Y158650D01*
Y157650D01*
X-300817Y156650D01*
X-301190Y155775D01*
X-301750Y155025D01*
X-302403Y154525D01*
X-303150Y154400D01*
G01X-302403Y156400D02*
X-301283Y154400D01*
G01X-297703Y155900D02*
X-297143Y155025D01*
X-296397Y154525D01*
X-295557Y154400D01*
X-294810Y154525D01*
X-294063Y155150D01*
X-293597Y155900D01*
X-293503Y156650D01*
X-293690Y157525D01*
X-294343Y158150D01*
X-294997Y158400D01*
X-295837D01*
G01X-294997D02*
X-294437Y158775D01*
X-293970Y159400D01*
X-293783Y160150D01*
X-293970Y160900D01*
X-294437Y161525D01*
X-295277Y161900D01*
X-296117Y161775D01*
X-296957Y161275D01*
G01X-299767Y184600D02*
Y192100D01*
X-297433D01*
X-296687Y191725D01*
X-296220Y191225D01*
X-296033Y190225D01*
X-296220Y189225D01*
X-296780Y188600D01*
X-297433Y188225D01*
X-299767D01*
G01X-297433D02*
X-296033Y184600D01*
G01X-290400D02*
Y192100D01*
X-291520Y190600D01*
G01Y184600D02*
X-289280D01*
G01X-284673Y190850D02*
X-284113Y191600D01*
X-283460Y191975D01*
X-282713Y192100D01*
X-281780Y191850D01*
X-281127Y191225D01*
X-280940Y190475D01*
X-281033Y189725D01*
X-281407Y189100D01*
X-283273Y187850D01*
X-284113Y186975D01*
X-284673Y185725D01*
X-284860Y184600D01*
X-280940D01*
G01X-260967Y174100D02*
Y181600D01*
X-258633D01*
X-257887Y181225D01*
X-257420Y180725D01*
X-257233Y179725D01*
X-257420Y178725D01*
X-257980Y178100D01*
X-258633Y177725D01*
X-260967D01*
G01X-258633D02*
X-257233Y174100D01*
G01X-251600D02*
Y181600D01*
X-252720Y180100D01*
G01Y174100D02*
X-250480D01*
G01X-244100D02*
Y181600D01*
X-245220Y180100D01*
G01Y174100D02*
X-242980D01*
G01X-261467Y198100D02*
Y205600D01*
X-259133D01*
X-258387Y205225D01*
X-257920Y204725D01*
X-257733Y203725D01*
X-257920Y202725D01*
X-258480Y202100D01*
X-259133Y201725D01*
X-261467D01*
G01X-259133D02*
X-257733Y198100D01*
G01X-252100D02*
Y205600D01*
X-253220Y204100D01*
G01Y198100D02*
X-250980D01*
G01X-246187Y198975D02*
X-245533Y198350D01*
X-244787Y198100D01*
X-244040Y198350D01*
X-243387Y199100D01*
X-242920Y200225D01*
X-242733Y201350D01*
Y202725D01*
X-242920Y203850D01*
X-243387Y204850D01*
X-243947Y205350D01*
X-244600Y205600D01*
X-245347Y205350D01*
X-245907Y204850D01*
X-246280Y204100D01*
X-246467Y203100D01*
X-246280Y202225D01*
X-245813Y201350D01*
X-245253Y200850D01*
X-244600Y200725D01*
X-243853Y200975D01*
X-243293Y201600D01*
X-242733Y202725D01*
G01X-261467Y187100D02*
Y194600D01*
X-259133D01*
X-258387Y194225D01*
X-257920Y193725D01*
X-257733Y192725D01*
X-257920Y191725D01*
X-258480Y191100D01*
X-259133Y190725D01*
X-261467D01*
G01X-259133D02*
X-257733Y187100D01*
G01X-253873Y193350D02*
X-253313Y194100D01*
X-252660Y194475D01*
X-251913Y194600D01*
X-250980Y194350D01*
X-250327Y193725D01*
X-250140Y192975D01*
X-250233Y192225D01*
X-250607Y191600D01*
X-252473Y190350D01*
X-253313Y189475D01*
X-253873Y188225D01*
X-254060Y187100D01*
X-250140D01*
G01X-244600Y194600D02*
X-245347Y194350D01*
X-245907Y193725D01*
X-246280Y192975D01*
X-246560Y191975D01*
X-246653Y190850D01*
X-246560Y189725D01*
X-246280Y188725D01*
X-245907Y187975D01*
X-245347Y187350D01*
X-244600Y187100D01*
X-243853Y187350D01*
X-243293Y187975D01*
X-242920Y188725D01*
X-242640Y189725D01*
X-242547Y190850D01*
X-242640Y191975D01*
X-242920Y192975D01*
X-243293Y193725D01*
X-243853Y194350D01*
X-244600Y194600D01*
G01X-241147Y252975D02*
X-241707Y253350D01*
X-242360Y253600D01*
X-243107D01*
X-243947Y253225D01*
X-244600Y252600D01*
X-245067Y251850D01*
X-245440Y250600D01*
X-245533Y249475D01*
X-245347Y248350D01*
X-245067Y247600D01*
X-244507Y246850D01*
X-243853Y246350D01*
X-243200Y246100D01*
X-242547D01*
X-241893Y246350D01*
X-241333Y246725D01*
X-240867Y247225D01*
G01X-234580Y246100D02*
Y253600D01*
X-238033Y248225D01*
X-233367D01*
G01X-230253Y247600D02*
X-229693Y246725D01*
X-228947Y246225D01*
X-228107Y246100D01*
X-227360Y246225D01*
X-226613Y246850D01*
X-226147Y247600D01*
X-226053Y248350D01*
X-226240Y249225D01*
X-226893Y249850D01*
X-227547Y250100D01*
X-228387D01*
G01X-227547D02*
X-226987Y250475D01*
X-226520Y251100D01*
X-226333Y251850D01*
X-226520Y252600D01*
X-226987Y253225D01*
X-227827Y253600D01*
X-228667Y253475D01*
X-229507Y252975D01*
G01X-240447Y262975D02*
X-241007Y263350D01*
X-241660Y263600D01*
X-242407D01*
X-243247Y263225D01*
X-243900Y262600D01*
X-244367Y261850D01*
X-244740Y260600D01*
X-244833Y259475D01*
X-244647Y258350D01*
X-244367Y257600D01*
X-243807Y256850D01*
X-243153Y256350D01*
X-242500Y256100D01*
X-241847D01*
X-241193Y256350D01*
X-240633Y256725D01*
X-240167Y257225D01*
G01X-233880Y256100D02*
Y263600D01*
X-237333Y258225D01*
X-232667D01*
G01X-229273Y262350D02*
X-228713Y263100D01*
X-228060Y263475D01*
X-227313Y263600D01*
X-226380Y263350D01*
X-225727Y262725D01*
X-225540Y261975D01*
X-225633Y261225D01*
X-226007Y260600D01*
X-227873Y259350D01*
X-228713Y258475D01*
X-229273Y257225D01*
X-229460Y256100D01*
X-225540D01*
G01X-241347Y287275D02*
X-241907Y287650D01*
X-242560Y287900D01*
X-243307D01*
X-244147Y287525D01*
X-244800Y286900D01*
X-245267Y286150D01*
X-245640Y284900D01*
X-245733Y283775D01*
X-245547Y282650D01*
X-245267Y281900D01*
X-244707Y281150D01*
X-244053Y280650D01*
X-243400Y280400D01*
X-242747D01*
X-242093Y280650D01*
X-241533Y281025D01*
X-241067Y281525D01*
G01X-237953Y281900D02*
X-237393Y281025D01*
X-236647Y280525D01*
X-235807Y280400D01*
X-235060Y280525D01*
X-234313Y281150D01*
X-233847Y281900D01*
X-233753Y282650D01*
X-233940Y283525D01*
X-234593Y284150D01*
X-235247Y284400D01*
X-236087D01*
G01X-235247D02*
X-234687Y284775D01*
X-234220Y285400D01*
X-234033Y286150D01*
X-234220Y286900D01*
X-234687Y287525D01*
X-235527Y287900D01*
X-236367Y287775D01*
X-237207Y287275D01*
G01X-228400Y280400D02*
X-227747Y280525D01*
X-227000Y280900D01*
X-226533Y281525D01*
X-226347Y282400D01*
X-226533Y283275D01*
X-227093Y284025D01*
X-227933Y284400D01*
X-228867D01*
X-229427Y284650D01*
X-229893Y285275D01*
X-230080Y286150D01*
X-229800Y287025D01*
X-229147Y287650D01*
X-228400Y287900D01*
X-227653Y287650D01*
X-227000Y287025D01*
X-226720Y286150D01*
X-226907Y285275D01*
X-227373Y284650D01*
X-227933Y284400D01*
X-228867D01*
X-229707Y284025D01*
X-230267Y283275D01*
X-230453Y282400D01*
X-230267Y281525D01*
X-229800Y280900D01*
X-229053Y280525D01*
X-228400Y280400D01*
G01X-247447Y310375D02*
X-248007Y310750D01*
X-248660Y311000D01*
X-249407D01*
X-250247Y310625D01*
X-250900Y310000D01*
X-251367Y309250D01*
X-251740Y308000D01*
X-251833Y306875D01*
X-251647Y305750D01*
X-251367Y305000D01*
X-250807Y304250D01*
X-250153Y303750D01*
X-249500Y303500D01*
X-248847D01*
X-248193Y303750D01*
X-247633Y304125D01*
X-247167Y304625D01*
G01X-244053Y305000D02*
X-243493Y304125D01*
X-242747Y303625D01*
X-241907Y303500D01*
X-241160Y303625D01*
X-240413Y304250D01*
X-239947Y305000D01*
X-239853Y305750D01*
X-240040Y306625D01*
X-240693Y307250D01*
X-241347Y307500D01*
X-242187D01*
G01X-241347D02*
X-240787Y307875D01*
X-240320Y308500D01*
X-240133Y309250D01*
X-240320Y310000D01*
X-240787Y310625D01*
X-241627Y311000D01*
X-242467Y310875D01*
X-243307Y310375D01*
G01X-236087Y304375D02*
X-235433Y303750D01*
X-234687Y303500D01*
X-233940Y303750D01*
X-233287Y304500D01*
X-232820Y305625D01*
X-232633Y306750D01*
Y308125D01*
X-232820Y309250D01*
X-233287Y310250D01*
X-233847Y310750D01*
X-234500Y311000D01*
X-235247Y310750D01*
X-235807Y310250D01*
X-236180Y309500D01*
X-236367Y308500D01*
X-236180Y307625D01*
X-235713Y306750D01*
X-235153Y306250D01*
X-234500Y306125D01*
X-233753Y306375D01*
X-233193Y307000D01*
X-232633Y308125D01*
G01X-259900Y289983D02*
X-252400D01*
Y293717D01*
G01Y299163D02*
X-254025Y299350D01*
X-255400Y299630D01*
X-256650Y300003D01*
X-258025Y300470D01*
X-259900Y301217D01*
Y297483D01*
G01X-230267Y304100D02*
Y311600D01*
X-227933D01*
X-227187Y311225D01*
X-226720Y310725D01*
X-226533Y309725D01*
X-226720Y308725D01*
X-227280Y308100D01*
X-227933Y307725D01*
X-230267D01*
G01X-227933D02*
X-226533Y304100D01*
G01X-222953Y305600D02*
X-222393Y304725D01*
X-221647Y304225D01*
X-220807Y304100D01*
X-220060Y304225D01*
X-219313Y304850D01*
X-218847Y305600D01*
X-218753Y306350D01*
X-218940Y307225D01*
X-219593Y307850D01*
X-220247Y308100D01*
X-221087D01*
G01X-220247D02*
X-219687Y308475D01*
X-219220Y309100D01*
X-219033Y309850D01*
X-219220Y310600D01*
X-219687Y311225D01*
X-220527Y311600D01*
X-221367Y311475D01*
X-222207Y310975D01*
G01X-215173Y310350D02*
X-214613Y311100D01*
X-213960Y311475D01*
X-213213Y311600D01*
X-212280Y311350D01*
X-211627Y310725D01*
X-211440Y309975D01*
X-211533Y309225D01*
X-211907Y308600D01*
X-213773Y307350D01*
X-214613Y306475D01*
X-215173Y305225D01*
X-215360Y304100D01*
X-211440D01*
G01X-198967Y88800D02*
X-198500Y88050D01*
X-197940Y87550D01*
X-197287Y87300D01*
X-196540Y87550D01*
X-195980Y88050D01*
X-195420Y88800D01*
X-195233Y89800D01*
Y94800D01*
G01X-189600Y87300D02*
Y94800D01*
X-190720Y93300D01*
G01Y87300D02*
X-188480D01*
G01X-182100D02*
Y94800D01*
X-183220Y93300D01*
G01Y87300D02*
X-180980D01*
G01X-201967Y127800D02*
X-201500Y127050D01*
X-200940Y126550D01*
X-200287Y126300D01*
X-199540Y126550D01*
X-198980Y127050D01*
X-198420Y127800D01*
X-198233Y128800D01*
Y133800D01*
G01X-192600Y126300D02*
Y133800D01*
X-193720Y132300D01*
G01Y126300D02*
X-191480D01*
G01X-187153Y127425D02*
X-186593Y126800D01*
X-185940Y126425D01*
X-185100Y126300D01*
X-184260Y126550D01*
X-183607Y127050D01*
X-183140Y127925D01*
X-183047Y128925D01*
X-183233Y129925D01*
X-183700Y130550D01*
X-184353Y131050D01*
X-185007Y131175D01*
X-185660Y131050D01*
X-186500Y130550D01*
X-186220Y133800D01*
X-183700D01*
G01X-205800Y155833D02*
X-213300D01*
Y158167D01*
X-212925Y158913D01*
X-212425Y159380D01*
X-211425Y159567D01*
X-210425Y159380D01*
X-209800Y158820D01*
X-209425Y158167D01*
Y155833D01*
G01Y158167D02*
X-205800Y159567D01*
G01X-206925Y163147D02*
X-206300Y163707D01*
X-205925Y164360D01*
X-205800Y165200D01*
X-206050Y166040D01*
X-206550Y166693D01*
X-207425Y167160D01*
X-208425Y167253D01*
X-209425Y167067D01*
X-210050Y166600D01*
X-210550Y165947D01*
X-210675Y165293D01*
X-210550Y164640D01*
X-210050Y163800D01*
X-213300Y164080D01*
Y166600D01*
G01X-208925Y170927D02*
X-209800Y171580D01*
X-210300Y172140D01*
X-210550Y172887D01*
X-210300Y173540D01*
X-209800Y174007D01*
X-209050Y174380D01*
X-208175Y174473D01*
X-207425Y174380D01*
X-206675Y174007D01*
X-206050Y173447D01*
X-205800Y172793D01*
X-206050Y172047D01*
X-206800Y171393D01*
X-207925Y171020D01*
X-209175Y170927D01*
X-210800Y171113D01*
X-211675Y171393D01*
X-212550Y171860D01*
X-213175Y172513D01*
X-213300Y173167D01*
X-213050Y173820D01*
X-212425Y174287D01*
G01X-225460Y224900D02*
X-224713Y224275D01*
X-223873Y223900D01*
X-223127D01*
X-222380Y224275D01*
X-221820Y224900D01*
X-221540Y225775D01*
X-221727Y226650D01*
X-222193Y227400D01*
X-223033Y227900D01*
X-224153Y228150D01*
X-224807Y228650D01*
X-225087Y229525D01*
X-224900Y230400D01*
X-224433Y231025D01*
X-223780Y231400D01*
X-223127D01*
X-222473Y231150D01*
X-221913Y230525D01*
G01X-218800Y231400D02*
X-217493Y223900D01*
X-216000Y231400D01*
X-214507Y223900D01*
X-213200Y231400D01*
G01X-210273Y230150D02*
X-209713Y230900D01*
X-209060Y231275D01*
X-208313Y231400D01*
X-207380Y231150D01*
X-206727Y230525D01*
X-206540Y229775D01*
X-206633Y229025D01*
X-207007Y228400D01*
X-208873Y227150D01*
X-209713Y226275D01*
X-210273Y225025D01*
X-210460Y223900D01*
X-206540D01*
G01X-214750Y279100D02*
Y282475D01*
X-216617Y286600D01*
G01X-212883D02*
X-214750Y282475D01*
G01X-209303Y280600D02*
X-208743Y279725D01*
X-207997Y279225D01*
X-207157Y279100D01*
X-206410Y279225D01*
X-205663Y279850D01*
X-205197Y280600D01*
X-205103Y281350D01*
X-205290Y282225D01*
X-205943Y282850D01*
X-206597Y283100D01*
X-207437D01*
G01X-206597D02*
X-206037Y283475D01*
X-205570Y284100D01*
X-205383Y284850D01*
X-205570Y285600D01*
X-206037Y286225D01*
X-206877Y286600D01*
X-207717Y286475D01*
X-208557Y285975D01*
G01X-217067Y267700D02*
Y275200D01*
X-214733D01*
X-213987Y274825D01*
X-213520Y274325D01*
X-213333Y273325D01*
X-213520Y272325D01*
X-214080Y271700D01*
X-214733Y271325D01*
X-217067D01*
G01X-214733D02*
X-213333Y267700D01*
G01X-209753Y269200D02*
X-209193Y268325D01*
X-208447Y267825D01*
X-207607Y267700D01*
X-206860Y267825D01*
X-206113Y268450D01*
X-205647Y269200D01*
X-205553Y269950D01*
X-205740Y270825D01*
X-206393Y271450D01*
X-207047Y271700D01*
X-207887D01*
G01X-207047D02*
X-206487Y272075D01*
X-206020Y272700D01*
X-205833Y273450D01*
X-206020Y274200D01*
X-206487Y274825D01*
X-207327Y275200D01*
X-208167Y275075D01*
X-209007Y274575D01*
G01X-201973Y270825D02*
X-201320Y271700D01*
X-200760Y272200D01*
X-200013Y272450D01*
X-199360Y272200D01*
X-198893Y271700D01*
X-198520Y270950D01*
X-198427Y270075D01*
X-198520Y269325D01*
X-198893Y268575D01*
X-199453Y267950D01*
X-200107Y267700D01*
X-200853Y267950D01*
X-201507Y268700D01*
X-201880Y269825D01*
X-201973Y271075D01*
X-201787Y272700D01*
X-201507Y273575D01*
X-201040Y274450D01*
X-200387Y275075D01*
X-199733Y275200D01*
X-199080Y274950D01*
X-198613Y274325D01*
G01X-205347Y315475D02*
X-205907Y315850D01*
X-206560Y316100D01*
X-207307D01*
X-208147Y315725D01*
X-208800Y315100D01*
X-209267Y314350D01*
X-209640Y313100D01*
X-209733Y311975D01*
X-209547Y310850D01*
X-209267Y310100D01*
X-208707Y309350D01*
X-208053Y308850D01*
X-207400Y308600D01*
X-206747D01*
X-206093Y308850D01*
X-205533Y309225D01*
X-205067Y309725D01*
G01X-201953Y310100D02*
X-201393Y309225D01*
X-200647Y308725D01*
X-199807Y308600D01*
X-199060Y308725D01*
X-198313Y309350D01*
X-197847Y310100D01*
X-197753Y310850D01*
X-197940Y311725D01*
X-198593Y312350D01*
X-199247Y312600D01*
X-200087D01*
G01X-199247D02*
X-198687Y312975D01*
X-198220Y313600D01*
X-198033Y314350D01*
X-198220Y315100D01*
X-198687Y315725D01*
X-199527Y316100D01*
X-200367Y315975D01*
X-201207Y315475D01*
G01X-191280Y308600D02*
Y316100D01*
X-194733Y310725D01*
X-190067D01*
G01X-192467Y287600D02*
Y295100D01*
X-190133D01*
X-189387Y294725D01*
X-188920Y294225D01*
X-188733Y293225D01*
X-188920Y292225D01*
X-189480Y291600D01*
X-190133Y291225D01*
X-192467D01*
G01X-190133D02*
X-188733Y287600D01*
G01X-185153Y289100D02*
X-184593Y288225D01*
X-183847Y287725D01*
X-183007Y287600D01*
X-182260Y287725D01*
X-181513Y288350D01*
X-181047Y289100D01*
X-180953Y289850D01*
X-181140Y290725D01*
X-181793Y291350D01*
X-182447Y291600D01*
X-183287D01*
G01X-182447D02*
X-181887Y291975D01*
X-181420Y292600D01*
X-181233Y293350D01*
X-181420Y294100D01*
X-181887Y294725D01*
X-182727Y295100D01*
X-183567Y294975D01*
X-184407Y294475D01*
G01X-175600Y295100D02*
X-176347Y294850D01*
X-176907Y294225D01*
X-177280Y293475D01*
X-177560Y292475D01*
X-177653Y291350D01*
X-177560Y290225D01*
X-177280Y289225D01*
X-176907Y288475D01*
X-176347Y287850D01*
X-175600Y287600D01*
X-174853Y287850D01*
X-174293Y288475D01*
X-173920Y289225D01*
X-173640Y290225D01*
X-173547Y291350D01*
X-173640Y292475D01*
X-173920Y293475D01*
X-174293Y294225D01*
X-174853Y294850D01*
X-175600Y295100D01*
G01X-162347Y128175D02*
X-162907Y128550D01*
X-163560Y128800D01*
X-164307D01*
X-165147Y128425D01*
X-165800Y127800D01*
X-166267Y127050D01*
X-166640Y125800D01*
X-166733Y124675D01*
X-166547Y123550D01*
X-166267Y122800D01*
X-165707Y122050D01*
X-165053Y121550D01*
X-164400Y121300D01*
X-163747D01*
X-163093Y121550D01*
X-162533Y121925D01*
X-162067Y122425D01*
G01X-158953D02*
X-158393Y121800D01*
X-157740Y121425D01*
X-156900Y121300D01*
X-156060Y121550D01*
X-155407Y122050D01*
X-154940Y122925D01*
X-154847Y123925D01*
X-155033Y124925D01*
X-155500Y125550D01*
X-156153Y126050D01*
X-156807Y126175D01*
X-157460Y126050D01*
X-158300Y125550D01*
X-158020Y128800D01*
X-155500D01*
G01X-149400Y121300D02*
X-148747Y121425D01*
X-148000Y121800D01*
X-147533Y122425D01*
X-147347Y123300D01*
X-147533Y124175D01*
X-148093Y124925D01*
X-148933Y125300D01*
X-149867D01*
X-150427Y125550D01*
X-150893Y126175D01*
X-151080Y127050D01*
X-150800Y127925D01*
X-150147Y128550D01*
X-149400Y128800D01*
X-148653Y128550D01*
X-148000Y127925D01*
X-147720Y127050D01*
X-147907Y126175D01*
X-148373Y125550D01*
X-148933Y125300D01*
X-149867D01*
X-150707Y124925D01*
X-151267Y124175D01*
X-151453Y123300D01*
X-151267Y122425D01*
X-150800Y121800D01*
X-150053Y121425D01*
X-149400Y121300D01*
G01X-146247Y168475D02*
X-146807Y168850D01*
X-147460Y169100D01*
X-148207D01*
X-149047Y168725D01*
X-149700Y168100D01*
X-150167Y167350D01*
X-150540Y166100D01*
X-150633Y164975D01*
X-150447Y163850D01*
X-150167Y163100D01*
X-149607Y162350D01*
X-148953Y161850D01*
X-148300Y161600D01*
X-147647D01*
X-146993Y161850D01*
X-146433Y162225D01*
X-145967Y162725D01*
G01X-142853D02*
X-142293Y162100D01*
X-141640Y161725D01*
X-140800Y161600D01*
X-139960Y161850D01*
X-139307Y162350D01*
X-138840Y163225D01*
X-138747Y164225D01*
X-138933Y165225D01*
X-139400Y165850D01*
X-140053Y166350D01*
X-140707Y166475D01*
X-141360Y166350D01*
X-142200Y165850D01*
X-141920Y169100D01*
X-139400D01*
G01X-132180Y161600D02*
Y169100D01*
X-135633Y163725D01*
X-130967D01*
G01X-187753Y184700D02*
Y179325D01*
X-187380Y178200D01*
X-186633Y177450D01*
X-185700Y177200D01*
X-184767Y177450D01*
X-184020Y178200D01*
X-183647Y179325D01*
Y184700D01*
G01X-178200Y177200D02*
Y184700D01*
X-179320Y183200D01*
G01Y177200D02*
X-177080D01*
G01X-172753Y178325D02*
X-172193Y177700D01*
X-171540Y177325D01*
X-170700Y177200D01*
X-169860Y177450D01*
X-169207Y177950D01*
X-168740Y178825D01*
X-168647Y179825D01*
X-168833Y180825D01*
X-169300Y181450D01*
X-169953Y181950D01*
X-170607Y182075D01*
X-171260Y181950D01*
X-172100Y181450D01*
X-171820Y184700D01*
X-169300D01*
G01X-166675Y197853D02*
X-167050Y197293D01*
X-167300Y196640D01*
Y195893D01*
X-166925Y195053D01*
X-166300Y194400D01*
X-165550Y193933D01*
X-164300Y193560D01*
X-163175Y193467D01*
X-162050Y193653D01*
X-161300Y193933D01*
X-160550Y194493D01*
X-160050Y195147D01*
X-159800Y195800D01*
Y196453D01*
X-160050Y197107D01*
X-160425Y197667D01*
X-160925Y198133D01*
G01Y201247D02*
X-160300Y201807D01*
X-159925Y202460D01*
X-159800Y203300D01*
X-160050Y204140D01*
X-160550Y204793D01*
X-161425Y205260D01*
X-162425Y205353D01*
X-163425Y205167D01*
X-164050Y204700D01*
X-164550Y204047D01*
X-164675Y203393D01*
X-164550Y202740D01*
X-164050Y201900D01*
X-167300Y202180D01*
Y204700D01*
G01X-160675Y209213D02*
X-160050Y209867D01*
X-159800Y210613D01*
X-160050Y211360D01*
X-160800Y212013D01*
X-161925Y212480D01*
X-163050Y212667D01*
X-164425D01*
X-165550Y212480D01*
X-166550Y212013D01*
X-167050Y211453D01*
X-167300Y210800D01*
X-167050Y210053D01*
X-166550Y209493D01*
X-165800Y209120D01*
X-164800Y208933D01*
X-163925Y209120D01*
X-163050Y209587D01*
X-162550Y210147D01*
X-162425Y210800D01*
X-162675Y211547D01*
X-163300Y212107D01*
X-164425Y212667D01*
G01X-145547Y181375D02*
X-146107Y181750D01*
X-146760Y182000D01*
X-147507D01*
X-148347Y181625D01*
X-149000Y181000D01*
X-149467Y180250D01*
X-149840Y179000D01*
X-149933Y177875D01*
X-149747Y176750D01*
X-149467Y176000D01*
X-148907Y175250D01*
X-148253Y174750D01*
X-147600Y174500D01*
X-146947D01*
X-146293Y174750D01*
X-145733Y175125D01*
X-145267Y175625D01*
G01X-142153D02*
X-141593Y175000D01*
X-140940Y174625D01*
X-140100Y174500D01*
X-139260Y174750D01*
X-138607Y175250D01*
X-138140Y176125D01*
X-138047Y177125D01*
X-138233Y178125D01*
X-138700Y178750D01*
X-139353Y179250D01*
X-140007Y179375D01*
X-140660Y179250D01*
X-141500Y178750D01*
X-141220Y182000D01*
X-138700D01*
G01X-134653Y175625D02*
X-134093Y175000D01*
X-133440Y174625D01*
X-132600Y174500D01*
X-131760Y174750D01*
X-131107Y175250D01*
X-130640Y176125D01*
X-130547Y177125D01*
X-130733Y178125D01*
X-131200Y178750D01*
X-131853Y179250D01*
X-132507Y179375D01*
X-133160Y179250D01*
X-134000Y178750D01*
X-133720Y182000D01*
X-131200D01*
G01X-174747Y252175D02*
X-175307Y252550D01*
X-175960Y252800D01*
X-176707D01*
X-177547Y252425D01*
X-178200Y251800D01*
X-178667Y251050D01*
X-179040Y249800D01*
X-179133Y248675D01*
X-178947Y247550D01*
X-178667Y246800D01*
X-178107Y246050D01*
X-177453Y245550D01*
X-176800Y245300D01*
X-176147D01*
X-175493Y245550D01*
X-174933Y245925D01*
X-174467Y246425D01*
G01X-168180Y245300D02*
Y252800D01*
X-171633Y247425D01*
X-166967D01*
G01X-161800Y245300D02*
Y252800D01*
X-162920Y251300D01*
G01Y245300D02*
X-160680D01*
G01X-152447Y234375D02*
X-153007Y234750D01*
X-153660Y235000D01*
X-154407D01*
X-155247Y234625D01*
X-155900Y234000D01*
X-156367Y233250D01*
X-156740Y232000D01*
X-156833Y230875D01*
X-156647Y229750D01*
X-156367Y229000D01*
X-155807Y228250D01*
X-155153Y227750D01*
X-154500Y227500D01*
X-153847D01*
X-153193Y227750D01*
X-152633Y228125D01*
X-152167Y228625D01*
G01X-149053D02*
X-148493Y228000D01*
X-147840Y227625D01*
X-147000Y227500D01*
X-146160Y227750D01*
X-145507Y228250D01*
X-145040Y229125D01*
X-144947Y230125D01*
X-145133Y231125D01*
X-145600Y231750D01*
X-146253Y232250D01*
X-146907Y232375D01*
X-147560Y232250D01*
X-148400Y231750D01*
X-148120Y235000D01*
X-145600D01*
G01X-141273Y233750D02*
X-140713Y234500D01*
X-140060Y234875D01*
X-139313Y235000D01*
X-138380Y234750D01*
X-137727Y234125D01*
X-137540Y233375D01*
X-137633Y232625D01*
X-138007Y232000D01*
X-139873Y230750D01*
X-140713Y229875D01*
X-141273Y228625D01*
X-141460Y227500D01*
X-137540D01*
G01X-178567Y235600D02*
Y243100D01*
X-176233D01*
X-175487Y242725D01*
X-175020Y242225D01*
X-174833Y241225D01*
X-175020Y240225D01*
X-175580Y239600D01*
X-176233Y239225D01*
X-178567D01*
G01X-176233D02*
X-174833Y235600D01*
G01X-171253Y237100D02*
X-170693Y236225D01*
X-169947Y235725D01*
X-169107Y235600D01*
X-168360Y235725D01*
X-167613Y236350D01*
X-167147Y237100D01*
X-167053Y237850D01*
X-167240Y238725D01*
X-167893Y239350D01*
X-168547Y239600D01*
X-169387D01*
G01X-168547D02*
X-167987Y239975D01*
X-167520Y240600D01*
X-167333Y241350D01*
X-167520Y242100D01*
X-167987Y242725D01*
X-168827Y243100D01*
X-169667Y242975D01*
X-170507Y242475D01*
G01X-163753Y237100D02*
X-163193Y236225D01*
X-162447Y235725D01*
X-161607Y235600D01*
X-160860Y235725D01*
X-160113Y236350D01*
X-159647Y237100D01*
X-159553Y237850D01*
X-159740Y238725D01*
X-160393Y239350D01*
X-161047Y239600D01*
X-161887D01*
G01X-161047D02*
X-160487Y239975D01*
X-160020Y240600D01*
X-159833Y241350D01*
X-160020Y242100D01*
X-160487Y242725D01*
X-161327Y243100D01*
X-162167Y242975D01*
X-163007Y242475D01*
G01X-154667Y215300D02*
Y222800D01*
X-152333D01*
X-151587Y222425D01*
X-151120Y221925D01*
X-150933Y220925D01*
X-151120Y219925D01*
X-151680Y219300D01*
X-152333Y218925D01*
X-154667D01*
G01X-152333D02*
X-150933Y215300D01*
G01X-147353Y216800D02*
X-146793Y215925D01*
X-146047Y215425D01*
X-145207Y215300D01*
X-144460Y215425D01*
X-143713Y216050D01*
X-143247Y216800D01*
X-143153Y217550D01*
X-143340Y218425D01*
X-143993Y219050D01*
X-144647Y219300D01*
X-145487D01*
G01X-144647D02*
X-144087Y219675D01*
X-143620Y220300D01*
X-143433Y221050D01*
X-143620Y221800D01*
X-144087Y222425D01*
X-144927Y222800D01*
X-145767Y222675D01*
X-146607Y222175D01*
G01X-139853Y216425D02*
X-139293Y215800D01*
X-138640Y215425D01*
X-137800Y215300D01*
X-136960Y215550D01*
X-136307Y216050D01*
X-135840Y216925D01*
X-135747Y217925D01*
X-135933Y218925D01*
X-136400Y219550D01*
X-137053Y220050D01*
X-137707Y220175D01*
X-138360Y220050D01*
X-139200Y219550D01*
X-138920Y222800D01*
X-136400D01*
G01X-174847Y261875D02*
X-175407Y262250D01*
X-176060Y262500D01*
X-176807D01*
X-177647Y262125D01*
X-178300Y261500D01*
X-178767Y260750D01*
X-179140Y259500D01*
X-179233Y258375D01*
X-179047Y257250D01*
X-178767Y256500D01*
X-178207Y255750D01*
X-177553Y255250D01*
X-176900Y255000D01*
X-176247D01*
X-175593Y255250D01*
X-175033Y255625D01*
X-174567Y256125D01*
G01X-168280Y255000D02*
Y262500D01*
X-171733Y257125D01*
X-167067D01*
G01X-161900Y262500D02*
X-162647Y262250D01*
X-163207Y261625D01*
X-163580Y260875D01*
X-163860Y259875D01*
X-163953Y258750D01*
X-163860Y257625D01*
X-163580Y256625D01*
X-163207Y255875D01*
X-162647Y255250D01*
X-161900Y255000D01*
X-161153Y255250D01*
X-160593Y255875D01*
X-160220Y256625D01*
X-159940Y257625D01*
X-159847Y258750D01*
X-159940Y259875D01*
X-160220Y260875D01*
X-160593Y261625D01*
X-161153Y262250D01*
X-161900Y262500D01*
G01X-172047Y315875D02*
X-172607Y316250D01*
X-173260Y316500D01*
X-174007D01*
X-174847Y316125D01*
X-175500Y315500D01*
X-175967Y314750D01*
X-176340Y313500D01*
X-176433Y312375D01*
X-176247Y311250D01*
X-175967Y310500D01*
X-175407Y309750D01*
X-174753Y309250D01*
X-174100Y309000D01*
X-173447D01*
X-172793Y309250D01*
X-172233Y309625D01*
X-171767Y310125D01*
G01X-165480Y309000D02*
Y316500D01*
X-168933Y311125D01*
X-164267D01*
G01X-157980Y309000D02*
Y316500D01*
X-161433Y311125D01*
X-156767D01*
G01X-171847Y304875D02*
X-172407Y305250D01*
X-173060Y305500D01*
X-173807D01*
X-174647Y305125D01*
X-175300Y304500D01*
X-175767Y303750D01*
X-176140Y302500D01*
X-176233Y301375D01*
X-176047Y300250D01*
X-175767Y299500D01*
X-175207Y298750D01*
X-174553Y298250D01*
X-173900Y298000D01*
X-173247D01*
X-172593Y298250D01*
X-172033Y298625D01*
X-171567Y299125D01*
G01X-165280Y298000D02*
Y305500D01*
X-168733Y300125D01*
X-164067D01*
G01X-160953Y299125D02*
X-160393Y298500D01*
X-159740Y298125D01*
X-158900Y298000D01*
X-158060Y298250D01*
X-157407Y298750D01*
X-156940Y299625D01*
X-156847Y300625D01*
X-157033Y301625D01*
X-157500Y302250D01*
X-158153Y302750D01*
X-158807Y302875D01*
X-159460Y302750D01*
X-160300Y302250D01*
X-160020Y305500D01*
X-157500D01*
G01X-151517Y366400D02*
X-151050Y365650D01*
X-150490Y365150D01*
X-149837Y364900D01*
X-149090Y365150D01*
X-148530Y365650D01*
X-147970Y366400D01*
X-147783Y367400D01*
Y372400D01*
G01X-142150Y364900D02*
X-141497Y365025D01*
X-140750Y365400D01*
X-140283Y366025D01*
X-140097Y366900D01*
X-140283Y367775D01*
X-140843Y368525D01*
X-141683Y368900D01*
X-142617D01*
X-143177Y369150D01*
X-143643Y369775D01*
X-143830Y370650D01*
X-143550Y371525D01*
X-142897Y372150D01*
X-142150Y372400D01*
X-141403Y372150D01*
X-140750Y371525D01*
X-140470Y370650D01*
X-140657Y369775D01*
X-141123Y369150D01*
X-141683Y368900D01*
X-142617D01*
X-143457Y368525D01*
X-144017Y367775D01*
X-144203Y366900D01*
X-144017Y366025D01*
X-143550Y365400D01*
X-142803Y365025D01*
X-142150Y364900D01*
G01X-109967Y24900D02*
X-109500Y24150D01*
X-108940Y23650D01*
X-108287Y23400D01*
X-107540Y23650D01*
X-106980Y24150D01*
X-106420Y24900D01*
X-106233Y25900D01*
Y30900D01*
G01X-100600Y23400D02*
Y30900D01*
X-101720Y29400D01*
G01Y23400D02*
X-99480D01*
G01X-95153Y24900D02*
X-94593Y24025D01*
X-93847Y23525D01*
X-93007Y23400D01*
X-92260Y23525D01*
X-91513Y24150D01*
X-91047Y24900D01*
X-90953Y25650D01*
X-91140Y26525D01*
X-91793Y27150D01*
X-92447Y27400D01*
X-93287D01*
G01X-92447D02*
X-91887Y27775D01*
X-91420Y28400D01*
X-91233Y29150D01*
X-91420Y29900D01*
X-91887Y30525D01*
X-92727Y30900D01*
X-93567Y30775D01*
X-94407Y30275D01*
G01X-138167Y59000D02*
X-137700Y58250D01*
X-137140Y57750D01*
X-136487Y57500D01*
X-135740Y57750D01*
X-135180Y58250D01*
X-134620Y59000D01*
X-134433Y60000D01*
Y65000D01*
G01X-128800Y57500D02*
Y65000D01*
X-129920Y63500D01*
G01Y57500D02*
X-127680D01*
G01X-121300Y65000D02*
X-122047Y64750D01*
X-122607Y64125D01*
X-122980Y63375D01*
X-123260Y62375D01*
X-123353Y61250D01*
X-123260Y60125D01*
X-122980Y59125D01*
X-122607Y58375D01*
X-122047Y57750D01*
X-121300Y57500D01*
X-120553Y57750D01*
X-119993Y58375D01*
X-119620Y59125D01*
X-119340Y60125D01*
X-119247Y61250D01*
X-119340Y62375D01*
X-119620Y63375D01*
X-119993Y64125D01*
X-120553Y64750D01*
X-121300Y65000D01*
G01X-137260Y106300D02*
X-136513Y105675D01*
X-135673Y105300D01*
X-134927D01*
X-134180Y105675D01*
X-133620Y106300D01*
X-133340Y107175D01*
X-133527Y108050D01*
X-133993Y108800D01*
X-134833Y109300D01*
X-135953Y109550D01*
X-136607Y110050D01*
X-136887Y110925D01*
X-136700Y111800D01*
X-136233Y112425D01*
X-135580Y112800D01*
X-134927D01*
X-134273Y112550D01*
X-133713Y111925D01*
G01X-130600Y112800D02*
X-129293Y105300D01*
X-127800Y112800D01*
X-126307Y105300D01*
X-125000Y112800D01*
G01X-119180Y105300D02*
Y112800D01*
X-122633Y107425D01*
X-117967D01*
G01X-115550Y154500D02*
Y157875D01*
X-117417Y162000D01*
G01X-113683D02*
X-115550Y157875D01*
G01X-110103Y155625D02*
X-109543Y155000D01*
X-108890Y154625D01*
X-108050Y154500D01*
X-107210Y154750D01*
X-106557Y155250D01*
X-106090Y156125D01*
X-105997Y157125D01*
X-106183Y158125D01*
X-106650Y158750D01*
X-107303Y159250D01*
X-107957Y159375D01*
X-108610Y159250D01*
X-109450Y158750D01*
X-109170Y162000D01*
X-106650D01*
G01X-136267Y146500D02*
Y154000D01*
X-133933D01*
X-133187Y153625D01*
X-132720Y153125D01*
X-132533Y152125D01*
X-132720Y151125D01*
X-133280Y150500D01*
X-133933Y150125D01*
X-136267D01*
G01X-133933D02*
X-132533Y146500D01*
G01X-125780D02*
Y154000D01*
X-129233Y148625D01*
X-124567D01*
G01X-121453Y148000D02*
X-120893Y147125D01*
X-120147Y146625D01*
X-119307Y146500D01*
X-118560Y146625D01*
X-117813Y147250D01*
X-117347Y148000D01*
X-117253Y148750D01*
X-117440Y149625D01*
X-118093Y150250D01*
X-118747Y150500D01*
X-119587D01*
G01X-118747D02*
X-118187Y150875D01*
X-117720Y151500D01*
X-117533Y152250D01*
X-117720Y153000D01*
X-118187Y153625D01*
X-119027Y154000D01*
X-119867Y153875D01*
X-120707Y153375D01*
G01X-116060Y194600D02*
X-115313Y193975D01*
X-114473Y193600D01*
X-113727D01*
X-112980Y193975D01*
X-112420Y194600D01*
X-112140Y195475D01*
X-112327Y196350D01*
X-112793Y197100D01*
X-113633Y197600D01*
X-114753Y197850D01*
X-115407Y198350D01*
X-115687Y199225D01*
X-115500Y200100D01*
X-115033Y200725D01*
X-114380Y201100D01*
X-113727D01*
X-113073Y200850D01*
X-112513Y200225D01*
G01X-109400Y201100D02*
X-108093Y193600D01*
X-106600Y201100D01*
X-105107Y193600D01*
X-103800Y201100D01*
G01X-101153Y194725D02*
X-100593Y194100D01*
X-99940Y193725D01*
X-99100Y193600D01*
X-98260Y193850D01*
X-97607Y194350D01*
X-97140Y195225D01*
X-97047Y196225D01*
X-97233Y197225D01*
X-97700Y197850D01*
X-98353Y198350D01*
X-99007Y198475D01*
X-99660Y198350D01*
X-100500Y197850D01*
X-100220Y201100D01*
X-97700D01*
G01X-116867Y214153D02*
Y221653D01*
X-114533D01*
X-113787Y221278D01*
X-113320Y220778D01*
X-113133Y219778D01*
X-113320Y218778D01*
X-113880Y218153D01*
X-114533Y217778D01*
X-116867D01*
G01X-114533D02*
X-113133Y214153D01*
G01X-106380D02*
Y221653D01*
X-109833Y216278D01*
X-105167D01*
G01X-100000Y214153D02*
X-99347Y214278D01*
X-98600Y214653D01*
X-98133Y215278D01*
X-97947Y216153D01*
X-98133Y217028D01*
X-98693Y217778D01*
X-99533Y218153D01*
X-100467D01*
X-101027Y218403D01*
X-101493Y219028D01*
X-101680Y219903D01*
X-101400Y220778D01*
X-100747Y221403D01*
X-100000Y221653D01*
X-99253Y221403D01*
X-98600Y220778D01*
X-98320Y219903D01*
X-98507Y219028D01*
X-98973Y218403D01*
X-99533Y218153D01*
X-100467D01*
X-101307Y217778D01*
X-101867Y217028D01*
X-102053Y216153D01*
X-101867Y215278D01*
X-101400Y214653D01*
X-100653Y214278D01*
X-100000Y214153D01*
G01X-125367Y227600D02*
Y235100D01*
X-123033D01*
X-122287Y234725D01*
X-121820Y234225D01*
X-121633Y233225D01*
X-121820Y232225D01*
X-122380Y231600D01*
X-123033Y231225D01*
X-125367D01*
G01X-123033D02*
X-121633Y227600D01*
G01X-114880D02*
Y235100D01*
X-118333Y229725D01*
X-113667D01*
G01X-110087Y228475D02*
X-109433Y227850D01*
X-108687Y227600D01*
X-107940Y227850D01*
X-107287Y228600D01*
X-106820Y229725D01*
X-106633Y230850D01*
Y232225D01*
X-106820Y233350D01*
X-107287Y234350D01*
X-107847Y234850D01*
X-108500Y235100D01*
X-109247Y234850D01*
X-109807Y234350D01*
X-110180Y233600D01*
X-110367Y232600D01*
X-110180Y231725D01*
X-109713Y230850D01*
X-109153Y230350D01*
X-108500Y230225D01*
X-107753Y230475D01*
X-107193Y231100D01*
X-106633Y232225D01*
G01X-128317Y315500D02*
X-127850Y314750D01*
X-127290Y314250D01*
X-126637Y314000D01*
X-125890Y314250D01*
X-125330Y314750D01*
X-124770Y315500D01*
X-124583Y316500D01*
Y321500D01*
G01X-120537Y314875D02*
X-119883Y314250D01*
X-119137Y314000D01*
X-118390Y314250D01*
X-117737Y315000D01*
X-117270Y316125D01*
X-117083Y317250D01*
Y318625D01*
X-117270Y319750D01*
X-117737Y320750D01*
X-118297Y321250D01*
X-118950Y321500D01*
X-119697Y321250D01*
X-120257Y320750D01*
X-120630Y320000D01*
X-120817Y319000D01*
X-120630Y318125D01*
X-120163Y317250D01*
X-119603Y316750D01*
X-118950Y316625D01*
X-118203Y316875D01*
X-117643Y317500D01*
X-117083Y318625D01*
G01X-96617Y94400D02*
Y86900D01*
X-92883D01*
G01X-88837Y87775D02*
X-88183Y87150D01*
X-87437Y86900D01*
X-86690Y87150D01*
X-86037Y87900D01*
X-85570Y89025D01*
X-85383Y90150D01*
Y91525D01*
X-85570Y92650D01*
X-86037Y93650D01*
X-86597Y94150D01*
X-87250Y94400D01*
X-87997Y94150D01*
X-88557Y93650D01*
X-88930Y92900D01*
X-89117Y91900D01*
X-88930Y91025D01*
X-88463Y90150D01*
X-87903Y89650D01*
X-87250Y89525D01*
X-86503Y89775D01*
X-85943Y90400D01*
X-85383Y91525D01*
G01X-100047Y103475D02*
X-100607Y103850D01*
X-101260Y104100D01*
X-102007D01*
X-102847Y103725D01*
X-103500Y103100D01*
X-103967Y102350D01*
X-104340Y101100D01*
X-104433Y99975D01*
X-104247Y98850D01*
X-103967Y98100D01*
X-103407Y97350D01*
X-102753Y96850D01*
X-102100Y96600D01*
X-101447D01*
X-100793Y96850D01*
X-100233Y97225D01*
X-99767Y97725D01*
G01X-94787Y96600D02*
X-94600Y98225D01*
X-94320Y99600D01*
X-93947Y100850D01*
X-93480Y102225D01*
X-92733Y104100D01*
X-96467D01*
G01X-88687Y97475D02*
X-88033Y96850D01*
X-87287Y96600D01*
X-86540Y96850D01*
X-85887Y97600D01*
X-85420Y98725D01*
X-85233Y99850D01*
Y101225D01*
X-85420Y102350D01*
X-85887Y103350D01*
X-86447Y103850D01*
X-87100Y104100D01*
X-87847Y103850D01*
X-88407Y103350D01*
X-88780Y102600D01*
X-88967Y101600D01*
X-88780Y100725D01*
X-88313Y99850D01*
X-87753Y99350D01*
X-87100Y99225D01*
X-86353Y99475D01*
X-85793Y100100D01*
X-85233Y101225D01*
G01X-89447Y116575D02*
X-90007Y116950D01*
X-90660Y117200D01*
X-91407D01*
X-92247Y116825D01*
X-92900Y116200D01*
X-93367Y115450D01*
X-93740Y114200D01*
X-93833Y113075D01*
X-93647Y111950D01*
X-93367Y111200D01*
X-92807Y110450D01*
X-92153Y109950D01*
X-91500Y109700D01*
X-90847D01*
X-90193Y109950D01*
X-89633Y110325D01*
X-89167Y110825D01*
G01X-84000Y109700D02*
X-83347Y109825D01*
X-82600Y110200D01*
X-82133Y110825D01*
X-81947Y111700D01*
X-82133Y112575D01*
X-82693Y113325D01*
X-83533Y113700D01*
X-84467D01*
X-85027Y113950D01*
X-85493Y114575D01*
X-85680Y115450D01*
X-85400Y116325D01*
X-84747Y116950D01*
X-84000Y117200D01*
X-83253Y116950D01*
X-82600Y116325D01*
X-82320Y115450D01*
X-82507Y114575D01*
X-82973Y113950D01*
X-83533Y113700D01*
X-84467D01*
X-85307Y113325D01*
X-85867Y112575D01*
X-86053Y111700D01*
X-85867Y110825D01*
X-85400Y110200D01*
X-84653Y109825D01*
X-84000Y109700D01*
G01X-78273Y115950D02*
X-77713Y116700D01*
X-77060Y117075D01*
X-76313Y117200D01*
X-75380Y116950D01*
X-74727Y116325D01*
X-74540Y115575D01*
X-74633Y114825D01*
X-75007Y114200D01*
X-76873Y112950D01*
X-77713Y112075D01*
X-78273Y110825D01*
X-78460Y109700D01*
X-74540D01*
G01X-82047Y129375D02*
X-82607Y129750D01*
X-83260Y130000D01*
X-84007D01*
X-84847Y129625D01*
X-85500Y129000D01*
X-85967Y128250D01*
X-86340Y127000D01*
X-86433Y125875D01*
X-86247Y124750D01*
X-85967Y124000D01*
X-85407Y123250D01*
X-84753Y122750D01*
X-84100Y122500D01*
X-83447D01*
X-82793Y122750D01*
X-82233Y123125D01*
X-81767Y123625D01*
G01X-76600Y122500D02*
X-75947Y122625D01*
X-75200Y123000D01*
X-74733Y123625D01*
X-74547Y124500D01*
X-74733Y125375D01*
X-75293Y126125D01*
X-76133Y126500D01*
X-77067D01*
X-77627Y126750D01*
X-78093Y127375D01*
X-78280Y128250D01*
X-78000Y129125D01*
X-77347Y129750D01*
X-76600Y130000D01*
X-75853Y129750D01*
X-75200Y129125D01*
X-74920Y128250D01*
X-75107Y127375D01*
X-75573Y126750D01*
X-76133Y126500D01*
X-77067D01*
X-77907Y126125D01*
X-78467Y125375D01*
X-78653Y124500D01*
X-78467Y123625D01*
X-78000Y123000D01*
X-77253Y122625D01*
X-76600Y122500D01*
G01X-71153Y124000D02*
X-70593Y123125D01*
X-69847Y122625D01*
X-69007Y122500D01*
X-68260Y122625D01*
X-67513Y123250D01*
X-67047Y124000D01*
X-66953Y124750D01*
X-67140Y125625D01*
X-67793Y126250D01*
X-68447Y126500D01*
X-69287D01*
G01X-68447D02*
X-67887Y126875D01*
X-67420Y127500D01*
X-67233Y128250D01*
X-67420Y129000D01*
X-67887Y129625D01*
X-68727Y130000D01*
X-69567Y129875D01*
X-70407Y129375D01*
G01X-76647Y154475D02*
X-77207Y154850D01*
X-77860Y155100D01*
X-78607D01*
X-79447Y154725D01*
X-80100Y154100D01*
X-80567Y153350D01*
X-80940Y152100D01*
X-81033Y150975D01*
X-80847Y149850D01*
X-80567Y149100D01*
X-80007Y148350D01*
X-79353Y147850D01*
X-78700Y147600D01*
X-78047D01*
X-77393Y147850D01*
X-76833Y148225D01*
X-76367Y148725D01*
G01X-73253D02*
X-72693Y148100D01*
X-72040Y147725D01*
X-71200Y147600D01*
X-70360Y147850D01*
X-69707Y148350D01*
X-69240Y149225D01*
X-69147Y150225D01*
X-69333Y151225D01*
X-69800Y151850D01*
X-70453Y152350D01*
X-71107Y152475D01*
X-71760Y152350D01*
X-72600Y151850D01*
X-72320Y155100D01*
X-69800D01*
G01X-65473Y150725D02*
X-64820Y151600D01*
X-64260Y152100D01*
X-63513Y152350D01*
X-62860Y152100D01*
X-62393Y151600D01*
X-62020Y150850D01*
X-61927Y149975D01*
X-62020Y149225D01*
X-62393Y148475D01*
X-62953Y147850D01*
X-63607Y147600D01*
X-64353Y147850D01*
X-65007Y148600D01*
X-65380Y149725D01*
X-65473Y150975D01*
X-65287Y152600D01*
X-65007Y153475D01*
X-64540Y154350D01*
X-63887Y154975D01*
X-63233Y155100D01*
X-62580Y154850D01*
X-62113Y154225D01*
G01X-91647Y141775D02*
X-92207Y142150D01*
X-92860Y142400D01*
X-93607D01*
X-94447Y142025D01*
X-95100Y141400D01*
X-95567Y140650D01*
X-95940Y139400D01*
X-96033Y138275D01*
X-95847Y137150D01*
X-95567Y136400D01*
X-95007Y135650D01*
X-94353Y135150D01*
X-93700Y134900D01*
X-93047D01*
X-92393Y135150D01*
X-91833Y135525D01*
X-91367Y136025D01*
G01X-88253D02*
X-87693Y135400D01*
X-87040Y135025D01*
X-86200Y134900D01*
X-85360Y135150D01*
X-84707Y135650D01*
X-84240Y136525D01*
X-84147Y137525D01*
X-84333Y138525D01*
X-84800Y139150D01*
X-85453Y139650D01*
X-86107Y139775D01*
X-86760Y139650D01*
X-87600Y139150D01*
X-87320Y142400D01*
X-84800D01*
G01X-78887Y134900D02*
X-78700Y136525D01*
X-78420Y137900D01*
X-78047Y139150D01*
X-77580Y140525D01*
X-76833Y142400D01*
X-80567D01*
G01X-67547Y202175D02*
X-68107Y202550D01*
X-68760Y202800D01*
X-69507D01*
X-70347Y202425D01*
X-71000Y201800D01*
X-71467Y201050D01*
X-71840Y199800D01*
X-71933Y198675D01*
X-71747Y197550D01*
X-71467Y196800D01*
X-70907Y196050D01*
X-70253Y195550D01*
X-69600Y195300D01*
X-68947D01*
X-68293Y195550D01*
X-67733Y195925D01*
X-67267Y196425D01*
G01X-62100Y195300D02*
X-61447Y195425D01*
X-60700Y195800D01*
X-60233Y196425D01*
X-60047Y197300D01*
X-60233Y198175D01*
X-60793Y198925D01*
X-61633Y199300D01*
X-62567D01*
X-63127Y199550D01*
X-63593Y200175D01*
X-63780Y201050D01*
X-63500Y201925D01*
X-62847Y202550D01*
X-62100Y202800D01*
X-61353Y202550D01*
X-60700Y201925D01*
X-60420Y201050D01*
X-60607Y200175D01*
X-61073Y199550D01*
X-61633Y199300D01*
X-62567D01*
X-63407Y198925D01*
X-63967Y198175D01*
X-64153Y197300D01*
X-63967Y196425D01*
X-63500Y195800D01*
X-62753Y195425D01*
X-62100Y195300D01*
G01X-54600D02*
Y202800D01*
X-55720Y201300D01*
G01Y195300D02*
X-53480D01*
G01X-87047Y190975D02*
X-87607Y191350D01*
X-88260Y191600D01*
X-89007D01*
X-89847Y191225D01*
X-90500Y190600D01*
X-90967Y189850D01*
X-91340Y188600D01*
X-91433Y187475D01*
X-91247Y186350D01*
X-90967Y185600D01*
X-90407Y184850D01*
X-89753Y184350D01*
X-89100Y184100D01*
X-88447D01*
X-87793Y184350D01*
X-87233Y184725D01*
X-86767Y185225D01*
G01X-81787Y184100D02*
X-81600Y185725D01*
X-81320Y187100D01*
X-80947Y188350D01*
X-80480Y189725D01*
X-79733Y191600D01*
X-83467D01*
G01X-74100Y184100D02*
X-73447Y184225D01*
X-72700Y184600D01*
X-72233Y185225D01*
X-72047Y186100D01*
X-72233Y186975D01*
X-72793Y187725D01*
X-73633Y188100D01*
X-74567D01*
X-75127Y188350D01*
X-75593Y188975D01*
X-75780Y189850D01*
X-75500Y190725D01*
X-74847Y191350D01*
X-74100Y191600D01*
X-73353Y191350D01*
X-72700Y190725D01*
X-72420Y189850D01*
X-72607Y188975D01*
X-73073Y188350D01*
X-73633Y188100D01*
X-74567D01*
X-75407Y187725D01*
X-75967Y186975D01*
X-76153Y186100D01*
X-75967Y185225D01*
X-75500Y184600D01*
X-74753Y184225D01*
X-74100Y184100D01*
G01X-87167Y203600D02*
Y211100D01*
X-84833D01*
X-84087Y210725D01*
X-83620Y210225D01*
X-83433Y209225D01*
X-83620Y208225D01*
X-84180Y207600D01*
X-84833Y207225D01*
X-87167D01*
G01X-84833D02*
X-83433Y203600D01*
G01X-79573Y209850D02*
X-79013Y210600D01*
X-78360Y210975D01*
X-77613Y211100D01*
X-76680Y210850D01*
X-76027Y210225D01*
X-75840Y209475D01*
X-75933Y208725D01*
X-76307Y208100D01*
X-78173Y206850D01*
X-79013Y205975D01*
X-79573Y204725D01*
X-79760Y203600D01*
X-75840D01*
G01X-72353Y205100D02*
X-71793Y204225D01*
X-71047Y203725D01*
X-70207Y203600D01*
X-69460Y203725D01*
X-68713Y204350D01*
X-68247Y205100D01*
X-68153Y205850D01*
X-68340Y206725D01*
X-68993Y207350D01*
X-69647Y207600D01*
X-70487D01*
G01X-69647D02*
X-69087Y207975D01*
X-68620Y208600D01*
X-68433Y209350D01*
X-68620Y210100D01*
X-69087Y210725D01*
X-69927Y211100D01*
X-70767Y210975D01*
X-71607Y210475D01*
G01X-85667Y235400D02*
Y242900D01*
X-83333D01*
X-82587Y242525D01*
X-82120Y242025D01*
X-81933Y241025D01*
X-82120Y240025D01*
X-82680Y239400D01*
X-83333Y239025D01*
X-85667D01*
G01X-83333D02*
X-81933Y235400D01*
G01X-78073Y241650D02*
X-77513Y242400D01*
X-76860Y242775D01*
X-76113Y242900D01*
X-75180Y242650D01*
X-74527Y242025D01*
X-74340Y241275D01*
X-74433Y240525D01*
X-74807Y239900D01*
X-76673Y238650D01*
X-77513Y237775D01*
X-78073Y236525D01*
X-78260Y235400D01*
X-74340D01*
G01X-67680D02*
Y242900D01*
X-71133Y237525D01*
X-66467D01*
G01X-37947Y47575D02*
X-38507Y47950D01*
X-39160Y48200D01*
X-39907D01*
X-40747Y47825D01*
X-41400Y47200D01*
X-41867Y46450D01*
X-42240Y45200D01*
X-42333Y44075D01*
X-42147Y42950D01*
X-41867Y42200D01*
X-41307Y41450D01*
X-40653Y40950D01*
X-40000Y40700D01*
X-39347D01*
X-38693Y40950D01*
X-38133Y41325D01*
X-37667Y41825D01*
G01X-34273Y46950D02*
X-33713Y47700D01*
X-33060Y48075D01*
X-32313Y48200D01*
X-31380Y47950D01*
X-30727Y47325D01*
X-30540Y46575D01*
X-30633Y45825D01*
X-31007Y45200D01*
X-32873Y43950D01*
X-33713Y43075D01*
X-34273Y41825D01*
X-34460Y40700D01*
X-30540D01*
G01X-23880D02*
Y48200D01*
X-27333Y42825D01*
X-22667D01*
G01X-35747Y92475D02*
X-36307Y92850D01*
X-36960Y93100D01*
X-37707D01*
X-38547Y92725D01*
X-39200Y92100D01*
X-39667Y91350D01*
X-40040Y90100D01*
X-40133Y88975D01*
X-39947Y87850D01*
X-39667Y87100D01*
X-39107Y86350D01*
X-38453Y85850D01*
X-37800Y85600D01*
X-37147D01*
X-36493Y85850D01*
X-35933Y86225D01*
X-35467Y86725D01*
G01X-32073Y88725D02*
X-31420Y89600D01*
X-30860Y90100D01*
X-30113Y90350D01*
X-29460Y90100D01*
X-28993Y89600D01*
X-28620Y88850D01*
X-28527Y87975D01*
X-28620Y87225D01*
X-28993Y86475D01*
X-29553Y85850D01*
X-30207Y85600D01*
X-30953Y85850D01*
X-31607Y86600D01*
X-31980Y87725D01*
X-32073Y88975D01*
X-31887Y90600D01*
X-31607Y91475D01*
X-31140Y92350D01*
X-30487Y92975D01*
X-29833Y93100D01*
X-29180Y92850D01*
X-28713Y92225D01*
G01X-22800Y85600D02*
X-22147Y85725D01*
X-21400Y86100D01*
X-20933Y86725D01*
X-20747Y87600D01*
X-20933Y88475D01*
X-21493Y89225D01*
X-22333Y89600D01*
X-23267D01*
X-23827Y89850D01*
X-24293Y90475D01*
X-24480Y91350D01*
X-24200Y92225D01*
X-23547Y92850D01*
X-22800Y93100D01*
X-22053Y92850D01*
X-21400Y92225D01*
X-21120Y91350D01*
X-21307Y90475D01*
X-21773Y89850D01*
X-22333Y89600D01*
X-23267D01*
X-24107Y89225D01*
X-24667Y88475D01*
X-24853Y87600D01*
X-24667Y86725D01*
X-24200Y86100D01*
X-23453Y85725D01*
X-22800Y85600D01*
G01X-63147Y116175D02*
X-63707Y116550D01*
X-64360Y116800D01*
X-65107D01*
X-65947Y116425D01*
X-66600Y115800D01*
X-67067Y115050D01*
X-67440Y113800D01*
X-67533Y112675D01*
X-67347Y111550D01*
X-67067Y110800D01*
X-66507Y110050D01*
X-65853Y109550D01*
X-65200Y109300D01*
X-64547D01*
X-63893Y109550D01*
X-63333Y109925D01*
X-62867Y110425D01*
G01X-57700Y109300D02*
X-57047Y109425D01*
X-56300Y109800D01*
X-55833Y110425D01*
X-55647Y111300D01*
X-55833Y112175D01*
X-56393Y112925D01*
X-57233Y113300D01*
X-58167D01*
X-58727Y113550D01*
X-59193Y114175D01*
X-59380Y115050D01*
X-59100Y115925D01*
X-58447Y116550D01*
X-57700Y116800D01*
X-56953Y116550D01*
X-56300Y115925D01*
X-56020Y115050D01*
X-56207Y114175D01*
X-56673Y113550D01*
X-57233Y113300D01*
X-58167D01*
X-59007Y112925D01*
X-59567Y112175D01*
X-59753Y111300D01*
X-59567Y110425D01*
X-59100Y109800D01*
X-58353Y109425D01*
X-57700Y109300D01*
G01X-50200Y116800D02*
X-50947Y116550D01*
X-51507Y115925D01*
X-51880Y115175D01*
X-52160Y114175D01*
X-52253Y113050D01*
X-52160Y111925D01*
X-51880Y110925D01*
X-51507Y110175D01*
X-50947Y109550D01*
X-50200Y109300D01*
X-49453Y109550D01*
X-48893Y110175D01*
X-48520Y110925D01*
X-48240Y111925D01*
X-48147Y113050D01*
X-48240Y114175D01*
X-48520Y115175D01*
X-48893Y115925D01*
X-49453Y116550D01*
X-50200Y116800D01*
G01X-47467Y119200D02*
Y126700D01*
X-45133D01*
X-44387Y126325D01*
X-43920Y125825D01*
X-43733Y124825D01*
X-43920Y123825D01*
X-44480Y123200D01*
X-45133Y122825D01*
X-47467D01*
G01X-45133D02*
X-43733Y119200D01*
G01X-40153Y120325D02*
X-39593Y119700D01*
X-38940Y119325D01*
X-38100Y119200D01*
X-37260Y119450D01*
X-36607Y119950D01*
X-36140Y120825D01*
X-36047Y121825D01*
X-36233Y122825D01*
X-36700Y123450D01*
X-37353Y123950D01*
X-38007Y124075D01*
X-38660Y123950D01*
X-39500Y123450D01*
X-39220Y126700D01*
X-36700D01*
G01X-32653Y120325D02*
X-32093Y119700D01*
X-31440Y119325D01*
X-30600Y119200D01*
X-29760Y119450D01*
X-29107Y119950D01*
X-28640Y120825D01*
X-28547Y121825D01*
X-28733Y122825D01*
X-29200Y123450D01*
X-29853Y123950D01*
X-30507Y124075D01*
X-31160Y123950D01*
X-32000Y123450D01*
X-31720Y126700D01*
X-29200D01*
G01X-52847Y163675D02*
X-53407Y164050D01*
X-54060Y164300D01*
X-54807D01*
X-55647Y163925D01*
X-56300Y163300D01*
X-56767Y162550D01*
X-57140Y161300D01*
X-57233Y160175D01*
X-57047Y159050D01*
X-56767Y158300D01*
X-56207Y157550D01*
X-55553Y157050D01*
X-54900Y156800D01*
X-54247D01*
X-53593Y157050D01*
X-53033Y157425D01*
X-52567Y157925D01*
G01X-49173Y159925D02*
X-48520Y160800D01*
X-47960Y161300D01*
X-47213Y161550D01*
X-46560Y161300D01*
X-46093Y160800D01*
X-45720Y160050D01*
X-45627Y159175D01*
X-45720Y158425D01*
X-46093Y157675D01*
X-46653Y157050D01*
X-47307Y156800D01*
X-48053Y157050D01*
X-48707Y157800D01*
X-49080Y158925D01*
X-49173Y160175D01*
X-48987Y161800D01*
X-48707Y162675D01*
X-48240Y163550D01*
X-47587Y164175D01*
X-46933Y164300D01*
X-46280Y164050D01*
X-45813Y163425D01*
G01X-41673Y159925D02*
X-41020Y160800D01*
X-40460Y161300D01*
X-39713Y161550D01*
X-39060Y161300D01*
X-38593Y160800D01*
X-38220Y160050D01*
X-38127Y159175D01*
X-38220Y158425D01*
X-38593Y157675D01*
X-39153Y157050D01*
X-39807Y156800D01*
X-40553Y157050D01*
X-41207Y157800D01*
X-41580Y158925D01*
X-41673Y160175D01*
X-41487Y161800D01*
X-41207Y162675D01*
X-40740Y163550D01*
X-40087Y164175D01*
X-39433Y164300D01*
X-38780Y164050D01*
X-38313Y163425D01*
G01X-58067Y164400D02*
Y171900D01*
X-55733D01*
X-54987Y171525D01*
X-54520Y171025D01*
X-54333Y170025D01*
X-54520Y169025D01*
X-55080Y168400D01*
X-55733Y168025D01*
X-58067D01*
G01X-55733D02*
X-54333Y164400D01*
G01X-50753Y165900D02*
X-50193Y165025D01*
X-49447Y164525D01*
X-48607Y164400D01*
X-47860Y164525D01*
X-47113Y165150D01*
X-46647Y165900D01*
X-46553Y166650D01*
X-46740Y167525D01*
X-47393Y168150D01*
X-48047Y168400D01*
X-48887D01*
G01X-48047D02*
X-47487Y168775D01*
X-47020Y169400D01*
X-46833Y170150D01*
X-47020Y170900D01*
X-47487Y171525D01*
X-48327Y171900D01*
X-49167Y171775D01*
X-50007Y171275D01*
G01X-42787Y165275D02*
X-42133Y164650D01*
X-41387Y164400D01*
X-40640Y164650D01*
X-39987Y165400D01*
X-39520Y166525D01*
X-39333Y167650D01*
Y169025D01*
X-39520Y170150D01*
X-39987Y171150D01*
X-40547Y171650D01*
X-41200Y171900D01*
X-41947Y171650D01*
X-42507Y171150D01*
X-42880Y170400D01*
X-43067Y169400D01*
X-42880Y168525D01*
X-42413Y167650D01*
X-41853Y167150D01*
X-41200Y167025D01*
X-40453Y167275D01*
X-39893Y167900D01*
X-39333Y169025D01*
G01X-56267Y148600D02*
Y156100D01*
X-53933D01*
X-53187Y155725D01*
X-52720Y155225D01*
X-52533Y154225D01*
X-52720Y153225D01*
X-53280Y152600D01*
X-53933Y152225D01*
X-56267D01*
G01X-53933D02*
X-52533Y148600D01*
G01X-45780D02*
Y156100D01*
X-49233Y150725D01*
X-44567D01*
G01X-39400Y148600D02*
Y156100D01*
X-40520Y154600D01*
G01Y148600D02*
X-38280D01*
G01X-46167Y134100D02*
Y141600D01*
X-43833D01*
X-43087Y141225D01*
X-42620Y140725D01*
X-42433Y139725D01*
X-42620Y138725D01*
X-43180Y138100D01*
X-43833Y137725D01*
X-46167D01*
G01X-43833D02*
X-42433Y134100D01*
G01X-35680D02*
Y141600D01*
X-39133Y136225D01*
X-34467D01*
G01X-31073Y140350D02*
X-30513Y141100D01*
X-29860Y141475D01*
X-29113Y141600D01*
X-28180Y141350D01*
X-27527Y140725D01*
X-27340Y139975D01*
X-27433Y139225D01*
X-27807Y138600D01*
X-29673Y137350D01*
X-30513Y136475D01*
X-31073Y135225D01*
X-31260Y134100D01*
X-27340D01*
G01X-28047Y209475D02*
X-28607Y209850D01*
X-29260Y210100D01*
X-30007D01*
X-30847Y209725D01*
X-31500Y209100D01*
X-31967Y208350D01*
X-32340Y207100D01*
X-32433Y205975D01*
X-32247Y204850D01*
X-31967Y204100D01*
X-31407Y203350D01*
X-30753Y202850D01*
X-30100Y202600D01*
X-29447D01*
X-28793Y202850D01*
X-28233Y203225D01*
X-27767Y203725D01*
G01X-22787Y202600D02*
X-22600Y204225D01*
X-22320Y205600D01*
X-21947Y206850D01*
X-21480Y208225D01*
X-20733Y210100D01*
X-24467D01*
G01X-16873Y205725D02*
X-16220Y206600D01*
X-15660Y207100D01*
X-14913Y207350D01*
X-14260Y207100D01*
X-13793Y206600D01*
X-13420Y205850D01*
X-13327Y204975D01*
X-13420Y204225D01*
X-13793Y203475D01*
X-14353Y202850D01*
X-15007Y202600D01*
X-15753Y202850D01*
X-16407Y203600D01*
X-16780Y204725D01*
X-16873Y205975D01*
X-16687Y207600D01*
X-16407Y208475D01*
X-15940Y209350D01*
X-15287Y209975D01*
X-14633Y210100D01*
X-13980Y209850D01*
X-13513Y209225D01*
G01X-58267Y172400D02*
Y179900D01*
X-55933D01*
X-55187Y179525D01*
X-54720Y179025D01*
X-54533Y178025D01*
X-54720Y177025D01*
X-55280Y176400D01*
X-55933Y176025D01*
X-58267D01*
G01X-55933D02*
X-54533Y172400D01*
G01X-47780D02*
Y179900D01*
X-51233Y174525D01*
X-46567D01*
G01X-41400Y179900D02*
X-42147Y179650D01*
X-42707Y179025D01*
X-43080Y178275D01*
X-43360Y177275D01*
X-43453Y176150D01*
X-43360Y175025D01*
X-43080Y174025D01*
X-42707Y173275D01*
X-42147Y172650D01*
X-41400Y172400D01*
X-40653Y172650D01*
X-40093Y173275D01*
X-39720Y174025D01*
X-39440Y175025D01*
X-39347Y176150D01*
X-39440Y177275D01*
X-39720Y178275D01*
X-40093Y179025D01*
X-40653Y179650D01*
X-41400Y179900D01*
G01X-50867Y188000D02*
Y195500D01*
X-48533D01*
X-47787Y195125D01*
X-47320Y194625D01*
X-47133Y193625D01*
X-47320Y192625D01*
X-47880Y192000D01*
X-48533Y191625D01*
X-50867D01*
G01X-48533D02*
X-47133Y188000D01*
G01X-43553Y189125D02*
X-42993Y188500D01*
X-42340Y188125D01*
X-41500Y188000D01*
X-40660Y188250D01*
X-40007Y188750D01*
X-39540Y189625D01*
X-39447Y190625D01*
X-39633Y191625D01*
X-40100Y192250D01*
X-40753Y192750D01*
X-41407Y192875D01*
X-42060Y192750D01*
X-42900Y192250D01*
X-42620Y195500D01*
X-40100D01*
G01X-32880Y188000D02*
Y195500D01*
X-36333Y190125D01*
X-31667D01*
G01X-31747Y273075D02*
X-32307Y273450D01*
X-32960Y273700D01*
X-33707D01*
X-34547Y273325D01*
X-35200Y272700D01*
X-35667Y271950D01*
X-36040Y270700D01*
X-36133Y269575D01*
X-35947Y268450D01*
X-35667Y267700D01*
X-35107Y266950D01*
X-34453Y266450D01*
X-33800Y266200D01*
X-33147D01*
X-32493Y266450D01*
X-31933Y266825D01*
X-31467Y267325D01*
G01X-26300Y266200D02*
X-25647Y266325D01*
X-24900Y266700D01*
X-24433Y267325D01*
X-24247Y268200D01*
X-24433Y269075D01*
X-24993Y269825D01*
X-25833Y270200D01*
X-26767D01*
X-27327Y270450D01*
X-27793Y271075D01*
X-27980Y271950D01*
X-27700Y272825D01*
X-27047Y273450D01*
X-26300Y273700D01*
X-25553Y273450D01*
X-24900Y272825D01*
X-24620Y271950D01*
X-24807Y271075D01*
X-25273Y270450D01*
X-25833Y270200D01*
X-26767D01*
X-27607Y269825D01*
X-28167Y269075D01*
X-28353Y268200D01*
X-28167Y267325D01*
X-27700Y266700D01*
X-26953Y266325D01*
X-26300Y266200D01*
G01X-20387Y267075D02*
X-19733Y266450D01*
X-18987Y266200D01*
X-18240Y266450D01*
X-17587Y267200D01*
X-17120Y268325D01*
X-16933Y269450D01*
Y270825D01*
X-17120Y271950D01*
X-17587Y272950D01*
X-18147Y273450D01*
X-18800Y273700D01*
X-19547Y273450D01*
X-20107Y272950D01*
X-20480Y272200D01*
X-20667Y271200D01*
X-20480Y270325D01*
X-20013Y269450D01*
X-19453Y268950D01*
X-18800Y268825D01*
X-18053Y269075D01*
X-17493Y269700D01*
X-16933Y270825D01*
G01X-20647Y58575D02*
X-21207Y58950D01*
X-21860Y59200D01*
X-22607D01*
X-23447Y58825D01*
X-24100Y58200D01*
X-24567Y57450D01*
X-24940Y56200D01*
X-25033Y55075D01*
X-24847Y53950D01*
X-24567Y53200D01*
X-24007Y52450D01*
X-23353Y51950D01*
X-22700Y51700D01*
X-22047D01*
X-21393Y51950D01*
X-20833Y52325D01*
X-20367Y52825D01*
G01X-16973Y57950D02*
X-16413Y58700D01*
X-15760Y59075D01*
X-15013Y59200D01*
X-14080Y58950D01*
X-13427Y58325D01*
X-13240Y57575D01*
X-13333Y56825D01*
X-13707Y56200D01*
X-15573Y54950D01*
X-16413Y54075D01*
X-16973Y52825D01*
X-17160Y51700D01*
X-13240D01*
G01X-9473Y54825D02*
X-8820Y55700D01*
X-8260Y56200D01*
X-7513Y56450D01*
X-6860Y56200D01*
X-6393Y55700D01*
X-6020Y54950D01*
X-5927Y54075D01*
X-6020Y53325D01*
X-6393Y52575D01*
X-6953Y51950D01*
X-7607Y51700D01*
X-8353Y51950D01*
X-9007Y52700D01*
X-9380Y53825D01*
X-9473Y55075D01*
X-9287Y56700D01*
X-9007Y57575D01*
X-8540Y58450D01*
X-7887Y59075D01*
X-7233Y59200D01*
X-6580Y58950D01*
X-6113Y58325D01*
G01X-7447Y90275D02*
X-8007Y90650D01*
X-8660Y90900D01*
X-9407D01*
X-10247Y90525D01*
X-10900Y89900D01*
X-11367Y89150D01*
X-11740Y87900D01*
X-11833Y86775D01*
X-11647Y85650D01*
X-11367Y84900D01*
X-10807Y84150D01*
X-10153Y83650D01*
X-9500Y83400D01*
X-8847D01*
X-8193Y83650D01*
X-7633Y84025D01*
X-7167Y84525D01*
G01X-3773Y86525D02*
X-3120Y87400D01*
X-2560Y87900D01*
X-1813Y88150D01*
X-1160Y87900D01*
X-693Y87400D01*
X-320Y86650D01*
X-227Y85775D01*
X-320Y85025D01*
X-693Y84275D01*
X-1253Y83650D01*
X-1907Y83400D01*
X-2653Y83650D01*
X-3307Y84400D01*
X-3680Y85525D01*
X-3773Y86775D01*
X-3587Y88400D01*
X-3307Y89275D01*
X-2840Y90150D01*
X-2187Y90775D01*
X-1533Y90900D01*
X-880Y90650D01*
X-413Y90025D01*
G01X3913Y84275D02*
X4567Y83650D01*
X5313Y83400D01*
X6060Y83650D01*
X6713Y84400D01*
X7180Y85525D01*
X7367Y86650D01*
Y88025D01*
X7180Y89150D01*
X6713Y90150D01*
X6153Y90650D01*
X5500Y90900D01*
X4753Y90650D01*
X4193Y90150D01*
X3820Y89400D01*
X3633Y88400D01*
X3820Y87525D01*
X4287Y86650D01*
X4847Y86150D01*
X5500Y86025D01*
X6247Y86275D01*
X6807Y86900D01*
X7367Y88025D01*
G01X-1853Y162153D02*
Y156778D01*
X-1480Y155653D01*
X-733Y154903D01*
X200Y154653D01*
X1133Y154903D01*
X1880Y155653D01*
X2253Y156778D01*
Y162153D01*
G01X7700Y154653D02*
Y162153D01*
X6580Y160653D01*
G01Y154653D02*
X8820D01*
G01X15200Y162153D02*
X14453Y161903D01*
X13893Y161278D01*
X13520Y160528D01*
X13240Y159528D01*
X13147Y158403D01*
X13240Y157278D01*
X13520Y156278D01*
X13893Y155528D01*
X14453Y154903D01*
X15200Y154653D01*
X15947Y154903D01*
X16507Y155528D01*
X16880Y156278D01*
X17160Y157278D01*
X17253Y158403D01*
X17160Y159528D01*
X16880Y160528D01*
X16507Y161278D01*
X15947Y161903D01*
X15200Y162153D01*
G01X-21167Y214200D02*
Y221700D01*
X-18833D01*
X-18087Y221325D01*
X-17620Y220825D01*
X-17433Y219825D01*
X-17620Y218825D01*
X-18180Y218200D01*
X-18833Y217825D01*
X-21167D01*
G01X-18833D02*
X-17433Y214200D01*
G01X-13853Y215325D02*
X-13293Y214700D01*
X-12640Y214325D01*
X-11800Y214200D01*
X-10960Y214450D01*
X-10307Y214950D01*
X-9840Y215825D01*
X-9747Y216825D01*
X-9933Y217825D01*
X-10400Y218450D01*
X-11053Y218950D01*
X-11707Y219075D01*
X-12360Y218950D01*
X-13200Y218450D01*
X-12920Y221700D01*
X-10400D01*
G01X-4300Y214200D02*
Y221700D01*
X-5420Y220200D01*
G01Y214200D02*
X-3180D01*
G01X3753Y281475D02*
X3193Y281850D01*
X2540Y282100D01*
X1793D01*
X953Y281725D01*
X300Y281100D01*
X-167Y280350D01*
X-540Y279100D01*
X-633Y277975D01*
X-447Y276850D01*
X-167Y276100D01*
X393Y275350D01*
X1047Y274850D01*
X1700Y274600D01*
X2353D01*
X3007Y274850D01*
X3567Y275225D01*
X4033Y275725D01*
G01X9200Y274600D02*
X9853Y274725D01*
X10600Y275100D01*
X11067Y275725D01*
X11253Y276600D01*
X11067Y277475D01*
X10507Y278225D01*
X9667Y278600D01*
X8733D01*
X8173Y278850D01*
X7707Y279475D01*
X7520Y280350D01*
X7800Y281225D01*
X8453Y281850D01*
X9200Y282100D01*
X9947Y281850D01*
X10600Y281225D01*
X10880Y280350D01*
X10693Y279475D01*
X10227Y278850D01*
X9667Y278600D01*
X8733D01*
X7893Y278225D01*
X7333Y277475D01*
X7147Y276600D01*
X7333Y275725D01*
X7800Y275100D01*
X8547Y274725D01*
X9200Y274600D01*
G01X16700D02*
X17353Y274725D01*
X18100Y275100D01*
X18567Y275725D01*
X18753Y276600D01*
X18567Y277475D01*
X18007Y278225D01*
X17167Y278600D01*
X16233D01*
X15673Y278850D01*
X15207Y279475D01*
X15020Y280350D01*
X15300Y281225D01*
X15953Y281850D01*
X16700Y282100D01*
X17447Y281850D01*
X18100Y281225D01*
X18380Y280350D01*
X18193Y279475D01*
X17727Y278850D01*
X17167Y278600D01*
X16233D01*
X15393Y278225D01*
X14833Y277475D01*
X14647Y276600D01*
X14833Y275725D01*
X15300Y275100D01*
X16047Y274725D01*
X16700Y274600D01*
G01X14353Y12975D02*
X13793Y13350D01*
X13140Y13600D01*
X12393D01*
X11553Y13225D01*
X10900Y12600D01*
X10433Y11850D01*
X10060Y10600D01*
X9967Y9475D01*
X10153Y8350D01*
X10433Y7600D01*
X10993Y6850D01*
X11647Y6350D01*
X12300Y6100D01*
X12953D01*
X13607Y6350D01*
X14167Y6725D01*
X14633Y7225D01*
G01X18027Y12350D02*
X18587Y13100D01*
X19240Y13475D01*
X19987Y13600D01*
X20920Y13350D01*
X21573Y12725D01*
X21760Y11975D01*
X21667Y11225D01*
X21293Y10600D01*
X19427Y9350D01*
X18587Y8475D01*
X18027Y7225D01*
X17840Y6100D01*
X21760D01*
G01X25247Y7600D02*
X25807Y6725D01*
X26553Y6225D01*
X27393Y6100D01*
X28140Y6225D01*
X28887Y6850D01*
X29353Y7600D01*
X29447Y8350D01*
X29260Y9225D01*
X28607Y9850D01*
X27953Y10100D01*
X27113D01*
G01X27953D02*
X28513Y10475D01*
X28980Y11100D01*
X29167Y11850D01*
X28980Y12600D01*
X28513Y13225D01*
X27673Y13600D01*
X26833Y13475D01*
X25993Y12975D01*
G01X12097Y28000D02*
Y22625D01*
X12470Y21500D01*
X13217Y20750D01*
X14150Y20500D01*
X15083Y20750D01*
X15830Y21500D01*
X16203Y22625D01*
Y28000D01*
G01X19597Y22000D02*
X20157Y21125D01*
X20903Y20625D01*
X21743Y20500D01*
X22490Y20625D01*
X23237Y21250D01*
X23703Y22000D01*
X23797Y22750D01*
X23610Y23625D01*
X22957Y24250D01*
X22303Y24500D01*
X21463D01*
G01X22303D02*
X22863Y24875D01*
X23330Y25500D01*
X23517Y26250D01*
X23330Y27000D01*
X22863Y27625D01*
X22023Y28000D01*
X21183Y27875D01*
X20343Y27375D01*
G01X20153Y55975D02*
X19593Y56350D01*
X18940Y56600D01*
X18193D01*
X17353Y56225D01*
X16700Y55600D01*
X16233Y54850D01*
X15860Y53600D01*
X15767Y52475D01*
X15953Y51350D01*
X16233Y50600D01*
X16793Y49850D01*
X17447Y49350D01*
X18100Y49100D01*
X18753D01*
X19407Y49350D01*
X19967Y49725D01*
X20433Y50225D01*
G01X23827Y55350D02*
X24387Y56100D01*
X25040Y56475D01*
X25787Y56600D01*
X26720Y56350D01*
X27373Y55725D01*
X27560Y54975D01*
X27467Y54225D01*
X27093Y53600D01*
X25227Y52350D01*
X24387Y51475D01*
X23827Y50225D01*
X23640Y49100D01*
X27560D01*
G01X31047Y50225D02*
X31607Y49600D01*
X32260Y49225D01*
X33100Y49100D01*
X33940Y49350D01*
X34593Y49850D01*
X35060Y50725D01*
X35153Y51725D01*
X34967Y52725D01*
X34500Y53350D01*
X33847Y53850D01*
X33193Y53975D01*
X32540Y53850D01*
X31700Y53350D01*
X31980Y56600D01*
X34500D01*
G01X18453Y89775D02*
X17893Y90150D01*
X17240Y90400D01*
X16493D01*
X15653Y90025D01*
X15000Y89400D01*
X14533Y88650D01*
X14160Y87400D01*
X14067Y86275D01*
X14253Y85150D01*
X14533Y84400D01*
X15093Y83650D01*
X15747Y83150D01*
X16400Y82900D01*
X17053D01*
X17707Y83150D01*
X18267Y83525D01*
X18733Y84025D01*
G01X23713Y82900D02*
X23900Y84525D01*
X24180Y85900D01*
X24553Y87150D01*
X25020Y88525D01*
X25767Y90400D01*
X22033D01*
G01X31400D02*
X30653Y90150D01*
X30093Y89525D01*
X29720Y88775D01*
X29440Y87775D01*
X29347Y86650D01*
X29440Y85525D01*
X29720Y84525D01*
X30093Y83775D01*
X30653Y83150D01*
X31400Y82900D01*
X32147Y83150D01*
X32707Y83775D01*
X33080Y84525D01*
X33360Y85525D01*
X33453Y86650D01*
X33360Y87775D01*
X33080Y88775D01*
X32707Y89525D01*
X32147Y90150D01*
X31400Y90400D01*
G01X47353Y89075D02*
X46793Y89450D01*
X46140Y89700D01*
X45393D01*
X44553Y89325D01*
X43900Y88700D01*
X43433Y87950D01*
X43060Y86700D01*
X42967Y85575D01*
X43153Y84450D01*
X43433Y83700D01*
X43993Y82950D01*
X44647Y82450D01*
X45300Y82200D01*
X45953D01*
X46607Y82450D01*
X47167Y82825D01*
X47633Y83325D01*
G01X51027Y85325D02*
X51680Y86200D01*
X52240Y86700D01*
X52987Y86950D01*
X53640Y86700D01*
X54107Y86200D01*
X54480Y85450D01*
X54573Y84575D01*
X54480Y83825D01*
X54107Y83075D01*
X53547Y82450D01*
X52893Y82200D01*
X52147Y82450D01*
X51493Y83200D01*
X51120Y84325D01*
X51027Y85575D01*
X51213Y87200D01*
X51493Y88075D01*
X51960Y88950D01*
X52613Y89575D01*
X53267Y89700D01*
X53920Y89450D01*
X54387Y88825D01*
G01X58247Y83325D02*
X58807Y82700D01*
X59460Y82325D01*
X60300Y82200D01*
X61140Y82450D01*
X61793Y82950D01*
X62260Y83825D01*
X62353Y84825D01*
X62167Y85825D01*
X61700Y86450D01*
X61047Y86950D01*
X60393Y87075D01*
X59740Y86950D01*
X58900Y86450D01*
X59180Y89700D01*
X61700D01*
G01X21853Y213875D02*
X21293Y214250D01*
X20640Y214500D01*
X19893D01*
X19053Y214125D01*
X18400Y213500D01*
X17933Y212750D01*
X17560Y211500D01*
X17467Y210375D01*
X17653Y209250D01*
X17933Y208500D01*
X18493Y207750D01*
X19147Y207250D01*
X19800Y207000D01*
X20453D01*
X21107Y207250D01*
X21667Y207625D01*
X22133Y208125D01*
G01X27113Y207000D02*
X27300Y208625D01*
X27580Y210000D01*
X27953Y211250D01*
X28420Y212625D01*
X29167Y214500D01*
X25433D01*
G01X32747Y208125D02*
X33307Y207500D01*
X33960Y207125D01*
X34800Y207000D01*
X35640Y207250D01*
X36293Y207750D01*
X36760Y208625D01*
X36853Y209625D01*
X36667Y210625D01*
X36200Y211250D01*
X35547Y211750D01*
X34893Y211875D01*
X34240Y211750D01*
X33400Y211250D01*
X33680Y214500D01*
X36200D01*
G01X18433Y221400D02*
Y228900D01*
X20767D01*
X21513Y228525D01*
X21980Y228025D01*
X22167Y227025D01*
X21980Y226025D01*
X21420Y225400D01*
X20767Y225025D01*
X18433D01*
G01X20767D02*
X22167Y221400D01*
G01X25747Y222525D02*
X26307Y221900D01*
X26960Y221525D01*
X27800Y221400D01*
X28640Y221650D01*
X29293Y222150D01*
X29760Y223025D01*
X29853Y224025D01*
X29667Y225025D01*
X29200Y225650D01*
X28547Y226150D01*
X27893Y226275D01*
X27240Y226150D01*
X26400Y225650D01*
X26680Y228900D01*
X29200D01*
G01X33247Y222900D02*
X33807Y222025D01*
X34553Y221525D01*
X35393Y221400D01*
X36140Y221525D01*
X36887Y222150D01*
X37353Y222900D01*
X37447Y223650D01*
X37260Y224525D01*
X36607Y225150D01*
X35953Y225400D01*
X35113D01*
G01X35953D02*
X36513Y225775D01*
X36980Y226400D01*
X37167Y227150D01*
X36980Y227900D01*
X36513Y228525D01*
X35673Y228900D01*
X34833Y228775D01*
X33993Y228275D01*
G01X47453Y273075D02*
X46893Y273450D01*
X46240Y273700D01*
X45493D01*
X44653Y273325D01*
X44000Y272700D01*
X43533Y271950D01*
X43160Y270700D01*
X43067Y269575D01*
X43253Y268450D01*
X43533Y267700D01*
X44093Y266950D01*
X44747Y266450D01*
X45400Y266200D01*
X46053D01*
X46707Y266450D01*
X47267Y266825D01*
X47733Y267325D01*
G01X52900Y266200D02*
X53553Y266325D01*
X54300Y266700D01*
X54767Y267325D01*
X54953Y268200D01*
X54767Y269075D01*
X54207Y269825D01*
X53367Y270200D01*
X52433D01*
X51873Y270450D01*
X51407Y271075D01*
X51220Y271950D01*
X51500Y272825D01*
X52153Y273450D01*
X52900Y273700D01*
X53647Y273450D01*
X54300Y272825D01*
X54580Y271950D01*
X54393Y271075D01*
X53927Y270450D01*
X53367Y270200D01*
X52433D01*
X51593Y269825D01*
X51033Y269075D01*
X50847Y268200D01*
X51033Y267325D01*
X51500Y266700D01*
X52247Y266325D01*
X52900Y266200D01*
G01X58347Y267325D02*
X58907Y266700D01*
X59560Y266325D01*
X60400Y266200D01*
X61240Y266450D01*
X61893Y266950D01*
X62360Y267825D01*
X62453Y268825D01*
X62267Y269825D01*
X61800Y270450D01*
X61147Y270950D01*
X60493Y271075D01*
X59840Y270950D01*
X59000Y270450D01*
X59280Y273700D01*
X61800D01*
G01X23253Y253875D02*
X22693Y254250D01*
X22040Y254500D01*
X21293D01*
X20453Y254125D01*
X19800Y253500D01*
X19333Y252750D01*
X18960Y251500D01*
X18867Y250375D01*
X19053Y249250D01*
X19333Y248500D01*
X19893Y247750D01*
X20547Y247250D01*
X21200Y247000D01*
X21853D01*
X22507Y247250D01*
X23067Y247625D01*
X23533Y248125D01*
G01X28700Y247000D02*
X29353Y247125D01*
X30100Y247500D01*
X30567Y248125D01*
X30753Y249000D01*
X30567Y249875D01*
X30007Y250625D01*
X29167Y251000D01*
X28233D01*
X27673Y251250D01*
X27207Y251875D01*
X27020Y252750D01*
X27300Y253625D01*
X27953Y254250D01*
X28700Y254500D01*
X29447Y254250D01*
X30100Y253625D01*
X30380Y252750D01*
X30193Y251875D01*
X29727Y251250D01*
X29167Y251000D01*
X28233D01*
X27393Y250625D01*
X26833Y249875D01*
X26647Y249000D01*
X26833Y248125D01*
X27300Y247500D01*
X28047Y247125D01*
X28700Y247000D01*
G01X36013D02*
X36200Y248625D01*
X36480Y250000D01*
X36853Y251250D01*
X37320Y252625D01*
X38067Y254500D01*
X34333D01*
G01X84033Y80500D02*
Y88000D01*
X86367D01*
X87113Y87625D01*
X87580Y87125D01*
X87767Y86125D01*
X87580Y85125D01*
X87020Y84500D01*
X86367Y84125D01*
X84033D01*
G01X86367D02*
X87767Y80500D01*
G01X94520D02*
Y88000D01*
X91067Y82625D01*
X95733D01*
G01X98847Y81625D02*
X99407Y81000D01*
X100060Y80625D01*
X100900Y80500D01*
X101740Y80750D01*
X102393Y81250D01*
X102860Y82125D01*
X102953Y83125D01*
X102767Y84125D01*
X102300Y84750D01*
X101647Y85250D01*
X100993Y85375D01*
X100340Y85250D01*
X99500Y84750D01*
X99780Y88000D01*
X102300D01*
G01X77153Y133975D02*
X76593Y134350D01*
X75940Y134600D01*
X75193D01*
X74353Y134225D01*
X73700Y133600D01*
X73233Y132850D01*
X72860Y131600D01*
X72767Y130475D01*
X72953Y129350D01*
X73233Y128600D01*
X73793Y127850D01*
X74447Y127350D01*
X75100Y127100D01*
X75753D01*
X76407Y127350D01*
X76967Y127725D01*
X77433Y128225D01*
G01X82413Y127100D02*
X82600Y128725D01*
X82880Y130100D01*
X83253Y131350D01*
X83720Y132725D01*
X84467Y134600D01*
X80733D01*
G01X88327Y133350D02*
X88887Y134100D01*
X89540Y134475D01*
X90287Y134600D01*
X91220Y134350D01*
X91873Y133725D01*
X92060Y132975D01*
X91967Y132225D01*
X91593Y131600D01*
X89727Y130350D01*
X88887Y129475D01*
X88327Y128225D01*
X88140Y127100D01*
X92060D01*
G01X60553Y102775D02*
X59993Y103150D01*
X59340Y103400D01*
X58593D01*
X57753Y103025D01*
X57100Y102400D01*
X56633Y101650D01*
X56260Y100400D01*
X56167Y99275D01*
X56353Y98150D01*
X56633Y97400D01*
X57193Y96650D01*
X57847Y96150D01*
X58500Y95900D01*
X59153D01*
X59807Y96150D01*
X60367Y96525D01*
X60833Y97025D01*
G01X65813Y95900D02*
X66000Y97525D01*
X66280Y98900D01*
X66653Y100150D01*
X67120Y101525D01*
X67867Y103400D01*
X64133D01*
G01X73313Y95900D02*
X73500Y97525D01*
X73780Y98900D01*
X74153Y100150D01*
X74620Y101525D01*
X75367Y103400D01*
X71633D01*
G01X83533Y110500D02*
Y118000D01*
X85867D01*
X86613Y117625D01*
X87080Y117125D01*
X87267Y116125D01*
X87080Y115125D01*
X86520Y114500D01*
X85867Y114125D01*
X83533D01*
G01X85867D02*
X87267Y110500D01*
G01X94020D02*
Y118000D01*
X90567Y112625D01*
X95233D01*
G01X101520Y110500D02*
Y118000D01*
X98067Y112625D01*
X102733D01*
G01X63153Y159675D02*
X62593Y160050D01*
X61940Y160300D01*
X61193D01*
X60353Y159925D01*
X59700Y159300D01*
X59233Y158550D01*
X58860Y157300D01*
X58767Y156175D01*
X58953Y155050D01*
X59233Y154300D01*
X59793Y153550D01*
X60447Y153050D01*
X61100Y152800D01*
X61753D01*
X62407Y153050D01*
X62967Y153425D01*
X63433Y153925D01*
G01X68413Y152800D02*
X68600Y154425D01*
X68880Y155800D01*
X69253Y157050D01*
X69720Y158425D01*
X70467Y160300D01*
X66733D01*
G01X76100Y152800D02*
Y160300D01*
X74980Y158800D01*
G01Y152800D02*
X77220D01*
G01X76653Y202675D02*
X76093Y203050D01*
X75440Y203300D01*
X74693D01*
X73853Y202925D01*
X73200Y202300D01*
X72733Y201550D01*
X72360Y200300D01*
X72267Y199175D01*
X72453Y198050D01*
X72733Y197300D01*
X73293Y196550D01*
X73947Y196050D01*
X74600Y195800D01*
X75253D01*
X75907Y196050D01*
X76467Y196425D01*
X76933Y196925D01*
G01X81913Y195800D02*
X82100Y197425D01*
X82380Y198800D01*
X82753Y200050D01*
X83220Y201425D01*
X83967Y203300D01*
X80233D01*
G01X87547Y197300D02*
X88107Y196425D01*
X88853Y195925D01*
X89693Y195800D01*
X90440Y195925D01*
X91187Y196550D01*
X91653Y197300D01*
X91747Y198050D01*
X91560Y198925D01*
X90907Y199550D01*
X90253Y199800D01*
X89413D01*
G01X90253D02*
X90813Y200175D01*
X91280Y200800D01*
X91467Y201550D01*
X91280Y202300D01*
X90813Y202925D01*
X89973Y203300D01*
X89133Y203175D01*
X88293Y202675D01*
G01X75453Y189875D02*
X74893Y190250D01*
X74240Y190500D01*
X73493D01*
X72653Y190125D01*
X72000Y189500D01*
X71533Y188750D01*
X71160Y187500D01*
X71067Y186375D01*
X71253Y185250D01*
X71533Y184500D01*
X72093Y183750D01*
X72747Y183250D01*
X73400Y183000D01*
X74053D01*
X74707Y183250D01*
X75267Y183625D01*
X75733Y184125D01*
G01X79127Y186125D02*
X79780Y187000D01*
X80340Y187500D01*
X81087Y187750D01*
X81740Y187500D01*
X82207Y187000D01*
X82580Y186250D01*
X82673Y185375D01*
X82580Y184625D01*
X82207Y183875D01*
X81647Y183250D01*
X80993Y183000D01*
X80247Y183250D01*
X79593Y184000D01*
X79220Y185125D01*
X79127Y186375D01*
X79313Y188000D01*
X79593Y188875D01*
X80060Y189750D01*
X80713Y190375D01*
X81367Y190500D01*
X82020Y190250D01*
X82487Y189625D01*
G01X89520Y183000D02*
Y190500D01*
X86067Y185125D01*
X90733D01*
G01X71183Y374800D02*
Y367300D01*
X74917D01*
G01X78497Y368425D02*
X79057Y367800D01*
X79710Y367425D01*
X80550Y367300D01*
X81390Y367550D01*
X82043Y368050D01*
X82510Y368925D01*
X82603Y369925D01*
X82417Y370925D01*
X81950Y371550D01*
X81297Y372050D01*
X80643Y372175D01*
X79990Y372050D01*
X79150Y371550D01*
X79430Y374800D01*
X81950D01*
G01X71133Y377200D02*
Y384700D01*
X73467D01*
X74213Y384325D01*
X74680Y383825D01*
X74867Y382825D01*
X74680Y381825D01*
X74120Y381200D01*
X73467Y380825D01*
X71133D01*
G01X73467D02*
X74867Y377200D01*
G01X80500D02*
Y384700D01*
X79380Y383200D01*
G01Y377200D02*
X81620D01*
G01X88000D02*
X88653Y377325D01*
X89400Y377700D01*
X89867Y378325D01*
X90053Y379200D01*
X89867Y380075D01*
X89307Y380825D01*
X88467Y381200D01*
X87533D01*
X86973Y381450D01*
X86507Y382075D01*
X86320Y382950D01*
X86600Y383825D01*
X87253Y384450D01*
X88000Y384700D01*
X88747Y384450D01*
X89400Y383825D01*
X89680Y382950D01*
X89493Y382075D01*
X89027Y381450D01*
X88467Y381200D01*
X87533D01*
X86693Y380825D01*
X86133Y380075D01*
X85947Y379200D01*
X86133Y378325D01*
X86600Y377700D01*
X87347Y377325D01*
X88000Y377200D01*
G01X101033Y-28900D02*
Y-21400D01*
X103273D01*
X104020Y-21775D01*
X104580Y-22650D01*
X104767Y-23650D01*
X104580Y-24650D01*
X104113Y-25400D01*
X103273Y-25775D01*
X101033D01*
G01X108627Y-21400D02*
X112173D01*
X108627Y-28900D01*
X112173D01*
G01X117900D02*
Y-21400D01*
X116780Y-22900D01*
G01Y-28900D02*
X119020D01*
G01X108883Y38800D02*
X109350Y38050D01*
X109910Y37550D01*
X110563Y37300D01*
X111310Y37550D01*
X111870Y38050D01*
X112430Y38800D01*
X112617Y39800D01*
Y44800D01*
G01X118063Y37300D02*
X118250Y38925D01*
X118530Y40300D01*
X118903Y41550D01*
X119370Y42925D01*
X120117Y44800D01*
X116383D01*
G01X121933Y151900D02*
X122400Y151150D01*
X122960Y150650D01*
X123613Y150400D01*
X124360Y150650D01*
X124920Y151150D01*
X125480Y151900D01*
X125667Y152900D01*
Y157900D01*
G01X131300Y150400D02*
Y157900D01*
X130180Y156400D01*
G01Y150400D02*
X132420D01*
G01X139920D02*
Y157900D01*
X136467Y152525D01*
X141133D01*
G01X130553Y282875D02*
X129993Y283250D01*
X129340Y283500D01*
X128593D01*
X127753Y283125D01*
X127100Y282500D01*
X126633Y281750D01*
X126260Y280500D01*
X126167Y279375D01*
X126353Y278250D01*
X126633Y277500D01*
X127193Y276750D01*
X127847Y276250D01*
X128500Y276000D01*
X129153D01*
X129807Y276250D01*
X130367Y276625D01*
X130833Y277125D01*
G01X133947Y277500D02*
X134507Y276625D01*
X135253Y276125D01*
X136093Y276000D01*
X136840Y276125D01*
X137587Y276750D01*
X138053Y277500D01*
X138147Y278250D01*
X137960Y279125D01*
X137307Y279750D01*
X136653Y280000D01*
X135813D01*
G01X136653D02*
X137213Y280375D01*
X137680Y281000D01*
X137867Y281750D01*
X137680Y282500D01*
X137213Y283125D01*
X136373Y283500D01*
X135533Y283375D01*
X134693Y282875D01*
G01X141447Y277125D02*
X142007Y276500D01*
X142660Y276125D01*
X143500Y276000D01*
X144340Y276250D01*
X144993Y276750D01*
X145460Y277625D01*
X145553Y278625D01*
X145367Y279625D01*
X144900Y280250D01*
X144247Y280750D01*
X143593Y280875D01*
X142940Y280750D01*
X142100Y280250D01*
X142380Y283500D01*
X144900D01*
G01X143850Y23200D02*
X143103Y23325D01*
X142450Y23825D01*
X141890Y24575D01*
X141517Y25450D01*
X141330Y26450D01*
Y27450D01*
X141517Y28450D01*
X141890Y29325D01*
X142450Y30075D01*
X143103Y30575D01*
X143850Y30700D01*
X144597Y30575D01*
X145250Y30075D01*
X145810Y29325D01*
X146183Y28450D01*
X146370Y27450D01*
Y26450D01*
X146183Y25450D01*
X145810Y24575D01*
X145250Y23825D01*
X144597Y23325D01*
X143850Y23200D01*
G01X144597Y25200D02*
X145717Y23200D01*
G01X152470D02*
Y30700D01*
X149017Y25325D01*
X153683D01*
G01X150153Y246375D02*
X149593Y246750D01*
X148940Y247000D01*
X148193D01*
X147353Y246625D01*
X146700Y246000D01*
X146233Y245250D01*
X145860Y244000D01*
X145767Y242875D01*
X145953Y241750D01*
X146233Y241000D01*
X146793Y240250D01*
X147447Y239750D01*
X148100Y239500D01*
X148753D01*
X149407Y239750D01*
X149967Y240125D01*
X150433Y240625D01*
G01X156720Y239500D02*
Y247000D01*
X153267Y241625D01*
X157933D01*
G01X163100Y239500D02*
X163753Y239625D01*
X164500Y240000D01*
X164967Y240625D01*
X165153Y241500D01*
X164967Y242375D01*
X164407Y243125D01*
X163567Y243500D01*
X162633D01*
X162073Y243750D01*
X161607Y244375D01*
X161420Y245250D01*
X161700Y246125D01*
X162353Y246750D01*
X163100Y247000D01*
X163847Y246750D01*
X164500Y246125D01*
X164780Y245250D01*
X164593Y244375D01*
X164127Y243750D01*
X163567Y243500D01*
X162633D01*
X161793Y243125D01*
X161233Y242375D01*
X161047Y241500D01*
X161233Y240625D01*
X161700Y240000D01*
X162447Y239625D01*
X163100Y239500D01*
G01X150153Y256175D02*
X149593Y256550D01*
X148940Y256800D01*
X148193D01*
X147353Y256425D01*
X146700Y255800D01*
X146233Y255050D01*
X145860Y253800D01*
X145767Y252675D01*
X145953Y251550D01*
X146233Y250800D01*
X146793Y250050D01*
X147447Y249550D01*
X148100Y249300D01*
X148753D01*
X149407Y249550D01*
X149967Y249925D01*
X150433Y250425D01*
G01X156720Y249300D02*
Y256800D01*
X153267Y251425D01*
X157933D01*
G01X161513Y250175D02*
X162167Y249550D01*
X162913Y249300D01*
X163660Y249550D01*
X164313Y250300D01*
X164780Y251425D01*
X164967Y252550D01*
Y253925D01*
X164780Y255050D01*
X164313Y256050D01*
X163753Y256550D01*
X163100Y256800D01*
X162353Y256550D01*
X161793Y256050D01*
X161420Y255300D01*
X161233Y254300D01*
X161420Y253425D01*
X161887Y252550D01*
X162447Y252050D01*
X163100Y251925D01*
X163847Y252175D01*
X164407Y252800D01*
X164967Y253925D01*
G01X149453Y308575D02*
X148893Y308950D01*
X148240Y309200D01*
X147493D01*
X146653Y308825D01*
X146000Y308200D01*
X145533Y307450D01*
X145160Y306200D01*
X145067Y305075D01*
X145253Y303950D01*
X145533Y303200D01*
X146093Y302450D01*
X146747Y301950D01*
X147400Y301700D01*
X148053D01*
X148707Y301950D01*
X149267Y302325D01*
X149733Y302825D01*
G01X152847Y303200D02*
X153407Y302325D01*
X154153Y301825D01*
X154993Y301700D01*
X155740Y301825D01*
X156487Y302450D01*
X156953Y303200D01*
X157047Y303950D01*
X156860Y304825D01*
X156207Y305450D01*
X155553Y305700D01*
X154713D01*
G01X155553D02*
X156113Y306075D01*
X156580Y306700D01*
X156767Y307450D01*
X156580Y308200D01*
X156113Y308825D01*
X155273Y309200D01*
X154433Y309075D01*
X153593Y308575D01*
G01X160627Y304825D02*
X161280Y305700D01*
X161840Y306200D01*
X162587Y306450D01*
X163240Y306200D01*
X163707Y305700D01*
X164080Y304950D01*
X164173Y304075D01*
X164080Y303325D01*
X163707Y302575D01*
X163147Y301950D01*
X162493Y301700D01*
X161747Y301950D01*
X161093Y302700D01*
X160720Y303825D01*
X160627Y305075D01*
X160813Y306700D01*
X161093Y307575D01*
X161560Y308450D01*
X162213Y309075D01*
X162867Y309200D01*
X163520Y308950D01*
X163987Y308325D01*
G01X131583Y304200D02*
Y296700D01*
X135317D01*
G01X140950D02*
X141603Y296825D01*
X142350Y297200D01*
X142817Y297825D01*
X143003Y298700D01*
X142817Y299575D01*
X142257Y300325D01*
X141417Y300700D01*
X140483D01*
X139923Y300950D01*
X139457Y301575D01*
X139270Y302450D01*
X139550Y303325D01*
X140203Y303950D01*
X140950Y304200D01*
X141697Y303950D01*
X142350Y303325D01*
X142630Y302450D01*
X142443Y301575D01*
X141977Y300950D01*
X141417Y300700D01*
X140483D01*
X139643Y300325D01*
X139083Y299575D01*
X138897Y298700D01*
X139083Y297825D01*
X139550Y297200D01*
X140297Y296825D01*
X140950Y296700D01*
G01X133683Y385100D02*
Y377600D01*
X137417D01*
G01X141277Y380725D02*
X141930Y381600D01*
X142490Y382100D01*
X143237Y382350D01*
X143890Y382100D01*
X144357Y381600D01*
X144730Y380850D01*
X144823Y379975D01*
X144730Y379225D01*
X144357Y378475D01*
X143797Y377850D01*
X143143Y377600D01*
X142397Y377850D01*
X141743Y378600D01*
X141370Y379725D01*
X141277Y380975D01*
X141463Y382600D01*
X141743Y383475D01*
X142210Y384350D01*
X142863Y384975D01*
X143517Y385100D01*
X144170Y384850D01*
X144637Y384225D01*
G01X133633Y366800D02*
Y374300D01*
X135967D01*
X136713Y373925D01*
X137180Y373425D01*
X137367Y372425D01*
X137180Y371425D01*
X136620Y370800D01*
X135967Y370425D01*
X133633D01*
G01X135967D02*
X137367Y366800D01*
G01X141227Y373050D02*
X141787Y373800D01*
X142440Y374175D01*
X143187Y374300D01*
X144120Y374050D01*
X144773Y373425D01*
X144960Y372675D01*
X144867Y371925D01*
X144493Y371300D01*
X142627Y370050D01*
X141787Y369175D01*
X141227Y367925D01*
X141040Y366800D01*
X144960D01*
G01X150500D02*
Y374300D01*
X149380Y372800D01*
G01Y366800D02*
X151620D01*
G01X199140Y27700D02*
X199887Y27075D01*
X200727Y26700D01*
X201473D01*
X202220Y27075D01*
X202780Y27700D01*
X203060Y28575D01*
X202873Y29450D01*
X202407Y30200D01*
X201567Y30700D01*
X200447Y30950D01*
X199793Y31450D01*
X199513Y32325D01*
X199700Y33200D01*
X200167Y33825D01*
X200820Y34200D01*
X201473D01*
X202127Y33950D01*
X202687Y33325D01*
G01X205800Y34200D02*
X207107Y26700D01*
X208600Y34200D01*
X210093Y26700D01*
X211400Y34200D01*
G01X216100Y26700D02*
Y34200D01*
X214980Y32700D01*
G01Y26700D02*
X217220D01*
G01X183840Y205400D02*
X184587Y204775D01*
X185427Y204400D01*
X186173D01*
X186920Y204775D01*
X187480Y205400D01*
X187760Y206275D01*
X187573Y207150D01*
X187107Y207900D01*
X186267Y208400D01*
X185147Y208650D01*
X184493Y209150D01*
X184213Y210025D01*
X184400Y210900D01*
X184867Y211525D01*
X185520Y211900D01*
X186173D01*
X186827Y211650D01*
X187387Y211025D01*
G01X190500Y211900D02*
X191807Y204400D01*
X193300Y211900D01*
X194793Y204400D01*
X196100Y211900D01*
G01X198747Y205900D02*
X199307Y205025D01*
X200053Y204525D01*
X200893Y204400D01*
X201640Y204525D01*
X202387Y205150D01*
X202853Y205900D01*
X202947Y206650D01*
X202760Y207525D01*
X202107Y208150D01*
X201453Y208400D01*
X200613D01*
G01X201453D02*
X202013Y208775D01*
X202480Y209400D01*
X202667Y210150D01*
X202480Y210900D01*
X202013Y211525D01*
X201173Y211900D01*
X200333Y211775D01*
X199493Y211275D01*
G01X176033Y232700D02*
Y240200D01*
X178367D01*
X179113Y239825D01*
X179580Y239325D01*
X179767Y238325D01*
X179580Y237325D01*
X179020Y236700D01*
X178367Y236325D01*
X176033D01*
G01X178367D02*
X179767Y232700D01*
G01X183347Y234200D02*
X183907Y233325D01*
X184653Y232825D01*
X185493Y232700D01*
X186240Y232825D01*
X186987Y233450D01*
X187453Y234200D01*
X187547Y234950D01*
X187360Y235825D01*
X186707Y236450D01*
X186053Y236700D01*
X185213D01*
G01X186053D02*
X186613Y237075D01*
X187080Y237700D01*
X187267Y238450D01*
X187080Y239200D01*
X186613Y239825D01*
X185773Y240200D01*
X184933Y240075D01*
X184093Y239575D01*
G01X194020Y232700D02*
Y240200D01*
X190567Y234825D01*
X195233D01*
G01X174650Y278800D02*
Y282175D01*
X172783Y286300D01*
G01X176517D02*
X174650Y282175D01*
G01X183270Y278800D02*
Y286300D01*
X179817Y280925D01*
X184483D01*
G01X182533Y267800D02*
Y275300D01*
X184867D01*
X185613Y274925D01*
X186080Y274425D01*
X186267Y273425D01*
X186080Y272425D01*
X185520Y271800D01*
X184867Y271425D01*
X182533D01*
G01X184867D02*
X186267Y267800D01*
G01X189847Y269300D02*
X190407Y268425D01*
X191153Y267925D01*
X191993Y267800D01*
X192740Y267925D01*
X193487Y268550D01*
X193953Y269300D01*
X194047Y270050D01*
X193860Y270925D01*
X193207Y271550D01*
X192553Y271800D01*
X191713D01*
G01X192553D02*
X193113Y272175D01*
X193580Y272800D01*
X193767Y273550D01*
X193580Y274300D01*
X193113Y274925D01*
X192273Y275300D01*
X191433Y275175D01*
X190593Y274675D01*
G01X199400Y267800D02*
X200053Y267925D01*
X200800Y268300D01*
X201267Y268925D01*
X201453Y269800D01*
X201267Y270675D01*
X200707Y271425D01*
X199867Y271800D01*
X198933D01*
X198373Y272050D01*
X197907Y272675D01*
X197720Y273550D01*
X198000Y274425D01*
X198653Y275050D01*
X199400Y275300D01*
X200147Y275050D01*
X200800Y274425D01*
X201080Y273550D01*
X200893Y272675D01*
X200427Y272050D01*
X199867Y271800D01*
X198933D01*
X198093Y271425D01*
X197533Y270675D01*
X197347Y269800D01*
X197533Y268925D01*
X198000Y268300D01*
X198747Y267925D01*
X199400Y267800D01*
G01X198833Y285600D02*
Y293100D01*
X201167D01*
X201913Y292725D01*
X202380Y292225D01*
X202567Y291225D01*
X202380Y290225D01*
X201820Y289600D01*
X201167Y289225D01*
X198833D01*
G01X201167D02*
X202567Y285600D01*
G01X206427Y291850D02*
X206987Y292600D01*
X207640Y292975D01*
X208387Y293100D01*
X209320Y292850D01*
X209973Y292225D01*
X210160Y291475D01*
X210067Y290725D01*
X209693Y290100D01*
X207827Y288850D01*
X206987Y287975D01*
X206427Y286725D01*
X206240Y285600D01*
X210160D01*
G01X214113Y286475D02*
X214767Y285850D01*
X215513Y285600D01*
X216260Y285850D01*
X216913Y286600D01*
X217380Y287725D01*
X217567Y288850D01*
Y290225D01*
X217380Y291350D01*
X216913Y292350D01*
X216353Y292850D01*
X215700Y293100D01*
X214953Y292850D01*
X214393Y292350D01*
X214020Y291600D01*
X213833Y290600D01*
X214020Y289725D01*
X214487Y288850D01*
X215047Y288350D01*
X215700Y288225D01*
X216447Y288475D01*
X217007Y289100D01*
X217567Y290225D01*
G01X179953Y317275D02*
X179393Y317650D01*
X178740Y317900D01*
X177993D01*
X177153Y317525D01*
X176500Y316900D01*
X176033Y316150D01*
X175660Y314900D01*
X175567Y313775D01*
X175753Y312650D01*
X176033Y311900D01*
X176593Y311150D01*
X177247Y310650D01*
X177900Y310400D01*
X178553D01*
X179207Y310650D01*
X179767Y311025D01*
X180233Y311525D01*
G01X183347Y311900D02*
X183907Y311025D01*
X184653Y310525D01*
X185493Y310400D01*
X186240Y310525D01*
X186987Y311150D01*
X187453Y311900D01*
X187547Y312650D01*
X187360Y313525D01*
X186707Y314150D01*
X186053Y314400D01*
X185213D01*
G01X186053D02*
X186613Y314775D01*
X187080Y315400D01*
X187267Y316150D01*
X187080Y316900D01*
X186613Y317525D01*
X185773Y317900D01*
X184933Y317775D01*
X184093Y317275D01*
G01X192713Y310400D02*
X192900Y312025D01*
X193180Y313400D01*
X193553Y314650D01*
X194020Y316025D01*
X194767Y317900D01*
X191033D01*
G01X173400Y300233D02*
X165900D01*
Y302567D01*
X166275Y303313D01*
X166775Y303780D01*
X167775Y303967D01*
X168775Y303780D01*
X169400Y303220D01*
X169775Y302567D01*
Y300233D01*
G01Y302567D02*
X173400Y303967D01*
G01X171900Y307547D02*
X172775Y308107D01*
X173275Y308853D01*
X173400Y309693D01*
X173275Y310440D01*
X172650Y311187D01*
X171900Y311653D01*
X171150Y311747D01*
X170275Y311560D01*
X169650Y310907D01*
X169400Y310253D01*
Y309413D01*
G01Y310253D02*
X169025Y310813D01*
X168400Y311280D01*
X167650Y311467D01*
X166900Y311280D01*
X166275Y310813D01*
X165900Y309973D01*
X166025Y309133D01*
X166525Y308293D01*
G01X173400Y317100D02*
X165900D01*
X167400Y315980D01*
G01X173400D02*
Y318220D01*
G01X216733Y44800D02*
Y52300D01*
X219067D01*
X219813Y51925D01*
X220280Y51425D01*
X220467Y50425D01*
X220280Y49425D01*
X219720Y48800D01*
X219067Y48425D01*
X216733D01*
G01X219067D02*
X220467Y44800D01*
G01X226100D02*
Y52300D01*
X224980Y50800D01*
G01Y44800D02*
X227220D01*
G01X233600Y52300D02*
X232853Y52050D01*
X232293Y51425D01*
X231920Y50675D01*
X231640Y49675D01*
X231547Y48550D01*
X231640Y47425D01*
X231920Y46425D01*
X232293Y45675D01*
X232853Y45050D01*
X233600Y44800D01*
X234347Y45050D01*
X234907Y45675D01*
X235280Y46425D01*
X235560Y47425D01*
X235653Y48550D01*
X235560Y49675D01*
X235280Y50675D01*
X234907Y51425D01*
X234347Y52050D01*
X233600Y52300D01*
G01X209833Y194600D02*
Y202100D01*
X212167D01*
X212913Y201725D01*
X213380Y201225D01*
X213567Y200225D01*
X213380Y199225D01*
X212820Y198600D01*
X212167Y198225D01*
X209833D01*
G01X212167D02*
X213567Y194600D01*
G01X217147Y196100D02*
X217707Y195225D01*
X218453Y194725D01*
X219293Y194600D01*
X220040Y194725D01*
X220787Y195350D01*
X221253Y196100D01*
X221347Y196850D01*
X221160Y197725D01*
X220507Y198350D01*
X219853Y198600D01*
X219013D01*
G01X219853D02*
X220413Y198975D01*
X220880Y199600D01*
X221067Y200350D01*
X220880Y201100D01*
X220413Y201725D01*
X219573Y202100D01*
X218733Y201975D01*
X217893Y201475D01*
G01X226513Y194600D02*
X226700Y196225D01*
X226980Y197600D01*
X227353Y198850D01*
X227820Y200225D01*
X228567Y202100D01*
X224833D01*
G01X214253Y251575D02*
X213693Y251950D01*
X213040Y252200D01*
X212293D01*
X211453Y251825D01*
X210800Y251200D01*
X210333Y250450D01*
X209960Y249200D01*
X209867Y248075D01*
X210053Y246950D01*
X210333Y246200D01*
X210893Y245450D01*
X211547Y244950D01*
X212200Y244700D01*
X212853D01*
X213507Y244950D01*
X214067Y245325D01*
X214533Y245825D01*
G01X220820Y244700D02*
Y252200D01*
X217367Y246825D01*
X222033D01*
G01X227013Y244700D02*
X227200Y246325D01*
X227480Y247700D01*
X227853Y248950D01*
X228320Y250325D01*
X229067Y252200D01*
X225333D01*
G01X232253Y224975D02*
X231693Y225350D01*
X231040Y225600D01*
X230293D01*
X229453Y225225D01*
X228800Y224600D01*
X228333Y223850D01*
X227960Y222600D01*
X227867Y221475D01*
X228053Y220350D01*
X228333Y219600D01*
X228893Y218850D01*
X229547Y218350D01*
X230200Y218100D01*
X230853D01*
X231507Y218350D01*
X232067Y218725D01*
X232533Y219225D01*
G01X235647D02*
X236207Y218600D01*
X236860Y218225D01*
X237700Y218100D01*
X238540Y218350D01*
X239193Y218850D01*
X239660Y219725D01*
X239753Y220725D01*
X239567Y221725D01*
X239100Y222350D01*
X238447Y222850D01*
X237793Y222975D01*
X237140Y222850D01*
X236300Y222350D01*
X236580Y225600D01*
X239100D01*
G01X243147Y219600D02*
X243707Y218725D01*
X244453Y218225D01*
X245293Y218100D01*
X246040Y218225D01*
X246787Y218850D01*
X247253Y219600D01*
X247347Y220350D01*
X247160Y221225D01*
X246507Y221850D01*
X245853Y222100D01*
X245013D01*
G01X245853D02*
X246413Y222475D01*
X246880Y223100D01*
X247067Y223850D01*
X246880Y224600D01*
X246413Y225225D01*
X245573Y225600D01*
X244733Y225475D01*
X243893Y224975D01*
G01X214253Y260975D02*
X213693Y261350D01*
X213040Y261600D01*
X212293D01*
X211453Y261225D01*
X210800Y260600D01*
X210333Y259850D01*
X209960Y258600D01*
X209867Y257475D01*
X210053Y256350D01*
X210333Y255600D01*
X210893Y254850D01*
X211547Y254350D01*
X212200Y254100D01*
X212853D01*
X213507Y254350D01*
X214067Y254725D01*
X214533Y255225D01*
G01X220820Y254100D02*
Y261600D01*
X217367Y256225D01*
X222033D01*
G01X225427Y257225D02*
X226080Y258100D01*
X226640Y258600D01*
X227387Y258850D01*
X228040Y258600D01*
X228507Y258100D01*
X228880Y257350D01*
X228973Y256475D01*
X228880Y255725D01*
X228507Y254975D01*
X227947Y254350D01*
X227293Y254100D01*
X226547Y254350D01*
X225893Y255100D01*
X225520Y256225D01*
X225427Y257475D01*
X225613Y259100D01*
X225893Y259975D01*
X226360Y260850D01*
X227013Y261475D01*
X227667Y261600D01*
X228320Y261350D01*
X228787Y260725D01*
G01X219353Y310675D02*
X218793Y311050D01*
X218140Y311300D01*
X217393D01*
X216553Y310925D01*
X215900Y310300D01*
X215433Y309550D01*
X215060Y308300D01*
X214967Y307175D01*
X215153Y306050D01*
X215433Y305300D01*
X215993Y304550D01*
X216647Y304050D01*
X217300Y303800D01*
X217953D01*
X218607Y304050D01*
X219167Y304425D01*
X219633Y304925D01*
G01X222747D02*
X223307Y304300D01*
X223960Y303925D01*
X224800Y303800D01*
X225640Y304050D01*
X226293Y304550D01*
X226760Y305425D01*
X226853Y306425D01*
X226667Y307425D01*
X226200Y308050D01*
X225547Y308550D01*
X224893Y308675D01*
X224240Y308550D01*
X223400Y308050D01*
X223680Y311300D01*
X226200D01*
G01X232300D02*
X231553Y311050D01*
X230993Y310425D01*
X230620Y309675D01*
X230340Y308675D01*
X230247Y307550D01*
X230340Y306425D01*
X230620Y305425D01*
X230993Y304675D01*
X231553Y304050D01*
X232300Y303800D01*
X233047Y304050D01*
X233607Y304675D01*
X233980Y305425D01*
X234260Y306425D01*
X234353Y307550D01*
X234260Y308675D01*
X233980Y309675D01*
X233607Y310425D01*
X233047Y311050D01*
X232300Y311300D01*
G01X219353Y301575D02*
X218793Y301950D01*
X218140Y302200D01*
X217393D01*
X216553Y301825D01*
X215900Y301200D01*
X215433Y300450D01*
X215060Y299200D01*
X214967Y298075D01*
X215153Y296950D01*
X215433Y296200D01*
X215993Y295450D01*
X216647Y294950D01*
X217300Y294700D01*
X217953D01*
X218607Y294950D01*
X219167Y295325D01*
X219633Y295825D01*
G01X222747D02*
X223307Y295200D01*
X223960Y294825D01*
X224800Y294700D01*
X225640Y294950D01*
X226293Y295450D01*
X226760Y296325D01*
X226853Y297325D01*
X226667Y298325D01*
X226200Y298950D01*
X225547Y299450D01*
X224893Y299575D01*
X224240Y299450D01*
X223400Y298950D01*
X223680Y302200D01*
X226200D01*
G01X232300Y294700D02*
Y302200D01*
X231180Y300700D01*
G01Y294700D02*
X233420D01*
G01X258197Y15000D02*
Y9625D01*
X258570Y8500D01*
X259317Y7750D01*
X260250Y7500D01*
X261183Y7750D01*
X261930Y8500D01*
X262303Y9625D01*
Y15000D01*
G01X265977Y13750D02*
X266537Y14500D01*
X267190Y14875D01*
X267937Y15000D01*
X268870Y14750D01*
X269523Y14125D01*
X269710Y13375D01*
X269617Y12625D01*
X269243Y12000D01*
X267377Y10750D01*
X266537Y9875D01*
X265977Y8625D01*
X265790Y7500D01*
X269710D01*
G01X250253Y51175D02*
X249693Y51550D01*
X249040Y51800D01*
X248293D01*
X247453Y51425D01*
X246800Y50800D01*
X246333Y50050D01*
X245960Y48800D01*
X245867Y47675D01*
X246053Y46550D01*
X246333Y45800D01*
X246893Y45050D01*
X247547Y44550D01*
X248200Y44300D01*
X248853D01*
X249507Y44550D01*
X250067Y44925D01*
X250533Y45425D01*
G01X253927Y50550D02*
X254487Y51300D01*
X255140Y51675D01*
X255887Y51800D01*
X256820Y51550D01*
X257473Y50925D01*
X257660Y50175D01*
X257567Y49425D01*
X257193Y48800D01*
X255327Y47550D01*
X254487Y46675D01*
X253927Y45425D01*
X253740Y44300D01*
X257660D01*
G01X263200Y51800D02*
X262453Y51550D01*
X261893Y50925D01*
X261520Y50175D01*
X261240Y49175D01*
X261147Y48050D01*
X261240Y46925D01*
X261520Y45925D01*
X261893Y45175D01*
X262453Y44550D01*
X263200Y44300D01*
X263947Y44550D01*
X264507Y45175D01*
X264880Y45925D01*
X265160Y46925D01*
X265253Y48050D01*
X265160Y49175D01*
X264880Y50175D01*
X264507Y50925D01*
X263947Y51550D01*
X263200Y51800D01*
G01X265153Y37175D02*
X264593Y37550D01*
X263940Y37800D01*
X263193D01*
X262353Y37425D01*
X261700Y36800D01*
X261233Y36050D01*
X260860Y34800D01*
X260767Y33675D01*
X260953Y32550D01*
X261233Y31800D01*
X261793Y31050D01*
X262447Y30550D01*
X263100Y30300D01*
X263753D01*
X264407Y30550D01*
X264967Y30925D01*
X265433Y31425D01*
G01X270600Y30300D02*
Y37800D01*
X269480Y36300D01*
G01Y30300D02*
X271720D01*
G01X276513Y31175D02*
X277167Y30550D01*
X277913Y30300D01*
X278660Y30550D01*
X279313Y31300D01*
X279780Y32425D01*
X279967Y33550D01*
Y34925D01*
X279780Y36050D01*
X279313Y37050D01*
X278753Y37550D01*
X278100Y37800D01*
X277353Y37550D01*
X276793Y37050D01*
X276420Y36300D01*
X276233Y35300D01*
X276420Y34425D01*
X276887Y33550D01*
X277447Y33050D01*
X278100Y32925D01*
X278847Y33175D01*
X279407Y33800D01*
X279967Y34925D01*
G01X246233Y19200D02*
Y26700D01*
X248567D01*
X249313Y26325D01*
X249780Y25825D01*
X249967Y24825D01*
X249780Y23825D01*
X249220Y23200D01*
X248567Y22825D01*
X246233D01*
G01X248567D02*
X249967Y19200D01*
G01X255413D02*
X255600Y20825D01*
X255880Y22200D01*
X256253Y23450D01*
X256720Y24825D01*
X257467Y26700D01*
X253733D01*
G01X273433Y125200D02*
Y132700D01*
X275767D01*
X276513Y132325D01*
X276980Y131825D01*
X277167Y130825D01*
X276980Y129825D01*
X276420Y129200D01*
X275767Y128825D01*
X273433D01*
G01X275767D02*
X277167Y125200D01*
G01X282800D02*
Y132700D01*
X281680Y131200D01*
G01Y125200D02*
X283920D01*
G01X291420D02*
Y132700D01*
X287967Y127325D01*
X292633D01*
G01X282633Y153000D02*
Y160500D01*
X284967D01*
X285713Y160125D01*
X286180Y159625D01*
X286367Y158625D01*
X286180Y157625D01*
X285620Y157000D01*
X284967Y156625D01*
X282633D01*
G01X284967D02*
X286367Y153000D01*
G01X292000D02*
Y160500D01*
X290880Y159000D01*
G01Y153000D02*
X293120D01*
G01X297727Y156125D02*
X298380Y157000D01*
X298940Y157500D01*
X299687Y157750D01*
X300340Y157500D01*
X300807Y157000D01*
X301180Y156250D01*
X301273Y155375D01*
X301180Y154625D01*
X300807Y153875D01*
X300247Y153250D01*
X299593Y153000D01*
X298847Y153250D01*
X298193Y154000D01*
X297820Y155125D01*
X297727Y156375D01*
X297913Y158000D01*
X298193Y158875D01*
X298660Y159750D01*
X299313Y160375D01*
X299967Y160500D01*
X300620Y160250D01*
X301087Y159625D01*
G01X286753Y278275D02*
X286193Y278650D01*
X285540Y278900D01*
X284793D01*
X283953Y278525D01*
X283300Y277900D01*
X282833Y277150D01*
X282460Y275900D01*
X282367Y274775D01*
X282553Y273650D01*
X282833Y272900D01*
X283393Y272150D01*
X284047Y271650D01*
X284700Y271400D01*
X285353D01*
X286007Y271650D01*
X286567Y272025D01*
X287033Y272525D01*
G01X292013Y271400D02*
X292200Y273025D01*
X292480Y274400D01*
X292853Y275650D01*
X293320Y277025D01*
X294067Y278900D01*
X290333D01*
G01X270653Y283375D02*
X270093Y283750D01*
X269440Y284000D01*
X268693D01*
X267853Y283625D01*
X267200Y283000D01*
X266733Y282250D01*
X266360Y281000D01*
X266267Y279875D01*
X266453Y278750D01*
X266733Y278000D01*
X267293Y277250D01*
X267947Y276750D01*
X268600Y276500D01*
X269253D01*
X269907Y276750D01*
X270467Y277125D01*
X270933Y277625D01*
G01X276100Y276500D02*
Y284000D01*
X274980Y282500D01*
G01Y276500D02*
X277220D01*
G01X278933Y256400D02*
Y263900D01*
X281267D01*
X282013Y263525D01*
X282480Y263025D01*
X282667Y262025D01*
X282480Y261025D01*
X281920Y260400D01*
X281267Y260025D01*
X278933D01*
G01X281267D02*
X282667Y256400D01*
G01X288300D02*
Y263900D01*
X287180Y262400D01*
G01Y256400D02*
X289420D01*
G01X283800Y286300D02*
X280425D01*
X276300Y284433D01*
G01Y288167D02*
X280425Y286300D01*
G01X283800Y293800D02*
X276300D01*
X277800Y292680D01*
G01X283800D02*
Y294920D01*
G01X281753Y328075D02*
X281193Y328450D01*
X280540Y328700D01*
X279793D01*
X278953Y328325D01*
X278300Y327700D01*
X277833Y326950D01*
X277460Y325700D01*
X277367Y324575D01*
X277553Y323450D01*
X277833Y322700D01*
X278393Y321950D01*
X279047Y321450D01*
X279700Y321200D01*
X280353D01*
X281007Y321450D01*
X281567Y321825D01*
X282033Y322325D01*
G01X287200Y321200D02*
Y328700D01*
X286080Y327200D01*
G01Y321200D02*
X288320D01*
G01X292647Y322700D02*
X293207Y321825D01*
X293953Y321325D01*
X294793Y321200D01*
X295540Y321325D01*
X296287Y321950D01*
X296753Y322700D01*
X296847Y323450D01*
X296660Y324325D01*
X296007Y324950D01*
X295353Y325200D01*
X294513D01*
G01X295353D02*
X295913Y325575D01*
X296380Y326200D01*
X296567Y326950D01*
X296380Y327700D01*
X295913Y328325D01*
X295073Y328700D01*
X294233Y328575D01*
X293393Y328075D01*
G01X264653Y319875D02*
X264093Y320250D01*
X263440Y320500D01*
X262693D01*
X261853Y320125D01*
X261200Y319500D01*
X260733Y318750D01*
X260360Y317500D01*
X260267Y316375D01*
X260453Y315250D01*
X260733Y314500D01*
X261293Y313750D01*
X261947Y313250D01*
X262600Y313000D01*
X263253D01*
X263907Y313250D01*
X264467Y313625D01*
X264933Y314125D01*
G01X270100Y313000D02*
Y320500D01*
X268980Y319000D01*
G01Y313000D02*
X271220D01*
G01X275827Y319250D02*
X276387Y320000D01*
X277040Y320375D01*
X277787Y320500D01*
X278720Y320250D01*
X279373Y319625D01*
X279560Y318875D01*
X279467Y318125D01*
X279093Y317500D01*
X277227Y316250D01*
X276387Y315375D01*
X275827Y314125D01*
X275640Y313000D01*
X279560D01*
G01X277153Y303575D02*
X276593Y303950D01*
X275940Y304200D01*
X275193D01*
X274353Y303825D01*
X273700Y303200D01*
X273233Y302450D01*
X272860Y301200D01*
X272767Y300075D01*
X272953Y298950D01*
X273233Y298200D01*
X273793Y297450D01*
X274447Y296950D01*
X275100Y296700D01*
X275753D01*
X276407Y296950D01*
X276967Y297325D01*
X277433Y297825D01*
G01X280827Y302950D02*
X281387Y303700D01*
X282040Y304075D01*
X282787Y304200D01*
X283720Y303950D01*
X284373Y303325D01*
X284560Y302575D01*
X284467Y301825D01*
X284093Y301200D01*
X282227Y299950D01*
X281387Y299075D01*
X280827Y297825D01*
X280640Y296700D01*
X284560D01*
G01X260533Y302900D02*
Y310400D01*
X262867D01*
X263613Y310025D01*
X264080Y309525D01*
X264267Y308525D01*
X264080Y307525D01*
X263520Y306900D01*
X262867Y306525D01*
X260533D01*
G01X262867D02*
X264267Y302900D01*
G01X268127Y309150D02*
X268687Y309900D01*
X269340Y310275D01*
X270087Y310400D01*
X271020Y310150D01*
X271673Y309525D01*
X271860Y308775D01*
X271767Y308025D01*
X271393Y307400D01*
X269527Y306150D01*
X268687Y305275D01*
X268127Y304025D01*
X267940Y302900D01*
X271860D01*
G01X275363Y343468D02*
X279283Y350968D01*
G01X275363D02*
X279283Y343468D01*
G01X284823D02*
Y350968D01*
X283703Y349468D01*
G01Y343468D02*
X285943D01*
G01X314350Y37600D02*
X313603Y37725D01*
X312950Y38225D01*
X312390Y38975D01*
X312017Y39850D01*
X311830Y40850D01*
Y41850D01*
X312017Y42850D01*
X312390Y43725D01*
X312950Y44475D01*
X313603Y44975D01*
X314350Y45100D01*
X315097Y44975D01*
X315750Y44475D01*
X316310Y43725D01*
X316683Y42850D01*
X316870Y41850D01*
Y40850D01*
X316683Y39850D01*
X316310Y38975D01*
X315750Y38225D01*
X315097Y37725D01*
X314350Y37600D01*
G01X315097Y39600D02*
X316217Y37600D01*
G01X321850D02*
Y45100D01*
X320730Y43600D01*
G01Y37600D02*
X322970D01*
G01X288753Y46575D02*
X288193Y46950D01*
X287540Y47200D01*
X286793D01*
X285953Y46825D01*
X285300Y46200D01*
X284833Y45450D01*
X284460Y44200D01*
X284367Y43075D01*
X284553Y41950D01*
X284833Y41200D01*
X285393Y40450D01*
X286047Y39950D01*
X286700Y39700D01*
X287353D01*
X288007Y39950D01*
X288567Y40325D01*
X289033Y40825D01*
G01X292427Y45950D02*
X292987Y46700D01*
X293640Y47075D01*
X294387Y47200D01*
X295320Y46950D01*
X295973Y46325D01*
X296160Y45575D01*
X296067Y44825D01*
X295693Y44200D01*
X293827Y42950D01*
X292987Y42075D01*
X292427Y40825D01*
X292240Y39700D01*
X296160D01*
G01X299927Y45950D02*
X300487Y46700D01*
X301140Y47075D01*
X301887Y47200D01*
X302820Y46950D01*
X303473Y46325D01*
X303660Y45575D01*
X303567Y44825D01*
X303193Y44200D01*
X301327Y42950D01*
X300487Y42075D01*
X299927Y40825D01*
X299740Y39700D01*
X303660D01*
G01X290353Y23575D02*
X289793Y23950D01*
X289140Y24200D01*
X288393D01*
X287553Y23825D01*
X286900Y23200D01*
X286433Y22450D01*
X286060Y21200D01*
X285967Y20075D01*
X286153Y18950D01*
X286433Y18200D01*
X286993Y17450D01*
X287647Y16950D01*
X288300Y16700D01*
X288953D01*
X289607Y16950D01*
X290167Y17325D01*
X290633Y17825D01*
G01X294027Y22950D02*
X294587Y23700D01*
X295240Y24075D01*
X295987Y24200D01*
X296920Y23950D01*
X297573Y23325D01*
X297760Y22575D01*
X297667Y21825D01*
X297293Y21200D01*
X295427Y19950D01*
X294587Y19075D01*
X294027Y17825D01*
X293840Y16700D01*
X297760D01*
G01X303300D02*
Y24200D01*
X302180Y22700D01*
G01Y16700D02*
X304420D01*
G01X320683Y22800D02*
X321150Y22050D01*
X321710Y21550D01*
X322363Y21300D01*
X323110Y21550D01*
X323670Y22050D01*
X324230Y22800D01*
X324417Y23800D01*
Y28800D01*
G01X327997Y22800D02*
X328557Y21925D01*
X329303Y21425D01*
X330143Y21300D01*
X330890Y21425D01*
X331637Y22050D01*
X332103Y22800D01*
X332197Y23550D01*
X332010Y24425D01*
X331357Y25050D01*
X330703Y25300D01*
X329863D01*
G01X330703D02*
X331263Y25675D01*
X331730Y26300D01*
X331917Y27050D01*
X331730Y27800D01*
X331263Y28425D01*
X330423Y28800D01*
X329583Y28675D01*
X328743Y28175D01*
G01X302833Y28200D02*
Y35700D01*
X305167D01*
X305913Y35325D01*
X306380Y34825D01*
X306567Y33825D01*
X306380Y32825D01*
X305820Y32200D01*
X305167Y31825D01*
X302833D01*
G01X305167D02*
X306567Y28200D01*
G01X310147Y29325D02*
X310707Y28700D01*
X311360Y28325D01*
X312200Y28200D01*
X313040Y28450D01*
X313693Y28950D01*
X314160Y29825D01*
X314253Y30825D01*
X314067Y31825D01*
X313600Y32450D01*
X312947Y32950D01*
X312293Y33075D01*
X311640Y32950D01*
X310800Y32450D01*
X311080Y35700D01*
X313600D01*
G01X306133Y47300D02*
Y54800D01*
X308467D01*
X309213Y54425D01*
X309680Y53925D01*
X309867Y52925D01*
X309680Y51925D01*
X309120Y51300D01*
X308467Y50925D01*
X306133D01*
G01X308467D02*
X309867Y47300D01*
G01X315500D02*
X316153Y47425D01*
X316900Y47800D01*
X317367Y48425D01*
X317553Y49300D01*
X317367Y50175D01*
X316807Y50925D01*
X315967Y51300D01*
X315033D01*
X314473Y51550D01*
X314007Y52175D01*
X313820Y53050D01*
X314100Y53925D01*
X314753Y54550D01*
X315500Y54800D01*
X316247Y54550D01*
X316900Y53925D01*
X317180Y53050D01*
X316993Y52175D01*
X316527Y51550D01*
X315967Y51300D01*
X315033D01*
X314193Y50925D01*
X313633Y50175D01*
X313447Y49300D01*
X313633Y48425D01*
X314100Y47800D01*
X314847Y47425D01*
X315500Y47300D01*
G01X296383Y69800D02*
Y62300D01*
X300117D01*
G01X307617D02*
X303883D01*
Y69800D01*
X307617D01*
G01X306123Y66175D02*
X303883D01*
G01X311197Y62300D02*
Y69800D01*
X313063D01*
X313810Y69425D01*
X314370Y68925D01*
X314837Y68175D01*
X315210Y67300D01*
X315303Y66050D01*
X315210Y64800D01*
X314837Y63925D01*
X314370Y63175D01*
X313810Y62675D01*
X313063Y62300D01*
X311197D01*
G01X318977Y68550D02*
X319537Y69300D01*
X320190Y69675D01*
X320937Y69800D01*
X321870Y69550D01*
X322523Y68925D01*
X322710Y68175D01*
X322617Y67425D01*
X322243Y66800D01*
X320377Y65550D01*
X319537Y64675D01*
X318977Y63425D01*
X318790Y62300D01*
X322710D01*
G01X285933Y95100D02*
Y102600D01*
X288267D01*
X289013Y102225D01*
X289480Y101725D01*
X289667Y100725D01*
X289480Y99725D01*
X288920Y99100D01*
X288267Y98725D01*
X285933D01*
G01X288267D02*
X289667Y95100D01*
G01X295300D02*
Y102600D01*
X294180Y101100D01*
G01Y95100D02*
X296420D01*
G01X302613D02*
X302800Y96725D01*
X303080Y98100D01*
X303453Y99350D01*
X303920Y100725D01*
X304667Y102600D01*
X300933D01*
G01X296633Y129600D02*
Y137100D01*
X298967D01*
X299713Y136725D01*
X300180Y136225D01*
X300367Y135225D01*
X300180Y134225D01*
X299620Y133600D01*
X298967Y133225D01*
X296633D01*
G01X298967D02*
X300367Y129600D01*
G01X306000D02*
Y137100D01*
X304880Y135600D01*
G01Y129600D02*
X307120D01*
G01X311447Y131100D02*
X312007Y130225D01*
X312753Y129725D01*
X313593Y129600D01*
X314340Y129725D01*
X315087Y130350D01*
X315553Y131100D01*
X315647Y131850D01*
X315460Y132725D01*
X314807Y133350D01*
X314153Y133600D01*
X313313D01*
G01X314153D02*
X314713Y133975D01*
X315180Y134600D01*
X315367Y135350D01*
X315180Y136100D01*
X314713Y136725D01*
X313873Y137100D01*
X313033Y136975D01*
X312193Y136475D01*
G01X303833Y161600D02*
Y169100D01*
X306167D01*
X306913Y168725D01*
X307380Y168225D01*
X307567Y167225D01*
X307380Y166225D01*
X306820Y165600D01*
X306167Y165225D01*
X303833D01*
G01X306167D02*
X307567Y161600D01*
G01X313200D02*
Y169100D01*
X312080Y167600D01*
G01Y161600D02*
X314320D01*
G01X318647Y162725D02*
X319207Y162100D01*
X319860Y161725D01*
X320700Y161600D01*
X321540Y161850D01*
X322193Y162350D01*
X322660Y163225D01*
X322753Y164225D01*
X322567Y165225D01*
X322100Y165850D01*
X321447Y166350D01*
X320793Y166475D01*
X320140Y166350D01*
X319300Y165850D01*
X319580Y169100D01*
X322100D01*
G01X310747Y269700D02*
Y264325D01*
X311120Y263200D01*
X311867Y262450D01*
X312800Y262200D01*
X313733Y262450D01*
X314480Y263200D01*
X314853Y264325D01*
Y269700D01*
G01X320300Y262200D02*
Y269700D01*
X319180Y268200D01*
G01Y262200D02*
X321420D01*
G01X303253Y261975D02*
X302693Y262350D01*
X302040Y262600D01*
X301293D01*
X300453Y262225D01*
X299800Y261600D01*
X299333Y260850D01*
X298960Y259600D01*
X298867Y258475D01*
X299053Y257350D01*
X299333Y256600D01*
X299893Y255850D01*
X300547Y255350D01*
X301200Y255100D01*
X301853D01*
X302507Y255350D01*
X303067Y255725D01*
X303533Y256225D01*
G01X306647Y256600D02*
X307207Y255725D01*
X307953Y255225D01*
X308793Y255100D01*
X309540Y255225D01*
X310287Y255850D01*
X310753Y256600D01*
X310847Y257350D01*
X310660Y258225D01*
X310007Y258850D01*
X309353Y259100D01*
X308513D01*
G01X309353D02*
X309913Y259475D01*
X310380Y260100D01*
X310567Y260850D01*
X310380Y261600D01*
X309913Y262225D01*
X309073Y262600D01*
X308233Y262475D01*
X307393Y261975D01*
G01X296925Y285353D02*
X296550Y284793D01*
X296300Y284140D01*
Y283393D01*
X296675Y282553D01*
X297300Y281900D01*
X298050Y281433D01*
X299300Y281060D01*
X300425Y280967D01*
X301550Y281153D01*
X302300Y281433D01*
X303050Y281993D01*
X303550Y282647D01*
X303800Y283300D01*
Y283953D01*
X303550Y284607D01*
X303175Y285167D01*
X302675Y285633D01*
G01X302925Y289213D02*
X303550Y289867D01*
X303800Y290613D01*
X303550Y291360D01*
X302800Y292013D01*
X301675Y292480D01*
X300550Y292667D01*
X299175D01*
X298050Y292480D01*
X297050Y292013D01*
X296550Y291453D01*
X296300Y290800D01*
X296550Y290053D01*
X297050Y289493D01*
X297800Y289120D01*
X298800Y288933D01*
X299675Y289120D01*
X300550Y289587D01*
X301050Y290147D01*
X301175Y290800D01*
X300925Y291547D01*
X300300Y292107D01*
X299175Y292667D01*
G01X309625Y304353D02*
X309250Y303793D01*
X309000Y303140D01*
Y302393D01*
X309375Y301553D01*
X310000Y300900D01*
X310750Y300433D01*
X312000Y300060D01*
X313125Y299967D01*
X314250Y300153D01*
X315000Y300433D01*
X315750Y300993D01*
X316250Y301647D01*
X316500Y302300D01*
Y302953D01*
X316250Y303607D01*
X315875Y304167D01*
X315375Y304633D01*
G01X316500Y310920D02*
X309000D01*
X314375Y307467D01*
Y312133D01*
G01X308825Y323553D02*
X308450Y322993D01*
X308200Y322340D01*
Y321593D01*
X308575Y320753D01*
X309200Y320100D01*
X309950Y319633D01*
X311200Y319260D01*
X312325Y319167D01*
X313450Y319353D01*
X314200Y319633D01*
X314950Y320193D01*
X315450Y320847D01*
X315700Y321500D01*
Y322153D01*
X315450Y322807D01*
X315075Y323367D01*
X314575Y323833D01*
G01Y326947D02*
X315200Y327507D01*
X315575Y328160D01*
X315700Y329000D01*
X315450Y329840D01*
X314950Y330493D01*
X314075Y330960D01*
X313075Y331053D01*
X312075Y330867D01*
X311450Y330400D01*
X310950Y329747D01*
X310825Y329093D01*
X310950Y328440D01*
X311450Y327600D01*
X308200Y327880D01*
Y330400D01*
G01X297833Y323600D02*
Y316100D01*
X301567D01*
G01X307200D02*
Y323600D01*
X306080Y322100D01*
G01Y316100D02*
X308320D01*
G01X297000Y332033D02*
X304500D01*
Y335767D01*
G01X298250Y339627D02*
X297500Y340187D01*
X297125Y340840D01*
X297000Y341587D01*
X297250Y342520D01*
X297875Y343173D01*
X298625Y343360D01*
X299375Y343267D01*
X300000Y342893D01*
X301250Y341027D01*
X302125Y340187D01*
X303375Y339627D01*
X304500Y339440D01*
Y343360D01*
G01X296000Y349333D02*
X303500D01*
Y353067D01*
G01X302000Y356647D02*
X302875Y357207D01*
X303375Y357953D01*
X303500Y358793D01*
X303375Y359540D01*
X302750Y360287D01*
X302000Y360753D01*
X301250Y360847D01*
X300375Y360660D01*
X299750Y360007D01*
X299500Y359353D01*
Y358513D01*
G01Y359353D02*
X299125Y359913D01*
X298500Y360380D01*
X297750Y360567D01*
X297000Y360380D01*
X296375Y359913D01*
X296000Y359073D01*
X296125Y358233D01*
X296625Y357393D01*
G01X357250Y34300D02*
X356503Y34425D01*
X355850Y34925D01*
X355290Y35675D01*
X354917Y36550D01*
X354730Y37550D01*
Y38550D01*
X354917Y39550D01*
X355290Y40425D01*
X355850Y41175D01*
X356503Y41675D01*
X357250Y41800D01*
X357997Y41675D01*
X358650Y41175D01*
X359210Y40425D01*
X359583Y39550D01*
X359770Y38550D01*
Y37550D01*
X359583Y36550D01*
X359210Y35675D01*
X358650Y34925D01*
X357997Y34425D01*
X357250Y34300D01*
G01X357997Y36300D02*
X359117Y34300D01*
G01X362977Y40550D02*
X363537Y41300D01*
X364190Y41675D01*
X364937Y41800D01*
X365870Y41550D01*
X366523Y40925D01*
X366710Y40175D01*
X366617Y39425D01*
X366243Y38800D01*
X364377Y37550D01*
X363537Y36675D01*
X362977Y35425D01*
X362790Y34300D01*
X366710D01*
G01X341133Y20400D02*
Y27900D01*
X343467D01*
X344213Y27525D01*
X344680Y27025D01*
X344867Y26025D01*
X344680Y25025D01*
X344120Y24400D01*
X343467Y24025D01*
X341133D01*
G01X343467D02*
X344867Y20400D01*
G01X348727Y23525D02*
X349380Y24400D01*
X349940Y24900D01*
X350687Y25150D01*
X351340Y24900D01*
X351807Y24400D01*
X352180Y23650D01*
X352273Y22775D01*
X352180Y22025D01*
X351807Y21275D01*
X351247Y20650D01*
X350593Y20400D01*
X349847Y20650D01*
X349193Y21400D01*
X348820Y22525D01*
X348727Y23775D01*
X348913Y25400D01*
X349193Y26275D01*
X349660Y27150D01*
X350313Y27775D01*
X350967Y27900D01*
X351620Y27650D01*
X352087Y27025D01*
G01X354333Y49700D02*
Y57200D01*
X356667D01*
X357413Y56825D01*
X357880Y56325D01*
X358067Y55325D01*
X357880Y54325D01*
X357320Y53700D01*
X356667Y53325D01*
X354333D01*
G01X356667D02*
X358067Y49700D01*
G01X362113Y50575D02*
X362767Y49950D01*
X363513Y49700D01*
X364260Y49950D01*
X364913Y50700D01*
X365380Y51825D01*
X365567Y52950D01*
Y54325D01*
X365380Y55450D01*
X364913Y56450D01*
X364353Y56950D01*
X363700Y57200D01*
X362953Y56950D01*
X362393Y56450D01*
X362020Y55700D01*
X361833Y54700D01*
X362020Y53825D01*
X362487Y52950D01*
X363047Y52450D01*
X363700Y52325D01*
X364447Y52575D01*
X365007Y53200D01*
X365567Y54325D01*
G01X349683Y69200D02*
Y61700D01*
X353417D01*
G01X360917D02*
X357183D01*
Y69200D01*
X360917D01*
G01X359423Y65575D02*
X357183D01*
G01X364497Y61700D02*
Y69200D01*
X366363D01*
X367110Y68825D01*
X367670Y68325D01*
X368137Y67575D01*
X368510Y66700D01*
X368603Y65450D01*
X368510Y64200D01*
X368137Y63325D01*
X367670Y62575D01*
X367110Y62075D01*
X366363Y61700D01*
X364497D01*
G01X371997Y63200D02*
X372557Y62325D01*
X373303Y61825D01*
X374143Y61700D01*
X374890Y61825D01*
X375637Y62450D01*
X376103Y63200D01*
X376197Y63950D01*
X376010Y64825D01*
X375357Y65450D01*
X374703Y65700D01*
X373863D01*
G01X374703D02*
X375263Y66075D01*
X375730Y66700D01*
X375917Y67450D01*
X375730Y68200D01*
X375263Y68825D01*
X374423Y69200D01*
X373583Y69075D01*
X372743Y68575D01*
G01X327547Y101400D02*
Y96025D01*
X327920Y94900D01*
X328667Y94150D01*
X329600Y93900D01*
X330533Y94150D01*
X331280Y94900D01*
X331653Y96025D01*
Y101400D01*
G01X335047Y95025D02*
X335607Y94400D01*
X336260Y94025D01*
X337100Y93900D01*
X337940Y94150D01*
X338593Y94650D01*
X339060Y95525D01*
X339153Y96525D01*
X338967Y97525D01*
X338500Y98150D01*
X337847Y98650D01*
X337193Y98775D01*
X336540Y98650D01*
X335700Y98150D01*
X335980Y101400D01*
X338500D01*
G01X340053Y272175D02*
X339493Y272550D01*
X338840Y272800D01*
X338093D01*
X337253Y272425D01*
X336600Y271800D01*
X336133Y271050D01*
X335760Y269800D01*
X335667Y268675D01*
X335853Y267550D01*
X336133Y266800D01*
X336693Y266050D01*
X337347Y265550D01*
X338000Y265300D01*
X338653D01*
X339307Y265550D01*
X339867Y265925D01*
X340333Y266425D01*
G01X345500Y265300D02*
X346153Y265425D01*
X346900Y265800D01*
X347367Y266425D01*
X347553Y267300D01*
X347367Y268175D01*
X346807Y268925D01*
X345967Y269300D01*
X345033D01*
X344473Y269550D01*
X344007Y270175D01*
X343820Y271050D01*
X344100Y271925D01*
X344753Y272550D01*
X345500Y272800D01*
X346247Y272550D01*
X346900Y271925D01*
X347180Y271050D01*
X346993Y270175D01*
X346527Y269550D01*
X345967Y269300D01*
X345033D01*
X344193Y268925D01*
X343633Y268175D01*
X343447Y267300D01*
X343633Y266425D01*
X344100Y265800D01*
X344847Y265425D01*
X345500Y265300D01*
G01X345133Y277600D02*
Y285100D01*
X347467D01*
X348213Y284725D01*
X348680Y284225D01*
X348867Y283225D01*
X348680Y282225D01*
X348120Y281600D01*
X347467Y281225D01*
X345133D01*
G01X347467D02*
X348867Y277600D01*
G01X355620D02*
Y285100D01*
X352167Y279725D01*
X356833D01*
G01X363900Y311700D02*
X360525D01*
X356400Y309833D01*
G01Y313567D02*
X360525Y311700D01*
G01X357650Y317427D02*
X356900Y317987D01*
X356525Y318640D01*
X356400Y319387D01*
X356650Y320320D01*
X357275Y320973D01*
X358025Y321160D01*
X358775Y321067D01*
X359400Y320693D01*
X360650Y318827D01*
X361525Y317987D01*
X362775Y317427D01*
X363900Y317240D01*
Y321160D01*
G01X324825Y304953D02*
X324450Y304393D01*
X324200Y303740D01*
Y302993D01*
X324575Y302153D01*
X325200Y301500D01*
X325950Y301033D01*
X327200Y300660D01*
X328325Y300567D01*
X329450Y300753D01*
X330200Y301033D01*
X330950Y301593D01*
X331450Y302247D01*
X331700Y302900D01*
Y303553D01*
X331450Y304207D01*
X331075Y304767D01*
X330575Y305233D01*
G01X328575Y308627D02*
X327700Y309280D01*
X327200Y309840D01*
X326950Y310587D01*
X327200Y311240D01*
X327700Y311707D01*
X328450Y312080D01*
X329325Y312173D01*
X330075Y312080D01*
X330825Y311707D01*
X331450Y311147D01*
X331700Y310493D01*
X331450Y309747D01*
X330700Y309093D01*
X329575Y308720D01*
X328325Y308627D01*
X326700Y308813D01*
X325825Y309093D01*
X324950Y309560D01*
X324325Y310213D01*
X324200Y310867D01*
X324450Y311520D01*
X325075Y311987D01*
G01X338253Y329075D02*
X337693Y329450D01*
X337040Y329700D01*
X336293D01*
X335453Y329325D01*
X334800Y328700D01*
X334333Y327950D01*
X333960Y326700D01*
X333867Y325575D01*
X334053Y324450D01*
X334333Y323700D01*
X334893Y322950D01*
X335547Y322450D01*
X336200Y322200D01*
X336853D01*
X337507Y322450D01*
X338067Y322825D01*
X338533Y323325D01*
G01X343700Y322200D02*
Y329700D01*
X342580Y328200D01*
G01Y322200D02*
X344820D01*
G01X352320D02*
Y329700D01*
X348867Y324325D01*
X353533D01*
G01X347853Y303675D02*
X347293Y304050D01*
X346640Y304300D01*
X345893D01*
X345053Y303925D01*
X344400Y303300D01*
X343933Y302550D01*
X343560Y301300D01*
X343467Y300175D01*
X343653Y299050D01*
X343933Y298300D01*
X344493Y297550D01*
X345147Y297050D01*
X345800Y296800D01*
X346453D01*
X347107Y297050D01*
X347667Y297425D01*
X348133Y297925D01*
G01X353300Y296800D02*
Y304300D01*
X352180Y302800D01*
G01Y296800D02*
X354420D01*
G01X360800D02*
Y304300D01*
X359680Y302800D01*
G01Y296800D02*
X361920D01*
G01X334925Y305153D02*
X334550Y304593D01*
X334300Y303940D01*
Y303193D01*
X334675Y302353D01*
X335300Y301700D01*
X336050Y301233D01*
X337300Y300860D01*
X338425Y300767D01*
X339550Y300953D01*
X340300Y301233D01*
X341050Y301793D01*
X341550Y302447D01*
X341800Y303100D01*
Y303753D01*
X341550Y304407D01*
X341175Y304967D01*
X340675Y305433D01*
G01X341800Y310600D02*
X334300D01*
X335800Y309480D01*
G01X341800D02*
Y311720D01*
G01X334300Y318100D02*
X334550Y317353D01*
X335175Y316793D01*
X335925Y316420D01*
X336925Y316140D01*
X338050Y316047D01*
X339175Y316140D01*
X340175Y316420D01*
X340925Y316793D01*
X341550Y317353D01*
X341800Y318100D01*
X341550Y318847D01*
X340925Y319407D01*
X340175Y319780D01*
X339175Y320060D01*
X338050Y320153D01*
X336925Y320060D01*
X335925Y319780D01*
X335175Y319407D01*
X334550Y318847D01*
X334300Y318100D01*
G01X362753Y294875D02*
X362193Y295250D01*
X361540Y295500D01*
X360793D01*
X359953Y295125D01*
X359300Y294500D01*
X358833Y293750D01*
X358460Y292500D01*
X358367Y291375D01*
X358553Y290250D01*
X358833Y289500D01*
X359393Y288750D01*
X360047Y288250D01*
X360700Y288000D01*
X361353D01*
X362007Y288250D01*
X362567Y288625D01*
X363033Y289125D01*
G01X368200Y288000D02*
Y295500D01*
X367080Y294000D01*
G01Y288000D02*
X369320D01*
G01X375700D02*
X376353Y288125D01*
X377100Y288500D01*
X377567Y289125D01*
X377753Y290000D01*
X377567Y290875D01*
X377007Y291625D01*
X376167Y292000D01*
X375233D01*
X374673Y292250D01*
X374207Y292875D01*
X374020Y293750D01*
X374300Y294625D01*
X374953Y295250D01*
X375700Y295500D01*
X376447Y295250D01*
X377100Y294625D01*
X377380Y293750D01*
X377193Y292875D01*
X376727Y292250D01*
X376167Y292000D01*
X375233D01*
X374393Y291625D01*
X373833Y290875D01*
X373647Y290000D01*
X373833Y289125D01*
X374300Y288500D01*
X375047Y288125D01*
X375700Y288000D01*
G01X325800Y319133D02*
X333300D01*
Y322867D01*
G01Y329620D02*
X325800D01*
X331175Y326167D01*
Y330833D01*
G01X336453Y340275D02*
X335893Y340650D01*
X335240Y340900D01*
X334493D01*
X333653Y340525D01*
X333000Y339900D01*
X332533Y339150D01*
X332160Y337900D01*
X332067Y336775D01*
X332253Y335650D01*
X332533Y334900D01*
X333093Y334150D01*
X333747Y333650D01*
X334400Y333400D01*
X335053D01*
X335707Y333650D01*
X336267Y334025D01*
X336733Y334525D01*
G01X341900Y333400D02*
Y340900D01*
X340780Y339400D01*
G01Y333400D02*
X343020D01*
G01X347347Y334525D02*
X347907Y333900D01*
X348560Y333525D01*
X349400Y333400D01*
X350240Y333650D01*
X350893Y334150D01*
X351360Y335025D01*
X351453Y336025D01*
X351267Y337025D01*
X350800Y337650D01*
X350147Y338150D01*
X349493Y338275D01*
X348840Y338150D01*
X348000Y337650D01*
X348280Y340900D01*
X350800D01*
G01X332933Y347700D02*
Y355200D01*
X335267D01*
X336013Y354825D01*
X336480Y354325D01*
X336667Y353325D01*
X336480Y352325D01*
X335920Y351700D01*
X335267Y351325D01*
X332933D01*
G01X335267D02*
X336667Y347700D01*
G01X340247Y349200D02*
X340807Y348325D01*
X341553Y347825D01*
X342393Y347700D01*
X343140Y347825D01*
X343887Y348450D01*
X344353Y349200D01*
X344447Y349950D01*
X344260Y350825D01*
X343607Y351450D01*
X342953Y351700D01*
X342113D01*
G01X342953D02*
X343513Y352075D01*
X343980Y352700D01*
X344167Y353450D01*
X343980Y354200D01*
X343513Y354825D01*
X342673Y355200D01*
X341833Y355075D01*
X340993Y354575D01*
G01X371183Y23100D02*
X371650Y22350D01*
X372210Y21850D01*
X372863Y21600D01*
X373610Y21850D01*
X374170Y22350D01*
X374730Y23100D01*
X374917Y24100D01*
Y29100D01*
G01X378777Y27850D02*
X379337Y28600D01*
X379990Y28975D01*
X380737Y29100D01*
X381670Y28850D01*
X382323Y28225D01*
X382510Y27475D01*
X382417Y26725D01*
X382043Y26100D01*
X380177Y24850D01*
X379337Y23975D01*
X378777Y22725D01*
X378590Y21600D01*
X382510D01*
G01X373383Y183700D02*
X373850Y182950D01*
X374410Y182450D01*
X375063Y182200D01*
X375810Y182450D01*
X376370Y182950D01*
X376930Y183700D01*
X377117Y184700D01*
Y189700D01*
G01X382750Y182200D02*
Y189700D01*
X381630Y188200D01*
G01Y182200D02*
X383870D01*
G01X368253Y309675D02*
X367693Y310050D01*
X367040Y310300D01*
X366293D01*
X365453Y309925D01*
X364800Y309300D01*
X364333Y308550D01*
X363960Y307300D01*
X363867Y306175D01*
X364053Y305050D01*
X364333Y304300D01*
X364893Y303550D01*
X365547Y303050D01*
X366200Y302800D01*
X366853D01*
X367507Y303050D01*
X368067Y303425D01*
X368533Y303925D01*
G01X373700Y302800D02*
Y310300D01*
X372580Y308800D01*
G01Y302800D02*
X374820D01*
G01X379427Y305925D02*
X380080Y306800D01*
X380640Y307300D01*
X381387Y307550D01*
X382040Y307300D01*
X382507Y306800D01*
X382880Y306050D01*
X382973Y305175D01*
X382880Y304425D01*
X382507Y303675D01*
X381947Y303050D01*
X381293Y302800D01*
X380547Y303050D01*
X379893Y303800D01*
X379520Y304925D01*
X379427Y306175D01*
X379613Y307800D01*
X379893Y308675D01*
X380360Y309550D01*
X381013Y310175D01*
X381667Y310300D01*
X382320Y310050D01*
X382787Y309425D01*
G01X364925Y326753D02*
X364550Y326193D01*
X364300Y325540D01*
Y324793D01*
X364675Y323953D01*
X365300Y323300D01*
X366050Y322833D01*
X367300Y322460D01*
X368425Y322367D01*
X369550Y322553D01*
X370300Y322833D01*
X371050Y323393D01*
X371550Y324047D01*
X371800Y324700D01*
Y325353D01*
X371550Y326007D01*
X371175Y326567D01*
X370675Y327033D01*
G01X371800Y332200D02*
X364300D01*
X365800Y331080D01*
G01X371800D02*
Y333320D01*
G01Y339513D02*
X370175Y339700D01*
X368800Y339980D01*
X367550Y340353D01*
X366175Y340820D01*
X364300Y341567D01*
Y337833D01*
G54D12*
G01X226619Y39328D02*
X225831D01*
G01X226619Y42872D02*
X225831D01*
G01X226619D02*
X225831D01*
G01X226619Y39328D02*
X225831D01*
G01X249181Y41372D02*
X249969D01*
G01X249181Y37828D02*
X249969D01*
G01X249181D02*
X249969D01*
G01X249181Y41372D02*
X249969D01*
G01X281219Y25028D02*
X280431D01*
G01X281219Y28572D02*
X280431D01*
G01X281219D02*
X280431D01*
G01X281219Y25028D02*
X280431D01*
G01X248981Y32972D02*
X249769D01*
G01X248981Y29428D02*
X249769D01*
G01X248981D02*
X249769D01*
G01X248981Y32972D02*
X249769D01*
G01X284119Y266028D02*
X283331D01*
G01X284119Y269572D02*
X283331D01*
G01X284119D02*
X283331D01*
G01X284119Y266028D02*
X283331D01*
G01X293881Y35872D02*
X294669D01*
G01X293881Y32328D02*
X294669D01*
G01X293881D02*
X294669D01*
G01X293881Y35872D02*
X294669D01*
G01X293781Y28872D02*
X294569D01*
G01X293781Y25328D02*
X294569D01*
G01X293781D02*
X294569D01*
G01X293781Y28872D02*
X294569D01*
G01X306428Y24481D02*
Y25269D01*
G01X309972Y24481D02*
Y25269D01*
G01Y24481D02*
Y25269D01*
G01X306428Y24481D02*
Y25269D01*
G01X309825Y273314D02*
X309431D01*
X307857Y274889D01*
Y275283D01*
G01X309825Y273314D02*
X309431D01*
X307857Y274889D01*
Y275283D01*
G01X303981Y268772D02*
X304769D01*
G01X303981Y265228D02*
X304769D01*
G01X303981D02*
X304769D01*
G01X303981Y268772D02*
X304769D01*
G01X298719Y272728D02*
X297931D01*
G01X298719Y276272D02*
X297931D01*
G01X298719D02*
X297931D01*
G01X298719Y272728D02*
X297931D01*
G01X290219Y282128D02*
X289431D01*
G01X290219D02*
X289431D01*
G01X309825Y298314D02*
X307857D01*
Y296346D01*
G01X309825Y298314D02*
X307857D01*
Y296346D01*
G01X316528Y307681D02*
Y308469D01*
G01X320072Y307681D02*
Y308469D01*
G01Y307681D02*
Y308469D01*
G01X316528Y307681D02*
Y308469D01*
G01X320928Y307681D02*
Y308469D01*
G01Y307681D02*
Y308469D01*
G01X316528Y320881D02*
Y321669D01*
G01X320072Y320881D02*
Y321669D01*
G01Y320881D02*
Y321669D01*
G01X316528Y320881D02*
Y321669D01*
G01X305819Y311728D02*
X305031D01*
G01X305819Y315272D02*
X305031D01*
G01X305819D02*
X305031D01*
G01X305819Y311728D02*
X305031D01*
G01X299228Y298481D02*
Y299269D01*
G01X302772Y298481D02*
Y299269D01*
G01Y298481D02*
Y299269D01*
G01X299228Y298481D02*
Y299269D01*
G01X305819Y307028D02*
X305031D01*
G01X305819Y310572D02*
X305031D01*
G01X305819D02*
X305031D01*
G01X305819Y307028D02*
X305031D01*
G01X290819Y297628D02*
X290031D01*
G01X290819Y301172D02*
X290031D01*
G01X290819D02*
X290031D01*
G01X290819Y297628D02*
X290031D01*
G01X290219Y285672D02*
X289431D01*
G01X290219D02*
X289431D01*
G01X317119Y314428D02*
X316331D01*
G01X317119Y317972D02*
X316331D01*
G01X317119D02*
X316331D01*
G01X317119Y314428D02*
X316331D01*
G01X320928Y320881D02*
Y321669D01*
G01Y320881D02*
Y321669D01*
G01X307319Y301528D02*
X306531D01*
G01X307319Y305072D02*
X306531D01*
G01X307319D02*
X306531D01*
G01X307319Y301528D02*
X306531D01*
G01X288347Y291062D02*
Y292243D01*
G01X294253D02*
Y291259D01*
X294056Y291062D01*
G01X294253Y292243D02*
Y291259D01*
X294056Y291062D01*
G01X288347D02*
Y292243D01*
G01X318928Y328381D02*
Y329169D01*
G01X322472Y328381D02*
Y329169D01*
G01Y328381D02*
Y329169D01*
G01X318928Y328381D02*
Y329169D01*
G01Y335081D02*
Y335869D01*
G01X322472Y335081D02*
Y335869D01*
G01Y335081D02*
Y335869D01*
G01X318928Y335081D02*
Y335869D01*
G01X322619Y345628D02*
X321831D01*
G01X322619Y349172D02*
X321831D01*
G01X322619D02*
X321831D01*
G01X322619Y345628D02*
X321831D01*
G01X356828Y24281D02*
Y25069D01*
G01X360372Y24281D02*
Y25069D01*
G01Y24281D02*
Y25069D01*
G01X356828Y24281D02*
Y25069D01*
G01X329519Y51328D02*
X328731D01*
G01X329519Y54872D02*
X328731D01*
G01X329519D02*
X328731D01*
G01X329519Y51328D02*
X328731D01*
G01X346119Y51528D02*
X345331D01*
G01X346119Y55072D02*
X345331D01*
G01X346119D02*
X345331D01*
G01X346119Y51528D02*
X345331D01*
G01X332660Y275283D02*
Y273314D01*
X330691D01*
G01X332660Y275283D02*
Y273314D01*
X330691D01*
G01X330381Y270472D02*
X331169D01*
G01X330381Y266928D02*
X331169D01*
G01X330381D02*
X331169D01*
G01X330381Y270472D02*
X331169D01*
G01X330691Y298314D02*
X332660D01*
Y296346D01*
G01X330691Y298314D02*
X332660D01*
Y296346D01*
G01X324472Y307681D02*
Y308469D01*
G01Y307681D02*
Y308469D01*
G01X348219Y305028D02*
X347431D01*
G01X348219Y308572D02*
X347431D01*
G01X348219D02*
X347431D01*
G01X348219Y305028D02*
X347431D01*
G01X323881Y317972D02*
X324669D01*
G01X323881Y314428D02*
X324669D01*
G01X323881D02*
X324669D01*
G01X323881Y317972D02*
X324669D01*
G01X338181Y299572D02*
X338969D01*
G01X338181Y296028D02*
X338969D01*
G01X338181D02*
X338969D01*
G01X338181Y299572D02*
X338969D01*
G01X329428Y308181D02*
Y308969D01*
G01X332972Y308181D02*
Y308969D01*
G01Y308181D02*
Y308969D01*
G01X329428Y308181D02*
Y308969D01*
G01X347481Y296872D02*
X348269D01*
G01X347481Y293328D02*
X348269D01*
G01X347481D02*
X348269D01*
G01X347481Y296872D02*
X348269D01*
G01X337728Y316381D02*
Y317169D01*
G01X341272Y316381D02*
Y317169D01*
G01Y316381D02*
Y317169D01*
G01X337728Y316381D02*
Y317169D01*
G01X324472Y320881D02*
Y321669D01*
G01Y320881D02*
Y321669D01*
G01X347481Y292272D02*
X348269D01*
G01X347481Y288728D02*
X348269D01*
G01X347481D02*
X348269D01*
G01X347481Y292272D02*
X348269D01*
G01X324981Y333772D02*
X325769D01*
G01X324981Y330228D02*
X325769D01*
G01X324981D02*
X325769D01*
G01X324981Y333772D02*
X325769D01*
G54D13*
G01X-310208Y61324D02*
G03I-492J0D01*
G01D02*
G03I-492J0D01*
G01X-324900Y210300D02*
G03I-491J0D01*
G01D02*
G03I-491J0D01*
G01X-293018Y178309D02*
G03I-492J0D01*
G01D02*
G03X-293510Y178801I-492J0D01*
G01D02*
G03X-294002Y178309I0J-492D01*
G01D02*
G03X-293510Y177816I492J-1D01*
G01D02*
G03X-293018Y178309I0J492D01*
G01X-287338Y211500D02*
G03I-492J0D01*
G01D02*
G03I-492J0D01*
G01X-225711Y89200D02*
G03I-492J0D01*
G01D02*
G03I-492J0D01*
G01X-226111Y130200D02*
G03I-492J0D01*
G01D02*
G03I-492J0D01*
G01X-195908Y237385D02*
G03I-492J0D01*
G01X-215144Y286717D02*
G03I-493J0D01*
G01D02*
G03I-493J0D01*
G01X-185146Y174427D02*
G03I-493J0D01*
G01D02*
G03I-493J0D01*
G01X-151572Y356300D02*
G03I-492J0D01*
G01D02*
G03I-492J0D01*
G01X-137111Y72500D02*
G03I-492J0D01*
G01D02*
G03I-492J0D01*
G01X-129408Y138785D02*
G03I-492J0D01*
G01D02*
G03I-492J0D01*
G01X-114463Y164132D02*
G03I-492J0D01*
G01D02*
G03I-492J0D01*
G01X-122408Y191615D02*
G03I-492J0D01*
G01D02*
G03I-492J0D01*
G01X-114650Y308000D02*
G03I-493J0D01*
G01D02*
G03I-493J0D01*
G01X-43665Y27400D02*
G03I-492J0D01*
G01D02*
G03I-492J0D01*
G01X-35902Y188708D02*
G03I-492J0D01*
G01D02*
G03I-492J0D01*
G01X11703Y24579D02*
G03I-492J0D01*
G01D02*
G03I-492J0D01*
G01X115692Y476D02*
G03I-492J0D01*
G01D02*
G03I-492J0D01*
G01X140502Y6791D02*
G03I-492J0D01*
G01D02*
G03X140010Y7283I-492J0D01*
G01D02*
G03X139518Y6791I0J-492D01*
G01D02*
G03X140010Y6300I492J1D01*
G01D02*
G03X140502Y6791I0J492D01*
G01X129993Y147924D02*
G03I-493J0D01*
G01D02*
G03I-493J0D01*
G01X201592Y237785D02*
G03I-492J0D01*
G01X200751Y237438D02*
G03X201100Y237293I349J348D01*
G01D02*
G03X201449Y237438I0J493D01*
G01X178755Y286917D02*
G03I-492J0D01*
G01D02*
G03I-492J0D01*
G01X243677Y31000D02*
G03I-492J0D01*
G01D02*
G03I-492J0D01*
G01X271628Y11500D02*
G03I-492J0D01*
G01D02*
G03I-492J0D01*
G01X324702Y36091D02*
G03I-492J0D01*
G01X324210Y36583D02*
G03X323718Y36091I0J-492D01*
G01D02*
G03X324210Y35600I492J1D01*
G01X324702Y36091D02*
G03X324210Y36583I-492J0D01*
G01Y35600D02*
G03X324702Y36091I0J492D01*
G01X340902Y36591D02*
G03I-492J0D01*
G01D02*
G03X340410Y37083I-492J0D01*
G01D02*
G03X339918Y36591I0J-492D01*
G01D02*
G03X340410Y36100I492J1D01*
G01D02*
G03X340902Y36591I0J492D01*
G01X344792Y55810D02*
G03I-492J0D01*
G01D02*
G03I-492J0D01*
G01X328592Y56010D02*
G03I-492J0D01*
G01D02*
G03I-492J0D01*
G01X379692Y190036D02*
G03I-492J0D01*
G01D02*
G03I-492J0D01*
G54D14*
G01X-354769Y16283D02*
X-388628D01*
Y51717D01*
X-333509D01*
Y41087D01*
G01X-354769Y16283D02*
X-388628D01*
Y51717D01*
X-333509D01*
Y41284D01*
G01X-352439Y222505D02*
X-382773D01*
Y170536D01*
X-352439D01*
G01Y222505D02*
X-382773D01*
Y170536D01*
X-352439D01*
G01X-315739Y59061D02*
X-295661D01*
Y29139D01*
X-315739D01*
Y59061D01*
G01D02*
X-295661D01*
Y29139D01*
X-315739D01*
Y59061D01*
G01X-339809Y16283D02*
X-333509D01*
Y26913D01*
G01X-339809Y16283D02*
X-333509D01*
Y26716D01*
G01X-340800Y154119D02*
Y156481D01*
G01Y154119D02*
Y156481D01*
G01X-336100Y170536D02*
X-327655D01*
Y222505D01*
X-336100D01*
G01Y170536D02*
X-327655D01*
Y222505D01*
X-336100D01*
G01X-341000Y238081D02*
Y235719D01*
G01Y238081D02*
Y235719D01*
G01X-292357Y216028D02*
Y216815D01*
X-312043D01*
Y216028D01*
G01X-292357Y206972D02*
Y206185D01*
X-312043D01*
Y206972D01*
G01X-292357D02*
Y206185D01*
X-312043D01*
Y206972D01*
G01X-292357Y216028D02*
Y216815D01*
X-312043D01*
Y216028D01*
G01X-306109Y172600D02*
X-294691D01*
G01X-306109D02*
X-294691D01*
G01X-270400Y178381D02*
Y176019D01*
G01Y178381D02*
Y176019D01*
G01X-302919Y189500D02*
X-305281D01*
G01X-302919D02*
X-305281D01*
G01X-270800Y201381D02*
Y199019D01*
G01Y201381D02*
Y199019D01*
G01X-270500Y192981D02*
Y190619D01*
G01Y192981D02*
Y190619D01*
G01X-235400Y289919D02*
Y292281D01*
G01Y289919D02*
Y292281D01*
G01X-235700Y296419D02*
Y298781D01*
G01Y296419D02*
Y298781D01*
G01X-245119Y294000D02*
X-247481D01*
G01X-245119D02*
X-247481D01*
G01X-223939Y84279D02*
Y94121D01*
X-203861D01*
Y84279D01*
X-223939D01*
G01D02*
Y94121D01*
X-203861D01*
Y84279D01*
X-223939D01*
G01X-224339Y125279D02*
Y135121D01*
X-204261D01*
Y125279D01*
X-224339D01*
G01D02*
Y135121D01*
X-204261D01*
Y125279D01*
X-224339D01*
G01X-198881Y167000D02*
X-196519D01*
G01X-198881D02*
X-196519D01*
G01X-201321Y235121D02*
X-171794D01*
Y213468D01*
X-201321D01*
Y235121D01*
G01D02*
X-171794D01*
Y213468D01*
X-201321D01*
Y235121D01*
G01X-193000Y237319D02*
Y239681D01*
G01Y237319D02*
Y239681D01*
G01X-189300Y257019D02*
Y259381D01*
G01Y257019D02*
Y259381D01*
G01Y250419D02*
Y252781D01*
G01Y250419D02*
Y252781D01*
G01X-213800Y257719D02*
Y260081D01*
G01Y257719D02*
Y260081D01*
G01X-213600Y251219D02*
Y253581D01*
G01Y251219D02*
Y253581D01*
G01X-224781Y272800D02*
X-222419D01*
G01X-224781D02*
X-222419D01*
G01X-204500Y302719D02*
Y305081D01*
G01Y302719D02*
Y305081D01*
G01X-221719Y294200D02*
X-224081D01*
G01X-221719D02*
X-224081D01*
G01X-200881Y293100D02*
X-198519D01*
G01X-200881D02*
X-198519D01*
G01X-179438Y153167D02*
Y174033D01*
X-159162D01*
Y153167D01*
X-179438D01*
G01D02*
Y174033D01*
X-159162D01*
Y153167D01*
X-179438D01*
G01X-153919Y205200D02*
X-156281D01*
G01X-153919D02*
X-156281D01*
G01X-164300Y228919D02*
Y231281D01*
G01Y228919D02*
Y231281D01*
G01Y219581D02*
Y217219D01*
G01Y219581D02*
Y217219D01*
G01X-184500Y310019D02*
Y312381D01*
G01Y310019D02*
Y312381D01*
G01X-184400Y303519D02*
Y305881D01*
G01Y303519D02*
Y305881D01*
G01X-149800Y351379D02*
Y361221D01*
X-99800D01*
Y351379D01*
X-149800D01*
G01D02*
Y361221D01*
X-99800D01*
Y351379D01*
X-149800D01*
G01X-135339Y67461D02*
Y87539D01*
X-115261D01*
Y67461D01*
X-135339D01*
G01D02*
Y87539D01*
X-115261D01*
Y67461D01*
X-135339D01*
G01X-134821Y136521D02*
X-105294D01*
Y114868D01*
X-134821D01*
Y136521D01*
G01D02*
X-105294D01*
Y114868D01*
X-134821D01*
Y136521D01*
G01X-143681Y125700D02*
X-141319D01*
G01X-143681D02*
X-141319D01*
G01X-124000Y167281D02*
Y164919D01*
G01Y167281D02*
Y164919D01*
G01X-126700Y141919D02*
Y144281D01*
G01Y141919D02*
Y144281D01*
G01X-117979Y193879D02*
X-147506D01*
Y215532D01*
X-117979D01*
Y193879D01*
G01D02*
X-147506D01*
Y215532D01*
X-117979D01*
Y193879D01*
G01X-116648Y173955D02*
X-112711Y170018D01*
G01X-116648Y173168D02*
X-113498Y170018D01*
G01X-116648Y172380D02*
X-114286Y170018D01*
G01X-116648Y171593D02*
X-115073Y170018D01*
G01X-116648Y170806D02*
X-115861Y170018D01*
G01X-85152D02*
X-116648D01*
Y174782D01*
X-85152D01*
Y170018D01*
G01D02*
X-116648D01*
Y174782D01*
X-85152D01*
Y170018D01*
G01X-116648Y170806D02*
X-115861Y170018D01*
G01X-116648Y171593D02*
X-115073Y170018D01*
G01X-116648Y172380D02*
X-114286Y170018D01*
G01X-116648Y173168D02*
X-113498Y170018D01*
G01X-116648Y173955D02*
X-112711Y170018D01*
G01X-123600Y179581D02*
Y177219D01*
G01Y179581D02*
Y177219D01*
G01X-126500Y221319D02*
Y223681D01*
G01Y221319D02*
Y223681D01*
G01X-112879Y302961D02*
Y323039D01*
X-72721D01*
Y302961D01*
X-112879D01*
G01D02*
Y323039D01*
X-72721D01*
Y302961D01*
X-112879D01*
G01X-46421Y32439D02*
Y12361D01*
X-86579D01*
Y32439D01*
X-46421D01*
G01D02*
Y12361D01*
X-86579D01*
Y32439D01*
X-46421D01*
G01X-76200Y101681D02*
Y99319D01*
G01Y101681D02*
Y99319D01*
G01X-70119Y117300D02*
X-72481D01*
G01X-70119D02*
X-72481D01*
G01X-76700Y94081D02*
Y91719D01*
G01Y94081D02*
Y91719D01*
G01X-78000Y217181D02*
Y214819D01*
G01Y217181D02*
Y214819D01*
G01X-77700Y232281D02*
Y229919D01*
G01Y232281D02*
Y229919D01*
G01X-107500Y210019D02*
Y212381D01*
G01Y210019D02*
Y212381D01*
G01X-31500Y33519D02*
Y35881D01*
G01Y33519D02*
Y35881D01*
G01X-61800Y122681D02*
Y120319D01*
G01Y122681D02*
Y120319D01*
G01Y126519D02*
Y128881D01*
G01Y126519D02*
Y128881D01*
G01X-51019Y125000D02*
X-53381D01*
G01X-51019D02*
X-53381D01*
G01X-69900Y142919D02*
Y145281D01*
G01Y142919D02*
Y145281D01*
G01Y136519D02*
Y138881D01*
G01Y136519D02*
Y138881D01*
G01X-63800Y160419D02*
Y162781D01*
G01Y160419D02*
Y162781D01*
G01X-50200Y145881D02*
Y143519D01*
G01Y145881D02*
Y143519D01*
G01Y139781D02*
Y137419D01*
G01Y139781D02*
Y137419D01*
G01X-59519Y188700D02*
X-61881D01*
G01X-59519D02*
X-61881D01*
G01X-66719Y188800D02*
X-69081D01*
G01X-66719D02*
X-69081D01*
G01X-35019Y205100D02*
X-37381D01*
G01X-35019D02*
X-37381D01*
G01X-66600Y169281D02*
Y166919D01*
G01Y169281D02*
Y166919D01*
G01X-66400Y176781D02*
Y174419D01*
G01Y176781D02*
Y174419D01*
G01X-55181Y184900D02*
X-52819D01*
G01X-55181D02*
X-52819D01*
G01X-8474Y36390D02*
Y37374D01*
X-7490D01*
G01X7274Y36390D02*
Y37374D01*
X6290D01*
G01X-8474Y22610D02*
Y21626D01*
X-7490D01*
G01X7274Y22610D02*
Y22413D01*
X6487Y21626D01*
X6290D01*
G01X7274Y22610D02*
Y22413D01*
X6487Y21626D01*
X6290D01*
G01X-8474Y22610D02*
Y21626D01*
X-7490D01*
G01X7274Y36390D02*
Y37374D01*
X6290D01*
G01X-8474Y36390D02*
Y37374D01*
X-7490D01*
G01X-400Y10919D02*
Y13281D01*
G01Y10919D02*
Y13281D01*
G01X7500Y51219D02*
Y53581D01*
G01Y51219D02*
Y53581D01*
G01X-2881Y55300D02*
X-519D01*
G01X-2881D02*
X-519D01*
G01X-30095Y113905D02*
Y189495D01*
X45495D01*
Y113905D01*
X-30095D01*
G01D02*
Y189495D01*
X45495D01*
Y113905D01*
X-30095D01*
G01X-28200Y100381D02*
Y98019D01*
G01Y100381D02*
Y98019D01*
G01X-100Y96381D02*
Y94019D01*
G01Y96381D02*
Y94019D01*
G01X8300Y210219D02*
Y212581D01*
G01Y210219D02*
Y212581D01*
G01X5100Y216719D02*
Y219081D01*
G01Y216719D02*
Y219081D01*
G01X-25400Y261319D02*
Y263681D01*
G01Y261319D02*
Y263681D01*
G01X21300Y95481D02*
Y93119D01*
G01Y95481D02*
Y93119D01*
G01X8800Y225381D02*
Y223019D01*
G01Y225381D02*
Y223019D01*
G01X29081Y264300D02*
X26719D01*
G01X29081D02*
X26719D01*
G01X14881Y266000D02*
X12519D01*
G01X14881D02*
X12519D01*
G01X61600Y107119D02*
Y109481D01*
G01Y107119D02*
Y109481D01*
G01X49300Y93919D02*
Y96281D01*
G01Y93919D02*
Y96281D01*
G01X63119Y142400D02*
X65481D01*
G01X63119D02*
X65481D01*
G01X74519Y143200D02*
X76881D01*
G01X74519D02*
X76881D01*
G01X62000Y196719D02*
Y199081D01*
G01Y196719D02*
Y199081D01*
G01X66681Y187700D02*
X64319D01*
G01X66681D02*
X64319D01*
G01X50100Y259219D02*
Y261581D01*
G01Y259219D02*
Y261581D01*
G01X160991Y-25900D02*
G03I-18111J0D01*
G01X124770D02*
G03X142880Y-44011I18111J0D01*
G01X120121Y2739D02*
X110279D01*
Y32661D01*
X120121D01*
Y2739D01*
G01D02*
X110279D01*
Y32661D01*
X120121D01*
Y2739D01*
G01X142880Y-7789D02*
G03X124770Y-25900I0J-18110D01*
G01X124461Y145661D02*
X144539D01*
Y115739D01*
X124461D01*
Y145661D01*
G01D02*
X144539D01*
Y115739D01*
X124461D01*
Y145661D01*
G01X89000Y104419D02*
Y106781D01*
G01Y104419D02*
Y106781D01*
G01X88400Y93419D02*
Y95781D01*
G01Y93419D02*
Y95781D01*
G01X96700Y372581D02*
Y370219D01*
G01Y372581D02*
Y370219D01*
G01X123400Y377219D02*
Y379581D01*
G01Y377219D02*
Y379581D01*
G01X97000Y377619D02*
Y379981D01*
G01Y377619D02*
Y379981D01*
G01X123200Y372081D02*
Y369719D01*
G01Y372081D02*
Y369719D01*
G01X142880Y-44011D02*
G03X160991Y-25900I0J18111D01*
G01X128600Y-24100D02*
Y-27800D01*
G01X126739Y-25900D02*
X130300D01*
G01X160991D02*
G03X142880Y-7789I-18111J0D01*
G01X126739Y-25900D02*
X130300D01*
G01X128600Y-24100D02*
Y-27800D01*
G01X152609Y12500D02*
X141191D01*
G01X152609D02*
X141191D01*
G01X158100Y289119D02*
Y291481D01*
G01Y289119D02*
Y291481D01*
G01Y295819D02*
Y298181D01*
G01Y295819D02*
Y298181D01*
G01X146919Y293400D02*
X149281D01*
G01X146919D02*
X149281D01*
G01X196179Y235521D02*
X225706D01*
Y213868D01*
X196179D01*
Y235521D01*
G01D02*
X225706D01*
Y213868D01*
X196179D01*
Y235521D01*
G01X178700Y242819D02*
Y245181D01*
G01Y242819D02*
Y245181D01*
G01X204000Y238619D02*
Y240981D01*
G01Y238619D02*
Y240981D01*
G01X201900Y256119D02*
Y258481D01*
G01Y256119D02*
Y258481D01*
G01X201400Y250119D02*
Y252481D01*
G01Y250119D02*
Y252481D01*
G01X179000Y249619D02*
Y251981D01*
G01Y249619D02*
Y251981D01*
G01X175200Y271319D02*
Y273681D01*
G01Y271319D02*
Y273681D01*
G01X183300Y305881D02*
Y303519D01*
G01Y305881D02*
Y303519D01*
G01X170681Y293300D02*
X168319D01*
G01X170681D02*
X168319D01*
G01X192219Y294000D02*
X194581D01*
G01X192219D02*
X194581D01*
G01X240921Y35921D02*
Y6394D01*
X219268D01*
Y35921D01*
X240921D01*
G01D02*
Y6394D01*
X219268D01*
Y35921D01*
X240921D01*
G01X233500Y229419D02*
Y231781D01*
G01Y229419D02*
Y231781D01*
G01X217100Y207319D02*
Y209681D01*
G01Y207319D02*
Y209681D01*
G01X206600Y304819D02*
Y307181D01*
G01Y304819D02*
Y307181D01*
G01X206500Y298519D02*
Y300881D01*
G01Y298519D02*
Y300881D01*
G01X273400Y6579D02*
Y16421D01*
X373400D01*
Y6579D01*
X273400D01*
G01D02*
Y16421D01*
X373400D01*
Y6579D01*
X273400D01*
G01X284981Y140100D02*
X282619D01*
G01X284981D02*
X282619D01*
G01X292619Y112500D02*
X294981D01*
G01X292619D02*
X294981D01*
G01X303981Y145400D02*
X301619D01*
G01X303981D02*
X301619D01*
G01X312681Y151800D02*
X310319D01*
G01X312681D02*
X310319D01*
G01X294081Y143500D02*
X291719D01*
G01X294081D02*
X291719D01*
G01X336809Y41800D02*
X325391D01*
G01X336809D02*
X325391D01*
G01X353009Y42300D02*
X341591D01*
G01X353009D02*
X341591D01*
G01X345481Y62700D02*
X343119D01*
G01X345481D02*
X343119D01*
G01X329281Y62900D02*
X326919D01*
G01X329281D02*
X326919D01*
G01X333406Y108411D02*
X362489D01*
G01X333406D02*
X362489D01*
G01X327500Y148500D02*
Y160700D01*
G01Y148500D02*
Y160700D01*
G01X333406Y167072D02*
X362528D01*
G01X333406D02*
X362528D01*
G01X372776Y108411D02*
X381437D01*
Y142269D01*
G01X372776Y108411D02*
X381437D01*
Y142269D01*
G01X381400Y142300D02*
G02X384200Y154000I28659J-673D01*
G01X372776Y167072D02*
X384193D01*
Y154080D01*
G01X372776Y167072D02*
X384193D01*
Y154080D01*
G01X384200Y154000D02*
G03X381400Y142300I25859J-12373D01*
G01X384239Y192300D02*
X364161D01*
Y242300D01*
X384239D01*
Y192300D01*
G01D02*
X364161D01*
Y242300D01*
X384239D01*
Y192300D01*
M02*
