G04 ================== begin FILE IDENTIFICATION RECORD ==================*
G04 Layout Name:  C:/Users/Liu/Desktop/Stereo/Layout/Stereo.brd*
G04 Film Name:    SOLDERMASK_BOTTOM*
G04 File Format:  Gerber RS274X*
G04 File Origin:  Cadence Allegro 16.6-P004*
G04 Origin Date:  Tue Oct 21 10:08:46 2014*
G04 *
G04 Layer:  PIN/SOLDERMASK_BOTTOM*
G04 Layer:  PACKAGE GEOMETRY/SOLDERMASK_BOTTOM*
G04 Layer:  BOARD GEOMETRY/SOLDERMASK_BOTTOM*
G04 *
G04 Offset:    (0.00 0.00)*
G04 Mirror:    No*
G04 Mode:      Positive*
G04 Rotation:  0*
G04 FullContactRelief:  No*
G04 UndefLineWidth:     6.00*
G04 ================== end FILE IDENTIFICATION RECORD ====================*
%FSLAX35Y35*MOIN*%
%IR0*IPPOS*OFA0.00000B0.00000*MIA0B0*SFA1.00000B1.00000*%
%ADD14C,.05512*%
%ADD27C,.05315*%
%ADD25C,.02165*%
%ADD17R,.07283X.10039*%
%ADD33C,.05906*%
%ADD20R,.10039X.07283*%
%ADD15R,.05512X.05512*%
%ADD16C,.07087*%
%ADD34C,.06299*%
%ADD23C,.07874*%
%ADD11O,.14567X.05906*%
%ADD12O,.05906X.14567*%
%ADD26R,.07087X.07087*%
%ADD21R,.07874X.13583*%
%ADD35R,.06299X.06299*%
%ADD10C,.15*%
%ADD31R,.03031X.03307*%
%ADD24C,.1378*%
%ADD18C,.24409*%
%ADD13C,.13583*%
%ADD32O,.0315X.06299*%
%ADD28O,.0748X.04724*%
%ADD30O,.04921X.02559*%
%ADD22R,.03937X.04528*%
%ADD29R,.04528X.03937*%
%ADD19R,.07874X.04528*%
%LPD*%
G75*
G54D10*
X-373100Y90700D03*
X-373500Y70000D03*
Y130000D03*
Y109800D03*
G54D11*
X-347289Y15102D03*
G54D20*
X-224693Y52700D03*
X-213307Y99000D03*
X-226693D03*
X-211307Y52700D03*
G54D30*
X-62218Y345139D03*
Y342580D03*
Y340020D03*
Y337461D03*
X-51982D03*
Y340020D03*
Y342580D03*
Y345139D03*
X27782Y341239D03*
Y338680D03*
Y336120D03*
Y333561D03*
X38018D03*
Y336120D03*
Y338680D03*
Y341239D03*
G54D21*
X-240095Y78900D03*
X-244995Y117200D03*
G54D12*
X-335478Y34000D03*
X-359100D03*
G54D22*
X-230446Y78800D03*
X-223754D03*
X-229946Y119500D03*
X-223254D03*
X-215846Y78800D03*
X-209154D03*
X-215546Y119400D03*
X-208854D03*
X-64646Y133800D03*
X-59146Y360900D03*
X-59046Y354100D03*
X-86246Y340100D03*
X-79554D03*
X-54146Y87700D03*
X-47454D03*
X-33746D03*
X-27054D03*
Y80400D03*
X-33746D03*
X-47554Y80100D03*
X-54246D03*
X-57954Y133800D03*
X-52454Y360900D03*
X-52354Y354100D03*
X10254Y182300D03*
X16946D03*
X14446Y336300D03*
X7754D03*
X35946Y360200D03*
X29254D03*
X36046Y353500D03*
X29354D03*
X67446Y252700D03*
X60754D03*
G54D13*
X-344269Y170654D03*
Y222387D03*
G54D31*
X-82990Y334600D03*
X-79210D03*
X285790Y272500D03*
X282010D03*
G54D32*
X-28645Y252956D03*
X-25495D03*
X-22346D03*
Y297444D03*
X-25495D03*
X-28645D03*
X-19196Y252956D03*
X-16046D03*
X-12897D03*
X-9747D03*
X-6598D03*
X-3448D03*
X-298D03*
X2851D03*
X6001D03*
X9150D03*
X12300D03*
X15450D03*
X18599D03*
Y297444D03*
X15450D03*
X12300D03*
X9150D03*
X6001D03*
X2851D03*
X-298D03*
X-3448D03*
X-6598D03*
X-9747D03*
X-12897D03*
X-16046D03*
X-19196D03*
X21749Y252956D03*
X24898D03*
X28048D03*
X31198D03*
X34347D03*
X37497D03*
X40646D03*
X43796D03*
X46946D03*
X50095D03*
X53245D03*
Y297444D03*
X50095D03*
X46946D03*
X43796D03*
X40646D03*
X37497D03*
X34347D03*
X31198D03*
X28048D03*
X24898D03*
X21749D03*
G54D23*
X-216535Y295276D03*
X-177165Y255906D03*
X177165Y295276D03*
X216535Y255906D03*
G54D14*
X-333600Y182741D03*
Y192583D03*
Y200457D03*
G54D24*
X-236220Y275591D03*
X-157480D03*
X157480D03*
X236220D03*
G54D15*
X-333600Y210300D03*
G54D33*
X120439Y-25900D03*
X150361D03*
G54D34*
X288400Y11500D03*
X328400D03*
X318400D03*
X308400D03*
X298400D03*
X368400D03*
X358400D03*
X348400D03*
X338400D03*
G54D16*
X-310700Y34100D03*
X-300700Y44100D03*
X-310700D03*
Y54100D03*
X-219300Y130200D03*
X-199800Y33100D03*
X-209800D03*
X-209300Y130200D03*
X-120300Y82500D03*
Y72500D03*
X-130300Y82500D03*
X-97800Y318000D03*
Y308000D03*
X-107800Y318000D03*
X-104800Y356300D03*
X-114800D03*
X-124800D03*
X-134800D03*
X-81500Y17400D03*
X-71500D03*
X-61500D03*
X-81500Y27400D03*
X-71500D03*
X-61500D03*
X-77800Y318000D03*
Y308000D03*
X-87800Y318000D03*
Y308000D03*
X-51500Y17400D03*
X115200Y17700D03*
Y27700D03*
X129500Y120700D03*
Y130700D03*
X139500Y120700D03*
Y130700D03*
Y140700D03*
X369200Y217300D03*
Y207300D03*
Y197300D03*
Y237300D03*
Y227300D03*
X379200Y217300D03*
Y207300D03*
Y237300D03*
Y227300D03*
G54D25*
X-205708Y266733D03*
X-202756D03*
X-199803D03*
X-196850D03*
X-193897D03*
X-190944D03*
X-187992D03*
X-205708Y269685D03*
X-202756D03*
X-199803D03*
X-196850D03*
X-193897D03*
X-190944D03*
X-187992D03*
X-205708Y272638D03*
X-202756D03*
X-199803D03*
X-193897D03*
X-190944D03*
X-187992D03*
X-205708Y275591D03*
X-202756D03*
X-190944D03*
X-187992D03*
X-205708Y278544D03*
X-202756D03*
X-199803D03*
X-193897D03*
X-190944D03*
X-187992D03*
X-205708Y281497D03*
X-202756D03*
X-199803D03*
X-196850D03*
X-193897D03*
X-190944D03*
X-187992D03*
X-205708Y284449D03*
X-202756D03*
X-199803D03*
X-196850D03*
X-193897D03*
X-190944D03*
X-187992D03*
X187992Y266733D03*
X190944D03*
X193897D03*
X196850D03*
X199803D03*
X202756D03*
X205708D03*
X187992Y269685D03*
X190944D03*
X193897D03*
X196850D03*
X199803D03*
X202756D03*
X205708D03*
X187992Y272638D03*
X190944D03*
X193897D03*
X199803D03*
X202756D03*
X205708D03*
X187992Y275591D03*
X190944D03*
X202756D03*
X205708D03*
X187992Y278544D03*
X190944D03*
X193897D03*
X199803D03*
X202756D03*
X205708D03*
X187992Y281497D03*
X190944D03*
X193897D03*
X196850D03*
X199803D03*
X202756D03*
X205708D03*
X187992Y284449D03*
X190944D03*
X193897D03*
X196850D03*
X199803D03*
X202756D03*
X205708D03*
G54D35*
X278400Y11500D03*
G54D26*
X-144800Y356300D03*
X-130300Y72500D03*
X-107800Y308000D03*
X-51500Y27400D03*
X115200Y7700D03*
X129500Y140700D03*
X379200Y197300D03*
G54D17*
X-294500Y72607D03*
Y85993D03*
X-293000Y108607D03*
Y121993D03*
G54D18*
X-302400Y369700D03*
X-152100Y-102300D03*
X153200Y-101300D03*
X225800Y369700D03*
G54D27*
X-84900Y131294D03*
Y150506D03*
G54D19*
X-264505Y87955D03*
Y78900D03*
Y69845D03*
X-269405Y126255D03*
Y117200D03*
Y108145D03*
G54D28*
X-72085Y220847D03*
X-82715D03*
Y226753D03*
X-72085D03*
G54D29*
X-63700Y317254D03*
Y323946D03*
X-50900Y323646D03*
Y316954D03*
X-33500Y344746D03*
Y338054D03*
X18600Y313846D03*
Y307154D03*
X37500Y313946D03*
Y307254D03*
X51200Y340846D03*
Y334154D03*
M02*
