G04 ================== begin FILE IDENTIFICATION RECORD ==================*
G04 Layout Name:  C:/Users/Liu/Desktop/Stereo/Layout/Stereo.brd*
G04 Film Name:    TOP*
G04 File Format:  Gerber RS274X*
G04 File Origin:  Cadence Allegro 16.6-P004*
G04 Origin Date:  Mon Oct 20 18:48:57 2014*
G04 *
G04 Layer:  ETCH/TOP*
G04 Layer:  PIN/TOP*
G04 Layer:  VIA CLASS/TOP*
G04 *
G04 Offset:    (0.00 0.00)*
G04 Mirror:    No*
G04 Mode:      Positive*
G04 Rotation:  0*
G04 FullContactRelief:  No*
G04 UndefLineWidth:     6.00*
G04 ================== end FILE IDENTIFICATION RECORD ====================*
%FSLAX35Y35*MOIN*%
%IR0*IPPOS*OFA0.00000B0.00000*MIA0B0*SFA1.00000B1.00000*%
%AMMACRO56*
4,1,40,-.00791,-.01772,
.00791,-.01772,
.009274,-.01759,
.010595,-.017225,
.011833,-.016635,
.012949,-.01584,
.013911,-.014864,
.014688,-.013735,
.015257,-.012488,
.015601,-.011162,
.01571,-.0098,
.01571,.0098,
.015601,.011166,
.015256,.012493,
.014685,.013739,
.013908,.014867,
.012946,.015844,
.011829,.016638,
.010591,.017226,
.00927,.017591,
.00791,.01772,
-.00791,.01772,
-.009274,.01759,
-.010595,.017225,
-.011833,.016635,
-.012949,.01584,
-.013911,.014864,
-.014688,.013735,
-.015257,.012488,
-.015601,.011162,
-.01571,.0098,
-.01571,-.0098,
-.015601,-.011166,
-.015256,-.012493,
-.014685,-.013739,
-.013908,-.014867,
-.012946,-.015844,
-.011829,-.016638,
-.010591,-.017226,
-.00927,-.017591,
-.00791,-.01772,
0.0*
%
%ADD56MACRO56*%
%AMMACRO41*
4,1,44,.01083,.00531,
.01083,-.00531,
.01075,-.006233,
.010511,-.007128,
.01012,-.007969,
.009589,-.008728,
.008934,-.009384,
.008175,-.009916,
.007336,-.010308,
.006441,-.010549,
.005518,-.01063,
.00551,-.01063,
-.00551,-.01063,
-.006433,-.01055,
-.007328,-.010311,
-.008169,-.00992,
-.008928,-.009389,
-.009584,-.008734,
-.010116,-.007975,
-.010508,-.007136,
-.010749,-.006241,
-.01083,-.005318,
-.01083,-.00531,
-.01083,.00531,
-.01075,.006233,
-.010511,.007128,
-.01012,.007969,
-.009589,.008728,
-.008934,.009384,
-.008175,.009916,
-.007336,.010308,
-.006441,.010549,
-.005518,.01063,
-.00551,.01063,
.00551,.01063,
.006433,.01055,
.007328,.010311,
.008169,.00992,
.008928,.009389,
.009584,.008734,
.010116,.007975,
.010508,.007136,
.010749,.006241,
.01083,.005318,
.01083,.00531,
0.0*
%
%ADD41MACRO41*%
%ADD17C,.02402*%
%ADD15C,.05512*%
%ADD39C,.05118*%
%AMMACRO33*
4,1,35,.05315,-.03937,
.04134,-.05118,
-.04921,-.05118,
-.049894,-.05112,
-.050557,-.050943,
-.051179,-.050653,
-.051742,-.05026,
-.052227,-.049775,
-.052621,-.049212,
-.052912,-.04859,
-.05309,-.047927,
-.05315,-.047244,
-.05315,-.04724,
-.05315,.04724,
-.05309,.047924,
-.052913,.048587,
-.052623,.049209,
-.05223,.049772,
-.051745,.050257,
-.051182,.050651,
-.05056,.050942,
-.049897,.05112,
-.049214,.05118,
-.04921,.05118,
.04921,.05118,
.049894,.05112,
.050557,.050943,
.051179,.050653,
.051742,.05026,
.052227,.049775,
.052621,.049212,
.052912,.04859,
.05309,.047927,
.05315,.047244,
.05315,.04724,
.05315,-.03937,
0.0*
%
%ADD33MACRO33*%
%ADD11O,.1378X.05118*%
%ADD12O,.05118X.1378*%
%AMMACRO37*
4,1,22,.01575,-.00591,
-.00984,-.00591,
-.010866,-.005821,
-.011861,-.005554,
-.012795,-.005119,
-.013639,-.004529,
-.014368,-.003801,
-.014959,-.002957,
-.015395,-.002024,
-.015662,-.001029,
-.015753,-.000003,
-.015663,.001024,
-.015397,.002019,
-.014962,.002953,
-.014371,.003797,
-.013643,.004526,
-.0128,.005117,
-.011866,.005553,
-.010871,.00582,
-.009845,.00591,
-.00984,.00591,
.01575,.00591,
.01575,-.00591,
0.0*
%
%ADD37MACRO37*%
%AMMACRO36*
4,1,22,.00591,.01575,
.00591,-.00984,
.005821,-.010866,
.005554,-.011861,
.005119,-.012795,
.004529,-.013639,
.003801,-.014368,
.002957,-.014959,
.002024,-.015395,
.001029,-.015662,
.000003,-.015753,
-.001024,-.015663,
-.002019,-.015397,
-.002953,-.014962,
-.003797,-.014371,
-.004526,-.013643,
-.005117,-.0128,
-.005553,-.011866,
-.00582,-.010871,
-.00591,-.009845,
-.00591,-.00984,
-.00591,.01575,
.00591,.01575,
0.0*
%
%ADD36MACRO36*%
%ADD29C,.04528*%
%ADD54C,.02756*%
%ADD16R,.05512X.05512*%
%ADD30C,.03937*%
%ADD18C,.06299*%
%ADD27R,.06299X.06299*%
%AMMACRO43*
4,1,41,.0276,0.0,
.0276,.00689,
.027493,.008089,
.027179,.00925,
.026668,.01034,
.025976,.011324,
.025124,.012174,
.024136,.012862,
.023045,.013368,
.021882,.013677,
.02071,.01378,
-.02071,.01378,
-.021909,.013673,
-.02307,.013359,
-.02416,.012848,
-.025144,.012156,
-.025994,.011304,
-.026682,.010316,
-.027188,.009225,
-.027497,.008062,
-.0276,.00689,
-.0276,-.00689,
-.027493,-.008089,
-.027179,-.00925,
-.026668,-.01034,
-.025976,-.011324,
-.025124,-.012174,
-.024136,-.012862,
-.023045,-.013368,
-.021882,-.013677,
-.02071,-.01378,
.02071,-.01378,
.021909,-.013673,
.02307,-.013359,
.02416,-.012848,
.025144,-.012156,
.025994,-.011304,
.026682,-.010316,
.027188,-.009225,
.027497,-.008062,
.0276,-.00689,
.0276,0.0,
0.0*
%
%ADD43MACRO43*%
%AMMACRO45*
4,1,44,-.00531,.01083,
.00531,.01083,
.006233,.01075,
.007128,.010511,
.007969,.01012,
.008728,.009589,
.009384,.008934,
.009916,.008175,
.010308,.007336,
.010549,.006441,
.01063,.005518,
.01063,.00551,
.01063,-.00551,
.01055,-.006433,
.010311,-.007328,
.00992,-.008169,
.009389,-.008928,
.008734,-.009584,
.007975,-.010116,
.007136,-.010508,
.006241,-.010749,
.005318,-.01083,
.00531,-.01083,
-.00531,-.01083,
-.006233,-.01075,
-.007128,-.010511,
-.007969,-.01012,
-.008728,-.009589,
-.009384,-.008934,
-.009916,-.008175,
-.010308,-.007336,
-.010549,-.006441,
-.01063,-.005518,
-.01063,-.00551,
-.01063,.00551,
-.01055,.006433,
-.010311,.007328,
-.00992,.008169,
-.009389,.008928,
-.008734,.009584,
-.007975,.010116,
-.007136,.010508,
-.006241,.010749,
-.005318,.01083,
-.00531,.01083,
0.0*
%
%ADD45MACRO45*%
%AMMACRO42*
4,1,44,-.01083,-.00531,
-.01083,.00531,
-.01075,.006233,
-.010511,.007128,
-.01012,.007969,
-.009589,.008728,
-.008934,.009384,
-.008175,.009916,
-.007336,.010308,
-.006441,.010549,
-.005518,.01063,
-.00551,.01063,
.00551,.01063,
.006433,.01055,
.007328,.010311,
.008169,.00992,
.008928,.009389,
.009584,.008734,
.010116,.007975,
.010508,.007136,
.010749,.006241,
.01083,.005318,
.01083,.00531,
.01083,-.00531,
.01075,-.006233,
.010511,-.007128,
.01012,-.007969,
.009589,-.008728,
.008934,-.009384,
.008175,-.009916,
.007336,-.010308,
.006441,-.010549,
.005518,-.01063,
.00551,-.01063,
-.00551,-.01063,
-.006433,-.01055,
-.007328,-.010311,
-.008169,-.00992,
-.008928,-.009389,
-.009584,-.008734,
-.010116,-.007975,
-.010508,-.007136,
-.010749,-.006241,
-.01083,-.005318,
-.01083,-.00531,
0.0*
%
%ADD42MACRO42*%
%ADD50O,.0315X.01181*%
%ADD10C,.125*%
%ADD49O,.01181X.0315*%
%ADD38R,.0315X.01181*%
%ADD44R,.0252X.02244*%
%ADD14R,.0315X.0374*%
%ADD22C,.23622*%
%ADD20R,.0374X.0315*%
%ADD19O,.02362X.05118*%
%ADD51R,.1811X.1811*%
%ADD13C,.13583*%
%ADD46R,.05512X.04724*%
%ADD31R,.01181X.05906*%
%ADD28R,.0252X.04882*%
%ADD26O,.05906X.02362*%
%ADD21R,.08661X.06102*%
%ADD32R,.05906X.01181*%
%ADD25C,.12992*%
%ADD24R,.04528X.04134*%
%ADD23O,.03543X.07283*%
%ADD40O,.07283X.03543*%
%AMMACRO34*
4,1,22,-.00591,-.01575,
-.00591,.00984,
-.005821,.010866,
-.005554,.011861,
-.005119,.012795,
-.004529,.013639,
-.003801,.014368,
-.002957,.014959,
-.002024,.015395,
-.001029,.015662,
-.000003,.015753,
.001024,.015663,
.002019,.015397,
.002953,.014962,
.003797,.014371,
.004526,.013643,
.005117,.0128,
.005553,.011866,
.00582,.010871,
.00591,.009845,
.00591,.00984,
.00591,-.01575,
-.00591,-.01575,
0.0*
%
%ADD34MACRO34*%
%AMMACRO35*
4,1,22,-.01575,.00591,
.00984,.00591,
.010866,.005821,
.011861,.005554,
.012795,.005119,
.013639,.004529,
.014368,.003801,
.014959,.002957,
.015395,.002024,
.015662,.001029,
.015753,.000003,
.015663,-.001024,
.015397,-.002019,
.014962,-.002953,
.014371,-.003797,
.013643,-.004526,
.0128,-.005117,
.011866,-.005553,
.010871,-.00582,
.009845,-.00591,
.00984,-.00591,
-.01575,-.00591,
-.01575,.00591,
0.0*
%
%ADD35MACRO35*%
%ADD52R,.01811X.01969*%
%ADD55R,.08661X.04724*%
%ADD48R,.05512X.06299*%
%ADD47R,.06299X.02756*%
%ADD53R,.03937X.01969*%
%ADD57C,.02*%
%ADD58C,.015*%
%ADD59C,.01181*%
%ADD60C,.005*%
%ADD61C,.006*%
%ADD62C,.008*%
%ADD72C,.07302*%
%ADD79C,.03406*%
%ADD69O,.14782X.0612*%
%ADD68O,.0612X.14782*%
%ADD78C,.0494*%
%ADD71C,.06516*%
%ADD82C,.04546*%
%ADD84C,.07878*%
%ADD70C,.13504*%
%ADD63O,.03364X.0612*%
%ADD76R,.07302X.07302*%
%ADD80R,.07302X.0376*%
%ADD75R,.0553X.05136*%
%ADD73C,.24626*%
%ADD81R,.06516X.07302*%
%ADD65R,.04744X.04152*%
%ADD64R,.04152X.04744*%
%ADD74C,.13996*%
%ADD67O,.06908X.03364*%
%ADD77R,.03522X.05884*%
%ADD66O,.04546X.08286*%
%ADD83R,.09664X.05728*%
G75*
%LPD*%
G75*
G36*
G01X291116Y33568D02*
G03X291688Y32644I1033J0D01*
G01X291798Y32589D01*
Y29536D01*
X291698Y29436D01*
Y28611D01*
X291588Y28556D01*
G03X291133Y28109I461J-924D01*
G01X291076Y28002D01*
X290244D01*
X289944Y27702D01*
X283924D01*
X283867Y27809D01*
G03X283652Y28091I-917J-476D01*
G01Y29631D01*
X280831Y32452D01*
X252242D01*
G03X251502Y32764I-740J-721D01*
G01X250398D01*
G03X249541Y32307I0J-1033D01*
G02X249209I-166J112D01*
G03X249052Y32491I-859J-574D01*
G01Y36569D01*
X249252Y36769D01*
Y38309D01*
G03X249409Y38493I-702J758D01*
G02X249741I166J-112D01*
G03X250598Y38036I857J576D01*
G01X251702D01*
G03X252734Y39068I-1J1033D01*
G01Y40132D01*
G03X251702Y41164I-1033J-1D01*
G01X250598D01*
G03X249861Y40854I1J-1033D01*
G02X249289I-286J280D01*
G03X248552Y41164I-738J-723D01*
G01X247448D01*
G03X246416Y40132I1J-1033D01*
G01Y39068D01*
G03X246748Y38309I1033J0D01*
G01Y37805D01*
X246548Y37605D01*
Y32491D01*
G03X246508Y32452I701J-759D01*
G01X245985D01*
X245634Y32802D01*
X235967D01*
X235876Y32894D01*
X213599D01*
G03X211702Y33915I-1897J-1252D01*
G01X207962D01*
G03X206065Y32894I0J-2273D01*
G01X180135D01*
G03X178238Y33915I-1897J-1252D01*
G01X174498D01*
G03Y29369I0J-2273D01*
G01X178238D01*
G03X180135Y30390I0J2273D01*
G01X206065D01*
G03X207962Y29369I1897J1252D01*
G01X211702D01*
G03X213599Y30390I0J2273D01*
G01X234840D01*
X234931Y30300D01*
X244598D01*
X244949Y29948D01*
X246508D01*
G03X246548Y29909I741J720D01*
G01Y22982D01*
X264847Y4683D01*
G02X264565Y4000I-283J-283D01*
G01X219005D01*
G03X201364Y-22057I0J-19000D01*
G01X263648Y-177765D01*
G02X253435Y-192850I-10213J-4085D01*
G01X68425D01*
G02X57754Y-179182I0J11000D01*
G01X97647Y-19608D01*
G03X79214Y4000I-18433J4608D01*
G01X-79214D01*
G03X-97647Y-19608I0J-19000D01*
G01X-57754Y-179182D01*
G02X-68425Y-192850I-10671J-2668D01*
G01X-253435D01*
G02X-263648Y-177765I0J11000D01*
G01X-201364Y-22057D01*
G03X-219005Y4000I-17641J7057D01*
G01X-385701D01*
G02X-389701Y8000I0J4000D01*
G01Y385701D01*
G02X-385701Y389701I4000J0D01*
G01X267200D01*
X267100Y350700D01*
X274832D01*
X274833Y350682D01*
X304923D01*
Y348214D01*
X309863D01*
Y350682D01*
X313584D01*
Y348214D01*
X318524D01*
Y350682D01*
X319293D01*
Y348578D01*
G03X319066Y347932I806J-646D01*
G01Y346868D01*
G03X319608Y345960I1033J1D01*
G01Y338469D01*
G03X319136Y337602I561J-867D01*
G01Y336498D01*
G03X319446Y335761I1033J1D01*
G02Y335189I-280J-286D01*
G03X319136Y334452I723J-738D01*
G01Y333348D01*
G03X319608Y332481I1033J0D01*
G01Y331769D01*
G03X319136Y330902I561J-867D01*
G01Y329798D01*
G03X319446Y329061I1033J1D01*
G02Y328489I-280J-286D01*
G03X319136Y327752I723J-738D01*
G01Y327161D01*
X317208Y325233D01*
Y324269D01*
G03X316736Y323402I561J-867D01*
G01Y322298D01*
G03X317046Y321561I1033J1D01*
G02Y320989I-280J-286D01*
G03X316736Y320252I723J-738D01*
G01Y319148D01*
G03X317208Y318281I1033J0D01*
G01Y317611D01*
G03X317011Y317454I540J-880D01*
G02X316439I-286J280D01*
G03X315702Y317764I-738J-723D01*
G01X314598D01*
G03X313566Y316732I1J-1033D01*
G01Y315668D01*
G03X314598Y314636I1033J1D01*
G01X315702D01*
G03X316439Y314946I-1J1033D01*
G02X317011I286J-280D01*
G03X317208Y314789I737J723D01*
G01Y311069D01*
G03X316736Y310202I561J-867D01*
G01Y309098D01*
G03X317046Y308361I1033J1D01*
G02Y307789I-280J-286D01*
G03X316736Y307052I723J-738D01*
G01Y305948D01*
G03X317208Y305081I1033J0D01*
G01Y303421D01*
X318182Y302447D01*
Y301759D01*
G02X317499Y301476I-400J0D01*
G01X316473Y302502D01*
X314592D01*
X314320Y302773D01*
Y302774D01*
X308584Y308510D01*
Y309332D01*
G03X308012Y310256I-1033J0D01*
G01X307902Y310311D01*
Y311989D01*
X308012Y312044D01*
G03X308584Y312968I-461J924D01*
G01Y314034D01*
G03X308515Y314404I-1033J-1D01*
G01X308502Y314439D01*
Y316685D01*
X305585Y319602D01*
X297378D01*
X293198Y315422D01*
Y304804D01*
G03X294163Y302384I1502J-804D01*
G01X294207Y302369D01*
X295110Y301467D01*
Y298504D01*
X297815Y295798D01*
X300061D01*
X300096Y295785D01*
G03X300466Y295716I371J964D01*
G01X301532D01*
G03X302456Y296288I0J1033D01*
G01X302511Y296398D01*
X302727D01*
X304837Y294288D01*
G02X304554Y293606I-283J-282D01*
G01X298770D01*
X296868Y295508D01*
X294551D01*
X294508Y295648D01*
G03X293371Y296486I-1138J-354D01*
G01X292902D01*
Y297889D01*
X293012Y297944D01*
G03X293584Y298868I-461J924D01*
G01Y299932D01*
G03X292552Y300964I-1033J-1D01*
G01X291448D01*
G03X290711Y300654I1J-1033D01*
G02X290139I-286J280D01*
G03X289402Y300964I-738J-723D01*
G01X288298D01*
G03X287266Y299932I1J-1033D01*
G01Y298868D01*
G03X288298Y297836I1033J1D01*
G01X289402D01*
G03X290139Y298146I-1J1033D01*
G02X290711I286J-280D01*
G03X290988Y297944I739J722D01*
G01X291098Y297889D01*
Y296486D01*
X289229D01*
G03X288038Y295295I1J-1192D01*
G01Y293917D01*
G03X289229Y292726I1192J1D01*
G01X293371D01*
G03X294508Y293564I-1J1192D01*
G01X294551Y293704D01*
X296122D01*
X298026Y291800D01*
X295827Y289602D01*
X294551D01*
X294508Y289742D01*
G03X293371Y290580I-1138J-354D01*
G01X289229D01*
G03X288038Y289389I1J-1192D01*
G01Y288011D01*
G03X289229Y286820I1192J1D01*
G01X290398D01*
Y286049D01*
X290498Y285949D01*
Y285411D01*
X290388Y285356D01*
G03X290111Y285154I462J-924D01*
G02X289539I-286J280D01*
G03X288802Y285464I-738J-723D01*
G01X287698D01*
G03X286666Y284432I1J-1033D01*
G01Y283368D01*
G03X287698Y282336I1033J1D01*
G01X288802D01*
G03X289539Y282646I-1J1033D01*
G02X290111I286J-280D01*
G03X290848Y282336I738J723D01*
G01X291952D01*
G03X292422Y282449I0J1033D01*
G01X292552Y282515D01*
X292796Y282271D01*
X290227Y279702D01*
X278727D01*
X270398Y271373D01*
Y234527D01*
X303477Y201448D01*
X374623D01*
X377334Y204159D01*
X377465Y204088D01*
G03X376061Y205436I1735J3212D01*
G01X373877Y203252D01*
X370960D01*
G02X370786Y204012I0J400D01*
G03X365702Y208344I-1586J3288D01*
G01X365659Y208202D01*
X302873D01*
X274802Y236273D01*
Y270627D01*
X280373Y276198D01*
X291058D01*
G02X291341Y275516I0J-400D01*
G01X289887Y274062D01*
X289785Y274079D01*
G03X291179Y272685I-285J-1679D01*
G01X291162Y272787D01*
X302303Y283928D01*
X306325D01*
G02X306683Y283350I0J-400D01*
G03X306839Y282141I977J-489D01*
G02Y281613I-301J-264D01*
G03X306683Y280404I821J-720D01*
G02X306325Y279826I-358J-178D01*
G01X301988D01*
X298998Y276836D01*
Y276011D01*
X298888Y275956D01*
G03X298611Y275754I462J-924D01*
G02X298039I-286J280D01*
G03X297302Y276064I-738J-723D01*
G01X296198D01*
G03X295166Y275032I1J-1033D01*
G01Y273968D01*
G03X296198Y272936I1033J1D01*
G01X297303D01*
G03X297804Y273066I-1J1033D01*
G02X298398Y272717I194J-349D01*
G01Y272559D01*
X288741Y262902D01*
X286802D01*
Y266861D01*
X286815Y266896D01*
G03X286884Y267266I-964J371D01*
G01Y268332D01*
G03X285852Y269364I-1033J-1D01*
G01X284748D01*
G03X284011Y269054I1J-1033D01*
G02X283439I-286J280D01*
G03X282702Y269364I-738J-723D01*
G01X281598D01*
G03X280683Y268809I1J-1033D01*
G01X280626Y268702D01*
X279677D01*
G03X279803Y266898I-1377J-1003D01*
G01X280626D01*
X280683Y266791D01*
G03X281598Y266236I916J478D01*
G01X282703D01*
G03X283204Y266366I-1J1033D01*
G02X283798Y266017I194J-349D01*
G01Y262902D01*
X281504D01*
G03Y259898I-804J-1502D01*
G01X284678D01*
X295778Y248798D01*
X332296D01*
G03X334198Y248998I804J1502D01*
G01X373578D01*
X377698Y244878D01*
Y240628D01*
G03X380702I1502J-3328D01*
G01Y246122D01*
X374822Y252001D01*
X338190D01*
G02X337908Y252684I1J400D01*
G01X360802Y275578D01*
Y280896D01*
G03X357798I-1502J804D01*
G01Y276822D01*
X333600Y252623D01*
X331168Y255056D01*
Y266293D01*
X330702Y266759D01*
Y266917D01*
G02X331296Y267266I400J0D01*
G03X331797Y267136I502J903D01*
G01X332902D01*
G03X333934Y268168I-1J1033D01*
G01Y269232D01*
G03X332902Y270264I-1033J-1D01*
G01X331798D01*
G03X331061Y269954I1J-1033D01*
G02X330489I-286J280D01*
G03X330212Y270156I-739J-722D01*
G01X330102Y270211D01*
Y271036D01*
X330018Y271119D01*
Y272597D01*
X330048Y272645D01*
G03X330209Y273215I-931J571D01*
G01Y275187D01*
G03X330185Y275413I-1092J-2D01*
G02X330659Y275888I391J84D01*
G03X330885Y275864I228J1068D01*
G01X332857D01*
G03X333677Y277676I-1J1092D01*
G02Y278204I301J264D01*
G03Y279645I-821J720D01*
G02Y280172I301J264D01*
G03Y281613I-821J721D01*
G02Y282141I301J264D01*
G03Y283582I-821J720D01*
G02Y284109I301J264D01*
G03Y285550I-821J720D01*
G02Y286078I301J264D01*
G03Y287519I-821J720D01*
G02Y288046I301J264D01*
G03Y289487I-821J720D01*
G02Y290015I301J264D01*
G03Y291456I-821J720D01*
G02Y291983I301J264D01*
G03X333833Y293192I-821J720D01*
G02X334191Y293770I358J178D01*
G01X334720D01*
X334722Y293772D01*
X344262D01*
X344392Y293902D01*
G02X344975Y293884I283J-283D01*
G03X345288Y293644I774J685D01*
G01X345398Y293589D01*
Y292011D01*
X345288Y291956D01*
G03X344716Y291032I461J-924D01*
G01Y289968D01*
G03X345748Y288936I1033J1D01*
G01X346852D01*
G03X347589Y289246I-1J1033D01*
G02X348161I286J-280D01*
G03X348898Y288936I738J723D01*
G01X350002D01*
G03X350917Y289491I-1J1033D01*
G01X350974Y289598D01*
X378027D01*
X386998Y280627D01*
Y236373D01*
X381066Y230441D01*
X380935Y230512D01*
G03X382412Y229035I-1735J-3212D01*
G01X382341Y229166D01*
X388802Y235627D01*
Y281373D01*
X378773Y291402D01*
X350974D01*
X350917Y291509D01*
G03X350002Y292064I-916J-478D01*
G01X348898D01*
G03X348161Y291754I1J-1033D01*
G02X347589I-286J280D01*
G03X347312Y291956I-739J-722D01*
G01X347202Y292011D01*
Y293589D01*
X347312Y293644D01*
G03X347589Y293846I-462J924D01*
G02X348161I286J-280D01*
G03X348898Y293536I738J723D01*
G01X350002D01*
G03X351034Y294568I-1J1033D01*
G01Y295632D01*
G03X350002Y296664I-1033J-1D01*
G01X348898D01*
G03X348161Y296354I1J-1033D01*
G02X347589I-286J280D01*
G03X346852Y296664I-738J-723D01*
G01X345748D01*
G03X344833Y296109I1J-1033D01*
G01X344776Y296002D01*
X343942D01*
X343516Y295576D01*
X333976D01*
X333974Y295574D01*
X333475D01*
X333427Y295603D01*
G03X332857Y295764I-571J-931D01*
G01X330885D01*
G03X330659Y295740I2J-1092D01*
G02X330185Y296215I-83J391D01*
G03X330205Y296345I-1068J231D01*
G01X330221Y296526D01*
X330981D01*
X331353Y296898D01*
X335476D01*
X335533Y296791D01*
G03X336448Y296236I916J478D01*
G01X337552D01*
G03X338289Y296546I-1J1033D01*
G02X338861I286J-280D01*
G03X339598Y296236I738J723D01*
G01X340702D01*
G03X341734Y297268I-1J1033D01*
G01Y298332D01*
G03X341721Y298498I-1033J3D01*
G02X342115Y298962I395J64D01*
G01X354814D01*
X357769Y296007D01*
X357784Y295963D01*
G03X359937Y298116I1616J537D01*
G01X359893Y298131D01*
X357623Y300400D01*
X361602Y304378D01*
Y322922D01*
X357122Y327402D01*
X338178D01*
X332362Y321586D01*
Y312115D01*
G02X331898Y311721I-400J1D01*
G03X331732Y311734I-163J-1020D01*
G01X330668D01*
G03X329636Y310702I1J-1033D01*
G01Y309598D01*
G03X329946Y308861I1033J1D01*
G02Y308289I-280J-286D01*
G03X329744Y308012I722J-739D01*
G01X329689Y307902D01*
X329427D01*
X323018Y301493D01*
G02X322336Y301776I-282J283D01*
G01Y302416D01*
X323792Y303873D01*
Y305081D01*
G03X324264Y305948I-561J867D01*
G01Y307052D01*
G03X323954Y307789I-1033J-1D01*
G02Y308361I280J286D01*
G03X324264Y309098I-723J738D01*
G01Y310202D01*
G03X323792Y311069I-1033J0D01*
G01Y314789D01*
G03X323989Y314946I-540J880D01*
G02X324561I286J-280D01*
G03X325298Y314636I738J723D01*
G01X326402D01*
G03X327434Y315668I-1J1033D01*
G01Y316732D01*
G03X326402Y317764I-1033J-1D01*
G01X325298D01*
G03X324561Y317454I1J-1033D01*
G02X323989I-286J280D01*
G03X323792Y317611I-737J-723D01*
G01Y318281D01*
G03X324264Y319148I-561J867D01*
G01Y320252D01*
G03X323954Y320989I-1033J-1D01*
G02Y321561I280J286D01*
G03X324264Y322298I-723J738D01*
G01Y323402D01*
G03X323792Y324269I-1033J0D01*
G01Y325753D01*
X322264Y327281D01*
Y327752D01*
G03X321954Y328489I-1033J-1D01*
G02Y329061I280J286D01*
G03X322264Y329798I-723J738D01*
G01Y330160D01*
G02X322828Y330525I400J0D01*
G03X323247Y330436I419J944D01*
G01X324352D01*
G03X325089Y330746I-1J1033D01*
G02X325661I286J-280D01*
G03X326398Y330436I738J723D01*
G01X327502D01*
G03X328534Y331468I-1J1033D01*
G01Y332532D01*
G03X327502Y333564I-1033J-1D01*
G01X326398D01*
G03X325661Y333254I1J-1033D01*
G02X325089I-286J280D01*
G03X324352Y333564I-738J-723D01*
G01X323246D01*
G03X322601Y333337I1J-1033D01*
G01X322546Y333292D01*
X322264D01*
Y334452D01*
G03X321954Y335189I-1033J-1D01*
G02Y335761I280J286D01*
G03X322264Y336498I-723J738D01*
G01Y337602D01*
G03X321792Y338469I-1033J0D01*
G01Y346021D01*
G03X321939Y346146I-593J846D01*
G02X322511I286J-280D01*
G03X323248Y345836I738J723D01*
G01X324352D01*
G03X325384Y346868I-1J1033D01*
G01Y347932D01*
G03X324352Y348964I-1033J-1D01*
G01X323248D01*
G03X322714Y348815I0J-1033D01*
G02X322107Y349157I-207J342D01*
G01Y350682D01*
X381804D01*
Y350800D01*
X389700D01*
Y189703D01*
X389701Y178511D01*
Y8000D01*
G02X385701Y4000I-4000J0D01*
G01X293635D01*
G02X293353Y4683I1J400D01*
G01X296858Y8188D01*
X296982Y8136D01*
G03X295036Y10082I1418J3364D01*
G01X295088Y9958D01*
X290782Y5652D01*
X267418D01*
X249052Y24018D01*
Y29909D01*
G03X249209Y30093I-702J758D01*
G02X249541I166J-112D01*
G03X250398Y29636I857J576D01*
G01X251502D01*
G03X252242Y29948I0J1033D01*
G01X279795D01*
X281148Y28595D01*
Y28091D01*
G03X280991Y27907I702J-758D01*
G02X280659I-166J112D01*
G03X279802Y28364I-857J-576D01*
G01X278698D01*
G03X277666Y27332I1J-1033D01*
G01Y26268D01*
G03X278698Y25236I1033J1D01*
G01X279802D01*
G03X280539Y25546I-1J1033D01*
G02X281111I286J-280D01*
G03X281848Y25236I738J723D01*
G01X282952D01*
G03X283867Y25791I-1J1033D01*
G01X283924Y25898D01*
X290690D01*
X290693Y25901D01*
G02X291275Y25884I283J-283D01*
G03X291588Y25644I774J685D01*
G01X291698Y25589D01*
Y16073D01*
X290266Y14641D01*
X290135Y14712D01*
G03X291612Y13235I-1735J-3212D01*
G01X291541Y13366D01*
X293502Y15327D01*
Y25589D01*
X293612Y25644D01*
G03X293889Y25846I-462J924D01*
G02X294461I286J-280D01*
G03X295198Y25536I738J723D01*
G01X296302D01*
G03X297334Y26568I-1J1033D01*
G01Y27632D01*
G03X296302Y28664I-1033J-1D01*
G01X295198D01*
G03X294461Y28354I1J-1033D01*
G02X293889I-286J280D01*
G03X293682Y28518I-740J-721D01*
G01X293660Y28531D01*
X293502Y28690D01*
X293602Y28790D01*
Y32589D01*
X293712Y32644D01*
G03X293989Y32846I-462J924D01*
G02X294561I286J-280D01*
G03X295298Y32536I738J723D01*
G01X296402D01*
G03X297434Y33568I-1J1033D01*
G01Y34632D01*
G03X296402Y35664I-1033J-1D01*
G01X295298D01*
G03X294441Y35207I0J-1033D01*
G02X294109I-166J112D01*
G03X293952Y35391I-859J-574D01*
G01Y35895D01*
X295385Y37328D01*
X297885D01*
X306948Y28265D01*
Y27742D01*
G03X306636Y27002I721J-740D01*
G01Y25898D01*
G03X306946Y25161I1033J1D01*
G02Y24589I-280J-286D01*
G03X306636Y23852I723J-738D01*
G01Y22748D01*
G03X307191Y21833I1033J1D01*
G01X307290Y21780D01*
Y15373D01*
X307490Y15173D01*
Y15150D01*
X307332Y14992D01*
X307286Y14977D01*
G03X309444Y14998I1113J-3477D01*
G01X309310Y15039D01*
Y15927D01*
X309110Y16127D01*
Y21780D01*
X309209Y21833D01*
G03X309764Y22748I-478J916D01*
G01Y23852D01*
G03X309755Y23994I-1033J6D01*
G02X310151Y24448I396J54D01*
G01X311745D01*
G03Y26952I1155J1252D01*
G01X310375D01*
X310341Y26986D01*
X309779D01*
X309753Y27156D01*
G03X309452Y27742I-1022J-154D01*
G01Y29301D01*
X298921Y39832D01*
X294349D01*
X291448Y36931D01*
Y35391D01*
G03X291116Y34632I701J-759D01*
G01Y33568D01*
G37*
G36*
G01X297022Y251801D02*
X289608Y259216D01*
G02X289891Y259898I283J282D01*
G01X289985D01*
X301402Y271315D01*
Y273561D01*
X301415Y273596D01*
G03X301484Y273968I-964J371D01*
G01Y275032D01*
G03X301129Y275811I-1033J0D01*
G02X301108Y276396I262J302D01*
G01X302734Y278022D01*
X306325D01*
G02X306683Y277444I0J-400D01*
G03X306597Y277210I975J-491D01*
G01X306584Y277155D01*
X305048Y275619D01*
Y268511D01*
X304938Y268456D01*
G03X304661Y268254I462J-924D01*
G02X304089I-286J280D01*
G03X303352Y268564I-738J-723D01*
G01X302248D01*
G03X301216Y267532I1J-1033D01*
G01Y266468D01*
G03X302248Y265436I1033J1D01*
G01X303352D01*
G03X304089Y265746I-1J1033D01*
G02X304661I286J-280D01*
G03X305398Y265436I738J723D01*
G01X306502D01*
G03X307534Y266468I-1J1033D01*
G01Y267532D01*
G03X306962Y268456I-1033J0D01*
G01X306852Y268511D01*
Y274873D01*
X307843Y275864D01*
X309628D01*
G03X309857Y275888I1J1092D01*
G02X310332Y275413I84J-391D01*
G03X310308Y275184I1068J-228D01*
G01Y273216D01*
G03X311889Y272239I1092J-1D01*
G02X312468Y271881I179J-358D01*
G01Y269742D01*
X304227Y261502D01*
X302045D01*
G03Y259698I-1445J-902D01*
G01X304973D01*
X307216Y261941D01*
G02X307899Y261658I283J-283D01*
G01Y259345D01*
G03X309702I902J-1445D01*
G01Y261427D01*
X316238Y267964D01*
Y271881D01*
G02X316817Y272239I400J0D01*
G03X318026Y272395I489J977D01*
G02X318554I264J-301D01*
G03X319995I720J821D01*
G02X320522I264J-301D01*
G03X321963I721J821D01*
G02X322491I264J-301D01*
G03X323932I720J821D01*
G02X324459I263J-301D01*
G03X325900I720J821D01*
G02X326428I264J-301D01*
G03X327637Y272239I720J821D01*
G02X328216Y271881I179J-358D01*
G01Y270373D01*
X328298Y270290D01*
Y270203D01*
G03X327616Y269232I351J-971D01*
G01Y268168D01*
G03X327685Y267796I1033J-1D01*
G01X327698Y267761D01*
Y265515D01*
X328164Y265049D01*
Y253812D01*
X329492Y252484D01*
G02X329209Y251801I-283J-283D01*
G01X297022D01*
G37*
G36*
G01X277944Y353598D02*
Y377889D01*
X378653D01*
Y373125D01*
X314086D01*
Y366039D01*
X318023D01*
Y364062D01*
X321606Y358865D01*
Y350684D01*
X319794D01*
Y358302D01*
X317743Y361275D01*
X305424D01*
Y366039D01*
X309361D01*
Y369188D01*
X286527D01*
Y358676D01*
X318023D01*
Y350684D01*
X314086D01*
Y353598D01*
X309361D01*
Y350684D01*
X305424D01*
Y353598D01*
X277944D01*
G37*
G36*
G01X340577Y301966D02*
G02X340294Y302648I0J400D01*
G01X343544Y305898D01*
X344726D01*
X344783Y305791D01*
G03X345698Y305236I916J478D01*
G01X346802D01*
G03X347539Y305546I-1J1033D01*
G02X348111I286J-280D01*
G03X348848Y305236I738J723D01*
G01X349952D01*
G03X350984Y306268I-1J1033D01*
G01Y307332D01*
G03X349952Y308364I-1033J-1D01*
G01X348848D01*
G03X348111Y308054I1J-1033D01*
G02X347539I-286J280D01*
G03X347262Y308256I-739J-722D01*
G01X347152Y308311D01*
Y308639D01*
X348330Y309818D01*
X349921D01*
G03X351201Y311112I-8J1288D01*
G01X351200Y311113D01*
Y313069D01*
X351201Y313070D01*
G03X349921Y314364I-1288J6D01*
G01X348335D01*
G03X347215Y313697I8J-1287D01*
G02X346513I-351J192D01*
G03X345393Y314364I-1128J-620D01*
G01X343807D01*
G03X342527Y313070I8J-1288D01*
G01X342528Y313069D01*
Y311113D01*
X342527Y311112D01*
G03X343807Y309818I1288J-6D01*
G01X345298D01*
G02X345439Y309476I0J-200D01*
G01X345348Y309385D01*
Y308311D01*
X345238Y308256D01*
G03X344783Y307809I461J-924D01*
G01X344726Y307702D01*
X342798D01*
X341084Y305988D01*
G02X340402Y306271I-282J283D01*
G01Y313676D01*
X340509Y313733D01*
G03X340956Y314188I-477J916D01*
G01X341011Y314298D01*
X342373D01*
X343614Y315539D01*
X343706Y315531D01*
G03X343807Y315526I114J1283D01*
G01X345393D01*
G03X346513Y316194I-9J1288D01*
G02X347215I351J-192D01*
G03X348335Y315526I1129J620D01*
G01X349921D01*
G03X351201Y316821I-8J1288D01*
G01X351200Y316822D01*
Y318778D01*
X351201Y318779D01*
G03X349921Y320074I-1288J7D01*
G01X348335D01*
G03X347215Y319406I9J-1288D01*
G02X346513I-351J192D01*
G03X345393Y320074I-1129J-620D01*
G01X343807D01*
G03X342527Y318779I8J-1288D01*
G01X342528Y318778D01*
Y317002D01*
X341627Y316102D01*
X341011D01*
X340956Y316212D01*
G03X340754Y316489I-924J-462D01*
G02Y317061I280J286D01*
G03X341064Y317798I-723J738D01*
G01Y318902D01*
G03X340032Y319934I-1033J-1D01*
G01X338968D01*
G03X337936Y318902I1J-1033D01*
G01Y317798D01*
G03X338246Y317061I1033J1D01*
G02Y316489I-280J-286D01*
G03X337936Y315752I723J-738D01*
G01Y314648D01*
G03X338491Y313733I1033J1D01*
G01X338598Y313676D01*
Y305482D01*
X337882Y304766D01*
X329806D01*
G02X329523Y305448I0J400D01*
G01X329858Y305783D01*
X329998Y305663D01*
G03X330668Y305416I670J786D01*
G01X331732D01*
G03X332644Y305964I0J1033D01*
G01X333548D01*
X335366Y307782D01*
Y320342D01*
X339422Y324398D01*
X355878D01*
X358598Y321678D01*
Y305622D01*
X354942Y301966D01*
X340577D01*
G37*
G36*
G01X306542Y295574D02*
X306514Y295602D01*
X306073D01*
X303473Y298202D01*
X302511D01*
X302456Y298312D01*
G03X302254Y298589I-924J-462D01*
G02Y299161I280J286D01*
G03X302564Y299898I-723J738D01*
G01Y301002D01*
G03X301532Y302034I-1033J-1D01*
G01X300468D01*
G03X299436Y301002I1J-1033D01*
G01Y299898D01*
G03X299566Y299396I1033J0D01*
G02X299217Y298802I-349J-194D01*
G01X299059D01*
X298112Y299748D01*
Y302711D01*
X296331Y304493D01*
X296316Y304537D01*
G03X296202Y304804I-1618J-533D01*
G01Y314178D01*
X298622Y316598D01*
X304341D01*
X305498Y315441D01*
Y315283D01*
G02X304904Y314934I-400J0D01*
G03X304402Y315064I-502J-903D01*
G01X303298D01*
G03X302266Y314032I1J-1033D01*
G01Y312968D01*
G03X303298Y311936I1033J1D01*
G01X304402D01*
G03X305139Y312246I-1J1033D01*
G02X305711I286J-280D01*
G03X305988Y312044I739J722D01*
G01X306098Y311989D01*
Y310311D01*
X305988Y310256D01*
G03X305711Y310054I462J-924D01*
G02X305139I-286J280D01*
G03X304402Y310364I-738J-723D01*
G01X303298D01*
G03X302266Y309332I1J-1033D01*
G01Y308268D01*
G03X303298Y307236I1033J1D01*
G01X304402D01*
G03X305139Y307546I-1J1033D01*
G02X305711I286J-280D01*
G03X306448Y307236I738J723D01*
G01X307310D01*
X309491Y305055D01*
X309280Y304844D01*
X309182Y304856D01*
G03X309052Y304864I-128J-1025D01*
G01X307948D01*
G03X307211Y304554I1J-1033D01*
G02X306639I-286J280D01*
G03X305902Y304864I-738J-723D01*
G01X304798D01*
G03X303766Y303832I1J-1033D01*
G01Y302768D01*
G03X304798Y301736I1033J1D01*
G01X305902D01*
G03X306639Y302046I-1J1033D01*
G02X307211I286J-280D01*
G03X307948Y301736I738J723D01*
G01X308810D01*
X310498Y300047D01*
Y299031D01*
X310469Y298983D01*
G03X310308Y298412I931J-571D01*
G01Y296444D01*
G03X310332Y296215I1092J-1D01*
G02X309857Y295740I-391J-84D01*
G03X309628Y295764I-228J-1068D01*
G01X307660D01*
G03X307089Y295603I0J-1092D01*
G01X307041Y295574D01*
X306542D01*
G37*
%LPC*%
G75*
G36*
G01X26057Y258878D02*
X25528D01*
Y259702D01*
X24262D01*
X22562Y261402D01*
X16072D01*
Y260578D01*
X13438D01*
X12882Y260023D01*
Y259923D01*
X12930Y259863D01*
G02X9903Y258660I-1330J-1063D01*
G01X9897Y258733D01*
X682Y267948D01*
X-21823D01*
X-26670Y263102D01*
Y260128D01*
X-26866D01*
G03X-27215Y259533I0J-400D01*
G02X-30185I-1485J-833D01*
G03X-30534Y260128I-349J195D01*
G01X-30822D01*
Y264872D01*
X-28439D01*
X-22859Y270452D01*
X1718D01*
X10701Y261469D01*
X11328Y262096D01*
Y264730D01*
X16072D01*
Y263906D01*
X23598D01*
X24846Y262658D01*
G03X25528Y262941I282J283D01*
G01Y263030D01*
X28502D01*
X32048Y266577D01*
Y268345D01*
G02X34552I1252J1155D01*
G01Y265541D01*
X31899Y262888D01*
G03X32182Y262206I283J-282D01*
G01X43893D01*
X43995Y262104D01*
G03X44677Y262387I282J283D01*
G01Y262772D01*
X48830D01*
Y258028D01*
X48589D01*
Y257803D01*
X48595Y257779D01*
G02X45258Y257576I-1649J-425D01*
G03X44862Y258028I-397J52D01*
G01X44678D01*
Y259148D01*
X43411D01*
X42857Y259702D01*
X30272D01*
Y258878D01*
X30039D01*
G03X29660Y258349I0J-400D01*
G02X26436I-1612J-549D01*
G03X26057Y258878I-379J129D01*
G37*
G36*
G01X-204417Y239352D02*
X-204331Y239438D01*
X-198422D01*
Y240872D01*
X-197134D01*
G03X-196785Y241467I0J400D01*
G02X-194270Y240944I1485J833D01*
G01Y237403D01*
X-187868Y231002D01*
X-169722D01*
Y232472D01*
X-165570D01*
Y227728D01*
X-169722D01*
Y229198D01*
X-188614D01*
X-195544Y236128D01*
X-198422D01*
Y237562D01*
X-202237D01*
G03X-202470Y237184I166J-363D01*
G02X-202469Y237102I-2272J-69D01*
G01Y233362D01*
G02X-203840Y231275I-2274J0D01*
G01Y205725D01*
G02X-202469Y203638I-903J-2087D01*
G01Y199898D01*
G02X-207015I-2273J0D01*
G01Y203638D01*
G02X-205644Y205725I2274J0D01*
G01Y231275D01*
G02X-207015Y233362I903J2087D01*
G01Y237102D01*
G02X-204417Y239352I2273J0D01*
G37*
G36*
G01X-37881Y144622D02*
Y146028D01*
X-38441D01*
X-42561Y150148D01*
X-62711D01*
X-65911Y153348D01*
X-82886D01*
G03X-83140Y152640I1J-400D01*
G02X-84013Y147886I-1760J-2134D01*
G01X-84148Y147840D01*
Y147111D01*
X-81989Y144952D01*
X-75322D01*
Y146472D01*
X-72232D01*
X-70052Y148652D01*
X-56140D01*
X-54560Y147072D01*
X-51470D01*
Y142328D01*
X-55622D01*
Y146009D01*
X-56762Y147148D01*
X-69430D01*
X-71170Y145409D01*
Y141728D01*
X-75322D01*
Y143348D01*
X-75883D01*
X-75983Y143448D01*
X-82611D01*
X-85652Y146489D01*
Y147840D01*
X-85787Y147886D01*
G02X-86660Y152640I887J2620D01*
G03X-86914Y153348I-255J308D01*
G01X-151469D01*
X-152622Y154501D01*
X-152733Y154472D01*
G02X-153158Y154418I-423J1628D01*
G01X-156702D01*
G02Y157782I0J1682D01*
G01X-153158D01*
G02X-151530Y155675I0J-1682D01*
G01X-151559Y155564D01*
X-150847Y154852D01*
X-138780D01*
G03X-138497Y155534I0J400D01*
G01X-143311Y160348D01*
X-151653D01*
G02X-153158Y159418I-1505J753D01*
G01X-156702D01*
G02Y162782I0J1682D01*
G01X-153158D01*
G02X-151653Y161852I0J-1683D01*
G01X-142689D01*
X-136889Y156052D01*
X-133980D01*
G03X-133697Y156734I0J400D01*
G01X-151311Y174348D01*
X-170655D01*
X-179655Y165348D01*
X-180393D01*
G02X-181898Y164418I-1505J753D01*
G01X-185442D01*
G02Y167782I0J1682D01*
G01X-181897D01*
G02X-180592Y167161I0J-1682D01*
G03X-179999Y167130I310J252D01*
G01X-172363Y174766D01*
G03X-172646Y175448I-283J282D01*
G01X-180191D01*
X-182515Y173124D01*
G03X-182374Y172782I141J-142D01*
G01X-181898D01*
G02Y169418I0J-1682D01*
G01X-185442D01*
G02X-186806Y170116I0J1682D01*
G01X-186866Y170198D01*
X-187150D01*
X-187904Y169444D01*
X-195328D01*
Y168270D01*
X-200072D01*
Y172422D01*
X-195328D01*
Y171248D01*
X-188650D01*
X-187896Y172002D01*
X-186863D01*
G02X-185444Y172782I1420J-903D01*
G01X-184422D01*
Y173343D01*
X-180813Y176952D01*
X-149589D01*
X-131489Y158852D01*
X-69222D01*
Y160348D01*
X-71560D01*
G02X-72009Y162852I-1340J1052D01*
G01X-69222D01*
Y163972D01*
X-65070D01*
Y158852D01*
X-62530D01*
Y163972D01*
X-58378D01*
Y158852D01*
X-49189D01*
X-47689Y157352D01*
X-45525D01*
G03X-45235Y158027I0J400D01*
G02X-42472Y159952I1235J1173D01*
G01X-41737D01*
X-41127Y159342D01*
X-37881D01*
Y159806D01*
X-39911D01*
X-41553Y161448D01*
X-45072D01*
G02Y162952I-1528J752D01*
G01X-40931D01*
X-39289Y161310D01*
X-37881D01*
Y168622D01*
G03X-38564Y168904I-400J0D01*
G01X-40120Y167348D01*
X-61178D01*
Y165728D01*
X-65330D01*
Y170472D01*
X-61178D01*
Y168852D01*
X-40742D01*
X-38441Y171152D01*
X-37881D01*
Y171618D01*
X-57809D01*
X-60295Y174103D01*
G03X-60978Y173820I-283J-283D01*
G01Y173228D01*
X-65130D01*
Y177972D01*
X-60978D01*
Y176352D01*
X-60418D01*
X-57187Y173121D01*
X-56020D01*
G03X-55737Y173803I0J400D01*
G01X-55901Y173968D01*
X-56010Y173942D01*
G02X-54706Y175426I-390J1658D01*
G03X-54308Y174986I398J-40D01*
G01X-38665D01*
X-38487Y175163D01*
G03X-38628Y175504I-142J141D01*
G01X-39722D01*
X-50946Y186728D01*
G03X-51628Y186445I-282J-283D01*
G01Y186170D01*
X-56372D01*
Y189189D01*
X-57646Y190463D01*
G03X-58328Y190180I-282J-283D01*
G01Y189970D01*
X-63072D01*
Y194122D01*
X-58328D01*
Y192848D01*
X-57763D01*
X-55238Y190322D01*
X-51628D01*
Y189048D01*
X-50998D01*
X-39058Y177108D01*
X-37881D01*
Y181460D01*
X-42023D01*
X-57811Y197248D01*
X-78572D01*
G02X-81800Y197897I-1528J752D01*
G03X-82482Y198155I-399J-25D01*
G01X-95089Y185548D01*
X-257643D01*
X-264342Y178850D01*
X-264637D01*
X-264978Y178509D01*
Y174828D01*
X-269130D01*
Y179572D01*
X-266040D01*
X-265259Y180352D01*
X-264964D01*
X-258265Y187052D01*
X-95711D01*
X-81111Y201652D01*
X-56681D01*
G03X-56398Y202334I0J400D01*
G01X-57012Y202948D01*
X-84889D01*
X-99189Y188648D01*
X-249272D01*
G02X-252170Y190411I-1528J751D01*
G03X-252492Y191048I-322J237D01*
G01X-265078D01*
Y189428D01*
X-269230D01*
Y194172D01*
X-265078D01*
Y192552D01*
X-104011D01*
X-89911Y206652D01*
X-68005D01*
G03X-67757Y207365I-1J400D01*
G02X-67855Y207448I1051J1340D01*
G01X-90982D01*
X-100882Y197548D01*
X-152269D01*
X-154498Y199778D01*
X-155407D01*
X-155748Y199436D01*
Y198355D01*
G02X-158252I-1252J-1155D01*
G01Y200602D01*
X-163372D01*
X-165952Y203182D01*
Y207918D01*
X-158718Y215152D01*
X-150344D01*
X-149131Y216365D01*
Y218738D01*
G02X-148110Y220635I2273J0D01*
G01Y246565D01*
G02X-149131Y248462I1252J1897D01*
G01Y252202D01*
G02X-144585I2273J0D01*
G01Y248462D01*
G02X-145606Y246565I-2273J0D01*
G01Y220635D01*
G02X-144585Y218738I-1252J-1897D01*
G01Y214998D01*
G02X-148379Y213309I-2273J0D01*
G03X-148654Y213302I-134J-149D01*
G01X-149308Y212648D01*
X-157682D01*
X-163448Y206882D01*
Y204218D01*
X-162336Y203106D01*
X-157472D01*
Y203930D01*
X-152728D01*
Y202606D01*
X-151943D01*
X-149389Y200052D01*
X-101918D01*
X-97555Y204415D01*
G03X-97849Y205098I-283J283D01*
G02X-99594Y206974I-51J1702D01*
G03X-99945Y207412I-398J41D01*
G01X-100496Y207962D01*
X-102345D01*
X-103211Y208828D01*
X-106230D01*
Y213572D01*
X-102078D01*
Y209962D01*
X-101681Y209566D01*
X-99832D01*
X-99284Y209018D01*
X-98984D01*
X-98399Y208432D01*
X-98290Y208458D01*
G02X-96198Y206749I390J-1658D01*
G03X-95515Y206455I400J-11D01*
G01X-92018Y209952D01*
X-67855D01*
G02X-65545I1155J-1252D01*
G01X-53682D01*
X-46736Y203006D01*
X-38572D01*
Y203830D01*
X-33828D01*
Y203006D01*
X-32562D01*
X-32108Y202552D01*
X-26482D01*
X-24246Y200316D01*
G03X-23564Y200599I282J283D01*
G01Y203001D01*
X-34122Y213559D01*
G03X-34803Y213243I-282J-283D01*
G02X-38158Y213490I-1697J-143D01*
G01X-38132Y213599D01*
X-39732Y215198D01*
X-56302D01*
X-56303Y215200D01*
X-57297D01*
X-57298Y215198D01*
X-72578D01*
Y213628D01*
X-76730D01*
Y218372D01*
X-75456D01*
Y219002D01*
X-75156Y219302D01*
Y228728D01*
X-76430D01*
Y233472D01*
X-72278D01*
Y228728D01*
X-73552D01*
Y218372D01*
X-72578D01*
Y216802D01*
X-39068D01*
X-38760Y216494D01*
X-38524Y216729D01*
X-38575Y216852D01*
G02X-35355Y217059I1575J648D01*
G01X-35385Y216948D01*
X-22060Y203623D01*
Y202919D01*
G03X-21497Y202554I400J0D01*
G02X-20174Y202584I697J-1554D01*
G03X-19626Y202955I148J372D01*
G01Y203364D01*
X-35911Y219648D01*
X-41611D01*
X-80948Y258985D01*
X-81059Y258955D01*
G02X-79855Y260159I-441J1645D01*
G01X-79885Y260048D01*
X-40989Y221152D01*
X-35712D01*
G03X-35571Y221493I0J200D01*
G01X-35926Y221848D01*
X-39011D01*
X-57248Y240085D01*
X-57359Y240055D01*
G02X-56155Y241259I-441J1645D01*
G01X-56185Y241148D01*
X-38389Y223352D01*
X-36980D01*
G03X-36697Y224034I0J400D01*
G01X-56652Y243989D01*
Y269089D01*
X-59511Y271948D01*
X-105272D01*
G02X-108328I-1528J752D01*
G01X-129189D01*
X-133885Y267252D01*
X-133855Y267141D01*
G02X-135059Y268345I-1645J-441D01*
G01X-134948Y268315D01*
X-129811Y273452D01*
X-108328D01*
G02X-105272I1528J-752D01*
G01X-103825D01*
G03X-103535Y274127I0J400D01*
G02X-103900Y274717I1235J1172D01*
G01X-103948Y274848D01*
X-131889D01*
X-134885Y271852D01*
X-134855Y271741D01*
G02X-136059Y272945I-1645J-441D01*
G01X-135948Y272915D01*
X-132511Y276352D01*
X-103640D01*
G02X-100960I1340J-1052D01*
G01X-89914D01*
G03X-89607Y277008I0J400D01*
G02X-89816Y277324I1307J1092D01*
G01X-90572D01*
X-90652Y277404D01*
X-133545D01*
G03X-133807Y276985I135J-376D01*
G02X-135059Y278445I-1693J-185D01*
G01X-134975Y278422D01*
X-134441Y278956D01*
X-90010D01*
X-89930Y278876D01*
X-89864D01*
X-89756Y278983D01*
X-89744Y279002D01*
G02X-86856I1444J-902D01*
G01X-86844Y278983D01*
X-86736Y278876D01*
X-86670D01*
X-86590Y278956D01*
X123941D01*
X143521Y259376D01*
X188479D01*
X188694Y259591D01*
G03X188503Y259848I-191J57D01*
G01X144789D01*
X124289Y280348D01*
X-81760D01*
G02X-84440I-1340J1052D01*
G01X-133272D01*
G02X-135904Y282396I-1528J752D01*
G01X-135834Y282456D01*
Y282748D01*
X-136489D01*
X-137785Y281452D01*
X-137755Y281341D01*
G02X-138959Y282545I-1645J-441D01*
G01X-138848Y282515D01*
X-137111Y284252D01*
X-98092D01*
X-98054Y284404D01*
G02X-97707Y285092I1655J-403D01*
G03X-98014Y285748I-307J256D01*
G01X-144672D01*
G02Y287252I-1528J752D01*
G01X-101302D01*
G03X-100903Y287661I-1J400D01*
G02X-100720Y288468I1703J38D01*
G03X-101077Y289048I-357J180D01*
G01X-103025D01*
G02X-105975I-1475J852D01*
G01X-147738D01*
X-148338Y288448D01*
X-149072D01*
G02X-151752Y290454I-1528J752D01*
G03X-152023Y291148I-271J294D01*
G01X-153572D01*
G02X-156527Y292830I-1528J753D01*
G03X-156862Y293448I-335J218D01*
G01X-157972D01*
G02Y294952I-1528J752D01*
G01X-109411D01*
X-109311Y295052D01*
X-108528D01*
G02X-105427Y294952I1528J-752D01*
G01X116727D01*
G02X119873I1573J-652D01*
G01X121564D01*
G03X121715Y295283I0J200D01*
G02X121472Y295648I1284J1118D01*
G01X120737D01*
X119937Y296448D01*
X-185389D01*
X-188485Y293352D01*
X-188455Y293241D01*
G02X-189659Y294445I-1645J-441D01*
G01X-189548Y294415D01*
X-186397Y297566D01*
G03X-186680Y298249I-283J283D01*
G01X-189612D01*
G03X-190009Y297801I0J-400D01*
G02X-193350Y297179I-1691J-200D01*
G03X-194020Y297363I-387J-99D01*
G01X-194248Y297135D01*
Y291311D01*
X-187070Y284132D01*
X-172470D01*
X-171952Y283615D01*
X-171841Y283645D01*
G02X-171260Y280303I441J-1645D01*
G01X-171333Y280297D01*
X-176848Y274782D01*
Y273252D01*
X-176092D01*
X-174245Y271405D01*
X-174172Y271399D01*
G02X-176009Y269562I-140J-1697D01*
G01X-176015Y269635D01*
X-177044Y270664D01*
G02X-177960Y270303I-1056J1336D01*
G01X-178033Y270297D01*
X-179316Y269014D01*
X-180357D01*
X-190570Y258802D01*
Y255828D01*
X-191394D01*
Y253972D01*
X-190570D01*
Y250291D01*
X-190229Y249950D01*
X-189934D01*
X-188902Y248919D01*
Y240872D01*
X-187578D01*
Y236128D01*
X-191730D01*
Y240872D01*
X-190406D01*
Y248297D01*
X-190556Y248448D01*
X-190851D01*
X-191632Y249228D01*
X-194722D01*
Y253972D01*
X-193898D01*
Y255828D01*
X-194722D01*
Y258802D01*
X-197818Y261897D01*
X-197891Y261903D01*
G02X-196054Y263740I140J1697D01*
G01X-196048Y263667D01*
X-192953Y260572D01*
X-192339D01*
X-181393Y271518D01*
X-180352D01*
X-179803Y272067D01*
X-179797Y272140D01*
G02X-179352Y273155I1697J-139D01*
G01Y275818D01*
X-173103Y282067D01*
X-173097Y282140D01*
G02X-173093Y282186I1698J-125D01*
G03X-173490Y282630I-398J44D01*
G01X-187692D01*
X-195752Y290689D01*
Y297757D01*
X-190458Y303050D01*
X-190163D01*
X-189822Y303391D01*
Y307072D01*
X-188498D01*
Y308169D01*
X-188598Y308269D01*
Y308828D01*
X-189922D01*
Y310448D01*
X-244389D01*
X-249448Y305389D01*
Y294865D01*
X-247950Y293366D01*
Y293071D01*
X-247609Y292730D01*
X-243928D01*
Y290347D01*
X-240233Y286652D01*
X-212282D01*
X-210333Y284703D01*
X-210260Y284697D01*
G02X-212097Y282860I-140J-1697D01*
G01X-212103Y282933D01*
X-213318Y284148D01*
X-241269D01*
X-245698Y288578D01*
X-248672D01*
Y291668D01*
X-249452Y292449D01*
Y292744D01*
X-250952Y294243D01*
Y306011D01*
X-245011Y311952D01*
X-189922D01*
Y313572D01*
X-185770D01*
Y308828D01*
X-186994D01*
Y307072D01*
X-185670D01*
Y302328D01*
X-186694D01*
G03X-187075Y301809I1J-400D01*
G02X-187273Y300370I-1625J-510D01*
G03X-186938Y299752I335J-218D01*
G01X-136500D01*
G03X-136120Y300275I0J400D01*
G02X-135252Y302328I1620J525D01*
G01Y335472D01*
G02X-133748I752J1528D01*
G01Y302328D01*
G02X-132880Y300275I-752J-1528D01*
G03X-132500Y299752I380J-123D01*
G01X-130662D01*
G03X-130327Y300370I0J400D01*
G02X-130545Y301741I1427J930D01*
G01X-130515Y301852D01*
X-131152Y302489D01*
Y339272D01*
G02X-129648I752J1528D01*
G01Y303111D01*
X-129452Y302915D01*
X-129341Y302945D01*
G02X-127473Y300370I441J-1645D01*
G03X-127138Y299752I335J-218D01*
G01X-123380D01*
G03X-123097Y300434I0J400D01*
G01X-125052Y302389D01*
Y337172D01*
G02X-123548I752J1528D01*
G01Y303011D01*
X-119989Y299452D01*
X124988D01*
X125002Y299636D01*
G02X128403Y299539I1698J-136D01*
G01X128404Y299458D01*
X140011Y287852D01*
X145728D01*
Y292130D01*
X150472D01*
Y290806D01*
X151872D01*
X152118Y291052D01*
X152678D01*
Y292672D01*
X154002D01*
Y294628D01*
X152678D01*
Y298293D01*
G03X151995Y298576I-400J0D01*
G01X150472Y297053D01*
Y294670D01*
X145728D01*
Y298822D01*
X146848D01*
Y322418D01*
X149397Y324967D01*
X149403Y325040D01*
G02X149455Y325341I1697J-138D01*
G01X149485Y325452D01*
X141589Y333348D01*
X68228D01*
G02X66840Y332403I-1528J752D01*
G01X66767Y332397D01*
X65752Y331382D01*
Y331182D01*
X56518Y321948D01*
X48355D01*
G02Y324452I-1155J1252D01*
G01X55482D01*
X63248Y332218D01*
Y332418D01*
X64997Y334167D01*
X65003Y334240D01*
G02X68228Y334852I1697J-140D01*
G01X142211D01*
X150548Y326515D01*
X150659Y326545D01*
G02X151240Y323203I441J-1645D01*
G01X151167Y323197D01*
X149352Y321382D01*
Y300438D01*
G03X150034Y300155I400J0D01*
G01X167431Y317552D01*
X196592D01*
X204506Y309638D01*
Y308372D01*
X205330D01*
Y303628D01*
X204406D01*
Y302072D01*
X205230D01*
Y297328D01*
X202188D01*
X202150Y297178D01*
G02X200644Y299297I-1650J422D01*
G03X201078Y299695I34J399D01*
G01Y302072D01*
X201902D01*
Y303628D01*
X201178D01*
Y308372D01*
X201267D01*
G03X201550Y309054I0J400D01*
G01X195556Y315048D01*
X168467D01*
X153473Y300054D01*
G03X153756Y299372I283J-282D01*
G01X154002D01*
Y299931D01*
X156623Y302552D01*
X164657D01*
X167850Y299358D01*
Y299063D01*
X168191Y298722D01*
X171872D01*
Y297398D01*
X174234D01*
X174938Y298102D01*
X175498D01*
Y299918D01*
X181028D01*
Y294782D01*
X175498D01*
Y295570D01*
G03X174864Y295894I-400J0D01*
G01X171872D01*
Y294570D01*
X167128D01*
Y297660D01*
X166348Y298441D01*
Y298736D01*
X164035Y301048D01*
X157245D01*
X156251Y300054D01*
G03X156534Y299372I283J-282D01*
G01X156830D01*
Y294628D01*
X155506D01*
Y292672D01*
X156830D01*
Y287852D01*
X159370D01*
Y292672D01*
X163522D01*
Y287852D01*
X167128D01*
Y292030D01*
X171872D01*
Y291734D01*
G03X172554Y291451I400J0D01*
G01X172905Y291802D01*
X175498D01*
Y293618D01*
X181028D01*
Y288482D01*
X175498D01*
Y290298D01*
X173527D01*
X172431Y289202D01*
X171872D01*
Y287852D01*
X191223D01*
G03X191580Y288432I0J400D01*
G02X191564Y288464I1515J778D01*
G01X191510Y288578D01*
X191028D01*
Y292730D01*
X195601D01*
G03X196000Y293106I0J400D01*
G02X198452Y291472I1700J-106D01*
G01Y289689D01*
X196297Y287534D01*
G03X196580Y286852I283J-282D01*
G01X196989D01*
X198985Y288848D01*
X198955Y288959D01*
G02X200565Y291103I1645J441D01*
G03X200945Y291597I-8J400D01*
G02X203352Y290472I1655J403D01*
G01Y289280D01*
G03X204034Y288997I400J0D01*
G01X206148Y291111D01*
Y293472D01*
G02X207652I752J1528D01*
G01Y290489D01*
X200011Y282848D01*
X160256D01*
G03X160106Y282078I0J-400D01*
G02X154854I-2626J-6487D01*
G03X154704Y282848I-150J370D01*
G01X134480D01*
G03X134197Y282166I0J-400D01*
G01X148811Y267552D01*
X180938D01*
G03X181273Y268170I0J400D01*
G02X181448Y270255I1427J930D01*
G01Y273718D01*
X182897Y275167D01*
X182903Y275240D01*
G02X184740Y273403I1697J-140D01*
G01X184667Y273397D01*
X183951Y272682D01*
Y270255D01*
G02X184127Y268170I-1251J-1156D01*
G03X184462Y267552I335J-218D01*
G01X187789D01*
X208098Y287860D01*
Y290960D01*
X210889Y293752D01*
X210989D01*
X211485Y294248D01*
X211455Y294359D01*
G02X212659Y293155I1645J441D01*
G01X212548Y293185D01*
X211611Y292248D01*
X211511D01*
X209600Y290338D01*
Y287238D01*
X188411Y266048D01*
X148189D01*
X125189Y289048D01*
X109817D01*
X109765Y288927D01*
G02X106635I-1565J673D01*
G01X106583Y289048D01*
X-97323D01*
G03X-97680Y288468I0J-400D01*
G02X-97497Y287661I-1520J-769D01*
G03X-97098Y287252I400J-9D01*
G01X126411D01*
X148311Y265352D01*
X188889D01*
X209689Y286152D01*
X213389D01*
X214185Y286948D01*
X214155Y287059D01*
G02X215359Y285855I1645J441D01*
G01X215248Y285885D01*
X214011Y284648D01*
X210311D01*
X207797Y282134D01*
G03X208080Y281452I283J-282D01*
G01X210772D01*
G02X213979Y280984I1528J-752D01*
G03X214656Y280768I394J67D01*
G01X214948Y281060D01*
Y281267D01*
X214849Y281325D01*
G02X216452Y281272I851J1475D01*
G01Y280438D01*
X215835Y279821D01*
G03X216019Y279151I283J-283D01*
G02X214084Y276724I-419J-1651D01*
G01X208021D01*
X200518Y269221D01*
G03X200880Y268652I362J-169D01*
G01X211119D01*
G02Y267148I1528J-752D01*
G01X200111D01*
X198797Y265834D01*
G03X199080Y265152I283J-282D01*
G01X208772D01*
G02X211727Y263470I1528J-753D01*
G03X212062Y262852I335J-218D01*
G01X214082D01*
X216288Y265057D01*
Y269943D01*
X214470Y271760D01*
X213219D01*
G02Y274264I-1155J1252D01*
G01X215506D01*
X218790Y270979D01*
Y264021D01*
X215118Y260348D01*
X203077D01*
X200630Y257902D01*
Y254928D01*
X199306D01*
Y254369D01*
X199291Y254354D01*
G03X199574Y253671I283J-283D01*
G01X200130D01*
Y250203D01*
X200639Y249694D01*
X200934D01*
X203320Y247308D01*
X203815D01*
X204852Y246272D01*
X207730D01*
Y241528D01*
X203578D01*
Y244997D01*
X203069Y245506D01*
X202574D01*
X200188Y247892D01*
X199893D01*
X198856Y248928D01*
X195978D01*
Y253672D01*
X197302D01*
Y254491D01*
X197398Y254587D01*
G03X197257Y254928I-141J141D01*
G01X196478D01*
Y258314D01*
X196098Y258693D01*
Y260067D01*
G02X195990Y260315I1503J802D01*
G03X195330Y260467I-378J-131D01*
G01X188911Y254048D01*
X138589D01*
X120689Y271948D01*
X-56420D01*
G03X-56703Y271266I0J-400D01*
G01X-55148Y269711D01*
Y244611D01*
X-34574Y224037D01*
G03X-33894Y224278I282J283D01*
G02X-30763Y225013I1694J-178D01*
G01X-30751Y224995D01*
X-30720Y224964D01*
X-30556D01*
X-30456Y225064D01*
X-20740D01*
X-10336Y214660D01*
Y213769D01*
G02X-10111Y213610I-867J-1466D01*
G03X-9784Y213763I127J154D01*
G01Y218122D01*
X-19510Y227848D01*
X-35211D01*
X-36448Y229085D01*
X-36559Y229055D01*
G02X-35355Y230259I-441J1645D01*
G01X-35385Y230148D01*
X-34589Y229352D01*
X-18888D01*
X-12785Y223248D01*
G03X-12102Y223544I283J283D01*
G02X-8755Y223159I1702J56D01*
G01X-8785Y223048D01*
X-6248Y220511D01*
Y208028D01*
G02X-5927Y207822I-753J-1527D01*
G03X-5600Y207977I127J155D01*
G01Y224354D01*
X-12402Y231155D01*
Y236873D01*
X-6073Y243202D01*
X120673D01*
X156802Y207073D01*
Y133629D01*
X156602Y133429D01*
Y133149D01*
X156686Y133089D01*
G02X154798Y133145I-986J-1389D01*
G01Y134175D01*
X154998Y134375D01*
Y206327D01*
X119927Y241398D01*
X-5327D01*
X-5644Y241081D01*
G03X-5387Y240399I283J-283D01*
G02X-3855Y238259I-113J-1699D01*
G01X-3885Y238148D01*
X-2689Y236952D01*
X40972D01*
G02Y235448I1528J-752D01*
G01X-3311D01*
X-4948Y237085D01*
X-5059Y237055D01*
G02X-7199Y238587I-441J1645D01*
G03X-7881Y238844I-399J-26D01*
G01X-10598Y236127D01*
Y231901D01*
X-4234Y225537D01*
G03X-3552Y225820I282J283D01*
G01Y228611D01*
X-2915Y229248D01*
X-2945Y229359D01*
G02X-1741Y228155I1645J441D01*
G01X-1852Y228185D01*
X-2048Y227989D01*
Y211523D01*
G03X-1449Y211176I400J0D01*
G02X-740Y211397I849J-1476D01*
G01X-667Y211403D01*
X502Y212572D01*
Y215528D01*
X-322D01*
Y220272D01*
X2356D01*
X3571Y221487D01*
G03X3430Y221828I-141J141D01*
G01X3378D01*
Y226572D01*
X7530D01*
Y221828D01*
X6706D01*
Y221082D01*
X6578Y220954D01*
G03X6861Y220271I283J-283D01*
G01X10522D01*
Y218952D01*
X11143D01*
X11199Y218999D01*
G02Y216401I1101J-1299D01*
G01X11143Y216448D01*
X10522D01*
Y215528D01*
X9698D01*
Y214374D01*
X9437Y214113D01*
G03X9578Y213772I141J-141D01*
G01X13723D01*
Y209551D01*
G03X14405Y209268I400J0D01*
G01X16969Y211832D01*
X24869D01*
X36089Y223052D01*
X64589D01*
X74689Y233152D01*
X95729D01*
X95880Y233302D01*
X98120D01*
X98271Y233152D01*
X124411D01*
X152952Y204611D01*
Y133089D01*
X142558Y122695D01*
G02X141495Y123758I-3058J-1995D01*
G01X151448Y133711D01*
Y203989D01*
X123789Y231648D01*
X99000D01*
G03X98620Y231125I0J-400D01*
G02X96559Y228955I-1620J-525D01*
G01X96448Y228985D01*
X82811Y215348D01*
X34011D01*
X31715Y213052D01*
X31745Y212941D01*
G02X31157Y211165I-1645J-441D01*
G03X31405Y210452I249J-313D01*
G01X82289D01*
X99185Y227348D01*
X99155Y227459D01*
G02X100359Y226255I1645J441D01*
G01X100248Y226285D01*
X83797Y209834D01*
G03X84080Y209152I283J-282D01*
G01X89889D01*
X106385Y225648D01*
X106355Y225759D01*
G02X107559Y224555I1645J441D01*
G01X107448Y224585D01*
X91397Y208534D01*
G03X91680Y207852I283J-282D01*
G01X117689D01*
X123789Y213952D01*
X128572D01*
G02Y212448I1528J-752D01*
G01X124411D01*
X119197Y207234D01*
G03X119480Y206552I283J-282D01*
G01X129289D01*
X133385Y210648D01*
X133355Y210759D01*
G02X134559Y209555I1645J441D01*
G01X134448Y209585D01*
X130517Y205654D01*
G03X130800Y204972I283J-282D01*
G01X132158D01*
X133138Y205952D01*
X134772D01*
G02X137820Y204432I1528J-753D01*
G03X138177Y203852I357J-180D01*
G01X146172D01*
G02Y202348I1528J-752D01*
G01X94380D01*
G03X94097Y201666I0J-400D01*
G01X140252Y155511D01*
Y144276D01*
X140402Y144238D01*
G02X136212Y139114I-902J-3538D01*
G03X135452Y138940I-360J-174D01*
G01Y135811D01*
X137505Y133758D01*
G02X136442Y132695I1995J-3058D01*
G01X133948Y135189D01*
Y155789D01*
X110246Y179492D01*
X53281D01*
Y175090D01*
X88627D01*
X90085Y176548D01*
X90055Y176659D01*
G02X91259Y175455I1645J441D01*
G01X91148Y175485D01*
X89249Y173586D01*
X53281D01*
Y173120D01*
X92458D01*
X94585Y175248D01*
X94555Y175359D01*
G02X95759Y174155I1645J441D01*
G01X95648Y174185D01*
X93080Y171618D01*
X53281D01*
Y169184D01*
X117028D01*
X117380Y168832D01*
X117431D01*
X117948Y168315D01*
X118059Y168345D01*
G02X116846Y167104I441J-1645D01*
G01X116872Y167214D01*
X116406Y167680D01*
X53281D01*
Y167216D01*
X111747D01*
X116811Y162152D01*
X117472D01*
G02Y160648I1528J-752D01*
G01X116189D01*
X111125Y165712D01*
X53281D01*
Y161810D01*
X54572D01*
X54614Y161852D01*
X56645D01*
G02Y159348I1155J-1252D01*
G01X55650D01*
X55608Y159306D01*
X53281D01*
Y157372D01*
X53840D01*
X53855Y157358D01*
X84943D01*
X85268Y157682D01*
Y157730D01*
X85785Y158248D01*
X85755Y158359D01*
G02X86993Y157146I1645J441D01*
G01X86884Y157173D01*
X85565Y155854D01*
X53281D01*
Y142609D01*
G03X53964Y142327I400J0D01*
G01X55748Y144111D01*
Y144972D01*
G02X57252I752J1528D01*
G01Y143489D01*
X54602Y140839D01*
G03X54885Y140156I283J-283D01*
G01X56646D01*
X61928Y145439D01*
Y147822D01*
X63248D01*
Y149430D01*
X62348Y150330D01*
Y152145D01*
G02X64852I1252J1155D01*
G01Y151366D01*
X65752Y150466D01*
Y147822D01*
X66672D01*
Y147733D01*
G03X67354Y147450I400J0D01*
G01X67702Y147798D01*
X73328D01*
Y148622D01*
X78072D01*
Y147798D01*
X124172D01*
X127619Y144351D01*
X133151D01*
Y137049D01*
X125849D01*
Y142581D01*
X123136Y145294D01*
X78072D01*
Y144470D01*
X73328D01*
Y145294D01*
X68738D01*
X67938Y144494D01*
X66672D01*
Y143670D01*
X63698D01*
X57682Y137654D01*
X53281D01*
Y135720D01*
X103043D01*
X124230Y114532D01*
X170230D01*
X170748Y114015D01*
X170859Y114045D01*
G02X171705Y110746I442J-1645D01*
G01X171552Y110708D01*
Y110352D01*
X172599D01*
G02X173600Y110852I1001J-752D01*
G01X174143D01*
X174199Y110899D01*
G02Y108301I1101J-1299D01*
G01X174143Y108348D01*
X173600D01*
G02X172599Y108848I0J1252D01*
G01X115989D01*
X92538Y132300D01*
X89836D01*
G03X89553Y131617I0J-400D01*
G01X113918Y107252D01*
X178145D01*
G02X180987Y105766I1155J-1252D01*
G03X181666Y105429I396J-54D01*
G01X245948Y169711D01*
Y295889D01*
X187589Y354248D01*
X-32972D01*
G02Y355752I-1528J752D01*
G01X188211D01*
X247452Y296511D01*
Y217962D01*
G03X248070Y217627I400J0D01*
G02X249752Y214672I929J-1427D01*
G01Y213389D01*
X247452Y211089D01*
Y169089D01*
X178911Y100548D01*
X42467D01*
X37460Y105555D01*
Y106119D01*
X36994D01*
Y104768D01*
X41711Y100052D01*
X78331D01*
X78358Y100026D01*
X195963D01*
X251248Y155311D01*
Y304489D01*
X197989Y357748D01*
X-34872D01*
G02Y359252I-1528J752D01*
G01X198611D01*
X252752Y305111D01*
Y240623D01*
G03X253351Y240276I400J0D01*
G02X253759Y237155I849J-1476D01*
G01X253648Y237185D01*
X252752Y236289D01*
Y154689D01*
X196585Y98522D01*
X80834D01*
G03X80552Y97840I1J-400D01*
G01X82295Y96096D01*
G03X82978Y96379I283J283D01*
G01Y96972D01*
X87130D01*
Y92228D01*
X82978D01*
Y93848D01*
X82417D01*
X77718Y98548D01*
X41089D01*
X37677Y101960D01*
G03X36994Y101677I-283J-283D01*
G01Y95747D01*
G03X37586Y95396I400J0D01*
G02X40045Y93459I814J-1496D01*
G01X40015Y93348D01*
X46822Y86541D01*
G03X47503Y86857I282J283D01*
G02X50355Y88252I1697J143D01*
G01X301318D01*
X312418Y77152D01*
X356918D01*
X369952Y64118D01*
Y29314D01*
X370462D01*
Y26066D01*
X366938D01*
Y29314D01*
X367448D01*
Y63082D01*
X355882Y74648D01*
X311382D01*
X300282Y85748D01*
X50355D01*
G02X49057Y85303I-1155J1252D01*
G03X48741Y84622I-33J-399D01*
G01X53111Y80252D01*
X265763D01*
X299321Y46694D01*
X299412Y46700D01*
G02X300385Y46337I89J-1248D01*
G01X318108Y28614D01*
X319862D01*
Y25366D01*
X316338D01*
Y26844D01*
X298615Y44567D01*
G02X298252Y45540I885J884D01*
G01X298258Y45631D01*
X265141Y78748D01*
X52489D01*
X38952Y92285D01*
X38841Y92255D01*
G02X37586Y92404I-441J1645D01*
G03X36994Y92053I-192J-351D01*
G01Y35732D01*
X16411Y15148D01*
X3489D01*
X1602Y17036D01*
Y19550D01*
X-2652D01*
Y18778D01*
X-2844Y18585D01*
Y14472D01*
X-1670D01*
Y9728D01*
X-5822D01*
Y14472D01*
X-4648D01*
Y19550D01*
X-6614D01*
Y22611D01*
G02X-5944Y23617I1093J-1D01*
G03X-5931Y23980I-78J185D01*
G02X-6039Y24045I407J798D01*
G03X-6597Y23949I-231J-326D01*
G02X-7489Y23486I-893J630D01*
G01X-10550D01*
Y33520D01*
X-11322D01*
X-11601Y33798D01*
X-26078D01*
Y32328D01*
X-30230D01*
Y37072D01*
X-26078D01*
Y35602D01*
X-10855D01*
X-10767Y35514D01*
X-10461D01*
G03X-10178Y36196I0J400D01*
G01X-13079Y39097D01*
X-13152Y39103D01*
G02X-11315Y40940I140J1697D01*
G01X-11309Y40867D01*
X-7222Y36780D01*
Y35489D01*
X-7095Y35440D01*
G02X-6597Y35051I-395J-1019D01*
G03X-6039Y34955I327J230D01*
G02X-5931Y35020I515J-733D01*
G03X-5944Y35383I-91J178D01*
G02X-6614Y36389I423J1007D01*
G01Y39450D01*
X-6526Y39663D01*
X-16352Y49490D01*
Y102445D01*
X-13720Y105077D01*
Y106119D01*
X-18124D01*
Y90814D01*
X-60748Y48189D01*
Y30976D01*
X-60598Y30938D01*
G02X-62402I-902J-3538D01*
G01X-62252Y30976D01*
Y48811D01*
X-19626Y91436D01*
Y106119D01*
X-20092D01*
Y95294D01*
X-23537Y91848D01*
X-46172D01*
G02Y93352I-1528J752D01*
G01X-24159D01*
X-21594Y95916D01*
Y101556D01*
X-21919D01*
X-21974Y101445D01*
G02X-22248Y101045I-1528J753D01*
G01Y100036D01*
X-22778Y99507D01*
Y96828D01*
X-26930D01*
Y101006D01*
G03X-27458Y101386I-400J1D01*
G02X-28866Y101534I-542J1614D01*
G03X-29470Y101189I-204J-344D01*
G01Y96828D01*
X-33622D01*
Y101572D01*
X-29834D01*
G03X-29485Y102167I0J400D01*
G02X-29252Y104155I1485J834D01*
G01Y108841D01*
X-27842Y110251D01*
Y113029D01*
X-24064D01*
Y121133D01*
X-30288Y127357D01*
G03X-30971Y127075I-283J-283D01*
G01Y116158D01*
X-36606D01*
X-38899Y113866D01*
Y104145D01*
G02X-40702I-901J-1445D01*
G01Y113912D01*
G03X-41384Y114195I-400J0D01*
G01X-42048Y113531D01*
Y111355D01*
G02X-45000Y110298I-1252J-1155D01*
G03X-45682Y110604I-399J23D01*
G01X-49404Y106882D01*
G03X-49098Y106200I283J-283D01*
G02X-49384Y102841I98J-1700D01*
G01X-49407Y102846D01*
X-49554D01*
X-49604Y102797D01*
Y102697D01*
X-80722Y71578D01*
Y30970D01*
X-80598Y30938D01*
G02X-82402I-902J-3538D01*
G01X-82278Y30970D01*
Y72222D01*
X-51158Y103341D01*
Y103441D01*
X-50623Y103977D01*
X-50645Y104059D01*
G02X-50700Y104598I1645J440D01*
G03X-51382Y104904I-399J23D01*
G01X-78697Y77589D01*
G02X-78717Y77569I-541J521D01*
G01X-79437Y76848D01*
X-124889D01*
X-126649Y75088D01*
Y68849D01*
X-133951D01*
Y76151D01*
X-127712D01*
X-125511Y78352D01*
X-80059D01*
X-79802Y78609D01*
G02X-79779Y78632I542J-520D01*
G01X-44552Y113860D01*
Y114049D01*
G02X-44185Y114934I1252J-1D01*
G01X-39365Y119754D01*
G03X-39648Y120437I-283J283D01*
G01X-40911D01*
G03X-41308Y119992I1J-400D01*
G02X-43441Y118155I-1692J-192D01*
G01X-43552Y118185D01*
X-57289Y104448D01*
X-107789D01*
X-112348Y99889D01*
Y99389D01*
X-127242Y84495D01*
G02X-128305Y85558I-3058J-1995D01*
G01X-113852Y100011D01*
Y100511D01*
X-108411Y105952D01*
X-57911D01*
X-44615Y119248D01*
X-44645Y119359D01*
G02X-44291Y120911I1645J441D01*
G01X-44584Y121183D01*
X-44914Y120852D01*
X-49828D01*
Y119578D01*
X-54572D01*
Y120698D01*
X-56378D01*
Y119128D01*
X-57202D01*
Y115328D01*
X-59697Y112833D01*
X-59703Y112760D01*
G02X-61540Y114597I-1697J140D01*
G01X-61467Y114603D01*
X-59706Y116364D01*
Y119128D01*
X-60531D01*
Y123713D01*
G03X-60872Y123854I-200J-1D01*
G01X-60927Y123798D01*
X-63070D01*
Y119128D01*
X-67222D01*
Y123798D01*
X-69389D01*
X-69782Y123405D01*
G03X-69500Y122722I283J-283D01*
G01X-68928D01*
Y118570D01*
X-73672D01*
Y122722D01*
X-72102D01*
Y123353D01*
X-70053Y125402D01*
X-67222D01*
Y129898D01*
X-72767D01*
X-83767Y118898D01*
X-97132D01*
X-101701Y123468D01*
X-101810Y123442D01*
G02X-100542Y124710I-390J1658D01*
G01X-100568Y124601D01*
X-96468Y120502D01*
X-84431D01*
X-74067Y130866D01*
G03X-74350Y131548I-283J282D01*
G01X-74789D01*
X-84689Y121648D01*
X-92111D01*
X-106311Y135848D01*
X-113545D01*
X-113582Y135885D01*
X-113828Y135783D01*
Y134870D01*
X-118572D01*
Y136194D01*
X-124498D01*
X-129032Y140728D01*
X-132122D01*
Y142054D01*
X-132828D01*
X-135991Y138890D01*
X-135940Y138767D01*
G02X-135769Y137902I-2102J-865D01*
G01Y134162D01*
G02X-137167Y132064I-2273J0D01*
G01X-137290Y132013D01*
Y106587D01*
X-137167Y106536D01*
G02X-135769Y104438I-875J-2098D01*
G01Y100698D01*
G02X-140315I-2273J0D01*
G01Y104438D01*
G02X-138917Y106536I2273J0D01*
G01X-138794Y106587D01*
Y132013D01*
X-138917Y132064D01*
G02X-140315Y134162I875J2098D01*
G01Y137902D01*
G02X-137177Y140004I2273J0D01*
G01X-137054Y139953D01*
X-133450Y143556D01*
X-132122D01*
Y145472D01*
X-127970D01*
Y141791D01*
X-123876Y137698D01*
X-118572D01*
Y139022D01*
X-113828D01*
Y137698D01*
X-113269D01*
X-112923Y137352D01*
X-105689D01*
X-91489Y123152D01*
X-85311D01*
X-75411Y133052D01*
X-70921D01*
G03X-70638Y133734I0J400D01*
G01X-72232Y135328D01*
X-75322D01*
Y136948D01*
X-82089D01*
X-84148Y134889D01*
Y133960D01*
X-84013Y133914D01*
G02X-85787I-887J-2620D01*
G01X-85652Y133960D01*
Y135511D01*
X-82711Y138452D01*
X-75322D01*
Y140072D01*
X-71170D01*
Y136391D01*
X-69130Y134352D01*
X-58562D01*
X-55622Y137291D01*
Y140972D01*
X-51470D01*
Y136228D01*
X-54560D01*
X-57054Y133734D01*
G03X-56771Y133052I283J-282D01*
G01X-47910D01*
X-45416Y135546D01*
G03X-45699Y136228I-283J282D01*
G01X-48930D01*
Y140972D01*
X-45840D01*
X-45059Y141752D01*
X-39069D01*
G03X-38786Y142435I0J400D01*
G01X-40298Y143948D01*
X-44778D01*
Y142328D01*
X-48930D01*
Y147072D01*
X-44778D01*
Y145452D01*
X-39676D01*
X-38564Y144339D01*
G03X-37881Y144622I283J283D01*
G37*
G36*
G01X101550Y373772D02*
X102122D01*
Y369028D01*
X97970D01*
Y373772D01*
X98794D01*
Y375038D01*
X99094Y375338D01*
Y376428D01*
X98270D01*
Y381172D01*
X102422D01*
Y376428D01*
X101598D01*
Y374302D01*
X101409Y374113D01*
G03X101550Y373772I141J-141D01*
G37*
G36*
G01X128050Y373272D02*
X128622D01*
Y368528D01*
X124470D01*
Y373272D01*
X125294D01*
Y374538D01*
X125494Y374738D01*
Y376028D01*
X124670D01*
Y380772D01*
X128822D01*
Y376028D01*
X127998D01*
Y373702D01*
X127909Y373613D01*
G03X128050Y373272I141J-141D01*
G37*
G36*
G01X91578Y376428D02*
Y376813D01*
G03X90895Y377096I-400J0D01*
G01X88998Y375199D01*
Y375128D01*
X82203Y368333D01*
X82197Y368260D01*
G02X80360Y370097I-1697J140D01*
G01X80433Y370103D01*
X86494Y376164D01*
Y376235D01*
X90311Y380052D01*
X91578D01*
Y381172D01*
X95730D01*
Y376428D01*
X91578D01*
G37*
G36*
G01X86560Y369997D02*
X86633Y370003D01*
X89282Y372652D01*
X91278D01*
Y373772D01*
X95430D01*
Y369028D01*
X91278D01*
Y370148D01*
X90318D01*
X88403Y368233D01*
X88397Y368160D01*
G02X86560Y369997I-1697J140D01*
G37*
G36*
G01X-25455Y364748D02*
X-61882D01*
X-63897Y362733D01*
X-63903Y362660D01*
G02X-65740Y364497I-1697J140D01*
G01X-65667Y364503D01*
X-62918Y367252D01*
X-25455D01*
G02Y364748I1155J-1252D01*
G37*
G36*
G01X-162955Y369059D02*
X-162985Y368948D01*
X-151089Y357052D01*
X-148451D01*
Y359951D01*
X-141149D01*
Y352649D01*
X-148451D01*
Y355548D01*
X-151711D01*
X-164048Y367885D01*
X-164159Y367855D01*
G02X-162955Y369059I-441J1645D01*
G37*
G36*
G01X-45652Y327228D02*
Y329272D01*
G02X-44148I752J1528D01*
G01Y327228D01*
G02X-45652I-752J-1528D01*
G37*
G36*
G01X18365Y337428D02*
X16798D01*
X12652Y333282D01*
Y310718D01*
X13667Y309703D01*
X13740Y309697D01*
G02X11903Y307860I-140J-1697D01*
G01X11897Y307933D01*
X10148Y309682D01*
Y334318D01*
X15762Y339932D01*
X18365D01*
G02Y337428I1155J-1252D01*
G37*
G36*
G01X130455Y306141D02*
X130485Y306252D01*
X119489Y317248D01*
X43589D01*
X27989Y332848D01*
X22628D01*
G02Y334352I-1528J752D01*
G01X28611D01*
X44211Y318752D01*
X120111D01*
X131548Y307315D01*
X131659Y307345D01*
G02X130455Y306141I441J-1645D01*
G37*
G36*
G01X185349Y302328D02*
X184570D01*
Y307072D01*
X188722D01*
Y302328D01*
X187398D01*
Y301769D01*
X186888Y301260D01*
Y299918D01*
X188902D01*
Y298102D01*
X189462D01*
X189466Y298098D01*
X191028D01*
Y299422D01*
X195772D01*
Y295270D01*
X191028D01*
Y296594D01*
X188902D01*
Y294782D01*
X183372D01*
Y299918D01*
X185386D01*
Y301882D01*
X185490Y301987D01*
G03X185349Y302328I-141J141D01*
G37*
G36*
G01X-202071Y298522D02*
X-197328D01*
Y294370D01*
X-202072D01*
Y295544D01*
X-202843D01*
X-203547Y296248D01*
X-204998D01*
Y294582D01*
X-210528D01*
Y299718D01*
X-208664D01*
Y300674D01*
X-208748Y300757D01*
Y301528D01*
X-209922D01*
Y306272D01*
X-205770D01*
Y301528D01*
X-206862D01*
Y299718D01*
X-204998D01*
Y298052D01*
X-202801D01*
X-202754Y298005D01*
G03X-202071Y298288I283J283D01*
G01Y298522D01*
G37*
G36*
G01X138552Y329945D02*
Y295318D01*
X141467Y292403D01*
X141540Y292397D01*
G02X139703Y290560I-140J-1697D01*
G01X139697Y290633D01*
X136048Y294282D01*
Y329945D01*
G02X138552I1252J1155D01*
G37*
G36*
G01X-237288Y299972D02*
X-236970D01*
Y295228D01*
X-238144D01*
Y294543D01*
X-237844Y294243D01*
Y293472D01*
X-236670D01*
Y288728D01*
X-240822D01*
Y293472D01*
X-239971D01*
X-239869Y293718D01*
X-239948Y293797D01*
Y295228D01*
X-241122D01*
Y296444D01*
X-243928D01*
Y295270D01*
X-248672D01*
Y299422D01*
X-243928D01*
Y298248D01*
X-242148D01*
X-241894Y298502D01*
X-241122D01*
Y299972D01*
X-239948D01*
Y300827D01*
X-237873Y302902D01*
X-226981D01*
X-224506Y300426D01*
Y300131D01*
X-223997Y299622D01*
X-220528D01*
Y298448D01*
X-218824D01*
X-218744Y298368D01*
G03X-218402Y298509I142J141D01*
G01Y299718D01*
X-212872D01*
Y294582D01*
X-218402D01*
Y296248D01*
X-219174D01*
X-219570Y296644D01*
X-220528D01*
Y295470D01*
X-225272D01*
Y298348D01*
X-226308Y299385D01*
Y299680D01*
X-227727Y301098D01*
X-237127D01*
X-237571Y300654D01*
G03X-237288Y299972I283J-282D01*
G37*
G36*
G01X-218402Y291756D02*
Y293418D01*
X-212872D01*
Y288282D01*
X-218402D01*
Y289948D01*
X-219174D01*
X-219178Y289952D01*
X-220528D01*
Y288778D01*
X-225272D01*
Y292930D01*
X-220528D01*
Y291756D01*
X-218402D01*
G37*
G36*
G01X-198940Y287170D02*
G02X-202072Y287532I-1640J-460D01*
G01Y291830D01*
X-197328D01*
Y287678D01*
X-198555D01*
G03X-198940Y287170I0J-400D01*
G37*
G36*
G01X180445Y274872D02*
X180622D01*
Y270128D01*
X176470D01*
Y274872D01*
X176555D01*
G03X176925Y275424I0J400D01*
G02X180075I1575J647D01*
G03X180445Y274872I370J-152D01*
G37*
G36*
G01X-209049Y271945D02*
Y269355D01*
G02X-210160Y266503I-1251J-1155D01*
G01X-210233Y266497D01*
X-211082Y265648D01*
X-212982D01*
X-215894Y262736D01*
Y261272D01*
X-215070D01*
Y256528D01*
X-215894D01*
Y256238D01*
X-215694Y256038D01*
Y254772D01*
X-214870D01*
Y250028D01*
X-219022D01*
Y251148D01*
X-247418D01*
X-258552Y262282D01*
Y321718D01*
X-228468Y351802D01*
X-91632D01*
X-89433Y349603D01*
X-89360Y349597D01*
G02X-91197Y347760I-140J-1697D01*
G01X-91203Y347833D01*
X-92668Y349298D01*
X-227432D01*
X-256048Y320682D01*
Y263318D01*
X-246382Y253652D01*
X-219022D01*
Y254772D01*
X-218450D01*
G03X-218309Y255113I0J200D01*
G01X-218398Y255202D01*
Y256528D01*
X-219222D01*
Y261272D01*
X-218398D01*
Y263772D01*
X-214018Y268152D01*
X-212118D01*
X-212003Y268267D01*
X-211997Y268340D01*
G02X-211552Y269355I1697J-139D01*
G01Y271945D01*
G02X-209049I1252J1155D01*
G37*
G36*
G01X118602Y366901D02*
Y368528D01*
X117778D01*
Y371502D01*
X107431Y381848D01*
X-207282D01*
X-261848Y327282D01*
Y261318D01*
X-247682Y247152D01*
X-214152D01*
X-211958Y249346D01*
G03X-212241Y250028I-283J282D01*
G01X-212330D01*
Y254772D01*
X-211506D01*
Y255062D01*
X-211706Y255262D01*
Y256528D01*
X-212530D01*
Y261272D01*
X-211706D01*
Y262538D01*
X-209492Y264752D01*
X-209357D01*
X-209301Y264799D01*
G02X-208687Y261868I1101J-1299D01*
G01X-208802Y261902D01*
X-209091Y261613D01*
G03X-208950Y261271I141J-142D01*
G01X-208378D01*
Y256528D01*
X-208950D01*
G03X-209091Y256187I0J-200D01*
G01X-209002Y256098D01*
Y254772D01*
X-208178D01*
Y250028D01*
X-209002D01*
Y248762D01*
X-213116Y244648D01*
X-248718D01*
X-264352Y260282D01*
Y328318D01*
X-208318Y384352D01*
X108467D01*
X119547Y373272D01*
X121930D01*
Y368528D01*
X121105D01*
Y366901D01*
G02X118602I-1251J-1155D01*
G37*
G36*
G01X172877Y252926D02*
G03X173577Y253172I300J264D01*
G01X177730D01*
Y248428D01*
X176906D01*
Y246902D01*
X176717Y246713D01*
G03X176858Y246372I141J-141D01*
G01X177430D01*
Y241628D01*
X173278D01*
Y246372D01*
X174102D01*
Y247638D01*
X174402Y247938D01*
Y248428D01*
X173578D01*
Y249548D01*
X172082D01*
X171533Y250097D01*
X171460Y250103D01*
G02X172877Y252926I140J1697D01*
G37*
G36*
G01X43955Y230641D02*
X43985Y230752D01*
X42389Y232348D01*
X-5772D01*
G02Y233852I-1528J752D01*
G01X43011D01*
X45048Y231815D01*
X45159Y231845D01*
G02X43955Y230641I441J-1645D01*
G37*
G36*
G01X-83537Y231402D02*
G03X-83122Y231802I15J400D01*
G01Y233472D01*
X-78970D01*
Y228728D01*
X-82201D01*
G02X-83537Y231402I-1399J972D01*
G37*
G36*
G01X-345416Y229589D02*
X-345248Y229616D01*
Y234528D01*
X-346422D01*
Y239272D01*
X-342270D01*
Y234528D01*
X-343444D01*
Y230529D01*
X-343368Y230452D01*
Y229626D01*
X-343197Y229601D01*
G02X-345416Y229589I-1071J-7214D01*
G37*
G36*
G01X-83818Y215097D02*
G02X-83178Y218385I18J1703D01*
G01X-83143Y218372D01*
X-79270D01*
Y213628D01*
X-83422D01*
Y214697D01*
G03X-83818Y215097I-400J0D01*
G37*
G36*
G01X-315480Y209998D02*
X-316680Y208798D01*
X-330342D01*
Y207042D01*
X-336858D01*
Y213558D01*
X-330342D01*
Y211802D01*
X-317924D01*
X-316724Y213002D01*
X-315103D01*
Y215052D01*
X-305439D01*
Y207948D01*
X-315103D01*
Y209998D01*
X-315480D01*
G37*
G36*
G01X-112922Y208828D02*
Y209213D01*
G03X-113605Y209496I-400J0D01*
G01X-115807Y207294D01*
X-152728D01*
Y206470D01*
X-157472D01*
Y210622D01*
X-152728D01*
Y209798D01*
X-118232D01*
G03X-117949Y210480I0J400D01*
G01X-123085Y215616D01*
X-126869D01*
Y214998D01*
G02X-131415I-2273J0D01*
G01Y218738D01*
G02X-130394Y220635I2273J0D01*
G01Y246565D01*
G02X-131415Y248462I1252J1897D01*
G01Y252202D01*
G02X-126869I2273J0D01*
G01Y248462D01*
G02X-127890Y246565I-2273J0D01*
G01Y220635D01*
G02X-127245Y219990I-1252J-1897D01*
G01X-125521D01*
X-115972Y229539D01*
Y231922D01*
X-111228D01*
Y227770D01*
X-114202D01*
X-123169Y218802D01*
G03X-122886Y218120I283J-282D01*
G01X-122049D01*
X-116381Y212452D01*
X-112922D01*
Y213572D01*
X-108770D01*
Y208828D01*
X-112922D01*
G37*
G36*
G01X-278055Y201102D02*
X-276222D01*
Y202572D01*
X-272070D01*
Y197828D01*
X-276222D01*
Y199298D01*
X-278055D01*
G02Y201102I-1445J902D01*
G37*
G36*
G01X201482Y243015D02*
X201465Y242913D01*
X209344Y235034D01*
X212585D01*
Y236002D01*
G02X212703Y236725I2274J0D01*
G01X212743Y236843D01*
X211444Y238141D01*
Y241528D01*
X210270D01*
Y246272D01*
X214422D01*
Y241528D01*
X213248D01*
Y238887D01*
X214017Y238117D01*
X214135Y238157D01*
G02X217131Y236002I723J-2155D01*
G01Y235034D01*
X226995D01*
X228020Y234008D01*
X228315D01*
X229352Y232972D01*
X232230D01*
Y228228D01*
X228078D01*
Y231697D01*
X227569Y232206D01*
X227274D01*
X226249Y233230D01*
X217131D01*
Y232262D01*
G02X215760Y230175I-2274J0D01*
G01Y204625D01*
G02X217131Y202538I-903J-2087D01*
G01Y198798D01*
G02X212585I-2273J0D01*
G01Y202538D01*
G02X213956Y204625I2274J0D01*
G01Y230175D01*
G02X212585Y232262I903J2087D01*
G01Y233230D01*
X208598D01*
X200190Y241638D01*
X200088Y241621D01*
G02X201482Y243015I-285J1679D01*
G37*
G36*
G01X-262345Y197941D02*
X-262315Y198052D01*
X-263711Y199448D01*
X-265378D01*
Y197828D01*
X-269530D01*
Y202572D01*
X-265378D01*
Y200952D01*
X-263089D01*
X-261252Y199115D01*
X-261141Y199145D01*
G02X-262345Y197941I441J-1645D01*
G37*
G36*
G01X-223360Y205725D02*
Y231275D01*
G02X-224731Y233362I903J2087D01*
G01Y237102D01*
G02X-220185I2273J0D01*
G01Y233362D01*
G02X-221556Y231275I-2274J0D01*
G01Y205725D01*
G02X-220185Y203638I-903J-2087D01*
G01Y199898D01*
G02X-220303Y199175I-2274J0D01*
G01X-220343Y199057D01*
X-216987Y195702D01*
X-191324D01*
X-169722Y217303D01*
Y220772D01*
X-165570D01*
Y216028D01*
X-168448D01*
X-190578Y193898D01*
X-217733D01*
X-221617Y197783D01*
X-221735Y197743D01*
G02X-224731Y199898I-723J2155D01*
G01Y203638D01*
G02X-223360Y205725I2274J0D01*
G37*
G36*
G01X-278255Y193502D02*
X-277225D01*
X-276425Y192702D01*
X-275922D01*
Y194172D01*
X-271770D01*
Y189428D01*
X-275922D01*
Y190898D01*
X-277171D01*
X-277971Y191698D01*
X-278251D01*
X-278311Y191614D01*
G02X-278255Y193502I-1389J986D01*
G37*
G36*
G01X-330512Y193621D02*
X-330466Y193484D01*
X-307506D01*
X-307243Y193748D01*
X-306472D01*
Y194922D01*
X-301728D01*
Y190770D01*
X-306472D01*
Y191621D01*
X-306718Y191723D01*
X-306760Y191682D01*
X-330466D01*
X-330512Y191545D01*
G02Y193621I-3088J1038D01*
G37*
G36*
G01X196240Y204625D02*
Y230175D01*
G02X194869Y232262I903J2087D01*
G01Y236002D01*
G02X199415I2273J0D01*
G01Y232262D01*
G02X198044Y230175I-2274J0D01*
G01Y204625D01*
G02X199415Y202538I-903J-2087D01*
G01Y198798D01*
G02X198394Y196901I-2273J0D01*
G01Y195258D01*
X197598Y194462D01*
Y193472D01*
X198422D01*
Y188728D01*
X194270D01*
Y193472D01*
X195094D01*
Y195498D01*
X195890Y196294D01*
Y196901D01*
G02X194869Y198798I1252J1897D01*
G01Y202538D01*
G02X196240Y204625I2274J0D01*
G37*
G36*
G01X-65528Y183378D02*
X-66100D01*
G03X-66382Y182695I1J-400D01*
G01X-66043Y182356D01*
X-56372D01*
Y183630D01*
X-51628D01*
Y179478D01*
X-56372D01*
Y180752D01*
X-66707D01*
X-68702Y182747D01*
Y183378D01*
X-70272D01*
Y184202D01*
X-71538D01*
X-75837Y188501D01*
X-75905Y188509D01*
G02X-76855Y188948I205J1691D01*
G01X-78882D01*
X-81697Y186133D01*
X-81703Y186060D01*
G02X-83540Y187897I-1697J140D01*
G01X-83467Y187903D01*
X-79918Y191452D01*
X-76855D01*
G02X-74397Y191297I1155J-1252D01*
G02X-73748Y190200I-603J-1097D01*
G01Y189952D01*
X-70954Y187158D01*
G03X-70272Y187441I282J283D01*
G01Y187530D01*
X-65528D01*
Y183378D01*
G37*
G36*
G01X-276164Y175982D02*
X-276248Y175898D01*
X-277955D01*
G02Y177702I-1445J902D01*
G01X-276994D01*
X-276594Y178102D01*
X-275822D01*
Y179572D01*
X-271670D01*
Y174828D01*
X-275822D01*
Y175841D01*
G03X-276164Y175982I-200J0D01*
G37*
G36*
G01X-298342Y175356D02*
Y178112D01*
G02X-294978I1682J0D01*
G01Y177636D01*
X-291211D01*
G02Y175832I1445J-902D01*
G01X-294978D01*
Y175356D01*
G02X-298342I-1682J0D01*
G37*
G36*
G01X-305822D02*
Y178114D01*
G02X-305042Y179533I1683J-1D01*
G01Y180566D01*
X-305002Y180606D01*
Y184078D01*
X-306472D01*
Y188230D01*
X-301728D01*
Y184078D01*
X-303198D01*
Y179860D01*
X-303238Y179820D01*
Y179536D01*
X-303156Y179476D01*
G02X-302458Y178112I-984J-1364D01*
G01Y175356D01*
G02X-305822I-1682J0D01*
G37*
G36*
G01X-72022Y165728D02*
Y167348D01*
X-77889D01*
X-83789Y161448D01*
X-109121D01*
X-111028Y163356D01*
X-113488D01*
Y165348D01*
X-118578D01*
Y163728D01*
X-122730D01*
Y168472D01*
X-118578D01*
Y166852D01*
X-114247D01*
X-114049Y167050D01*
X-113488D01*
Y169240D01*
X-109966D01*
Y164418D01*
X-108499Y162952D01*
X-84411D01*
X-78511Y168852D01*
X-72022D01*
Y170472D01*
X-67870D01*
Y165728D01*
X-72022D01*
G37*
G36*
G01X-343077Y163459D02*
X-343244Y163431D01*
Y157672D01*
X-342070D01*
Y152928D01*
X-346222D01*
Y157672D01*
X-345048D01*
Y162466D01*
X-345170Y162589D01*
Y163415D01*
X-345341Y163440D01*
G02X-343077Y163459I1072J7214D01*
G37*
G36*
G01X-210552Y148355D02*
Y179130D01*
X-210652Y179230D01*
Y181045D01*
G02X-208148I1252J1155D01*
G01Y180266D01*
X-208048Y180166D01*
Y148355D01*
G02X-210552I-1252J-1155D01*
G37*
G36*
G01X-122603Y149740D02*
X-122597Y149667D01*
X-122102Y149172D01*
Y145472D01*
X-121278D01*
Y140728D01*
X-125430D01*
Y145472D01*
X-124606D01*
Y147918D01*
X-124752Y147958D01*
G02X-122603Y149740I452J1642D01*
G37*
G36*
G01X299918Y140418D02*
G02Y143690I-472J1636D01*
G03X300428Y144075I110J384D01*
G01Y144130D01*
X305172D01*
Y143170D01*
X323849D01*
Y144148D01*
X331151D01*
Y140390D01*
X323849D01*
Y141368D01*
X306158D01*
X305943Y141152D01*
X305172D01*
Y139978D01*
X300428D01*
Y140033D01*
G03X299918Y140418I-400J1D01*
G37*
G36*
G01X295271Y138078D02*
X290528D01*
Y138295D01*
G03X289942Y138648I-400J-1D01*
G02Y141660I-796J1506D01*
G03X290528Y142013I186J354D01*
G01Y142230D01*
X295272D01*
Y141056D01*
X296043D01*
X298258Y138840D01*
X323849D01*
Y139818D01*
X331151D01*
Y136060D01*
X323849D01*
Y137038D01*
X297512D01*
X295954Y138595D01*
G03X295271Y138312I-283J-283D01*
G01Y138078D01*
G37*
G36*
G01X-298718Y169844D02*
Y167085D01*
G02X-299148Y165963I-1683J1D01*
G01Y165175D01*
X-299048Y165075D01*
Y132389D01*
G02X-301552I-1252J-1155D01*
G01Y164039D01*
X-301652Y164139D01*
Y165963D01*
G02X-302082Y167085I1253J1123D01*
G01Y169844D01*
G02X-298718I1682J0D01*
G37*
G36*
G01X260428Y188752D02*
X331611D01*
X341852Y178511D01*
Y135489D01*
X334888Y128526D01*
X331151D01*
Y127398D01*
X323849D01*
Y131156D01*
X331151D01*
Y130028D01*
X334266D01*
X340348Y136111D01*
Y177889D01*
X330989Y187248D01*
X260428D01*
G02Y188752I-1528J752D01*
G37*
G36*
G01X164460Y122397D02*
X164533Y122403D01*
X166248Y124118D01*
Y222718D01*
X181197Y237667D01*
X181203Y237740D01*
G02X181648Y238755I1697J-139D01*
G01Y241628D01*
X179970D01*
Y246372D01*
X180794D01*
Y247898D01*
X180983Y248087D01*
G03X180842Y248428I-141J141D01*
G01X180270D01*
Y253172D01*
X184422D01*
Y252899D01*
G03X184799Y252500I400J1D01*
G02Y249100I-99J-1700D01*
G03X184422Y248701I23J-400D01*
G01Y248428D01*
X183598D01*
Y247162D01*
X183298Y246862D01*
Y246372D01*
X184122D01*
Y243693D01*
X184152Y243664D01*
Y238755D01*
G02X183040Y235903I-1252J-1155D01*
G01X182967Y235897D01*
X168752Y221682D01*
Y123082D01*
X166303Y120633D01*
X166297Y120560D01*
G02X164460Y122397I-1697J140D01*
G37*
G36*
G01X273974Y137506D02*
X281428D01*
Y138830D01*
X286172D01*
Y135952D01*
X287208Y134915D01*
Y134620D01*
X300311Y121518D01*
X323849D01*
Y122496D01*
X331151D01*
Y118736D01*
X323849D01*
Y119714D01*
X299565D01*
X285406Y133874D01*
Y134169D01*
X284897Y134678D01*
X281428D01*
Y136002D01*
X273974D01*
G02Y137506I-1528J752D01*
G37*
G36*
G01X331151Y113834D02*
Y110094D01*
X333120D01*
Y104366D01*
X326604D01*
Y110074D01*
X323849D01*
Y113834D01*
X331151D01*
G37*
G36*
G01X43311Y94752D02*
G02X43755Y97552I-711J1548D01*
G01X45272D01*
X45352Y97472D01*
X48030D01*
Y92728D01*
X43878D01*
Y94389D01*
G03X43311Y94752I-400J0D01*
G37*
G36*
G01X95940Y93603D02*
X95867Y93597D01*
X95618Y93348D01*
X93822D01*
Y92228D01*
X89670D01*
Y96972D01*
X93822D01*
Y95852D01*
X94183D01*
X94235Y95973D01*
G02X95940Y93603I1565J-673D01*
G37*
G36*
G01X-76452Y89555D02*
Y91572D01*
X-75430Y92593D01*
Y95272D01*
X-71278D01*
Y90528D01*
X-73948D01*
Y89555D01*
G02X-76452I-1252J-1155D01*
G37*
G36*
G01X222898Y51864D02*
X224002D01*
G02X224739Y51554I-1J-1033D01*
G03X225311I286J280D01*
G02X226048Y51864I738J-723D01*
G01X227152D01*
G02X228184Y50832I-1J-1033D01*
G01Y49768D01*
G02X227152Y48736I-1033J1D01*
G01X226048D01*
G02X225311Y49046I1J1033D01*
G03X224739I-286J-280D01*
G02X224002Y48736I-738J723D01*
G01X222898D01*
G02X222158Y49048I0J1033D01*
G01X221635D01*
X220693Y48106D01*
X213599D01*
G02X211702Y47085I-1897J1252D01*
G01X207962D01*
G02X206065Y48106I0J2273D01*
G01X180135D01*
G02X178238Y47085I-1897J1252D01*
G01X174498D01*
G02Y51631I0J2273D01*
G01X178238D01*
G02X180135Y50610I0J-2273D01*
G01X206065D01*
G02X207962Y51631I1897J-1252D01*
G01X211702D01*
G02X213599Y50610I0J-2273D01*
G01X219657D01*
X220599Y51552D01*
X222158D01*
G02X222898Y51864I740J-721D01*
G37*
G36*
G01X348982Y47815D02*
Y45056D01*
G02X345618I-1682J0D01*
G01Y47815D01*
G02X346048Y48937I1683J-1D01*
G01Y52009D01*
G02X345891Y52193I702J758D01*
G03X345559I-166J-112D01*
G02X344702Y51736I-857J576D01*
G01X343598D01*
G02X342566Y52768I1J1033D01*
G01Y53832D01*
G02X342898Y54591I1033J0D01*
G01Y56131D01*
X343048Y56281D01*
Y57278D01*
X341928D01*
Y61430D01*
X346672D01*
Y57278D01*
X345552D01*
Y55763D01*
G02X345422Y55209I-1252J1D01*
G01X345402Y55167D01*
Y54591D01*
G02X345559Y54407I-702J-758D01*
G03X345891I166J112D01*
G02X346748Y54864I857J-576D01*
G01X347852D01*
G02X348884Y53832I-1J-1033D01*
G01Y52768D01*
G02X348552Y52009I-1033J0D01*
G01Y48937D01*
G02X348982Y47815I-1253J-1123D01*
G37*
G36*
G01X329418Y44556D02*
Y47315D01*
G02X329848Y48437I1683J-1D01*
G01Y49226D01*
G02X329448Y50143I851J917D01*
G01Y51809D01*
G02X329291Y51993I702J758D01*
G03X328959I-166J-112D01*
G02X328102Y51536I-857J576D01*
G01X326998D01*
G02X325966Y52568I1J1033D01*
G01Y53632D01*
G02X326538Y54556I1033J0D01*
G01X326648Y54611D01*
Y55436D01*
X327198Y55986D01*
Y57478D01*
X325728D01*
Y61630D01*
X330472D01*
Y57478D01*
X329002D01*
Y55240D01*
X328758Y54996D01*
G03X328779Y54411I283J-283D01*
G02X328839Y54354I-681J-777D01*
G03X329411I286J280D01*
G02X330148Y54664I738J-723D01*
G01X331252D01*
G02X332284Y53632I-1J-1033D01*
G01Y52568D01*
G02X331952Y51809I-1033J0D01*
G01Y50661D01*
X332352Y50261D01*
Y48437D01*
G02X332782Y47315I-1253J-1123D01*
G01Y44556D01*
G02X329418I-1682J0D01*
G37*
G36*
G01X-299525Y47557D02*
X-299407Y47517D01*
X-285950Y60973D01*
Y207029D01*
X-288920Y209998D01*
X-289297D01*
Y207948D01*
X-298961D01*
Y215052D01*
X-289297D01*
Y213002D01*
X-287676D01*
X-282948Y208273D01*
Y59729D01*
X-297283Y45393D01*
X-297243Y45275D01*
G02X-299525Y47557I-3457J-1175D01*
G37*
G36*
G01X-314130Y42848D02*
X-327018D01*
X-369292Y85122D01*
X-369428Y85034D01*
G02X-367434Y87028I-3672J5666D01*
G01X-367522Y86892D01*
X-325982Y45352D01*
X-314130D01*
G02Y42848I3430J-1252D01*
G37*
G36*
G01X-314075Y32708D02*
X-314126Y32832D01*
X-331666Y32748D01*
X-332418D01*
Y29669D01*
G02X-338538I-3060J0D01*
G01Y38331D01*
G02X-332418I3060J0D01*
G01Y35252D01*
X-331672D01*
X-314138Y35335D01*
X-314088Y35460D01*
G02X-314075Y32708I3388J-1360D01*
G37*
G36*
G01X-19541Y79255D02*
X-19652Y79285D01*
X-50748Y48189D01*
Y31051D01*
X-47849D01*
Y23749D01*
X-55151D01*
Y31051D01*
X-52252D01*
Y48811D01*
X-20715Y80348D01*
X-20745Y80459D01*
G02X-19541Y79255I1645J441D01*
G37*
G36*
G01X-50141Y96855D02*
X-50252Y96885D01*
X-70748Y76389D01*
Y30976D01*
X-70598Y30938D01*
G02X-72402I-902J-3538D01*
G01X-72252Y30976D01*
Y77011D01*
X-51315Y97948D01*
X-51345Y98059D01*
G02X-50141Y96855I1645J441D01*
G37*
G36*
G01X-309772Y19752D02*
X-154411D01*
X-121052Y53111D01*
Y68924D01*
X-121202Y68962D01*
G02X-119398I902J3538D01*
G01X-119548Y68924D01*
Y52489D01*
X-153789Y18248D01*
X-309772D01*
G02Y19752I-1528J752D01*
G37*
G36*
G01X-49505Y20458D02*
X-44252Y25711D01*
Y37511D01*
X-27652Y54111D01*
Y59172D01*
G02X-26148I752J1528D01*
G01Y53489D01*
X-42748Y36889D01*
Y25089D01*
X-48440Y19397D01*
X-48361Y19264D01*
G02X-49505Y20458I-3140J-1863D01*
G37*
G36*
G01X-59505D02*
X-57152Y22811D01*
Y50463D01*
X-48363Y59252D01*
X-47628D01*
G02X-47428Y57434I1528J-752D01*
G03X-48023Y57466I-312J-250D01*
G01X-55648Y49841D01*
Y22189D01*
X-58440Y19397D01*
X-58361Y19264D01*
G02X-59505Y20458I-3140J-1863D01*
G37*
G36*
G01X367148Y14930D02*
Y21756D01*
X367337Y21945D01*
G03X367196Y22287I-141J142D01*
G01X366938D01*
Y25534D01*
X370462D01*
Y22286D01*
X369952D01*
Y21538D01*
G02X369652Y20725I-1252J0D01*
G01Y14930D01*
G02X367148I-1252J-3430D01*
G37*
G36*
G01X357036Y22548D02*
Y23652D01*
G02X357493Y24509I1033J0D01*
G03Y24841I-112J166D01*
G02X357309Y24998I574J859D01*
G01X355483D01*
X355443Y24851D01*
G02X353660Y26997I-1643J449D01*
G01X353733Y27003D01*
X354232Y27502D01*
X357309D01*
G02X358068Y27834I759J-701D01*
G01X358395D01*
X361848Y31288D01*
Y59782D01*
X356836Y64794D01*
X346672D01*
Y63970D01*
X341928D01*
Y64794D01*
X330902D01*
X330813Y64883D01*
G03X330472Y64742I-141J-141D01*
G01Y64170D01*
X325728D01*
Y64994D01*
X324462D01*
X324308Y65148D01*
X323355D01*
G02Y67652I-1155J1252D01*
G01X325344D01*
X325387Y67609D01*
G03X325728Y67750I141J141D01*
G01Y68322D01*
X330472D01*
Y67498D01*
X331738D01*
X331938Y67298D01*
X341928D01*
Y68122D01*
X346672D01*
Y67298D01*
X357872D01*
X364352Y60818D01*
Y30252D01*
X360164Y26065D01*
Y25698D01*
G02X359854Y24961I-1033J1D01*
G03Y24389I280J-286D01*
G02X360164Y23652I-723J-738D01*
G01Y22548D01*
G02X359852Y21808I-1033J0D01*
G01Y16100D01*
G02X359679Y15466I-1252J1D01*
G01X359652Y15419D01*
Y14930D01*
G02X357148I-1252J-3430D01*
G01Y16418D01*
X357348Y16618D01*
Y21808D01*
G02X357036Y22548I721J740D01*
G37*
G36*
G01X345242Y39544D02*
Y36785D01*
G02X344812Y35663I-1683J1D01*
G01Y16142D01*
X341712Y13042D01*
X341764Y12918D01*
G02X339818Y14864I-3364J-1418D01*
G01X339942Y14812D01*
X342308Y17178D01*
Y35663D01*
G02X341939Y36337I1253J1124D01*
G03X341398Y36598I-385J-107D01*
G02Y39734I-664J1568D01*
G03X341939Y39995I156J368D01*
G02X345242Y39544I1621J-451D01*
G37*
G36*
G01X329042Y39044D02*
Y36285D01*
G02X328612Y35163I-1683J1D01*
G01Y17458D01*
X329652Y16418D01*
Y14930D01*
G02X327148I-1252J-3430D01*
G01Y15382D01*
X326108Y16422D01*
Y35163D01*
G02X325679Y36222I1252J1124D01*
G01X325671Y36414D01*
X324411D01*
X310082Y50744D01*
X309687D01*
X307433Y52997D01*
X307360Y53003D01*
G02X309197Y54840I140J1697D01*
G01X309203Y54767D01*
X310723Y53246D01*
X311118D01*
X325065Y39299D01*
G03X325735Y39479I283J283D01*
G02X329042Y39044I1625J-435D01*
G37*
G36*
G01X317014Y14878D02*
G03X317198Y15464I-152J370D01*
G01Y21586D01*
X316338D01*
Y24834D01*
X319862D01*
Y21586D01*
X319002D01*
Y16223D01*
X319302Y15923D01*
Y15041D01*
X319444Y14998D01*
G02X317014Y14878I-1045J-3498D01*
G37*
G36*
G01X-185442Y162782D02*
X-181896D01*
G02X-180477Y162002I-1J-1683D01*
G01X-171473D01*
X-166973Y166502D01*
X-159656D01*
X-159156Y167002D01*
X-158123D01*
G02X-156704Y167782I1420J-903D01*
G01X-155832D01*
Y169418D01*
X-156702D01*
G02Y172782I0J1682D01*
G01X-153158D01*
G02Y169418I0J-1682D01*
G01X-154028D01*
Y167782D01*
X-153155D01*
G02X-152033Y167352I-1J-1683D01*
G01X-150209D01*
X-149909Y167052D01*
X-147555D01*
G02Y164548I1155J-1252D01*
G01X-150945D01*
X-151245Y164848D01*
X-152033D01*
G02X-153155Y164418I-1123J1253D01*
G01X-156702D01*
G02X-158066Y165116I0J1682D01*
G01X-158126Y165198D01*
X-158410D01*
X-158910Y164698D01*
X-166227D01*
X-170727Y160198D01*
X-180477D01*
G02X-181896Y159418I-1420J903D01*
G01X-185442D01*
G02X-187103Y161369I0J1683D01*
G01X-187087Y161470D01*
X-188369Y162752D01*
X-195328D01*
Y161578D01*
X-195436D01*
Y35694D01*
X-196488Y34642D01*
X-196436Y34518D01*
G02X-201340Y29790I-3364J-1418D01*
G01X-206682Y24448D01*
X-313982D01*
X-333082Y5348D01*
X-361318D01*
X-375402Y19432D01*
Y62368D01*
X-374752Y63018D01*
Y63363D01*
X-374910Y63397D01*
G02X-372090I1410J6603D01*
G01X-372248Y63363D01*
Y61982D01*
X-372898Y61332D01*
Y20468D01*
X-360282Y7852D01*
X-334118D01*
X-315018Y26952D01*
X-207718D01*
X-203112Y31558D01*
X-203164Y31682D01*
G02X-198382Y36464I3364J1418D01*
G01X-198258Y36412D01*
X-197940Y36730D01*
Y161578D01*
X-200072D01*
Y162402D01*
X-201338D01*
X-206652Y167716D01*
Y176018D01*
X-199203Y183467D01*
X-199197Y183540D01*
G02X-197360Y181703I1697J-140D01*
G01X-197433Y181697D01*
X-204148Y174982D01*
Y168752D01*
X-200754Y165358D01*
G03X-200072Y165641I282J283D01*
G01Y165730D01*
X-195328D01*
Y164556D01*
X-187623D01*
X-185812Y162745D01*
X-185711Y162761D01*
G02X-185442Y162782I265J-1661D01*
G37*
G36*
G01X148958Y6988D02*
Y9744D01*
G02X150480Y11419I1683J0D01*
G01X150552Y11426D01*
X151842Y12716D01*
X153220D01*
X153948Y13444D01*
Y65018D01*
X159697Y70767D01*
X159703Y70840D01*
G02X161540Y69003I1697J-140D01*
G01X161467Y68997D01*
X156452Y63982D01*
Y12408D01*
X154256Y10212D01*
X152878D01*
X152322Y9657D01*
Y6988D01*
G02X148958I-1682J0D01*
G37*
G36*
G01X144842Y9744D02*
Y6988D01*
G02X141478I-1682J0D01*
G01Y7464D01*
X137027D01*
X127693Y16798D01*
X118741D01*
X118698Y16656D01*
G02Y18744I-3498J1044D01*
G01X118741Y18602D01*
X128439D01*
X137773Y9268D01*
X141478D01*
Y9744D01*
G02X144842I1682J0D01*
G37*
G36*
G01X147802Y13835D02*
Y4173D01*
X151262Y712D01*
Y-22971D01*
X151395Y-23019D01*
G02X149327I-1034J-2881D01*
G01X149460Y-22971D01*
Y-34D01*
X145998Y3427D01*
Y13835D01*
G02X145218Y15256I904J1421D01*
G01Y18012D01*
G02X148582I1682J0D01*
G01Y15256D01*
G02X147802Y13835I-1684J0D01*
G37*
G36*
G01X117537Y-24925D02*
X117577Y-24808D01*
X113948Y-21179D01*
Y4049D01*
X111549D01*
Y11351D01*
X118851D01*
Y4049D01*
X116452D01*
Y-20143D01*
X119347Y-23038D01*
X119464Y-22998D01*
G02X117537Y-24925I975J-2902D01*
G37*
G36*
G01X-77470Y102872D02*
Y98620D01*
G03X-76787Y98337I400J0D01*
G01X-76126Y98998D01*
X-75831D01*
X-74930Y99898D01*
Y102872D01*
X-70778D01*
Y101752D01*
X-66618D01*
X-66203Y102167D01*
X-66197Y102240D01*
G02X-64360Y100403I1697J-140D01*
G01X-64433Y100397D01*
X-65582Y99248D01*
X-70778D01*
Y98128D01*
X-73161D01*
X-74795Y96494D01*
X-75090D01*
X-76336Y95249D01*
Y95136D01*
X-77970Y93502D01*
Y90528D01*
X-82122D01*
Y95272D01*
X-79739D01*
X-78838Y96172D01*
Y96285D01*
X-77678Y97446D01*
G03X-77961Y98128I-283J282D01*
G01X-81622D01*
Y102872D01*
X-77470D01*
G37*
G36*
G01X309128Y150409D02*
Y150530D01*
X313872D01*
Y149356D01*
X314643D01*
X316497Y147502D01*
X323849D01*
Y148480D01*
X331151D01*
Y144720D01*
X323849D01*
Y145698D01*
X315751D01*
X314554Y146895D01*
G03X313872Y146612I-282J-283D01*
G01Y146378D01*
X309128D01*
Y146499D01*
G03X308581Y146871I-400J0D01*
G02X306557Y149428I-627J1583D01*
G03X306229Y150056I-328J228D01*
G01X305680D01*
X305172Y149548D01*
Y146670D01*
X300428D01*
Y146904D01*
G03X299746Y147187I-400J0D01*
G01X298503Y145944D01*
X295272D01*
Y144770D01*
X291803D01*
X291294Y144261D01*
Y143966D01*
X289873Y142544D01*
X286172D01*
Y141370D01*
X281428D01*
Y142194D01*
X269220D01*
X268612Y141586D01*
G03X268896Y140903I283J-283D01*
G02X269652Y137672I4J-1703D01*
G01Y135711D01*
X288765Y116598D01*
X291428D01*
Y117922D01*
X296172D01*
Y117205D01*
G03X296513Y117064I200J0D01*
G01X296636Y117186D01*
X323849D01*
Y118164D01*
X331151D01*
Y114406D01*
X323849D01*
Y115384D01*
X297382D01*
X296943Y114944D01*
X296172D01*
Y113770D01*
X291428D01*
Y115094D01*
X288143D01*
X268148Y135089D01*
Y137672D01*
G02X267197Y139204I752J1528D01*
G03X266514Y139488I-400J1D01*
G01X263652Y136626D01*
Y124118D01*
X277364Y110406D01*
X291428D01*
Y111230D01*
X296172D01*
Y107078D01*
X291428D01*
Y107902D01*
X276328D01*
X261148Y123082D01*
Y137662D01*
X268184Y144698D01*
X281428D01*
Y145522D01*
X286172D01*
Y144348D01*
X289127D01*
X289492Y144712D01*
Y145007D01*
X290528Y146044D01*
Y148922D01*
X295272D01*
Y147748D01*
X297757D01*
X299657Y149648D01*
X300428D01*
Y150822D01*
X303897D01*
X304934Y151860D01*
X306939D01*
X308092Y153012D01*
Y153307D01*
X309128Y154344D01*
Y157222D01*
X312102D01*
X314714Y159835D01*
Y161084D01*
X315997Y162367D01*
X316003Y162440D01*
G02X317840Y160603I1697J-140D01*
G01X317767Y160597D01*
X317218Y160048D01*
Y158799D01*
X315149Y156730D01*
G03X315432Y156047I283J-283D01*
G01X331527D01*
X336702Y150873D01*
Y136327D01*
X333081Y132706D01*
X331151D01*
Y131728D01*
X323849D01*
Y132356D01*
X306262D01*
X306154Y132248D01*
X302655D01*
G02Y134752I-1155J1252D01*
G01X305118D01*
X305226Y134860D01*
X323849D01*
Y135488D01*
X331151D01*
Y134510D01*
X332335D01*
X334898Y137073D01*
Y150127D01*
X330781Y154244D01*
X313872D01*
Y153070D01*
X310403D01*
X309894Y152561D01*
Y152266D01*
X308355Y150726D01*
G03X308507Y150065I282J-283D01*
G02X308581Y150037I-565J-1606D01*
G03X309128Y150409I147J372D01*
G37*
G36*
G01X-71822Y177972D02*
X-67670D01*
Y173228D01*
X-71822D01*
Y174848D01*
X-78311D01*
X-85211Y181748D01*
X-88312D01*
Y175560D01*
X-91834D01*
Y181748D01*
X-108599D01*
X-109966Y180382D01*
Y175560D01*
X-113488D01*
Y177648D01*
X-118178D01*
Y176028D01*
X-122330D01*
Y180772D01*
X-118178D01*
Y179152D01*
X-114151D01*
X-114049Y179254D01*
X-113488D01*
Y181444D01*
X-111028D01*
X-109221Y183252D01*
X-84589D01*
X-77689Y176352D01*
X-71822D01*
Y177972D01*
G37*
G36*
G01X28389Y343848D02*
X-70377D01*
G03X-70724Y343249I0J-400D01*
G02X-70503Y342540I-1476J-849D01*
G01X-70497Y342467D01*
X-62082Y334052D01*
X-60255D01*
G02Y331548I1155J-1252D01*
G01X-62220D01*
G03X-62503Y330866I0J-400D01*
G01X-55348Y323711D01*
Y320328D01*
G02X-56852I-752J-1528D01*
G01Y323089D01*
X-65211Y331448D01*
X-65972D01*
G02Y332952I-1528J752D01*
G01X-65487D01*
G03X-65204Y333634I0J400D01*
G01X-72267Y340697D01*
X-72340Y340703D01*
G02X-73676Y343249I140J1697D01*
G03X-74023Y343848I-347J199D01*
G01X-215289D01*
X-251848Y307289D01*
Y277811D01*
X-237638Y263600D01*
X-230811D01*
X-225972Y268440D01*
Y271530D01*
X-221228D01*
Y270206D01*
X-220669D01*
X-220615Y270152D01*
X-218728D01*
G02Y268648I1528J-752D01*
G01X-221228D01*
Y267378D01*
X-224909D01*
X-230189Y262098D01*
X-238260D01*
X-253352Y277189D01*
Y307911D01*
X-215911Y345352D01*
X29011D01*
X41948Y332415D01*
X42059Y332445D01*
G02X40855Y331241I441J-1645D01*
G01X40885Y331352D01*
X28389Y343848D01*
G37*
G54D72*
X-310700Y54100D03*
X-219300Y130200D03*
X-209800Y33100D03*
X-209300Y130200D03*
X-134800Y356300D03*
X-120300Y82500D03*
X-97800Y318000D03*
Y308000D03*
X-107800Y318000D03*
X-104800Y356300D03*
X-114800D03*
X-124800D03*
X-81500Y17400D03*
X-71500D03*
X-77800Y318000D03*
Y308000D03*
X-87800Y318000D03*
Y308000D03*
X115200Y27700D03*
X129500Y120700D03*
Y130700D03*
X348400Y11500D03*
X369200Y217300D03*
Y197300D03*
Y237300D03*
Y227300D03*
X379200Y217300D03*
G54D79*
X145800Y151000D03*
G54D69*
X-347289Y15102D03*
G54D68*
X-359100Y34000D03*
G54D78*
X-34426Y109574D03*
G54D71*
X-333600Y182741D03*
Y200457D03*
G54D82*
X369232Y118254D03*
Y149750D03*
G54D70*
X-373500Y130000D03*
Y109800D03*
G54D63*
X351040Y38166D03*
X334840Y37666D03*
G54D76*
X-107800Y308000D03*
X278400Y11500D03*
X379200Y197300D03*
G54D80*
X327500Y124946D03*
G54D75*
X-207763Y290850D03*
X186137Y291050D03*
G54D73*
X-302400Y369700D03*
X-152100Y-102300D03*
X153200Y-101300D03*
X225800Y369700D03*
G54D81*
X329862Y164710D03*
G54D65*
X64300Y139054D03*
X27900Y267646D03*
X-113600Y223154D03*
X-223600Y276146D03*
X-116200Y130254D03*
X-71300Y113954D03*
X-60700Y185354D03*
X-67900Y192146D03*
X-36200Y208446D03*
X13700Y269346D03*
X75700Y139854D03*
G54D64*
X205246Y257300D03*
X-22054Y262500D03*
X-185954Y258200D03*
X-337454Y155300D03*
X-337654Y236900D03*
X-232054Y291100D03*
X-232354Y297600D03*
X-185954Y251600D03*
X-181154Y311200D03*
X-181054Y304700D03*
X-201154Y303900D03*
X-160954Y230100D03*
Y218400D03*
X-127346Y166100D03*
X-126946Y178400D03*
X-66554Y137700D03*
Y144100D03*
X-34846Y34700D03*
X2946Y12100D03*
X12146Y224200D03*
X52646Y95100D03*
X53446Y260400D03*
X120054Y378400D03*
X171854Y272500D03*
X161446Y297000D03*
X189654Y191100D03*
X204746Y251300D03*
X209946Y306000D03*
X209846Y299700D03*
X179954Y304700D03*
X236846Y230600D03*
G54D74*
X-236220Y275591D03*
X-157480D03*
X236220D03*
G54D67*
X-183670Y156100D03*
G54D77*
X-90073Y166298D03*
G54D66*
X-155758Y102568D03*
Y136032D03*
G54D83*
X367657Y107230D03*
Y168254D03*
%LPD*%
G75*
G36*
G01X-63070Y125402D02*
Y129898D01*
X-60530D01*
Y126462D01*
X-61591Y125402D01*
X-63070D01*
G37*
G36*
G01X58892Y102052D02*
G02X58570Y102689I0J400D01*
G03X58879Y103985I-1370J1011D01*
G01X58862Y104087D01*
X59156Y104381D01*
Y105928D01*
X60330D01*
Y110672D01*
X60241D01*
G02X59958Y111354I0J400D01*
G01X60352Y111748D01*
X63545D01*
G03Y114252I1155J1252D01*
G01X59316D01*
X57002Y111938D01*
Y110672D01*
X56178D01*
Y110287D01*
G02X55495Y110004I-400J0D01*
G01X54673Y110826D01*
X43242D01*
Y113029D01*
X35026D01*
Y113864D01*
X36211Y115048D01*
X39611D01*
X40848Y116285D01*
X40959Y116255D01*
G03X39991Y118856I441J1645D01*
G02X39306Y118895I-331J225D01*
G03X36272Y118852I-1506J-795D01*
G01X35689D01*
X35663Y118826D01*
G02X35003Y118974I-283J282D01*
G03X33273Y120098I-1603J-574D01*
G02X32874Y120650I-29J399D01*
G03X29655Y120859I-1574J650D01*
G01X29685Y120748D01*
X27748Y118811D01*
Y113719D01*
X27618Y113588D01*
Y113029D01*
X27152D01*
Y120145D01*
X30822Y123815D01*
X30933Y123785D01*
G03X29729Y124989I441J1645D01*
G01X29759Y124878D01*
X25648Y120767D01*
Y119437D01*
X25650Y119436D01*
Y113029D01*
X25184D01*
Y123879D01*
X18611Y130452D01*
X16228D01*
G03Y128948I-1528J-752D01*
G01X17989D01*
X23680Y123257D01*
Y113029D01*
X19278D01*
Y113588D01*
X19252Y113615D01*
Y123411D01*
X17011Y125652D01*
X16228D01*
G03X16045Y123856I-1528J-752D01*
G02X16644Y123893I316J-246D01*
G01X17748Y122789D01*
Y113029D01*
X17310D01*
Y118553D01*
X16315Y119548D01*
X16345Y119659D01*
G03X13076Y120613I-1645J441D01*
G02X12412Y120451I-381J121D01*
G01X-3389Y136252D01*
X-22048D01*
Y148248D01*
X-29705Y155904D01*
X-30971D01*
Y160820D01*
G02X-30288Y161102I400J0D01*
G01X-30034Y160848D01*
X-27628D01*
G03X-24949Y162855I1528J752D01*
G02Y163445I270J295D01*
G03X-25005Y166004I-1151J1255D01*
G02X-24986Y166632I257J307D01*
G03X-25750Y169685I-1014J1368D01*
G02X-25974Y170363I59J395D01*
G01X-25830Y170508D01*
Y170608D01*
X-25730Y170708D01*
Y170910D01*
G02X-25286Y171307I400J-1D01*
G03X-26745Y172559I186J1693D01*
G01X-26715Y172448D01*
X-27232Y171930D01*
Y171330D01*
X-27332Y171230D01*
Y171130D01*
X-29279Y169184D01*
X-30971D01*
Y187242D01*
X-37881D01*
Y185252D01*
X-39789D01*
X-45453Y190916D01*
G02X-45170Y191599I283J283D01*
G01X-34161D01*
X-18117Y175554D01*
X46371D01*
Y161810D01*
X26008D01*
X18152Y169666D01*
Y170445D01*
G03X15648I-1252J1155D01*
G01Y168630D01*
X24972Y159306D01*
X46371D01*
Y152206D01*
G02X45688Y151924I-400J0D01*
G01X44934Y152678D01*
G02X44966Y153272I283J283D01*
G03X43148Y153072I-1066J1328D01*
G01Y152338D01*
X45522Y149964D01*
X46371D01*
Y149498D01*
X44064D01*
X43515Y150048D01*
X43545Y150159D01*
G03X42341Y148955I-1645J441D01*
G01X42452Y148985D01*
X43442Y147996D01*
X46371D01*
Y143594D01*
X43569D01*
X41415Y145748D01*
X41445Y145859D01*
G03X40241Y144655I-1645J441D01*
G01X40352Y144685D01*
X42947Y142090D01*
X46371D01*
Y116158D01*
X53281D01*
Y116500D01*
X64938D01*
X68648Y112789D01*
Y108428D01*
G03X70152I752J-1528D01*
G01Y113411D01*
X65560Y118002D01*
X53281D01*
Y118468D01*
X65669D01*
X73030Y111108D01*
Y110044D01*
X72948Y109963D01*
Y109228D01*
G03X74807Y106406I752J-1528D01*
G02X75468Y106102I261J-303D01*
G01Y105170D01*
X75985Y104652D01*
X75955Y104541D01*
G03X76543Y102765I1645J-441D01*
G02X76294Y102052I-249J-313D01*
G01X58892D01*
G37*
G36*
G01X-38926Y153436D02*
X-42843Y157352D01*
X-43249D01*
Y157667D01*
X-43149Y157725D01*
G03X-42672Y158134I-851J1475D01*
G02X-42077Y158166I312J-250D01*
G01X-41749Y157838D01*
X-37881D01*
Y153436D01*
X-38926D01*
G37*
G36*
G01X-16764Y179026D02*
X-27425Y189688D01*
G02X-27143Y190371I282J283D01*
G01X-26032D01*
Y189105D01*
X-22175Y185248D01*
X-3763D01*
X-1158Y187853D01*
X1093Y185602D01*
X15791D01*
G03X18335Y185868I1155J1252D01*
G01X18395Y185952D01*
X18675D01*
X19380Y185248D01*
X46371D01*
Y179026D01*
X-16764D01*
G37*
G36*
G01X4111Y16652D02*
X3104Y17658D01*
Y19550D01*
X4351D01*
X5132Y18768D01*
X11031D01*
X26452Y34189D01*
Y41889D01*
X26552Y41989D01*
Y43672D01*
G03X25048I-752J1528D01*
G01Y42611D01*
X24948Y42511D01*
Y34811D01*
X10409Y20272D01*
X5754D01*
X5414Y20612D01*
Y22611D01*
G03X5356Y22959I-1093J-3D01*
G02X5735Y23487I379J128D01*
G01X9350D01*
Y35514D01*
X6289D01*
G03X5397Y35051I1J-1093D01*
G02X4839Y34955I-327J230D01*
G03X4731Y35020I-515J-733D01*
G02X4744Y35383I91J178D01*
G03X5414Y36389I-423J1007D01*
G01Y39451D01*
X4195D01*
G02X3912Y40133I0J400D01*
G01X5056Y41277D01*
Y50028D01*
X6230D01*
Y54772D01*
X5406D01*
Y90800D01*
G02X6088Y91083I400J0D01*
G01X11673Y85498D01*
X19889D01*
X25548Y91157D01*
Y91928D01*
X26722D01*
Y92609D01*
G02X27251Y92988I400J0D01*
G03Y96212I549J1612D01*
G02X26722Y96591I-129J379D01*
G01Y96672D01*
X25898D01*
Y97938D01*
X23716Y100120D01*
Y106119D01*
X35492D01*
Y36354D01*
X15789Y16652D01*
X4111D01*
G37*
G36*
G01X-3284Y42647D02*
X-6148Y45511D01*
Y68511D01*
X-13348Y75711D01*
Y86708D01*
G02X-12711Y87030I400J0D01*
G03X-10055Y88841I1011J1370D01*
G01X-10085Y88952D01*
X-6448Y92589D01*
Y97577D01*
G02X-5849Y97924I400J0D01*
G03X-5647Y97825I849J1476D01*
G01X-5522Y97774D01*
Y92828D01*
X-1370D01*
Y97080D01*
G02X-687Y97363I400J0D01*
G01X1170Y95507D01*
Y92828D01*
X1994D01*
Y91562D01*
X2902Y90654D01*
Y54772D01*
X2078D01*
Y52093D01*
X1354Y51370D01*
G02X672Y51653I-282J283D01*
G01Y54030D01*
X-4072D01*
Y49878D01*
X-2602D01*
Y42930D01*
G02X-3284Y42647I-400J0D01*
G37*
G36*
G01X12419Y87302D02*
X6126Y93594D01*
X5831D01*
X5322Y94103D01*
Y97572D01*
X4498D01*
Y105422D01*
X4484Y105436D01*
G02X4766Y106119I283J283D01*
G01X21212D01*
Y99084D01*
X22942Y97354D01*
G02X22659Y96672I-283J-282D01*
G01X22570D01*
Y91928D01*
X22804D01*
G02X23087Y91246I0J-400D01*
G01X19143Y87302D01*
X12419D01*
G37*
G36*
G01X-3011Y127248D02*
X5964Y118273D01*
Y113029D01*
X5498D01*
Y116664D01*
X-85Y122248D01*
X-55Y122359D01*
G03X-1259Y121155I-1645J441D01*
G01X-1148Y121185D01*
X3996Y116042D01*
Y113029D01*
X-406D01*
Y115817D01*
X-1266Y116677D01*
G02X-1234Y117272I282J283D01*
G03X-3230Y120027I-1066J1329D01*
G02X-3848Y120362I-218J335D01*
G01Y124072D01*
G03X-3496Y126896I-752J1528D01*
G01X-3566Y126956D01*
Y127248D01*
X-3011D01*
G37*
G36*
G01X1994Y100471D02*
G02X1291Y100210I-400J0D01*
G03X-1299Y97999I-1291J-1110D01*
G01X-1252Y97943D01*
Y97928D01*
X-1237Y97913D01*
G02X-1378Y97572I-141J-141D01*
G01X-3457D01*
G02X-3750Y98243I1J400D01*
G03X-4098Y100845I-1250J1157D01*
G01X-4117Y100857D01*
X-4224Y100963D01*
Y101030D01*
X-4124Y101130D01*
Y104574D01*
X-4318Y104769D01*
Y106119D01*
X1528D01*
Y104853D01*
X1994Y104386D01*
Y100471D01*
G37*
G36*
G01X12150Y197964D02*
X21835Y207648D01*
X26835D01*
G02X27209Y207106I0J-400D01*
G03X27155Y206059I1591J-607D01*
G01X27185Y205948D01*
X25650Y204412D01*
Y197281D01*
X12432D01*
G02X12150Y197964I1J400D01*
G37*
G36*
G01X135452Y142460D02*
Y156411D01*
X110868Y180995D01*
X61756D01*
G02X61473Y181677I0J400D01*
G01X62446Y182650D01*
G02X63129Y182367I283J-283D01*
G01Y182278D01*
X67872D01*
Y186430D01*
X63128D01*
Y185606D01*
X61862D01*
X59720Y183464D01*
X53281D01*
Y184898D01*
X55213D01*
X59906Y189590D01*
Y195528D01*
X60730D01*
Y200272D01*
X56578D01*
Y195528D01*
X57402D01*
Y190626D01*
X54177Y187400D01*
X49826D01*
G03X49256Y187263I-1J-1251D01*
G01X49214Y187242D01*
X46371D01*
Y187050D01*
X20126D01*
X19421Y187756D01*
X18391D01*
G03X18245Y187955I-1443J-905D01*
G01X18198Y188011D01*
Y188384D01*
X19650Y189837D01*
Y190371D01*
X43242D01*
Y197281D01*
X42900D01*
Y198038D01*
X45811Y200948D01*
X92689D01*
X138748Y154889D01*
Y144276D01*
X138598Y144238D01*
G03X136212Y142286I903J-3538D01*
G02X135452Y142460I-360J174D01*
G37*
G36*
G01X11704Y206603D02*
Y206503D01*
X11654Y206454D01*
X11507D01*
X11484Y206459D01*
G03X12745Y205241I-384J-1659D01*
G01X12723Y205323D01*
X13258Y205859D01*
Y205959D01*
X17602Y210302D01*
X18940D01*
G02X19083Y209646I-140J-374D01*
G01X7932Y198495D01*
Y197281D01*
X5610D01*
Y203087D01*
X5764Y203240D01*
Y204131D01*
G03X3987Y204163I-862J1469D01*
G01X4005Y204151D01*
X4036Y204120D01*
Y203956D01*
X3884Y203803D01*
Y197281D01*
X94D01*
Y204475D01*
X4647Y209028D01*
X7030D01*
Y211707D01*
X8887Y213563D01*
G02X9570Y213280I283J-283D01*
G01Y209029D01*
X13201D01*
G02X13565Y208464I-1J-400D01*
G01X11704Y206603D01*
G37*
%LPC*%
G75*
G54D84*
X49826Y193826D03*
G54D65*
X-1700Y58646D03*
X65500Y191046D03*
G54D64*
X64946Y108300D03*
X10846Y52400D03*
X17954Y94300D03*
X65346Y197900D03*
%LPD*%
G75*
G54D10*
X-373100Y90700D03*
X-373500Y70000D03*
Y130000D03*
Y109800D03*
G54D20*
X-304100Y192846D03*
Y186154D03*
X-246300Y290654D03*
X-222900Y290854D03*
X-223600Y269454D03*
Y276146D03*
X-246300Y297346D03*
X-222900Y297546D03*
X-197700Y163654D03*
Y170346D03*
X-199700Y289754D03*
Y296446D03*
X-155100Y208546D03*
Y201854D03*
X-116200Y130254D03*
Y136946D03*
X-113600Y229846D03*
Y223154D03*
X-71300Y120646D03*
Y113954D03*
X-60700Y192046D03*
Y185354D03*
X-67900Y192146D03*
Y185454D03*
X-52200Y128346D03*
Y121654D03*
X-36200Y208446D03*
Y201754D03*
X-54000Y181554D03*
Y188246D03*
X-1700Y51954D03*
Y58646D03*
X13700Y269346D03*
Y262654D03*
X27900Y267646D03*
Y260954D03*
X64300Y139054D03*
Y145746D03*
X75700Y139854D03*
Y146546D03*
X65500Y191046D03*
Y184354D03*
X148100Y290054D03*
X169500Y289954D03*
X148100Y296746D03*
X169500Y296646D03*
X193400Y290654D03*
Y297346D03*
X283800Y136754D03*
X293800Y109154D03*
Y115846D03*
X283800Y143446D03*
X292900Y146846D03*
Y140154D03*
X328100Y59554D03*
Y66246D03*
X302800Y148746D03*
Y142054D03*
X311500Y155146D03*
Y148454D03*
X344300Y59354D03*
Y66046D03*
G54D11*
X-347289Y15102D03*
G54D21*
X-310271Y211500D03*
X-294129D03*
G54D30*
X-34426Y109574D03*
X49826Y193826D03*
G54D12*
X-335478Y34000D03*
X-359100D03*
G54D40*
X176368Y49358D03*
Y31642D03*
X209832Y49358D03*
Y31642D03*
G54D31*
X-20843Y109574D03*
X-22812D03*
X-24780D03*
X-26749D03*
Y193826D03*
X-24780D03*
X-22812D03*
X-20843D03*
X18527Y109574D03*
X16558D03*
X14590D03*
X12621D03*
X10653D03*
X8684D03*
X6716D03*
X4747D03*
X2779D03*
X810D03*
X-1158D03*
X-3127D03*
X-5095D03*
X-7064D03*
X-9032D03*
X-11001D03*
X-12969D03*
X-14938D03*
X-16906D03*
X-18875D03*
Y193826D03*
X-16906D03*
X-14938D03*
X-12969D03*
X-11001D03*
X-9032D03*
X-7064D03*
X-5095D03*
X-3127D03*
X-1158D03*
X810D03*
X2779D03*
X4747D03*
X6716D03*
X8684D03*
X10653D03*
X12621D03*
X14590D03*
X16558D03*
X18527D03*
X42149Y109574D03*
X40180D03*
X38212D03*
X36243D03*
X34275D03*
X32306D03*
X30338D03*
X28369D03*
X26401D03*
X24432D03*
X22464D03*
X20495D03*
Y193826D03*
X22464D03*
X24432D03*
X26401D03*
X28369D03*
X30338D03*
X32306D03*
X34275D03*
X36243D03*
X38212D03*
X40180D03*
X42149D03*
G54D13*
X-344269Y170654D03*
Y222387D03*
G54D22*
X-302400Y369700D03*
X-152100Y-102300D03*
X153200Y-101300D03*
X225800Y369700D03*
G54D23*
X-222458Y201768D03*
Y235232D03*
X-204742Y201768D03*
Y235232D03*
X-155758Y136032D03*
Y102568D03*
X-138042D03*
Y136032D03*
X-146858Y216868D03*
Y250332D03*
X-129142Y216868D03*
Y250332D03*
X197142Y200668D03*
X214858D03*
X197142Y234132D03*
X214858D03*
G54D32*
X-34426Y117251D03*
Y119220D03*
Y121188D03*
Y123157D03*
Y125125D03*
Y127094D03*
Y129062D03*
Y131031D03*
Y132999D03*
Y134968D03*
Y136936D03*
Y138905D03*
Y140873D03*
Y142842D03*
Y144810D03*
Y146779D03*
Y148747D03*
Y150716D03*
Y152684D03*
Y154653D03*
Y156621D03*
Y158590D03*
Y160558D03*
Y162527D03*
Y164495D03*
Y166464D03*
Y168432D03*
Y170401D03*
Y172369D03*
Y174338D03*
Y176306D03*
Y178275D03*
Y180243D03*
Y182212D03*
Y184180D03*
Y186149D03*
X49826Y136936D03*
Y134968D03*
Y132999D03*
Y131031D03*
Y129062D03*
Y127094D03*
Y125125D03*
Y123157D03*
Y121188D03*
Y119220D03*
Y117251D03*
Y176306D03*
Y174338D03*
Y172369D03*
Y170401D03*
Y168432D03*
Y166464D03*
Y164495D03*
Y162527D03*
Y160558D03*
Y158590D03*
Y156621D03*
Y154653D03*
Y152684D03*
Y150716D03*
Y148747D03*
Y146779D03*
Y144810D03*
Y142842D03*
Y140873D03*
Y138905D03*
Y186149D03*
Y184180D03*
Y182212D03*
Y180243D03*
Y178275D03*
G54D14*
X-337454Y155300D03*
X-344146D03*
X-344346Y236900D03*
X-337654D03*
X-273746Y177200D03*
X-267054D03*
X-274146Y200200D03*
X-267454D03*
X-273846Y191800D03*
X-267154D03*
X-216946Y252400D03*
X-217146Y258900D03*
X-232054Y291100D03*
X-238746D03*
X-232354Y297600D03*
X-239046D03*
X-185954Y251600D03*
X-192646D03*
X-210254Y252400D03*
X-189654Y238500D03*
X-196346D03*
X-185954Y258200D03*
X-192646D03*
X-210454Y258900D03*
X-181154Y311200D03*
X-187846D03*
X-181054Y304700D03*
X-187746D03*
X-201154Y303900D03*
X-207846D03*
X-160954Y230100D03*
X-167646D03*
Y218400D03*
X-160954D03*
X-127346Y166100D03*
X-120654D03*
X-123354Y143100D03*
X-130046D03*
X-126946Y178400D03*
X-120254D03*
X-104154Y211200D03*
X-110846D03*
X-80046Y92900D03*
X-73354D03*
X-79546Y100500D03*
X-72854D03*
X-65146Y121500D03*
X-58454D03*
Y127700D03*
X-65146D03*
X-66554Y137700D03*
X-73246D03*
X-66554Y144100D03*
X-73246D03*
X-60454Y161600D03*
X-67146D03*
X-69946Y168100D03*
X-63254D03*
X-69746Y175600D03*
X-63054D03*
X-81346Y216000D03*
X-74654D03*
X-81046Y231100D03*
X-74354D03*
X-28154Y34700D03*
X-34846D03*
X-31546Y99200D03*
X-24854D03*
X-53546Y138600D03*
X-46854D03*
X-53546Y144700D03*
X-46854D03*
X-22054Y262500D03*
X-28746D03*
X2946Y12100D03*
X-3746D03*
X10846Y52400D03*
X4154D03*
X17954Y94300D03*
X-3446Y95200D03*
X3246D03*
X11646Y211400D03*
X4954D03*
X8446Y217900D03*
X1754D03*
X5454Y224200D03*
X12146D03*
X24646Y94300D03*
X52646Y95100D03*
X45954D03*
X58254Y108300D03*
X58654Y197900D03*
X53446Y260400D03*
X46754D03*
X91746Y94600D03*
X85054D03*
X64946Y108300D03*
X92346Y105600D03*
X85654D03*
X65346Y197900D03*
X93354Y371400D03*
X93654Y378800D03*
X100046Y371400D03*
X119854Y370900D03*
X126546D03*
X126746Y378400D03*
X120054D03*
X100346Y378800D03*
X175354Y244000D03*
X175654Y250800D03*
X161446Y290300D03*
X154754D03*
X171854Y272500D03*
X161446Y297000D03*
X154754D03*
X196346Y191100D03*
X189654D03*
X182046Y244000D03*
X204746Y251300D03*
X198054D03*
X182346Y250800D03*
X205654Y243900D03*
X212346D03*
X205246Y257300D03*
X198554D03*
X178546Y272500D03*
X209946Y306000D03*
X203254D03*
X209846Y299700D03*
X203154D03*
X179954Y304700D03*
X186646D03*
X236846Y230600D03*
X230154D03*
G54D50*
X331872Y276956D03*
Y278924D03*
Y280893D03*
Y282861D03*
Y284830D03*
Y286798D03*
Y288767D03*
Y290735D03*
Y292704D03*
X308644D03*
Y290735D03*
Y288767D03*
Y286798D03*
Y284830D03*
Y282861D03*
Y280893D03*
Y278924D03*
Y276956D03*
X331872Y294672D03*
X308644D03*
G54D41*
X248000Y39600D03*
X251150D03*
X247800Y31200D03*
X250950D03*
X292700Y34100D03*
X292600Y27100D03*
X295850Y34100D03*
X295750Y27100D03*
X302800Y267000D03*
X305950D03*
X329200Y268700D03*
X332350D03*
X323800Y332000D03*
X326950D03*
X322700Y316200D03*
X325850D03*
X346300Y290500D03*
X349450D03*
X337000Y297800D03*
X340150D03*
X346300Y295100D03*
X349450D03*
G54D60*
G01X-380452Y109800D02*
X-373500D01*
G01X-347289Y11841D02*
Y15102D01*
G01D02*
Y18363D01*
G01X-354881Y15102D02*
X-347289D01*
G01D02*
X-339697D01*
G01X-359100Y26408D02*
Y34000D01*
G01D02*
Y41592D01*
G01X-362361Y34000D02*
X-359100D01*
G01D02*
X-355839D01*
G01X-373500Y102848D02*
Y109800D01*
G01D02*
Y116752D01*
G01Y109800D02*
X-366548D01*
G01X-337454Y155300D02*
X-337354Y155200D01*
X-332900D01*
G01X-337454Y152728D02*
Y155300D01*
G01D02*
Y157872D01*
G01X-339731Y155300D02*
X-337454D01*
G01D02*
X-335177D01*
G01X-337058Y182741D02*
X-333600D01*
G01X-337654Y236900D02*
X-337054Y237500D01*
X-331900D01*
G01X-337654Y234328D02*
Y236900D01*
G01D02*
Y239472D01*
G01X-339931Y236900D02*
X-337654D01*
G01D02*
X-335377D01*
G01X-311300Y19000D02*
X-154100D01*
X-120300Y52800D01*
Y72500D01*
G01X-333600Y179283D02*
Y182741D01*
G01D02*
Y186199D01*
G01Y182741D02*
X-330142D01*
G01X-260700Y197500D02*
X-263400Y200200D01*
X-267454D01*
G01X49826Y178275D02*
X-17075D01*
X-33200Y194400D01*
X-43700D01*
X-55200Y205900D01*
X-89600D01*
X-103700Y191800D01*
X-267154D01*
G01X-34426Y184180D02*
X-38129D01*
X-38449Y184500D01*
X-40100D01*
X-56500Y200900D01*
X-80800D01*
X-95400Y186300D01*
X-257954D01*
X-264653Y179601D01*
X-264948D01*
X-267054Y177495D01*
Y177200D01*
G01X-250800Y189400D02*
X-99500D01*
X-85200Y203700D01*
X-56701D01*
X-45351Y192350D01*
X-33850D01*
X-17806Y176306D01*
X49826D01*
G01X-223600Y269454D02*
X-223895D01*
X-230500Y262849D01*
X-237949D01*
X-252600Y277500D01*
Y307600D01*
X-215600Y344600D01*
X28700D01*
X42500Y330800D01*
G01X-217200Y269400D02*
X-220926D01*
X-220980Y269454D01*
X-223600D01*
G01Y273869D02*
Y276146D01*
G01D02*
Y278423D01*
G01X-226172Y276146D02*
X-223600D01*
G01D02*
X-221028D01*
G01X-236220Y268393D02*
Y275591D01*
G01D02*
Y282789D01*
G01X-243418Y275591D02*
X-236220D01*
G01D02*
X-229022D01*
G01X-232054Y288528D02*
Y291100D01*
G01X-234331D02*
X-232054D01*
G01D02*
X-229777D01*
G01X-187846Y311200D02*
X-244700D01*
X-250200Y305700D01*
Y294554D01*
X-248701Y293055D01*
Y292760D01*
X-246595Y290654D01*
X-246300D01*
G01X-232354Y297600D02*
Y300172D01*
G01X-234631Y297600D02*
X-232354D01*
G01D02*
X-230077D01*
G01X-183670Y171100D02*
Y173032D01*
X-180502Y176200D01*
X-149900D01*
X-131800Y158100D01*
X-49500D01*
X-48000Y156600D01*
X-43154D01*
X-39237Y152684D01*
X-34426D01*
G01X-183670Y154217D02*
Y156100D01*
G01D02*
Y157983D01*
G01X-187325Y156100D02*
X-183670D01*
G01D02*
X-180015D01*
G01X-34426Y148747D02*
X-38130D01*
X-42483Y153100D01*
X-56700D01*
X-60200Y156600D01*
X-132500D01*
X-151000Y175100D01*
X-170966D01*
X-179966Y166100D01*
X-183670D01*
G01X-185954Y249028D02*
Y251600D01*
G01D02*
Y254172D01*
G01X-188231Y251600D02*
X-185954D01*
G01D02*
X-183677D01*
G01X-189654Y238500D02*
Y248608D01*
X-190245Y249199D01*
X-190540D01*
X-192646Y251305D01*
Y251600D01*
G01X-195300Y242300D02*
Y239546D01*
X-196346Y238500D01*
G01X-185954Y255628D02*
Y258200D01*
G01D02*
Y260772D01*
G01X-188231Y258200D02*
X-185954D01*
G01D02*
X-183677D01*
G01X-207763Y288081D02*
Y290850D01*
G01D02*
Y293619D01*
G01X-210729Y290850D02*
X-207763D01*
G01D02*
X-204797D01*
G01X-171400Y282000D02*
X-172781Y283381D01*
X-187381D01*
X-195000Y291000D01*
Y297446D01*
X-190147Y302299D01*
X-189852D01*
X-187746Y304405D01*
Y304700D01*
G01X-190100Y292800D02*
X-185700Y297200D01*
X120248D01*
X121048Y296400D01*
X123000D01*
G01X-201154Y301328D02*
Y303900D01*
G01D02*
Y306472D01*
G01X-203431Y303900D02*
X-201154D01*
G01D02*
X-198877D01*
G01X-181054Y302128D02*
Y304700D01*
G01D02*
Y307272D01*
G01X-183331Y304700D02*
X-181054D01*
G01D02*
X-178777D01*
G01X-181154Y308628D02*
Y311200D01*
G01D02*
Y313772D01*
G01X-183431Y311200D02*
X-181154D01*
G01D02*
X-178877D01*
G01X-187746Y304700D02*
Y308480D01*
X-187846Y308580D01*
Y311200D01*
G01X-188700Y301300D02*
Y303746D01*
X-187746Y304700D01*
G01X-191700Y297600D02*
X-190300Y299000D01*
X-135460D01*
X-135309Y298849D01*
X-133691D01*
X-133540Y299000D01*
X-120600D01*
G01X-155758Y102568D02*
Y136032D01*
G01Y98224D02*
Y102568D01*
G01X-158232D02*
X-155758D01*
G01D02*
X-153284D01*
G01X-155758Y136032D02*
Y140376D01*
G01X-158232Y136032D02*
X-155758D01*
G01D02*
X-153284D01*
G01X-130046Y142805D02*
X-133139D01*
X-138042Y137902D01*
Y136032D01*
G01D02*
Y102568D01*
G01X-154930Y156100D02*
X-153158D01*
X-151158Y154100D01*
X-65600D01*
X-62400Y150900D01*
X-42250D01*
X-38130Y146779D01*
X-34426D01*
G01X-62200Y154500D02*
X-64151D01*
X-64951Y155300D01*
X-137200D01*
X-143000Y161100D01*
X-154930D01*
G01X-154805Y201854D02*
X-152254D01*
X-149200Y198800D01*
G01X-160954Y215828D02*
Y218400D01*
G01D02*
Y220972D01*
G01X-163231Y218400D02*
X-160954D01*
G01D02*
X-158677D01*
G01X-160954Y227528D02*
Y230100D01*
G01D02*
Y232672D01*
G01X-163231Y230100D02*
X-160954D01*
G01D02*
X-158677D01*
G01X-157480Y268393D02*
Y275591D01*
G01D02*
Y282789D01*
G01X-164678Y275591D02*
X-157480D01*
G01D02*
X-150282D01*
G01X-100300Y286500D02*
X-146200D01*
G01X-108000Y289800D02*
X-148049D01*
X-148649Y289200D01*
X-150600D01*
G01X-155100Y291900D02*
X-117000D01*
G01X-96900Y283500D02*
X-136800D01*
X-139400Y280900D01*
G01X-109100Y294200D02*
X-159500D01*
G01X-164600Y369500D02*
X-151400Y356300D01*
X-144800D01*
G01X-43300Y114049D02*
X-79248Y78101D01*
Y78100D01*
X-79748Y77600D01*
X-125200D01*
X-130300Y72500D01*
G01X-43000Y119800D02*
X-57600Y105200D01*
X-108100D01*
X-113100Y100200D01*
Y99700D01*
X-130300Y82500D01*
G01X-120300Y78648D02*
Y82500D01*
G01D02*
Y86352D01*
G01X-124152Y82500D02*
X-120300D01*
G01D02*
X-116448D01*
G01X-116200Y127977D02*
Y130254D01*
G01D02*
Y132531D01*
G01X-118772Y130254D02*
X-116200D01*
G01D02*
X-113628D01*
G01X-43000Y135701D02*
Y135303D01*
X-43444Y135747D01*
X-44152D01*
X-47599Y132300D01*
X-75100D01*
X-85000Y122400D01*
X-91800D01*
X-106000Y136600D01*
X-113234D01*
X-113580Y136946D01*
X-116200D01*
G01D02*
X-124187D01*
X-130046Y142805D01*
G01X-127346Y166100D02*
X-127100Y166346D01*
Y171500D01*
G01X-126946Y175828D02*
Y178400D01*
G01X-127346Y163528D02*
Y166100D01*
G01D02*
Y168672D01*
G01X-129623Y166100D02*
X-127346D01*
G01D02*
X-125069D01*
G01X-130046Y142805D02*
Y143100D01*
G01X-69946Y168100D02*
X-78200D01*
X-84100Y162200D01*
X-108810D01*
X-111727Y165117D01*
Y166298D01*
G01D02*
X-113738D01*
X-113936Y166100D01*
X-120654D01*
G01X-126946Y178400D02*
X-127200Y178654D01*
Y183600D01*
G01X-126946Y178400D02*
Y180972D01*
G01X-129223Y178400D02*
X-126946D01*
G01D02*
X-124669D01*
G01X-69746Y175600D02*
X-78000D01*
X-84900Y182500D01*
X-108910D01*
X-111727Y179683D01*
Y178502D01*
G01X-120254Y178400D02*
X-113840D01*
X-113738Y178502D01*
X-111727D01*
G01X-113600Y220877D02*
Y223154D01*
G01D02*
Y225431D01*
G01X-116172Y223154D02*
X-113600D01*
G01D02*
X-111028D01*
G01X215800Y287500D02*
X213700Y285400D01*
X210000D01*
X189200Y264600D01*
X148000D01*
X126100Y286500D01*
X-100300D01*
G01X-99200Y287700D02*
Y287600D01*
X-100300Y286500D01*
G01X-104500Y289900D02*
X-107900D01*
X-108000Y289800D01*
G01X108400D02*
X-108000D01*
G01X-117000Y291900D02*
X113101D01*
X113296Y291704D01*
X114004D01*
X114200Y291900D01*
X115600D01*
G01X-134800Y281100D02*
X-82849D01*
G01X-135500Y276800D02*
X-134120Y278180D01*
X-90331D01*
X-90251Y278100D01*
X-88300D01*
G01X-135500Y266700D02*
X-129500Y272700D01*
X-106800D01*
G01D02*
X-59200D01*
G01X212647Y267900D02*
X199800D01*
X188600Y256700D01*
X142000D01*
X123100Y275600D01*
X-103000D01*
G01D02*
X-132200D01*
X-136500Y271300D01*
G01X-102300Y275300D02*
X-102700D01*
X-103000Y275600D01*
G01X-109100Y294200D02*
X118400D01*
G01X-107000Y294300D02*
X-109000D01*
X-109100Y294200D01*
G01X-134500Y337000D02*
Y300800D01*
G01X-130400Y340800D02*
Y302800D01*
X-128900Y301300D01*
G01X-120600Y299000D02*
X-124300Y302700D01*
Y338700D01*
G01X-120600Y299000D02*
X-120300Y298700D01*
X126475D01*
G01X-46100Y58500D02*
X-48052D01*
X-56400Y50152D01*
Y22500D01*
X-61500Y17400D01*
G01X-18875Y109574D02*
Y91125D01*
X-61500Y48500D01*
Y27400D01*
G01X-49700Y98500D02*
X-71500Y76700D01*
Y27400D01*
G01X-49000Y104500D02*
X-50381Y103119D01*
Y103019D01*
X-81500Y71900D01*
Y27400D01*
G01X-66554Y135128D02*
Y137700D01*
G01X-67423Y127700D02*
X-65146D01*
G01D02*
X-62869D01*
G01X-65146Y118928D02*
Y121500D01*
G01X-67423D02*
X-65146D01*
G01D02*
X-62869D01*
G01X-71300Y111677D02*
Y113954D01*
G01D02*
Y116231D01*
G01X-73872Y113954D02*
X-71300D01*
G01D02*
X-68728D01*
G01X-79546Y97928D02*
Y100500D01*
G01D02*
Y103072D01*
G01X-81823Y100500D02*
X-79546D01*
G01D02*
X-77269D01*
G01X-53546Y138600D02*
Y138305D01*
X-58251Y133600D01*
X-69441D01*
X-73246Y137405D01*
Y137700D01*
G01D02*
X-82400D01*
X-84900Y135200D01*
Y131294D01*
G01X-66554Y144100D02*
X-66154Y143700D01*
X-61800D01*
G01X-66554Y137700D02*
X-64229D01*
G01D02*
X-64029Y137900D01*
X-61800D01*
G01X-60454Y161600D02*
Y164172D01*
G01X-62731Y161600D02*
X-60454D01*
G01D02*
X-58177D01*
G01X-66554Y141528D02*
Y144100D01*
G01D02*
Y146672D01*
G01X-68831Y144100D02*
X-66554D01*
G01D02*
X-64277D01*
G01X-66554Y137700D02*
Y140272D01*
G01X-68831Y137700D02*
X-66554D01*
G01X-63054Y175600D02*
X-60729D01*
X-57498Y172369D01*
X-34426D01*
G01X-63254Y168100D02*
X-40431D01*
X-38130Y170401D01*
X-34426D01*
G01X-73246Y144100D02*
Y144395D01*
X-69741Y147900D01*
X-56451D01*
X-53546Y144995D01*
Y144700D01*
G01X-73246Y144100D02*
X-75572D01*
X-75672Y144200D01*
X-82300D01*
X-84900Y146800D01*
Y150506D01*
G01X-67900Y189869D02*
Y192146D01*
G01D02*
Y194423D01*
G01X-70472Y192146D02*
X-67900D01*
G01X-60700Y183077D02*
Y185354D01*
G01D02*
Y187631D01*
G01Y185354D02*
X-58128D01*
G01X-80100Y198000D02*
X-57500D01*
X-41712Y182212D01*
X-34426D01*
G01X-81500Y260600D02*
X-41300Y220400D01*
X-35600D01*
X-18875Y203675D01*
Y201834D01*
X-18849Y201808D01*
Y200192D01*
X-18875Y200166D01*
Y193826D01*
G01X-96400Y284000D02*
X-96900Y283500D01*
G01D02*
X103100D01*
G01X-82849Y281100D02*
X124600D01*
X145100Y260600D01*
X189204D01*
X207104Y278500D01*
X213451D01*
X215700Y280749D01*
Y282800D01*
G01X-82849Y281100D02*
X-83100Y281351D01*
Y281400D01*
G01X-88300Y278100D02*
X-86349D01*
X-86269Y278180D01*
X123620D01*
X143200Y258600D01*
X188800D01*
X207700Y277500D01*
X215600D01*
G01X-56100Y318800D02*
Y323400D01*
X-64900Y332200D01*
X-67500D01*
G01X-51500Y17400D02*
X-43500Y25400D01*
Y37200D01*
X-26900Y53800D01*
Y60700D01*
G01X-34846Y32128D02*
Y34700D01*
G01D02*
Y37272D01*
G01X-37123Y34700D02*
X-34846D01*
G01D02*
X-32569D01*
G01X-51500Y27400D02*
Y48500D01*
X-19100Y80900D01*
G01X-31546Y96628D02*
Y99200D01*
G01X-47700Y92600D02*
X-23848D01*
X-20843Y95605D01*
Y109574D01*
G01X-34426Y121188D02*
X-41612D01*
X-43000Y119800D01*
G01X-43900Y130700D02*
X-41948D01*
X-39649Y132999D01*
X-34426D01*
G01X-46200Y128300D02*
X-42800D01*
X-40069Y131031D01*
X-34426D01*
G01X-25500Y115900D02*
X-24780Y115180D01*
G01X-34426Y127094D02*
X-31790D01*
X-30723Y126027D01*
G01D02*
Y125823D01*
X-30700Y125800D01*
G01X-24780Y115180D02*
Y109574D01*
G01X-31546Y99200D02*
Y101772D01*
G01X-33823Y99200D02*
X-31546D01*
G01D02*
X-29269D01*
G01X-34426Y138905D02*
X-39796D01*
X-43000Y135701D01*
G01D02*
Y136100D01*
G01X-26600Y146100D02*
Y140400D01*
X-30000Y137000D01*
X-30659D01*
X-30723Y136936D01*
X-34426D01*
G01X-21300Y126600D02*
Y128552D01*
X-20101Y129751D01*
X-18149D01*
X-18100Y129800D01*
X-2001D01*
X8684Y119115D01*
Y109574D01*
G01X12621D02*
Y119179D01*
X-3700Y135500D01*
X-22523D01*
X-27103Y130920D01*
Y129503D01*
X-18000Y120400D01*
G01X-46600Y162200D02*
X-41242D01*
X-39600Y160558D01*
X-34426D01*
G01X-38081Y156621D02*
X-34426D01*
G01D02*
X-30771D01*
G01X-34426Y140873D02*
X-38129D01*
X-38257Y141001D01*
X-44748D01*
X-46854Y138895D01*
Y138600D01*
G01X-26000Y168000D02*
X-27952D01*
X-29488Y166464D01*
X-34426D01*
G01X-26100Y161600D02*
X-29723D01*
X-30650Y162527D01*
X-34426D01*
G01X-26100Y164700D02*
X-28052D01*
X-28257Y164495D01*
X-34426D01*
G01Y158590D02*
X-41438D01*
X-42048Y159200D01*
X-44000D01*
G01X-25100Y173000D02*
X-26481Y171619D01*
Y171019D01*
X-26581Y170919D01*
Y170819D01*
X-28968Y168432D01*
X-34426D01*
G01X-46854Y144700D02*
X-39987D01*
X-38130Y142842D01*
X-34426D01*
G01X-55700Y155700D02*
X-48900D01*
X-48100Y154900D01*
X-42868D01*
X-38684Y150716D01*
X-34426D01*
G01X-56000Y213800D02*
X-50646Y208446D01*
G01D02*
X-36200D01*
G01Y206169D02*
Y208446D01*
G01D02*
Y210723D01*
G01Y208446D02*
X-33628D01*
G01X-37000Y217500D02*
X-22812Y203312D01*
Y193826D01*
G01X-20800Y201000D02*
Y198149D01*
X-20843Y198106D01*
Y193826D01*
G01X-16906D02*
Y197530D01*
X-17000Y197624D01*
Y203985D01*
X-35615Y222600D01*
X-38700D01*
X-57800Y241700D01*
G01X-22900Y214300D02*
X-21519Y212919D01*
Y211919D01*
X-15400Y205800D01*
G01X-9032Y193826D02*
Y218433D01*
X-19199Y228600D01*
X-34900D01*
X-37000Y230700D01*
G01X-12969Y193826D02*
Y200772D01*
X-12949Y200792D01*
Y208249D01*
X-23300Y218600D01*
X-30200D01*
X-55900Y244300D01*
Y269400D01*
X-59200Y272700D01*
G01X-28746Y262500D02*
Y258746D01*
X-28700Y258700D01*
G01X-22054Y259928D02*
Y262500D01*
G01D02*
Y265072D01*
G01X-24331Y262500D02*
X-22054D01*
G01D02*
X-19777D01*
G01X210300Y264400D02*
X198200D01*
X188600Y254800D01*
X138900D01*
X121000Y272700D01*
X-59200D01*
G01X-44900Y330800D02*
Y325700D01*
G01X-36400Y358500D02*
X198300D01*
X252000Y304800D01*
Y236600D01*
G01X246700Y211400D02*
Y296200D01*
X187900Y355000D01*
X-34500D01*
G01X2946Y9528D02*
Y12100D01*
G01D02*
Y14672D01*
G01X669Y12100D02*
X2946D01*
G01D02*
X5223D01*
G01X36243Y104457D02*
Y36043D01*
X16100Y15900D01*
X3800D01*
X2353Y17347D01*
Y21626D01*
G01X7274Y24579D02*
X4321D01*
X-600Y29500D01*
G01X384Y37374D02*
Y30484D01*
X-600Y29500D01*
G01X-8474Y24579D02*
X-5521D01*
X-600Y29500D01*
G01X10900Y47800D02*
X10846Y47854D01*
G01D02*
Y52400D01*
G01X-1700Y56369D02*
Y58646D01*
G01X10846Y52400D02*
Y54972D01*
G01X8569Y52400D02*
X10846D01*
G01D02*
X13123D01*
G01X7274Y23286D02*
Y24579D01*
G01D02*
X9551D01*
G01X-8474Y23286D02*
Y24579D01*
G01X-10751D02*
X-8474D01*
G01X-12969Y109574D02*
Y104766D01*
X-15601Y102134D01*
Y49801D01*
X-5521Y39721D01*
Y37374D01*
G01X-3553D02*
Y41853D01*
X-6900Y45200D01*
Y68200D01*
X-14100Y75400D01*
Y100800D01*
X-11001Y103899D01*
Y109574D01*
G01X4321Y21626D02*
Y20642D01*
X5443Y19520D01*
X10720D01*
X25700Y34500D01*
Y42200D01*
X25800Y42300D01*
Y45200D01*
G01X-2100Y64900D02*
X-1700Y64500D01*
G01D02*
Y58646D01*
G01X-3446Y92628D02*
Y95200D01*
G01D02*
Y97772D01*
G01X-5723Y95200D02*
X-3446D01*
G01D02*
X-1169D01*
G01X17954Y91728D02*
Y94300D01*
G01D02*
Y96872D01*
G01X15677Y94300D02*
X17954D01*
G01D02*
X20231D01*
G01X-4272Y58646D02*
X-1700D01*
G01D02*
X872D01*
G01X-11700Y88400D02*
X-7200Y92900D01*
Y105735D01*
X-7064Y105870D01*
Y109574D01*
G01X-9032D02*
Y97520D01*
X-9300Y97252D01*
Y95300D01*
G01X14700Y124900D02*
X16700D01*
X18500Y123100D01*
Y113304D01*
X18527Y113277D01*
Y109574D01*
G01X14700Y129700D02*
X18300D01*
X24432Y123568D01*
Y109574D01*
G01X810Y105919D02*
Y109574D01*
G01D02*
Y113229D01*
G01X-5000Y99400D02*
Y101352D01*
X-4900Y101452D01*
Y104252D01*
X-5095Y104447D01*
Y109574D01*
G01X-4600Y125600D02*
Y116300D01*
X-3127Y114827D01*
Y109574D01*
G01X-1700Y122800D02*
X4747Y116353D01*
Y109574D01*
G01X-2300Y118600D02*
Y116648D01*
X-1158Y115506D01*
Y109574D01*
G01X-18500Y127800D02*
X-16548D01*
X-16348Y128000D01*
X-2700D01*
X6716Y118584D01*
Y109574D01*
G01X-9600Y132700D02*
X-3100D01*
X10653Y118947D01*
Y109574D01*
G01X14700Y120100D02*
X16558Y118242D01*
Y109574D01*
G01X14600Y116000D02*
Y113287D01*
X14590Y113277D01*
Y109574D01*
G01X-11100Y119100D02*
X-13100D01*
X-16906Y115294D01*
Y109574D01*
G01X17400Y199900D02*
X18124D01*
X20495Y197529D01*
G01X810Y193826D02*
Y198110D01*
G01D02*
X1900Y199200D01*
G01X11646Y208828D02*
Y211400D01*
G01D02*
Y213972D01*
G01X9369Y211400D02*
X11646D01*
G01D02*
X13923D01*
G01X10653Y193826D02*
Y197530D01*
X21524Y208400D01*
X27940D01*
X27991Y208451D01*
X29609D01*
X29660Y208400D01*
X90200D01*
X108000Y226200D01*
G01X-3127Y193826D02*
Y199099D01*
X-2800Y199426D01*
Y228300D01*
X-1300Y229800D01*
G01X100800Y227900D02*
X82600Y209700D01*
X20200D01*
X8684Y198184D01*
Y193826D01*
G01X-7000Y206500D02*
Y220200D01*
X-10400Y223600D01*
G01X-17800Y216900D02*
Y214600D01*
X-11001Y207801D01*
Y193826D01*
G01X11100Y204800D02*
X12481Y206181D01*
Y206281D01*
X17280Y211080D01*
X25180D01*
X36400Y222300D01*
X64900D01*
X75000Y232400D01*
X96040D01*
X96191Y232551D01*
X97809D01*
X97960Y232400D01*
X124100D01*
X152200Y204300D01*
Y133400D01*
X139500Y120700D01*
G01X-5001Y200911D02*
Y198959D01*
X-5095Y198865D01*
Y193826D01*
G01X45600Y230200D02*
X42700Y233100D01*
X-7300D01*
G01X12146Y221628D02*
Y224200D01*
G01D02*
Y226772D01*
G01X9869Y224200D02*
X12146D01*
G01D02*
X14423D01*
G01X42500Y236200D02*
X-3000D01*
X-5500Y238700D01*
G01X13700Y267069D02*
Y269346D01*
G01D02*
Y271623D01*
G01X11128Y269346D02*
X13700D01*
G01D02*
X16272D01*
G01X38400Y93900D02*
X52800Y79500D01*
X265452D01*
X299500Y45452D01*
G01X52646Y92528D02*
Y95100D01*
G01D02*
Y97672D01*
G01X50369Y95100D02*
X52646D01*
G01D02*
X54923D01*
G01X56993Y125137D02*
X55041D01*
X55029Y125125D01*
X49826D01*
G01X70400Y128300D02*
X68448D01*
X67686Y129062D01*
X49826D01*
G01X41400Y117900D02*
X39300Y115800D01*
X35900D01*
X34275Y114175D01*
Y109574D01*
G01X31374Y125430D02*
X26400Y120456D01*
Y119748D01*
X26401Y119747D01*
Y109574D01*
G01X49826Y127094D02*
X60743D01*
X60749Y127100D01*
X62700D01*
G01X33400Y118400D02*
X30200Y115200D01*
Y113415D01*
X30338Y113277D01*
Y109574D01*
G01X20495Y105919D02*
Y109574D01*
G01D02*
Y113229D01*
G01X78055Y99274D02*
X78028Y99300D01*
X41400D01*
X36243Y104457D01*
G01D02*
Y109574D01*
G01X171300Y112400D02*
X169919Y113781D01*
X123919D01*
X102732Y134968D01*
X49826D01*
G01X69400Y106900D02*
Y113100D01*
X65249Y117251D01*
X49826D01*
G01X73700Y107700D02*
Y109652D01*
X73781Y109733D01*
Y111419D01*
X65980Y119220D01*
X49826D01*
G01X77600Y104100D02*
X76219Y105481D01*
Y112181D01*
X67212Y121188D01*
X49826D01*
G01X78700Y108200D02*
X80081Y109581D01*
Y111119D01*
X68043Y123157D01*
X49826D01*
G01Y132999D02*
X69910D01*
X69962Y133051D01*
X92849D01*
X116300Y109600D01*
X173600D01*
G01X77928Y101300D02*
X42778D01*
X38212Y105866D01*
Y109574D01*
G01X37800Y118100D02*
X36000D01*
X32500Y114600D01*
Y113471D01*
X32306Y113277D01*
Y109574D01*
G01X31300Y121300D02*
X28500Y118500D01*
Y113408D01*
X28369Y113277D01*
Y109574D01*
G01X56500Y146500D02*
Y143800D01*
X53573Y140873D01*
X49826D01*
G01Y150716D02*
X45833D01*
X43900Y152649D01*
Y154600D01*
G01X49826Y142842D02*
X43258D01*
X39800Y146300D01*
G01X49826Y158590D02*
X36590D01*
G01D02*
X34800Y156800D01*
G01X46171Y136936D02*
X49826D01*
G01D02*
X53481D01*
G01X118500Y166700D02*
X117120Y168080D01*
X117069D01*
X116717Y168432D01*
X49826D01*
G01X41900Y150600D02*
X43753Y148747D01*
X49826D01*
G01X87400Y158800D02*
X86019Y157419D01*
Y157371D01*
X85254Y156606D01*
X53544D01*
X53529Y156621D01*
X49826D01*
G01X91700Y177100D02*
X88938Y174338D01*
X49826D01*
G01X119000Y161400D02*
X116500D01*
X111436Y166464D01*
X49826D01*
G01X96200Y175800D02*
X92769Y172369D01*
X49826D01*
G01X32900Y204500D02*
X30338Y201938D01*
Y193826D01*
G01X55800Y184400D02*
X55580Y184180D01*
G01D02*
X49826D01*
G01X20495Y197529D02*
Y193826D01*
G01X42149D02*
Y198349D01*
X45500Y201700D01*
X93000D01*
X139500Y155200D01*
Y140700D01*
G01Y130700D02*
X134700Y135500D01*
Y156100D01*
X110557Y180243D01*
X49826D01*
G01X147700Y203100D02*
X41700D01*
X39051Y200451D01*
Y200292D01*
X38212Y199452D01*
Y193826D01*
G01X136300Y205200D02*
X133449D01*
X132469Y204220D01*
X40594D01*
X36243Y199869D01*
Y193826D01*
G01X130100Y213200D02*
X124100D01*
X118000Y207100D01*
X32600D01*
X28369Y202868D01*
Y193826D01*
G01X135000Y211200D02*
X129600Y205800D01*
X40101D01*
X34275Y199974D01*
Y193826D01*
G01X30100Y212500D02*
X33700Y216100D01*
X82500D01*
X97000Y230600D01*
G01X28800Y206500D02*
X26401Y204101D01*
Y193826D01*
G01X32500Y201000D02*
Y199048D01*
X32308Y198856D01*
Y198409D01*
X32306Y198407D01*
Y193826D01*
G01X46946Y257354D02*
Y260208D01*
X46754Y260400D01*
G01X28048Y257800D02*
Y260806D01*
X27900Y260954D01*
G01Y265369D02*
Y267646D01*
G01D02*
Y269923D01*
G01X25328Y267646D02*
X27900D01*
G01D02*
X30472D01*
G01X53446Y257828D02*
Y260400D01*
G01D02*
Y262972D01*
G01X51169Y260400D02*
X53446D01*
G01D02*
X55723D01*
G01X132100Y305700D02*
X119800Y318000D01*
X43900D01*
X28300Y333600D01*
X21100D01*
G01X85054Y94600D02*
X82728D01*
X78055Y99274D01*
G01X64946Y105728D02*
Y108300D01*
G01D02*
Y110872D01*
G01X62669Y108300D02*
X64946D01*
G01D02*
X67223D01*
G01X64300Y136777D02*
Y139054D01*
G01X78055Y99274D02*
X196274D01*
X252000Y155000D01*
Y236600D01*
G01X81200Y104400D02*
X81028D01*
X77928Y101300D01*
G01D02*
X178600D01*
X246700Y169400D01*
Y211400D01*
G01X75700Y137577D02*
Y139854D01*
G01D02*
Y142131D01*
G01X73128Y139854D02*
X75700D01*
G01D02*
X78272D01*
G01X64300Y139054D02*
Y141331D01*
G01X61728Y139054D02*
X64300D01*
G01D02*
X66872D01*
G01X65500Y191046D02*
X62880D01*
G01D02*
X61800Y189966D01*
Y187800D01*
G01X65500Y188769D02*
Y191046D01*
G01D02*
Y193323D01*
G01Y191046D02*
X68072D01*
G01X65346Y195328D02*
Y197900D01*
G01D02*
Y200472D01*
G01X63069Y197900D02*
X65346D01*
G01D02*
X67623D01*
G01X66700Y334100D02*
X141900D01*
X151100Y324900D01*
G01X129500Y126848D02*
Y130700D01*
G01D02*
Y134552D01*
G01X125648Y130700D02*
X129500D01*
G01D02*
X133352D01*
G01X118400Y294200D02*
X126200D01*
X135400Y285000D01*
X199385D01*
X202600Y288215D01*
Y292000D01*
G01X213100Y294800D02*
X211300Y293000D01*
X211200D01*
X208849Y290649D01*
Y287549D01*
X188100Y266800D01*
X148500D01*
X125500Y289800D01*
X108400D01*
G01X108200Y289600D02*
X108400Y289800D01*
G01X206900Y295000D02*
Y290800D01*
X199700Y283600D01*
X134000D01*
X125700Y291900D01*
X115600D01*
G01X112900Y292100D02*
X115500D01*
X115600Y292000D01*
Y291900D01*
G01X200600Y289400D02*
X197300Y286100D01*
X136700D01*
X126400Y296400D01*
X123000D01*
G01X102800Y283800D02*
X103100Y283500D01*
G01D02*
X126000D01*
X146800Y262700D01*
X189700D01*
X207700Y280700D01*
X212300D01*
G01X197700Y293000D02*
Y290000D01*
X194800Y287100D01*
X139700D01*
X127641Y299159D01*
X126934D01*
X126475Y298700D01*
G01X118300Y294300D02*
X118400Y294200D01*
G01X126475Y298700D02*
Y299275D01*
X126700Y299500D01*
G01X120054Y375828D02*
Y378400D01*
G01D02*
Y380972D01*
G01X117777Y378400D02*
X120054D01*
G01D02*
X122331D01*
G01X161446Y297000D02*
Y290300D01*
G01X171854Y269928D02*
Y272500D01*
G01D02*
Y275072D01*
G01X169577Y272500D02*
X171854D01*
G01D02*
X174131D01*
G01X157480Y268393D02*
Y275591D01*
G01X150282D02*
X157480D01*
G01D02*
X164678D01*
G01X159169Y290300D02*
X161446D01*
G01D02*
X163723D01*
G01X154754D02*
Y297000D01*
G01X148100Y290054D02*
X152183D01*
X152429Y290300D01*
X154754D01*
G01X178263Y291050D02*
X173216D01*
X172120Y289954D01*
X169500D01*
G01X167300Y323800D02*
X161600Y318100D01*
X155700D01*
G01X161446Y297000D02*
Y299572D01*
G01X159169Y297000D02*
X161446D01*
G01D02*
X163723D01*
G01X169500Y296646D02*
X174545D01*
X175249Y297350D01*
X178263D01*
G01X169500Y296646D02*
X169205D01*
X167099Y298752D01*
Y299047D01*
X164346Y301800D01*
X156934D01*
X154754Y299620D01*
Y297000D01*
G01X189654Y188528D02*
Y191100D01*
G01D02*
Y193672D01*
G01X187377Y191100D02*
X189654D01*
G01D02*
X191931D01*
G01X204746Y248728D02*
Y251300D01*
G01D02*
Y253872D01*
G01X202469Y251300D02*
X204746D01*
G01D02*
X207023D01*
G01X198054D02*
Y254180D01*
X198554Y254680D01*
Y257300D01*
G01X178500Y276071D02*
Y274500D01*
X178546Y274454D01*
Y272500D01*
G01X186750Y291050D02*
X186137D01*
G01X188600Y289200D02*
X186750Y291050D01*
G01D02*
X189103D01*
G01X186137Y288281D02*
Y291050D01*
G01D02*
Y293819D01*
G01X183171Y291050D02*
X186137D01*
G01X205246Y254728D02*
Y257300D01*
G01D02*
Y259872D01*
G01X202969Y257300D02*
X205246D01*
G01D02*
X207523D01*
G01X197600Y260871D02*
Y260500D01*
X196850Y259750D01*
Y259004D01*
X198554Y257300D01*
G01X193400Y290654D02*
Y289500D01*
X193100Y289200D01*
G01X179954Y302128D02*
Y304700D01*
G01D02*
Y307272D01*
G01X177677Y304700D02*
X179954D01*
G01D02*
X182231D01*
G01X209846Y297128D02*
Y299700D01*
G01D02*
Y302272D01*
G01X207569Y299700D02*
X209846D01*
G01D02*
X212123D01*
G01X209946Y303428D02*
Y306000D01*
G01D02*
Y308572D01*
G01X207669Y306000D02*
X209946D01*
G01D02*
X212223D01*
G01X200500Y297600D02*
X201054D01*
X203154Y299700D01*
G01X186137Y297350D02*
Y301571D01*
X186646Y302080D01*
Y304700D01*
G01X193400Y297346D02*
X189155D01*
X189151Y297350D01*
X186137D01*
G01X226600Y48535D02*
Y50300D01*
G01D02*
Y52065D01*
G01X251150Y39600D02*
X252935D01*
G01X251150Y37835D02*
Y39600D01*
G01X249000Y216200D02*
Y213700D01*
X246700Y211400D01*
G01X236846Y228028D02*
Y230600D01*
G01D02*
Y233172D01*
G01X234569Y230600D02*
X236846D01*
G01D02*
X239123D01*
G01X254200Y238800D02*
X252000Y236600D01*
G01X236220Y268393D02*
Y275591D01*
G01D02*
Y282789D01*
G01X229022Y275591D02*
X236220D01*
G01D02*
X243418D01*
G01X278400Y7648D02*
Y11500D01*
G01D02*
Y15352D01*
G01X274548Y11500D02*
X278400D01*
G01D02*
X282252D01*
G01X277465Y26800D02*
X279250D01*
G01Y25035D02*
Y26800D01*
G01D02*
Y28565D01*
G01X268900Y139200D02*
Y135400D01*
X288454Y115846D01*
X293800D01*
G01X283800Y136754D02*
X272446D01*
G01X292900Y140154D02*
X289146D01*
G01X327500Y129277D02*
X334577D01*
X341100Y135800D01*
Y178200D01*
X331300Y188000D01*
X258900D01*
G01X286465Y283900D02*
X288250D01*
G01Y282135D02*
Y283900D01*
G01D02*
Y285665D01*
G01X287065Y299400D02*
X288850D01*
G01Y297635D02*
Y299400D01*
G01D02*
Y301165D01*
G01X295850Y34100D02*
X297635D01*
G01X295850Y32335D02*
Y34100D01*
G01D02*
Y35865D01*
G01X332957Y37666D02*
X334840D01*
G01X295750Y27100D02*
X297535D01*
G01X295750Y25335D02*
Y27100D01*
G01D02*
Y28865D01*
G01X327500Y122866D02*
Y124946D01*
G01D02*
Y127026D01*
G01X323648Y124946D02*
X327500D01*
G01D02*
X331352D01*
G01X329862Y104166D02*
Y107230D01*
G01X326404D02*
X329862D01*
G01D02*
X333320D01*
G01X329862Y160858D02*
Y164710D01*
G01D02*
Y168562D01*
G01X326404Y164710D02*
X329862D01*
G01D02*
X333320D01*
G01X311500Y148454D02*
X307954D01*
G01X302800Y142054D02*
X299446D01*
G01X320258Y285814D02*
X320786D01*
X324900Y281700D01*
G01X315744Y281300D02*
X320258Y285814D01*
G01D02*
X324600Y290156D01*
Y291100D01*
G01X311400Y274200D02*
Y276956D01*
X315744Y281300D01*
G01X332350Y268700D02*
X334135D01*
G01X332350Y266935D02*
Y268700D01*
G01D02*
Y270465D01*
G01X294965Y274500D02*
X296750D01*
G01Y272735D02*
Y274500D01*
G01D02*
Y276265D01*
G01X301015Y267000D02*
X302800D01*
G01Y265235D02*
Y267000D01*
G01D02*
Y268765D01*
G01X311400Y271923D02*
Y274200D01*
G01X310107D02*
X311400D01*
G01X305350Y301535D02*
Y303300D01*
G01D02*
Y305065D01*
G01X313365Y316200D02*
X315150D01*
G01Y314435D02*
Y316200D01*
G01D02*
Y317965D01*
G01X303850Y307035D02*
Y308800D01*
G01D02*
Y310565D01*
G01X301000Y300450D02*
Y302235D01*
G01X299235Y300450D02*
X301000D01*
G01D02*
X302765D01*
G01X303850Y311735D02*
Y313500D01*
G01D02*
Y315265D01*
G01X325850Y316200D02*
X327635D01*
G01X325850Y314435D02*
Y316200D01*
G01D02*
Y317965D01*
G01X326950Y330235D02*
Y332000D01*
G01D02*
Y333765D01*
G01X323800Y347400D02*
X325585D01*
G01X323800Y345635D02*
Y347400D01*
G01D02*
Y349165D01*
G01X307393Y348013D02*
Y349700D01*
G01X304722D02*
X307393D01*
G01D02*
X310064D01*
G01X316054Y348013D02*
Y349700D01*
G01X313383D02*
X316054D01*
G01D02*
X318725D01*
G01X351040Y34905D02*
Y38166D01*
G01D02*
Y41427D01*
G01X349157Y38166D02*
X351040D01*
G01D02*
X352923D01*
G01X334840Y34405D02*
Y37666D01*
G01D02*
Y40927D01*
G01Y37666D02*
X336723D01*
G01X367657Y104166D02*
Y107230D01*
G01D02*
Y110294D01*
G01X362624Y107230D02*
X367657D01*
G01D02*
X372690D01*
G01X367657Y165190D02*
Y168254D01*
G01D02*
Y171318D01*
G01X362624Y168254D02*
X367657D01*
G01D02*
X372690D01*
G01X349450Y293335D02*
Y295100D01*
G01X339500Y318350D02*
Y320135D01*
G01X337735Y318350D02*
X339500D01*
G01D02*
X341265D01*
G01X349400Y306800D02*
X351185D01*
G01X349400Y305035D02*
Y306800D01*
G01D02*
Y308565D01*
G01X349128Y315326D02*
Y317800D01*
G01D02*
Y320274D01*
G01Y317800D02*
X351401D01*
G01X344600Y309617D02*
Y312091D01*
G01D02*
Y314565D01*
G01X349450Y295100D02*
X351235D01*
G01X349450D02*
Y296865D01*
G01X379200Y193448D02*
Y197300D01*
G01D02*
Y201152D01*
G01X375348Y197300D02*
X379200D01*
G01D02*
X383052D01*
G54D24*
X-215637Y290850D03*
Y297150D03*
X-207763Y290850D03*
Y297150D03*
X178263Y291050D03*
Y297350D03*
X186137Y291050D03*
Y297350D03*
G54D51*
X320258Y285814D03*
G54D42*
X226600Y50300D03*
X223450D03*
X282400Y26800D03*
X279250D03*
X291400Y283900D03*
X288250D03*
X285300Y267800D03*
X282150D03*
X292000Y299400D03*
X288850D03*
X330700Y53100D03*
X327550D03*
X299900Y274500D03*
X296750D03*
X307000Y313500D03*
X303850D03*
X307000Y308800D03*
X303850D03*
X318300Y316200D03*
X315150D03*
X308500Y303300D03*
X305350D03*
X323800Y347400D03*
X320650D03*
X347300Y53300D03*
X344150D03*
X349400Y306800D03*
X346250D03*
G54D33*
X-600Y29500D03*
G54D15*
X-333600Y182741D03*
Y192583D03*
Y200457D03*
G54D61*
G01X-102200Y125100D02*
X-96800Y119700D01*
X-84099D01*
X-73099Y130700D01*
X-54423D01*
X-54402Y130721D01*
X-46872D01*
X-44009Y133584D01*
X-41617D01*
X-40233Y134968D01*
X-34426D01*
G01X-97900Y206800D02*
X-99316Y208216D01*
X-99616D01*
X-100164Y208764D01*
X-102013D01*
X-104154Y210905D01*
Y211200D01*
G01X-71300Y120646D02*
Y123021D01*
X-69721Y124600D01*
X-61259D01*
X-58454Y127405D01*
Y127700D01*
G01X-54000Y181554D02*
X-66375D01*
X-67900Y183079D01*
Y185454D01*
G01X-60700Y192046D02*
X-58095D01*
X-54295Y188246D01*
X-54000D01*
G01X-60700Y185354D02*
X-60995D01*
X-63136Y187495D01*
G01D02*
X-63249D01*
X-65464Y189710D01*
Y190005D01*
G01D02*
X-67605Y192146D01*
X-67900D01*
G01X-74354Y231100D02*
Y218970D01*
X-74654Y218670D01*
Y216000D01*
G01D02*
X-57630D01*
X-57629Y216001D01*
X-55971D01*
X-55970Y216000D01*
X-39400D01*
X-36500Y213100D01*
G01X-83800Y216800D02*
X-82146D01*
X-81346Y216000D01*
G01X-81046Y231100D02*
X-82200D01*
X-83600Y229700D01*
G01X-34426Y123157D02*
X-43743D01*
X-45246Y121654D01*
X-52200D01*
G01X-58454Y121500D02*
X-55024D01*
X-54870Y121654D01*
X-52200D01*
G01X-34426Y125125D02*
X-46225D01*
X-49446Y128346D01*
X-52200D01*
G01X-58454Y127700D02*
X-56079D01*
X-55433Y128346D01*
X-52200D01*
G01X-34426Y176306D02*
X-39390D01*
X-51330Y188246D01*
X-54000D01*
G01X-56400Y175600D02*
X-54984Y174184D01*
X-38333D01*
X-38179Y174338D01*
X-34426D01*
G01X-11200Y212300D02*
Y214302D01*
X-21098Y224200D01*
X-30098D01*
X-30198Y224100D01*
X-32200D01*
G01X4900Y205600D02*
Y203598D01*
X4747Y203445D01*
Y193826D01*
G54D52*
X320700Y349700D03*
G54D34*
X4321Y21626D03*
X2353D03*
X384D03*
X-1584D03*
X-3553D03*
X-5521D03*
G54D25*
X-236220Y275591D03*
X-157480D03*
X157480D03*
X236220D03*
G54D43*
X291300Y288700D03*
Y294606D03*
G54D16*
X-333600Y210300D03*
G54D62*
G01X-344146Y155300D02*
Y162839D01*
X-344269Y162962D01*
Y170654D01*
G01X-344346Y236900D02*
Y230156D01*
X-344269Y230079D01*
Y222387D01*
G01X-333600Y192583D02*
X-307133D01*
X-306870Y192846D01*
X-304100D01*
G01Y186154D02*
Y180233D01*
X-304140Y180193D01*
Y176734D01*
G01X-296660D02*
X-289766D01*
G01X-273846Y191800D02*
X-276798D01*
X-277598Y192600D01*
X-279700D01*
G01X-274146Y200200D02*
X-279500D01*
G01X-279400Y176800D02*
X-276621D01*
X-276221Y177200D01*
X-273746D01*
G01X-167646Y218400D02*
Y218105D01*
X-190951Y194800D01*
X-217360D01*
X-222458Y199898D01*
Y201768D01*
G01Y235232D02*
Y201768D01*
G01X-239046Y297600D02*
Y294170D01*
X-238746Y293870D01*
Y291100D01*
G01X-222900Y290854D02*
X-218805D01*
X-218801Y290850D01*
X-215637D01*
G01X-232054Y291100D02*
Y293870D01*
G01D02*
X-232354Y294170D01*
G01X-222900Y297546D02*
X-219197D01*
X-218801Y297150D01*
X-215637D01*
G01X-222900Y297546D02*
X-223195D01*
X-225407Y299758D01*
Y300053D01*
X-227354Y302000D01*
X-237500D01*
X-239046Y300454D01*
Y297600D01*
G01X-246300Y297346D02*
X-241775D01*
X-241521Y297600D01*
X-239046D01*
G01X-232354Y294170D02*
Y297600D01*
G01X-154930Y166100D02*
X-158783D01*
X-159283Y165600D01*
X-166600D01*
X-171100Y161100D01*
X-183670D01*
G01X-197405Y163654D02*
X-187996D01*
X-185442Y161100D01*
X-183670D01*
G01X-197700Y170346D02*
X-188277D01*
X-187523Y171100D01*
X-183670D01*
G01X-204742Y201768D02*
Y235232D01*
G01X-167646Y230100D02*
X-188241D01*
X-196346Y238205D01*
Y238500D01*
G01X-204742Y235232D02*
Y237700D01*
X-203942Y238500D01*
X-196346D01*
G01X-199700Y289754D02*
Y288700D01*
X-200500Y287900D01*
Y286790D01*
X-200580Y286710D01*
G01X-207763Y297150D02*
Y301047D01*
X-207846Y301130D01*
Y303900D01*
G01X-207763Y297150D02*
X-203174D01*
X-202470Y296446D01*
X-199700D01*
G01X-154930Y166100D02*
Y171100D01*
G01X-28154Y34700D02*
X-11228D01*
X-10949Y34421D01*
X-8474D01*
G01X-39800Y102700D02*
Y114239D01*
X-36788Y117251D01*
X-34426D01*
G01X-3746Y12100D02*
Y18958D01*
X-3553Y19151D01*
Y21626D01*
G01X4154Y52400D02*
Y41650D01*
X2353Y39849D01*
Y37374D01*
G01X-1700Y51954D02*
Y39965D01*
X-1584Y39849D01*
Y37374D01*
G01X3246Y94905D02*
X5458Y92693D01*
X5753D01*
X12046Y86400D01*
X19516D01*
X24646Y91530D01*
Y94300D01*
G01X-3300Y66100D02*
X-2100Y64900D01*
G01X-7064Y193826D02*
Y200002D01*
X-7102Y200040D01*
Y202398D01*
X-4699Y204801D01*
Y224727D01*
X-11500Y231528D01*
Y236500D01*
X-5700Y242300D01*
X120300D01*
X155900Y206700D01*
Y134002D01*
X155700Y133802D01*
Y131700D01*
G01X49826Y186149D02*
X19753D01*
X19048Y186854D01*
X16946D01*
G01X27800Y94600D02*
X24946D01*
X24646Y94300D01*
G01X58254Y108300D02*
Y104754D01*
X57200Y103700D01*
G01X49826Y184180D02*
X33580D01*
G01D02*
X32700Y183300D01*
G01X115200Y17700D02*
X128066D01*
X137400Y8366D01*
X143160D01*
G01X150361Y-25900D02*
Y339D01*
X146900Y3800D01*
Y16634D01*
G01X197142Y200668D02*
Y234132D01*
G01X214858D02*
Y200668D01*
G01X205654Y243900D02*
Y244195D01*
X203442Y246407D01*
X202947D01*
X200561Y248793D01*
X200266D01*
X198054Y251005D01*
Y251300D01*
G01X214858Y234132D02*
X226622D01*
X227647Y233107D01*
X227942D01*
X230154Y230895D01*
Y230600D01*
G01X212346Y243900D02*
Y238514D01*
X214858Y236002D01*
Y234132D01*
G01X199803Y243300D02*
X208971Y234132D01*
X214858D01*
G01X292600Y27100D02*
Y15700D01*
X288400Y11500D01*
G01X282400Y26800D02*
X290317D01*
X290617Y27100D01*
X292600D01*
G01X292700Y34100D02*
Y29163D01*
X292600Y29063D01*
Y27100D01*
G01X327500Y116285D02*
X297009D01*
X296570Y115846D01*
X293800D01*
G01X327500Y120616D02*
X299938D01*
X286307Y134247D01*
Y134542D01*
X284095Y136754D01*
X283800D01*
G01X292900Y146846D02*
X298130D01*
X300030Y148746D01*
X302800D01*
G01X283800Y143446D02*
X289500D01*
X290393Y144339D01*
Y144634D01*
X292605Y146846D01*
X292900D01*
G01X327500Y137939D02*
X297885D01*
X295670Y140154D01*
X292900D01*
G01X379200Y207300D02*
X374250Y202350D01*
X303850D01*
X271300Y234900D01*
Y271000D01*
X279100Y278800D01*
X290600D01*
X300567Y288767D01*
X308644D01*
G01X369200Y207300D02*
X302500D01*
X273900Y235900D01*
Y271000D01*
X280000Y277100D01*
X291500D01*
X301198Y286798D01*
X308644D01*
G01X289500Y272400D02*
X301930Y284830D01*
X308644D01*
G01X278300Y267700D02*
X278400Y267800D01*
X282150D01*
G01X308644Y290735D02*
X306169D01*
X306134Y290700D01*
X298200D01*
X296200Y288700D01*
X291300D01*
G01X291400Y283900D02*
Y286322D01*
X291300Y286422D01*
Y288700D01*
G01X292000Y299400D02*
Y295306D01*
X291300Y294606D01*
G01X308644Y292704D02*
X298397D01*
X296495Y294606D01*
X291300D01*
G01X308200Y23300D02*
Y15750D01*
X308400Y15550D01*
Y11500D01*
G01X318100Y23210D02*
Y15850D01*
X318400Y15550D01*
Y11500D01*
G01X328100Y59554D02*
Y55613D01*
X327550Y55063D01*
Y53100D01*
G01X330700Y50143D02*
Y49793D01*
X331100Y49393D01*
G01X311795Y155146D02*
X331154D01*
X335800Y150500D01*
Y136700D01*
X332708Y133608D01*
X327500D01*
G01X302800Y148746D02*
X303095D01*
X305307Y150958D01*
X307312D01*
X308993Y152639D01*
Y152934D01*
X311205Y155146D01*
X311500D01*
G01X327500Y146600D02*
X316124D01*
X314270Y148454D01*
X311500D01*
G01X327500Y142269D02*
X305785D01*
X305570Y142054D01*
X302800D01*
G01X308644Y278924D02*
X302361D01*
X299900Y276463D01*
Y274500D01*
G01X329117Y274200D02*
Y270746D01*
X329200Y270663D01*
Y268700D01*
G01X305950Y267000D02*
Y275246D01*
X307660Y276956D01*
X308644D01*
G01X300600Y260600D02*
X304600D01*
X313369Y269369D01*
Y274200D01*
G01X308800Y257900D02*
Y261800D01*
X315337Y268337D01*
Y274200D01*
G01X331200Y307000D02*
X329800D01*
X323211Y300411D01*
Y297428D01*
G01X337000Y297800D02*
X330980D01*
X330608Y297428D01*
X329117D01*
G01X317306D02*
Y300394D01*
X316100Y301600D01*
X315200D01*
G01X314219D02*
X313419Y302400D01*
Y302401D01*
X307020Y308800D01*
X307000D01*
G01X313369Y297428D02*
Y300750D01*
X314219Y301600D01*
G01X315200D02*
X314219D01*
G01X315337Y297428D02*
Y301463D01*
X315200Y301600D01*
G01X307000Y313500D02*
Y308800D01*
G01X308644Y294672D02*
X306169D01*
X306141Y294700D01*
X305700D01*
X303100Y297300D01*
X301000D01*
G01X331872Y294672D02*
X334347D01*
X334349Y294674D01*
X343889D01*
X344315Y295100D01*
X346300D01*
G01X305350Y303300D02*
X301400D01*
G01X303850Y313500D02*
X299900D01*
G01X303850Y308800D02*
X300200D01*
G01X330455Y313428D02*
X331200Y312683D01*
G01D02*
Y310150D01*
G01X339500Y315200D02*
Y305109D01*
X338255Y303864D01*
X329141D01*
X325180Y299903D01*
Y297428D01*
G01X346250Y306800D02*
X343171D01*
X338835Y302464D01*
X330264D01*
X327148Y299348D01*
Y297428D01*
G01X311400D02*
Y300420D01*
X308520Y303300D01*
X308500D01*
G01X358600Y16100D02*
Y15750D01*
X358400Y15550D01*
G01X368700Y21538D02*
Y15850D01*
X368400Y15550D01*
G01X344300Y55763D02*
Y55413D01*
X344150Y55263D01*
G01X379200Y227300D02*
X387900Y236000D01*
Y281000D01*
X378400Y290500D01*
X349450D01*
G01X346300Y295100D02*
Y290500D01*
G01X342050Y309550D02*
X344591Y312091D01*
X344600D01*
G01X343700Y297400D02*
X343300Y297800D01*
G01D02*
X340150D01*
G01X344600Y317800D02*
X342000Y315200D01*
X339500D01*
G01X349128Y312091D02*
Y311890D01*
X346250Y309012D01*
Y306800D01*
G54D53*
X316054Y349700D03*
X307393D03*
G54D35*
X-8474Y24579D03*
Y26547D03*
Y28516D03*
Y30484D03*
Y32453D03*
Y34421D03*
G54D26*
X-183670Y156100D03*
Y161100D03*
Y166100D03*
Y171100D03*
X-154930D03*
Y166100D03*
Y161100D03*
Y156100D03*
G54D44*
X318100Y23210D03*
Y26990D03*
X368700Y27690D03*
Y23910D03*
G54D17*
X-311300Y19000D03*
X-294500Y66000D03*
X-300300Y131234D03*
X-332900Y155200D03*
X-331900Y237500D03*
X-277200Y95100D03*
X-270245Y69845D03*
X-293000Y101200D03*
X-279400Y176800D03*
X-289766Y176734D03*
X-265600Y211700D03*
X-260700Y197500D03*
X-279700Y192600D03*
X-279500Y200200D03*
X-265725Y246623D03*
X-265600Y222600D03*
X-265725Y235723D03*
X-271925Y290423D03*
X-271525Y266423D03*
Y277323D03*
X-271725Y324823D03*
X-271925Y301323D03*
X-271725Y313923D03*
X-260000Y343600D03*
X-245700Y97700D03*
X-229600Y170500D03*
X-218100Y159000D03*
X-230300Y138800D03*
X-242700Y212800D03*
X-229200Y216300D03*
X-236000Y205600D03*
X-230700Y199000D03*
X-239900Y182300D03*
X-250800Y189400D03*
X-216400Y220500D03*
X-241700Y236800D03*
X-233000Y236400D03*
X-217200Y269400D03*
X-219000Y327600D03*
X-230100Y316300D03*
X-237600Y364700D03*
X-249100Y353600D03*
X-224900Y377400D03*
X-209300Y74700D03*
X-208200Y60500D03*
X-190300Y129900D03*
X-184900Y124400D03*
X-209100Y113800D03*
X-206980Y100600D03*
X-191000Y174000D03*
X-184800Y149700D03*
X-190400Y156200D03*
X-209300Y147200D03*
X-197500Y183400D03*
X-209400Y182200D03*
X-195300Y242300D03*
X-200580Y286710D03*
X-208200Y263500D03*
X-184771Y286747D03*
X-177500Y266753D03*
X-196800Y275800D03*
X-210400Y283000D03*
X-197751Y263600D03*
X-178100Y272000D03*
X-210300Y273100D03*
Y268200D03*
X-190100Y292800D03*
X-181755Y326383D03*
X-197655D03*
X-188700Y301300D03*
X-191700Y297600D03*
X-177455Y357383D03*
X-181955Y339583D03*
X-208255Y358083D03*
X-192355D03*
X-197855Y339583D03*
X-204955Y377383D03*
X-189055D03*
X-142200Y92500D03*
X-165700Y130600D03*
X-147700Y110900D03*
X-174100Y113600D03*
X-167200Y105900D03*
X-151300Y122200D03*
X-146400Y165800D03*
X-139700Y176800D03*
X-163700Y170400D03*
X-145800Y149900D03*
X-163500Y158100D03*
X-175100Y157600D03*
X-156000Y149800D03*
X-170700Y149700D03*
X-173700Y138300D03*
X-157000Y197200D03*
X-152200Y180300D03*
X-159400Y249400D03*
X-155300Y230000D03*
X-155400Y218400D03*
X-174312Y269702D03*
X-171400Y282000D03*
X-146200Y286500D03*
X-159500Y294200D03*
X-150600Y289200D03*
X-155100Y291900D03*
X-139400Y280900D03*
X-142155Y322283D03*
X-143355Y313883D03*
X-158055Y322283D03*
X-159255Y313883D03*
X-145255Y339383D03*
X-161555Y357383D03*
X-161155Y339383D03*
X-164600Y369500D03*
X-153555Y377583D03*
X-169455D03*
X-100955Y14183D03*
X-116855D03*
X-107300Y96400D03*
X-115000Y89900D03*
X-126900Y92500D03*
X-97700Y87300D03*
X-107100Y80600D03*
X-117300Y109500D03*
X-102200Y125100D03*
X-124300Y149600D03*
X-134100Y171000D03*
X-135700Y149400D03*
X-127100Y171500D03*
X-127200Y183600D03*
X-97900Y206800D03*
X-109600Y255800D03*
X-104800Y245400D03*
X-104900Y236100D03*
Y223400D03*
X-136500Y222700D03*
X-127500Y264800D03*
X-117700Y264400D03*
X-99200Y287700D03*
X-107000Y294300D03*
X-104500Y289900D03*
X-117000Y291900D03*
X-134800Y281100D03*
X-135500Y276800D03*
Y266700D03*
X-106800Y272700D03*
X-136500Y271300D03*
X-102300Y275300D03*
X-134500Y300800D03*
X-128900Y301300D03*
X-134500Y337000D03*
X-130400Y340800D03*
X-124300Y338700D03*
X-115755Y377183D03*
X-131655D03*
X-67500Y49100D03*
X-78300Y57300D03*
X-85700Y51000D03*
X-67200Y37800D03*
X-78000Y46500D03*
X-78300Y37800D03*
X-85000Y40700D03*
X-75200Y88400D03*
X-91000Y81000D03*
X-78300Y66400D03*
X-61800Y137900D03*
X-61400Y112900D03*
X-64500Y102100D03*
X-72900Y161400D03*
X-76500Y171900D03*
X-83600Y172100D03*
X-79100Y140900D03*
X-90100Y140600D03*
X-61800Y143700D03*
X-62200Y154500D03*
X-75700Y190200D03*
X-66700Y208700D03*
X-83400Y186200D03*
X-58600Y212500D03*
X-80100Y198000D03*
X-83800Y216800D03*
X-83600Y229700D03*
X-96400Y284000D03*
X-83100Y281400D03*
X-88300Y278100D03*
X-81500Y260600D03*
X-68655Y304083D03*
X-59100Y332800D03*
X-67500Y332200D03*
X-65600Y362800D03*
X-73755Y357383D03*
X-89655D03*
X-89500Y347900D03*
X-72200Y342400D03*
X-61200Y376900D03*
X-78555Y377183D03*
X-94455D03*
X-20600Y42600D03*
X-39700Y34300D03*
X-42700Y47400D03*
X-48000Y36900D03*
X-32600Y41900D03*
X-46100Y58500D03*
X-49700Y98500D03*
X-19200Y65300D03*
X-19100Y80900D03*
X-26900Y60700D03*
X-47700Y92600D03*
X-43300Y110200D03*
X-43000Y119800D03*
X-23500Y102200D03*
X-39300Y128900D03*
X-43900Y130700D03*
X-46200Y128300D03*
X-49000Y104500D03*
X-43000Y136100D03*
X-39800Y102700D03*
X-28000Y103000D03*
X-21300Y126600D03*
X-46600Y162200D03*
X-25900Y156800D03*
X-26600Y146100D03*
X-56400Y175600D03*
X-26000Y168000D03*
X-26100Y161600D03*
Y164700D03*
X-44000Y159200D03*
X-25100Y173000D03*
X-55700Y155700D03*
X-20800Y201000D03*
X-36500Y213100D03*
X-22900Y214300D03*
X-37000Y217500D03*
X-32200Y224100D03*
X-37000Y230700D03*
X-57800Y241700D03*
X-28700Y258700D03*
X-52755Y304083D03*
X-33100Y301600D03*
X-56100Y318800D03*
X-44900Y325700D03*
Y330800D03*
X-24300Y366000D03*
X-28400Y351600D03*
X-19500Y347800D03*
X-24200Y339700D03*
X-36400Y358500D03*
X-34500Y355000D03*
X-28555Y376683D03*
X-45300Y376900D03*
X7700Y12100D03*
X-16400Y16100D03*
X-9000Y15200D03*
X2100Y48000D03*
X-13012Y40800D03*
X-600Y29500D03*
X10900Y47800D03*
X-15800Y30700D03*
X-16100Y23200D03*
X12900Y28400D03*
X12700Y35500D03*
X13200Y42200D03*
X-10800Y65800D03*
X-1000Y88400D03*
X-1200Y75200D03*
X-3300Y66100D03*
X16000Y77300D03*
X15600Y67200D03*
X-11700Y88400D03*
X-9300Y95300D03*
X14700Y124900D03*
Y129700D03*
X0Y99100D03*
X15600Y136100D03*
X1400Y135600D03*
X8600Y128100D03*
X-5000Y99400D03*
X-4600Y125600D03*
X-1700Y122800D03*
X-2300Y118600D03*
X-18500Y127800D03*
X-9600Y132700D03*
X-18000Y120400D03*
X14700Y120100D03*
X14600Y116000D03*
X-11100Y119100D03*
X16900Y171600D03*
X9900Y173000D03*
X-2700Y172700D03*
X-13000Y171000D03*
X15700Y146200D03*
X15800Y157100D03*
X13800Y165800D03*
X-2900Y164400D03*
X-2800Y156000D03*
X-3000Y144800D03*
X-13300Y158300D03*
X-13100Y143600D03*
X16946Y186854D03*
X-600Y209700D03*
X-14938Y201300D03*
X17400Y199900D03*
X1900Y199200D03*
X4900Y205600D03*
X-11200Y212300D03*
X-7000Y206500D03*
X11100Y204800D03*
X-5001Y200911D03*
X-15400Y205800D03*
X-7300Y233100D03*
X12300Y217700D03*
X-5500Y238700D03*
X-1300Y229800D03*
X-10400Y223600D03*
X-17800Y216900D03*
X11600Y258800D03*
X18700Y258600D03*
X13600Y308000D03*
X11200Y303600D03*
X-6100Y314200D03*
X-17800Y318000D03*
X19520Y338680D03*
X16400Y351800D03*
X-11300Y350800D03*
X-3500Y347500D03*
X9100D03*
X3100Y351900D03*
X-11200Y362100D03*
X9300Y362000D03*
X-13700Y340200D03*
X-12655Y376683D03*
X5745D03*
X50245Y12683D03*
X21600Y16700D03*
X34345Y12683D03*
X31900Y52000D03*
X30600Y24400D03*
X40600Y35500D03*
X41300Y48600D03*
X31700Y38900D03*
X22400Y26700D03*
X25800Y45200D03*
X49200Y87000D03*
X38400Y93900D03*
X27800Y94600D03*
X30400Y77300D03*
X26100Y66700D03*
X55400Y64500D03*
X57645Y74883D03*
X42600Y96300D03*
X56993Y125137D03*
X41400Y117900D03*
X31374Y125430D03*
X33400Y118400D03*
X57200Y103700D03*
X30300Y137100D03*
X34900Y130100D03*
X40500Y136800D03*
X47200Y103500D03*
X37800Y118100D03*
X31300Y121300D03*
X56500Y146500D03*
X43900Y154600D03*
X57800Y160600D03*
X39800Y146300D03*
X33000Y171900D03*
X32500Y164400D03*
X30100Y155300D03*
X30300Y146400D03*
X34800Y156800D03*
X41900Y150600D03*
X32900Y204500D03*
X32700Y183300D03*
X28800Y206500D03*
X30100Y212500D03*
X32500Y201000D03*
X45600Y230200D03*
X42500Y236200D03*
X46946Y257354D03*
X28048Y257800D03*
X33300Y269500D03*
X37300Y257800D03*
X42500Y330800D03*
X21100Y333600D03*
X28048Y303600D03*
X46400Y303000D03*
X23400Y313700D03*
X32300Y313900D03*
X47200Y323200D03*
X49400Y349000D03*
X49245Y363483D03*
X23100Y347500D03*
X59545Y376883D03*
X21645Y376683D03*
X43645Y376883D03*
X80445Y13183D03*
X64545D03*
X95800Y95300D03*
X98300Y65600D03*
X89545Y75383D03*
X72600Y65100D03*
X73545Y74883D03*
X70400Y128300D03*
X62700Y127100D03*
X95200Y105300D03*
X90600Y113000D03*
X64700D03*
X69400Y106900D03*
X73700Y107700D03*
X77600Y104100D03*
X78700Y108200D03*
X81200Y104400D03*
X63600Y153300D03*
X97200Y159600D03*
X87400Y158800D03*
X91700Y177100D03*
X96200Y175800D03*
X97000Y230600D03*
X81745Y312183D03*
X65845D03*
X65800Y322000D03*
X83100Y321800D03*
X66700Y334100D03*
X95045Y350883D03*
X61200Y349300D03*
X65145Y363483D03*
X85345Y341183D03*
X86700Y368300D03*
X80500Y368400D03*
X76900Y376800D03*
X124445Y24583D03*
X124145Y93583D03*
X108245D03*
X105445Y75383D03*
X127345Y74283D03*
X119300Y126900D03*
X131100Y171700D03*
X112800Y140100D03*
X118500Y166700D03*
X119000Y161400D03*
X106400Y216400D03*
X119100Y215900D03*
X120600Y186800D03*
X136300Y205200D03*
X130100Y213200D03*
X135000Y211200D03*
X131200Y247700D03*
X130900Y237500D03*
X130100Y221000D03*
X118900Y227900D03*
X108000Y226200D03*
X100800Y227900D03*
X131000Y258400D03*
X118300Y294300D03*
X108200Y289600D03*
X112900Y292100D03*
X102800Y283800D03*
X132100Y305700D03*
X100745Y311683D03*
X116645D03*
X137300Y331100D03*
X123000Y296400D03*
X126700Y299500D03*
X119854Y365746D03*
X132100Y371400D03*
X132600Y361300D03*
X137745Y341683D03*
X130345Y350783D03*
X101245Y341183D03*
X121845Y341683D03*
X110945Y350883D03*
X140345Y24583D03*
X161400Y70700D03*
X175900Y92600D03*
X148800Y93800D03*
X143245Y74283D03*
X155700Y131700D03*
X164600Y120700D03*
X175200Y122000D03*
X171300Y112400D03*
X175300Y109600D03*
X145800Y151000D03*
X173100Y175400D03*
X147200Y171200D03*
X173400Y207400D03*
X162000Y209800D03*
X147700Y203100D03*
X173100Y217700D03*
X171700Y235900D03*
X161700Y227300D03*
X171600Y251800D03*
X141400Y290700D03*
X155700Y318100D03*
X167300Y323800D03*
X151100Y324900D03*
X167200Y370600D03*
X147400Y371300D03*
X172800Y350500D03*
X171245Y341083D03*
X160500Y361900D03*
X149300Y361700D03*
X146245Y350783D03*
X155345Y341083D03*
X202245Y72083D03*
X186345D03*
X178900Y132700D03*
X197000Y132300D03*
X207045Y100483D03*
X190300Y121700D03*
X183400Y114600D03*
X179300Y106000D03*
X207700Y160600D03*
X189200Y161000D03*
X202600Y145500D03*
X183500Y145300D03*
X207400Y184300D03*
X183000Y183600D03*
X180600Y198000D03*
X205100Y197800D03*
X184700Y250800D03*
X182900Y237600D03*
X178600Y224600D03*
X187300Y219400D03*
Y233300D03*
X199803Y243300D03*
X178500Y276071D03*
X210800Y288000D03*
X209000Y270000D03*
X193900Y275500D03*
X188600Y289200D03*
X197600Y260871D03*
X212064Y273012D03*
X193100Y289200D03*
X215800Y287500D03*
X202600Y292000D03*
X213100Y294800D03*
X182700Y269100D03*
X184600Y275100D03*
X206900Y295000D03*
X200600Y289400D03*
X212300Y280700D03*
X215700Y282800D03*
X215600Y277500D03*
X210300Y264400D03*
X212647Y267900D03*
X197700Y293000D03*
X215637Y333053D03*
X200500Y297600D03*
X207637Y340553D03*
X208437Y356953D03*
X216437Y349453D03*
X198500Y350200D03*
X201337Y363053D03*
X190800Y363400D03*
X179800Y363200D03*
X237800Y17400D03*
X237200Y26400D03*
X232300Y41100D03*
X223845Y72083D03*
X239745D03*
X219900Y132500D03*
X253445Y99983D03*
X222945Y100483D03*
X237545Y99983D03*
X222921Y116575D03*
X238821D03*
X239400Y170400D03*
X246100Y161800D03*
X229300Y160300D03*
X232900Y145500D03*
X240800Y181900D03*
X232400Y198200D03*
X249000Y216200D03*
X255100Y249400D03*
X255300Y233400D03*
X254200Y238800D03*
X255500Y294200D03*
X255394Y285460D03*
X255294Y276460D03*
X255194Y258860D03*
X255294Y267860D03*
X221500Y326900D03*
X241137Y325953D03*
X255600Y303200D03*
X249137Y318453D03*
X255737Y311353D03*
X245800Y304100D03*
X237900Y311000D03*
X229500Y319400D03*
X248900Y366200D03*
X252883Y344998D03*
X248900Y350400D03*
Y358500D03*
X225037Y342053D03*
X233037Y334553D03*
X249400Y376300D03*
X248400Y382800D03*
X288700Y48400D03*
X270200Y21500D03*
X278645Y37583D03*
X262745D03*
X280721Y98575D03*
X262300Y72400D03*
X273100Y62600D03*
X273200Y122900D03*
X280000Y115400D03*
X272446Y136754D03*
X260400Y175600D03*
X274400Y176000D03*
X291700Y159800D03*
X260700Y160800D03*
X275500D03*
X268900Y139200D03*
X289146Y140154D03*
X292700Y206600D03*
X257100Y208400D03*
X257700Y194300D03*
X281600Y183100D03*
X278300Y193200D03*
X258900Y188000D03*
X292200Y247400D03*
X285700Y252700D03*
X278300Y248900D03*
X262200Y251000D03*
X285500Y240800D03*
X290700Y230900D03*
X267300Y241800D03*
X261500Y240400D03*
X267000Y235600D03*
X277800Y241600D03*
X281300Y234800D03*
X273300Y227000D03*
X264200Y224900D03*
X256800Y217700D03*
X280700Y261400D03*
X289500Y272400D03*
X268600Y292100D03*
X277000Y290200D03*
X263800Y281800D03*
X263300Y275300D03*
Y268400D03*
X267600Y264500D03*
X271200Y276300D03*
Y283700D03*
X278500Y257000D03*
X266700Y256600D03*
X295100Y258400D03*
X278300Y267700D03*
X294700Y304000D03*
X286800Y307500D03*
X292300Y319200D03*
X290700Y311800D03*
X280100Y304400D03*
X273900Y297900D03*
X283700Y297200D03*
X263737Y303853D03*
X269600Y359300D03*
X270100Y354200D03*
X269900Y366700D03*
X269600Y373400D03*
X264100Y366200D03*
X257000Y370800D03*
X287883Y344998D03*
X291083Y338998D03*
X279183Y344898D03*
X271483Y344998D03*
X260583Y344898D03*
X265683Y339598D03*
X257983Y339698D03*
X282483Y339598D03*
X274783Y339698D03*
X263900Y352500D03*
Y358800D03*
X257000Y362400D03*
X256300Y354900D03*
X269600Y381700D03*
X269700Y388500D03*
X263600Y374100D03*
X264400Y381800D03*
X264600Y388500D03*
X257000Y378700D03*
Y385900D03*
X312900Y25700D03*
X301400Y22200D03*
X307500Y54700D03*
X322200Y66400D03*
X296621Y98575D03*
X319421Y83175D03*
X301500Y133500D03*
X309100Y111900D03*
X319300Y112000D03*
X319000Y125700D03*
X308800Y125800D03*
X317700Y162300D03*
X307954Y148454D03*
X299446Y142054D03*
X295300Y193900D03*
X317345Y182683D03*
X301445D03*
X333100Y250300D03*
X322500Y246200D03*
X304000D03*
X312100Y245700D03*
X300800Y238800D03*
X301600Y254300D03*
X310200Y254100D03*
X320800D03*
X320258Y285814D03*
X315600Y291400D03*
X324600Y291100D03*
X315744Y281300D03*
X324900Y281700D03*
X300600Y260600D03*
X308800Y257900D03*
X301400Y303300D03*
X299900Y313500D03*
X300200Y308800D03*
X326400Y327300D03*
X330200D03*
X314600Y327600D03*
X310400Y327700D03*
X314200Y332600D03*
X326000Y309800D03*
Y313000D03*
X329300Y316200D03*
X326400Y320000D03*
Y323100D03*
X314700Y323000D03*
X314600Y319800D03*
X311700Y316300D03*
X314500Y312700D03*
X314400Y309300D03*
X314300Y306100D03*
X310600Y323000D03*
X304800Y322600D03*
X297600Y322400D03*
X330200Y332000D03*
X330455Y313428D03*
X298200Y305400D03*
X325100Y336800D03*
X330200D03*
X329200Y344500D03*
X332583Y340198D03*
X314200Y337700D03*
X317300Y341400D03*
X324500Y341500D03*
X311683Y344798D03*
X303983Y344898D03*
X295583D03*
X298783Y338898D03*
X307900Y338700D03*
X353800Y25300D03*
X340734Y38166D03*
X372221Y82975D03*
X335321Y83175D03*
X356321Y82975D03*
X341845Y115183D03*
X357745D03*
X346345Y161983D03*
X362245D03*
X369700Y254100D03*
X369500Y246400D03*
X346100Y255400D03*
X336900Y246400D03*
X347200Y246200D03*
X356500Y253600D03*
X356300Y246400D03*
X359300Y281700D03*
X364700Y294200D03*
X354700Y287500D03*
X363500Y287900D03*
X347100Y270000D03*
X338700Y261400D03*
X354600Y281900D03*
X354100Y276100D03*
X363300Y281700D03*
X363500Y275600D03*
X356000Y264500D03*
X359400Y296500D03*
X342050Y309550D03*
X356400Y319300D03*
X356300Y312500D03*
X356200Y305900D03*
X370500Y331600D03*
X365400Y325800D03*
X338300Y332800D03*
X347700Y332300D03*
X354900Y332600D03*
X361800Y331800D03*
X364300Y305100D03*
X363600Y319500D03*
Y312600D03*
X354100Y296100D03*
X343700Y297400D03*
X367083Y344098D03*
X370583Y338898D03*
X336900Y344400D03*
X344383Y344298D03*
X340283Y340098D03*
X347483Y339498D03*
X352083Y344198D03*
X359383D03*
X355183Y339398D03*
X362883Y338998D03*
X384600Y248300D03*
X378900Y285500D03*
X376500Y294200D03*
X383700Y291000D03*
X383900Y278800D03*
X384100Y261300D03*
X380100Y331100D03*
X383583Y343998D03*
X375883Y344098D03*
X387083Y338398D03*
X379383Y338498D03*
G54D45*
X308200Y23300D03*
Y26450D03*
X318300Y306500D03*
Y309650D03*
X322700Y306500D03*
Y309650D03*
X318300Y319700D03*
Y322850D03*
X301000Y297300D03*
Y300450D03*
X331200Y307000D03*
Y310150D03*
X322700Y319700D03*
Y322850D03*
X320700Y327200D03*
Y330350D03*
Y333900D03*
Y337050D03*
X358600Y23100D03*
Y26250D03*
X339500Y315200D03*
Y318350D03*
G54D27*
X-144800Y356300D03*
X-130300Y72500D03*
X-107800Y308000D03*
X-51500Y27400D03*
X115200Y7700D03*
X129500Y140700D03*
X278400Y11500D03*
X379200Y197300D03*
G54D18*
X-310700Y34100D03*
X-300700Y44100D03*
X-310700D03*
Y54100D03*
X-219300Y130200D03*
X-199800Y33100D03*
X-209800D03*
X-209300Y130200D03*
X-134800Y356300D03*
X-120300Y82500D03*
Y72500D03*
X-130300Y82500D03*
X-97800Y318000D03*
Y308000D03*
X-107800Y318000D03*
X-104800Y356300D03*
X-114800D03*
X-124800D03*
X-81500Y17400D03*
X-71500D03*
X-61500D03*
X-81500Y27400D03*
X-71500D03*
X-61500D03*
X-77800Y318000D03*
Y308000D03*
X-87800Y318000D03*
Y308000D03*
X-51500Y17400D03*
X115200Y17700D03*
Y27700D03*
X139500Y120700D03*
X129500D03*
X139500Y130700D03*
X129500D03*
X139500Y140700D03*
X288400Y11500D03*
X328400D03*
X318400D03*
X308400D03*
X298400D03*
X368400D03*
X358400D03*
X348400D03*
X338400D03*
X369200Y217300D03*
Y207300D03*
Y197300D03*
Y237300D03*
Y227300D03*
X379200Y217300D03*
Y207300D03*
Y237300D03*
Y227300D03*
G54D54*
X369232Y118254D03*
Y149750D03*
G54D36*
X-5521Y37374D03*
X-3553D03*
X-1584D03*
X384D03*
X2353D03*
X4321D03*
G54D55*
X367657Y107230D03*
Y168254D03*
G54D28*
X-111727Y178502D03*
Y166298D03*
X-90073Y178502D03*
Y166298D03*
G54D46*
X329862Y107230D03*
G54D19*
X-300400Y168466D03*
X-304140Y176734D03*
X-296660D03*
X146900Y16634D03*
X150640Y8366D03*
X143160D03*
X331100Y45934D03*
X327360Y37666D03*
X334840D03*
X347300Y46434D03*
X351040Y38166D03*
X343560D03*
G54D37*
X7274Y34421D03*
Y32453D03*
Y30484D03*
Y28516D03*
Y26547D03*
G54D47*
X327500Y111954D03*
Y116285D03*
Y120616D03*
Y124946D03*
Y129277D03*
Y133608D03*
Y137939D03*
Y142269D03*
Y146600D03*
G54D38*
X7274Y24579D03*
G54D29*
X-84900Y131294D03*
Y150506D03*
G54D56*
X344600Y317800D03*
Y312091D03*
X349128Y317800D03*
Y312091D03*
G54D57*
G01X-333600Y210300D02*
X-317302D01*
X-316102Y211500D01*
X-310271D01*
G01X-300700Y44100D02*
X-284449Y60351D01*
Y207651D01*
X-288298Y211500D01*
X-294129D01*
G01X285300Y261400D02*
X296400Y250300D01*
X333100D01*
G01X285300Y261400D02*
X289363D01*
X299900Y271937D01*
Y274500D01*
G01X285300Y267800D02*
Y261400D01*
G01D02*
X280700D01*
G01X307000Y313500D02*
Y316063D01*
X304963Y318100D01*
X298000D01*
X294700Y314800D01*
Y304000D01*
G01D02*
X296611Y302089D01*
Y299126D01*
X298437Y297300D01*
X301000D01*
G01X333600Y250500D02*
X374200D01*
X379200Y245500D01*
Y237300D01*
G01X333600Y250500D02*
X329666Y254434D01*
Y265671D01*
X329200Y266137D01*
Y268700D01*
G01X333600Y250500D02*
X359300Y276200D01*
Y281700D01*
G01X333100Y250300D02*
X333300Y250500D01*
X333600D01*
G01X331200Y307000D02*
X331666Y307466D01*
X332926D01*
X333864Y308404D01*
Y320964D01*
X338800Y325900D01*
X356500D01*
X360100Y322300D01*
Y305000D01*
X355564Y300464D01*
X355436D01*
G01X316054Y349700D02*
Y351154D01*
G01D02*
X316100Y351200D01*
G01X307393Y349700D02*
Y351193D01*
G01D02*
X307400Y351200D01*
G01X359400Y296500D02*
X355436Y300464D01*
G01D02*
X338404D01*
X337466Y299526D01*
Y298266D01*
X337000Y297800D01*
G54D48*
X329862Y164710D03*
G54D39*
X120439Y-25900D03*
X150361D03*
G54D58*
G01X-199800Y33100D02*
X-207200Y25700D01*
X-314500D01*
X-333600Y6600D01*
X-360800D01*
X-374150Y19950D01*
Y61850D01*
X-373500Y62500D01*
Y70000D01*
G01X-310700Y44100D02*
X-326500D01*
X-373100Y90700D01*
G01X-335478Y34000D02*
X-331669D01*
X-310700Y34100D01*
G01X-300300Y131234D02*
Y164557D01*
X-300400Y164657D01*
Y168466D01*
G01X-210254Y252400D02*
Y249280D01*
X-213634Y245900D01*
X-248200D01*
X-263100Y260800D01*
Y327800D01*
X-207800Y383100D01*
X107949D01*
X119854Y371195D01*
Y370900D01*
G01X-89500Y347900D02*
X-92150Y350550D01*
X-227950D01*
X-257300Y321200D01*
Y262800D01*
X-246900Y252400D01*
X-216946D01*
G01X-217146Y258900D02*
Y255720D01*
X-216946Y255520D01*
Y252400D01*
G01X-210400Y283000D02*
X-212800Y285400D01*
X-240751D01*
X-246005Y290654D01*
X-246300D01*
G01X-210300Y268200D02*
X-211600Y266900D01*
X-213500D01*
X-217146Y263254D01*
Y258900D01*
G01X-197405Y163654D02*
X-196688Y162937D01*
Y36212D01*
X-199800Y33100D01*
G01X-206980Y100600D02*
Y111680D01*
X-209100Y113800D01*
G01X-197500Y183400D02*
X-205400Y175500D01*
Y168234D01*
X-200820Y163654D01*
X-197700D01*
G01D02*
X-197405D01*
G01X-209400Y182200D02*
Y179748D01*
X-209300Y179648D01*
Y147200D01*
G01X-210254Y252400D02*
Y255580D01*
X-210454Y255780D01*
Y258900D01*
G01X-192646Y251600D02*
Y258200D01*
G01X-210454Y258900D02*
Y262020D01*
X-208974Y263500D01*
X-208200D01*
G01X-178100Y272000D02*
X-179834Y270266D01*
X-180875D01*
X-192646Y258495D01*
G01X-178100Y272000D02*
X-176610D01*
X-174312Y269702D01*
G01X-192646Y258495D02*
X-197751Y263600D01*
G01X-192646Y258200D02*
Y258495D01*
G01X-178100Y272000D02*
Y275300D01*
X-171400Y282000D01*
G01X-210300Y268200D02*
Y273100D01*
G01X-146400Y165800D02*
X-150427D01*
X-150727Y166100D01*
X-154930D01*
G01X-146858Y216868D02*
X-149826Y213900D01*
X-158200D01*
X-164700Y207400D01*
Y203700D01*
X-162854Y201854D01*
X-155100D01*
G01X-154805D02*
X-155100D01*
G01X-149200Y198800D02*
X-151751D01*
X-154805Y201854D01*
G01X-149200Y198800D02*
X-101400D01*
X-91500Y208700D01*
X-66700D01*
G01X-157000Y197200D02*
Y199954D01*
X-155100Y201854D01*
G01X-113671Y211200D02*
X-116325Y208546D01*
X-155100D01*
G01X-146858Y250332D02*
Y216868D01*
G01X-123354Y143100D02*
Y148654D01*
X-124300Y149600D01*
G01X-113671Y211200D02*
X-110846D01*
G01X-129142Y216868D02*
X-122567D01*
X-116899Y211200D01*
X-113671D01*
G01X-129142Y216868D02*
Y218738D01*
G01D02*
Y250332D01*
G01Y218738D02*
X-125003D01*
X-113895Y229846D01*
X-113600D01*
G01X-75200Y88400D02*
Y91054D01*
X-73354Y92900D01*
G01X-80046D02*
Y93195D01*
X-77587Y95654D01*
Y95767D01*
X-75608Y97746D01*
X-75313D01*
X-72854Y100205D01*
Y100500D01*
G01D02*
X-66100D01*
X-64500Y102100D01*
G01X-61400Y112900D02*
X-58454Y115846D01*
Y121500D01*
G01X-67146Y161600D02*
X-72700D01*
X-72900Y161400D01*
G01X-66700Y208700D02*
X-54200D01*
X-47254Y201754D01*
X-36200D01*
G01X-67900Y185454D02*
X-71020D01*
X-75000Y189434D01*
Y190200D01*
X-75700D01*
G01D02*
X-79400D01*
X-83400Y186200D01*
G01X-72200Y342400D02*
X-62600Y332800D01*
X-59100D01*
G01X-24300Y366000D02*
X-62400D01*
X-65600Y362800D01*
G01X-43300Y114049D02*
X-38129Y119220D01*
X-34426D01*
G01X-43300Y110200D02*
Y114049D01*
G01X-39300Y128900D02*
X-37932D01*
X-37897Y128935D01*
X-34553D01*
X-34426Y129062D01*
G01X-31083D02*
X-30223D01*
X-22812Y121651D01*
Y109574D01*
G01X-34426Y129062D02*
X-31083D01*
G01X-23500Y102200D02*
Y100554D01*
X-24854Y99200D01*
G01X-23500Y102200D02*
Y104683D01*
X-22812Y105371D01*
Y109574D01*
G01X-31083Y129062D02*
X-23300Y136845D01*
Y147730D01*
X-30223Y154653D01*
X-34426D01*
G01X-28000Y103000D02*
Y108323D01*
X-26749Y109574D01*
G01X-24780Y193826D02*
Y189623D01*
X-21657Y186500D01*
X-4281D01*
X-1158Y189623D01*
G01X-35905Y201754D02*
X-33080D01*
X-32626Y201300D01*
X-27000D01*
X-24780Y199080D01*
Y193826D01*
G01X-35905Y201754D02*
X-36200D01*
G01X-26749Y193826D02*
Y196188D01*
X-28224Y197663D01*
X-31814D01*
X-35905Y201754D01*
G01X11600Y258800D02*
X1200Y269200D01*
X-22341D01*
X-28746Y262795D01*
Y262500D01*
G01X4154Y52400D02*
Y91172D01*
X3246Y92080D01*
Y94905D01*
G01X2100Y48000D02*
Y50346D01*
X4154Y52400D01*
G01X-8474Y34421D02*
Y36262D01*
X-13012Y40800D01*
G01X0Y99100D02*
Y98446D01*
X3246Y95200D01*
G01Y94905D02*
Y95200D01*
G01D02*
Y104904D01*
X2779Y105371D01*
Y109574D01*
G01X16900Y171600D02*
Y169148D01*
X25490Y160558D01*
X49826D01*
G01X16946Y186854D02*
Y188902D01*
X18399Y190355D01*
Y193698D01*
X18527Y193826D01*
G01X8446Y217900D02*
Y214892D01*
X4954Y211400D01*
G01X-1158Y193826D02*
Y204993D01*
X4954Y211105D01*
Y211400D01*
G01X-1158Y189623D02*
X1611Y186854D01*
X16946D01*
G01X-1158Y193826D02*
Y189623D01*
G01X1754Y217900D02*
Y212054D01*
X-600Y209700D01*
G01X-14938Y193826D02*
Y201300D01*
G01X12300Y217700D02*
X8646D01*
X8446Y217900D01*
G01X5454Y224200D02*
Y221600D01*
X1754Y217900D01*
G01X13700Y262654D02*
X23080D01*
X24780Y260954D01*
X27900D01*
G01X11600Y258800D02*
Y260554D01*
X13700Y262654D01*
G01X13600Y308000D02*
X11400Y310200D01*
Y333800D01*
X16280Y338680D01*
X19520D01*
G01X49200Y87000D02*
X300800D01*
X311900Y75900D01*
X356400D01*
X368700Y63600D01*
Y27690D01*
G01X299500Y45452D02*
X317962Y26990D01*
X318100D01*
G01X22464Y109574D02*
Y99602D01*
X24646Y97420D01*
Y94300D01*
G01X42600Y96300D02*
X44754D01*
X45954Y95100D01*
G01X42149Y109574D02*
X54155D01*
X55429Y108300D01*
X58254D01*
G01D02*
Y111420D01*
X59834Y113000D01*
X64700D01*
G01X47200Y103500D02*
X42700D01*
X40180Y106020D01*
Y109574D01*
G01X49826Y131031D02*
X88369D01*
X113400Y106000D01*
X179300D01*
G01X173600Y109600D02*
X175300D01*
G01X57800Y160600D02*
X55132D01*
X55090Y160558D01*
X49826D01*
G01X64005Y145746D02*
X57164Y138905D01*
X49826D01*
G01X58654Y197900D02*
Y190108D01*
X54695Y186149D01*
X49826D01*
G01Y182212D02*
X60238D01*
X62380Y184354D01*
X65500D01*
G01X28195Y260954D02*
X43375D01*
X43929Y260400D01*
X46754D01*
G01X28195Y260954D02*
X27900D01*
G01X33300Y269500D02*
Y266059D01*
X28195Y260954D01*
G01X47200Y323200D02*
X56000D01*
X64500Y331700D01*
Y331900D01*
X66700Y334100D01*
G01X91746Y94600D02*
X95100D01*
X95800Y95300D01*
G01X95200Y105300D02*
X92646D01*
X92346Y105600D01*
G01X90600Y113000D02*
X92346Y111254D01*
Y105600D01*
G01X85654D02*
X82400D01*
X81200Y104400D01*
G01X75700Y146546D02*
X123654D01*
X129500Y140700D01*
G01X64300Y145746D02*
X67420D01*
X68220Y146546D01*
X75700D01*
G01X64300Y145746D02*
X64005D01*
G01X63600Y153300D02*
Y150848D01*
X64500Y149948D01*
Y146241D01*
X64005Y145746D01*
G01X93354Y371400D02*
X89800D01*
X86700Y368300D01*
G01X93654Y378800D02*
X90829D01*
X87746Y375717D01*
Y375646D01*
X80500Y368400D01*
G01X115200Y7700D02*
Y-20661D01*
X120439Y-25900D01*
G01X137300Y331100D02*
Y294800D01*
X141400Y290700D01*
G01X126746Y378400D02*
Y374220D01*
X126546Y374020D01*
Y370900D01*
G01X100346Y378800D02*
Y374820D01*
X100046Y374520D01*
Y371400D01*
G01X119854Y370900D02*
Y365746D01*
G01X161400Y70700D02*
X155200Y64500D01*
Y12926D01*
X153738Y11464D01*
X152360D01*
X150640Y9744D01*
Y8366D01*
G01X176368Y31642D02*
X209832D01*
G01X176368Y49358D02*
X209832D01*
G01X164600Y120700D02*
X167500Y123600D01*
Y222200D01*
X182900Y237600D01*
G01X175654Y250800D02*
Y247420D01*
X175354Y247120D01*
Y244000D01*
G01X175654Y250800D02*
X172600D01*
X171600Y251800D01*
G01X148100Y296746D02*
X148395D01*
X167949Y316300D01*
X196074D01*
X203254Y309120D01*
Y306000D01*
G01X151100Y324900D02*
X148100Y321900D01*
Y296746D01*
G01X247800Y31200D02*
X245467D01*
X245116Y31551D01*
X235449D01*
X235358Y31642D01*
X209832D01*
G01Y49358D02*
X220175D01*
X221117Y50300D01*
X223450D01*
G01X196346Y191100D02*
Y194980D01*
X197142Y195776D01*
Y200668D01*
G01X182046Y244000D02*
Y247380D01*
X182346Y247680D01*
Y250800D01*
G01D02*
X184700D01*
G01X182900Y237600D02*
Y243146D01*
X182046Y244000D01*
G01X212064Y273012D02*
X214988D01*
X217539Y270461D01*
Y264539D01*
X214600Y261600D01*
X202559D01*
X198554Y257595D01*
Y257300D01*
G01X184600Y275100D02*
X182700Y273200D01*
Y269100D01*
G01X203154Y299700D02*
Y305900D01*
X203254Y306000D01*
G01X247800Y31200D02*
Y23500D01*
X266900Y4400D01*
X291300D01*
X298400Y11500D01*
G01X250950Y31200D02*
X280313D01*
X282400Y29113D01*
Y26800D01*
G01X226620Y50300D02*
X226600D01*
G01X232300Y41100D02*
Y44620D01*
G01X226620Y50300D02*
X242763D01*
G01X232300Y44620D02*
X226620Y50300D01*
G01X251150Y41913D02*
Y39600D01*
G01X242763Y50300D02*
X251150Y41913D01*
G01X247800Y31200D02*
Y37087D01*
X248000Y37287D01*
Y39600D01*
G01X292700Y34100D02*
Y36413D01*
X294867Y38580D01*
X298403D01*
X308200Y28783D01*
Y26450D01*
G01X293800Y109154D02*
X276846D01*
X262400Y123600D01*
Y137144D01*
X268702Y143446D01*
X283800D01*
G01X327360Y37666D02*
Y16940D01*
X328400Y15900D01*
Y11500D01*
G01X312900Y25700D02*
X309857D01*
X309823Y25734D01*
X308916D01*
X308200Y26450D01*
G01X331100Y49393D02*
Y45934D01*
G01X330700Y50143D02*
X331100Y49743D01*
Y49393D01*
G01X330700Y53100D02*
Y50143D01*
G01X307500Y54700D02*
X310205Y51995D01*
X310600D01*
X324929Y37666D01*
X327360D01*
G01X344300Y66046D02*
X331420D01*
X331220Y66246D01*
X328100D01*
G01X322200Y66400D02*
X324826D01*
X324980Y66246D01*
X328100D01*
G01X301500Y133500D02*
X305636D01*
X305744Y133608D01*
X327500D01*
G01X311795Y155146D02*
X311500D01*
G01X317700Y162300D02*
X315966Y160566D01*
Y159317D01*
X311795Y155146D01*
G01X358400Y15550D02*
Y11500D01*
G01X358600Y16100D02*
X358400Y15900D01*
Y15550D01*
G01X358600Y23100D02*
Y16100D01*
G01X368400Y15550D02*
Y21238D01*
X368700Y21538D01*
G01X368400Y11500D02*
Y15550D01*
G01X343560Y38166D02*
Y16660D01*
X338400Y11500D01*
G01X358600Y26250D02*
Y26270D01*
X363100Y30770D01*
Y60300D01*
X357354Y66046D01*
X344300D01*
G01X358600Y26250D02*
X354750D01*
X353800Y25300D01*
G01X368700Y21538D02*
Y23910D01*
G01X344150Y55263D02*
Y53300D01*
G01X344300Y55763D02*
X344150Y55613D01*
Y55263D01*
G01X344300Y59354D02*
Y55763D01*
G01X347300Y53300D02*
Y46434D01*
G01X343560Y38166D02*
X340734D01*
G54D49*
X311400Y274200D03*
X313369D03*
X315337D03*
X317306D03*
X319274D03*
X321243D03*
X323211D03*
X325180D03*
X327148D03*
X329117D03*
Y297428D03*
X327148D03*
X325180D03*
X323211D03*
X321243D03*
X319274D03*
X317306D03*
X315337D03*
X313369D03*
X311400D03*
G54D59*
G01X318300Y306500D02*
Y303874D01*
X319274Y302900D01*
Y297428D01*
G01X322700Y306500D02*
Y304326D01*
X321243Y302869D01*
Y297428D01*
G01X318300Y322850D02*
Y324780D01*
X320700Y327180D01*
Y327200D01*
G01X322700Y322850D02*
Y325300D01*
X320800Y327200D01*
X320700D01*
G01X322700Y316200D02*
Y309650D01*
G01Y319700D02*
Y316200D01*
G01X326950Y332000D02*
X330200D01*
G01X318300Y316200D02*
Y309650D01*
G01Y319700D02*
Y316200D01*
G01X320700Y332200D02*
X323600D01*
X323800Y332000D01*
G01X320700Y333900D02*
Y332200D01*
G01D02*
Y330350D01*
G01X320650Y347403D02*
X320700Y347453D01*
Y337050D01*
G01X320650Y347400D02*
Y347403D01*
G01X320700Y349700D02*
X320650Y349650D01*
Y347403D01*
M02*
